<svg width="222" height="48" viewBox="0 0 222 48" fill="none" xmlns="http://www.w3.org/2000/svg">
<path d="M0.428095 28.1676L3.21637 27.7471V3.04298L0.0908203 2.65434L0.259343 0H19.7275L19.2553 7.47539L15.3696 7.37796L15.1343 2.68645H9.10943V13.7945H11.7337L12.3412 11.2376L15.0691 11.3016V18.9721H12.3745L11.7319 16.3511H9.1092V28.1357H15.1676L15.7418 23.0237L19.8295 23.1532L20.1332 30.9517H0.294462L0.428095 28.1676Z" fill="#E5E7EB"/>
<path d="M21.918 30.9515L22.0198 28.6537L24.2083 28.2331V12.6575L21.6494 12.4305V10.1008L28.0512 9.22763L28.5331 10.5548V11.428C30.087 9.87385 31.9448 8.96875 34.3099 8.96875C37.79 8.96875 40.3571 10.9756 40.3571 14.989V28.2346L42.6792 28.6552L42.544 30.953H34.9938V16.1042C34.9938 13.9679 34.1746 12.7702 32.1802 12.7702C31.5043 12.7702 31.0222 12.8998 30.4831 13.0612C30.1442 13.3203 29.8405 13.7088 29.5702 14.0653V28.2329L31.8671 28.6534L31.6986 30.9512C31.6983 30.9515 21.918 30.9515 21.918 30.9515Z" fill="#E5E7EB"/>
<path d="M144.055 30.9515L144.157 28.6537L146.345 28.2331V12.6575L143.786 12.4305V10.1008L150.188 9.22763L150.668 10.5548V11.428C152.222 9.87385 154.08 8.96875 156.445 8.96875C159.925 8.96875 162.492 10.9756 162.492 14.989V28.2346L164.814 28.6552L164.679 30.953H157.129V16.1042C157.129 13.9679 156.308 12.7702 154.315 12.7702C153.641 12.7702 153.159 12.8998 152.618 13.0612C152.281 13.3203 151.976 13.7088 151.707 14.0653V28.2329L154.004 28.6534L153.835 30.9512C153.835 30.9515 144.055 30.9515 144.055 30.9515Z" fill="#E5E7EB"/>
<path d="M54.7468 30.5214C53.8688 30.8779 52.2814 31.2651 50.2202 31.2651C47.5179 31.2651 45.0016 30.1009 45.0016 26.3129V12.6465L42.4346 12.2578L42.5363 9.53948L45.4422 9.40993L46.6923 5.26698L50.3919 5.104V9.53817H54.4127L54.1343 12.2565L50.4632 12.6467V26.281C50.4632 27.4131 51.1059 28.1583 52.3209 28.1583H54.5078L54.7468 30.5214Z" fill="#E5E7EB"/>
<path d="M206.069 30.9515L206.17 28.7177L208.232 28.2651V12.6591L205.8 12.4321V10.1009L212.412 9.2277L212.851 10.7484V11.2345C214.575 10.0048 216.938 9.1958 219.744 9.1958L220.724 10.005L220.048 15.8638L216.399 15.7342L216.029 12.5953C215.184 12.7249 214.373 12.9518 213.697 13.4045V28.267L215.995 28.7197L215.827 30.9535H206.069V30.9515H206.069Z" fill="#E5E7EB"/>
<path d="M110.84 30.9515L110.942 28.7177L113.003 28.2651V12.6591L110.569 12.4321V10.1009L117.181 9.2277L117.62 10.7484V11.2345C119.344 10.0048 121.708 9.1958 124.514 9.1958L125.493 10.005L124.817 15.8638L121.169 15.7342L120.798 12.5953C119.953 12.7249 119.142 12.9518 118.466 13.4045V28.267L120.765 28.7197L120.596 30.9535H110.84V30.9515V30.9515Z" fill="#E5E7EB"/>
<path d="M56.3593 30.9515L56.461 28.7177L58.5223 28.2651V12.6591L56.0889 12.4321V10.1009L62.7023 9.2277L63.1413 10.7484V11.2345C64.8639 10.0048 67.229 9.1958 70.0332 9.1958L71.0129 10.005L70.337 15.8638L66.6883 15.7342L66.3161 12.5953C65.4714 12.7249 64.6603 12.9518 63.9844 13.4045V28.267L66.2826 28.7197L66.1141 30.9535H56.3593V30.9515V30.9515Z" fill="#E5E7EB"/>
<path d="M77.3201 21.4599C77.3201 25.1808 78.9997 28.0623 82.3669 28.0623C84.0896 28.0623 85.4749 27.7058 87.0972 26.9942L88.0103 29.0329C86.3545 30.2946 83.9466 31.2652 80.9054 31.2652C75.0187 31.2652 71.6182 26.3786 71.6182 20.0993C71.6182 14.7587 74.0676 8.91504 80.8418 8.91504C86.7253 8.91504 88.9583 14.1444 88.9583 19.9697L88.3841 21.3609L77.3201 21.4599ZM77.2182 18.9672L84.0177 18.6762C83.8825 16.0859 83.3227 11.958 80.6616 11.958C80.0302 11.958 79.5752 12.0555 78.7641 12.476C77.6699 14.2558 77.2041 17.4723 77.2182 18.9672Z" fill="#E5E7EB"/>
<path d="M171.259 21.4599C171.259 25.1808 172.939 28.0623 176.306 28.0623C178.03 28.0623 179.414 27.7058 181.036 26.9942L181.948 29.0329C180.294 30.2946 177.884 31.2652 174.843 31.2652C168.956 31.2652 165.556 26.3786 165.556 20.0993C165.556 14.7587 168.003 8.91504 174.779 8.91504C180.663 8.91504 182.896 14.1444 182.896 19.9697L182.322 21.3609L171.259 21.4599ZM171.158 18.9672L177.957 18.6762C177.822 16.0859 177.262 11.958 174.601 11.958C173.97 11.958 173.515 12.0555 172.703 12.476C171.609 14.2558 171.145 17.4723 171.158 18.9672Z" fill="#E5E7EB"/>
<path d="M131.792 21.4599C131.792 25.1808 133.472 28.0623 136.839 28.0623C138.563 28.0623 139.947 27.7058 141.57 26.9942L142.481 29.0329C140.827 30.2946 138.417 31.2652 135.376 31.2652C129.489 31.2652 126.089 26.3786 126.089 20.0993C126.089 14.7587 128.537 8.91504 135.311 8.91504C141.194 8.91504 143.427 14.1444 143.427 19.9697L142.853 21.3609L131.792 21.4599ZM131.69 18.9672L138.49 18.6762C138.355 16.0859 137.795 11.958 135.134 11.958C134.502 11.958 134.048 12.0555 133.236 12.476C132.142 14.2558 131.678 17.4723 131.69 18.9672Z" fill="#E5E7EB"/>
<path d="M198.183 30.9514L197.609 29.1062C196.121 30.4653 194.669 31.2745 192.406 31.2745C188.926 31.2745 185.81 29.5923 185.81 24.9952V12.1015L183.251 11.8745V9.83577L190.598 9.02659L191.172 10.8717V24.3492C191.172 26.7125 192.166 27.9421 194.162 27.9421C194.73 27.9421 195.447 27.8765 196.088 27.6189C196.459 27.2624 196.798 26.8419 197.101 26.4213V12.1012L194.466 11.8743V9.83556L201.889 9.02637L202.463 10.8715V28.2328L204.752 28.6534L204.481 30.9512C204.481 30.9514 198.183 30.9514 198.183 30.9514Z" fill="#E5E7EB"/>
<path d="M99.9585 28.1675C98.7768 28.1675 97.8637 27.9724 97.121 27.5855V13.8948C97.4248 13.4423 97.7969 13.0216 98.1691 12.6331C98.845 12.4062 99.4812 12.31 100.191 12.31C103.229 12.31 103.731 15.2584 103.731 20.5352C103.731 25.6169 102.942 27.0157 102.731 27.587C101.918 27.9739 101.04 28.1675 99.9585 28.1675ZM109.02 19.5783C109.02 13.043 106.993 8.93652 101.966 8.93652C98.6224 8.93652 97.0334 10.7847 96.3783 11.5649V10.8533L95.8041 9.00818L89.2002 9.88291V12.1136L91.7593 12.4367V38.8353L89.5961 39.2558L89.4944 41.4577H99.2491L99.4176 39.2558L97.1208 38.8353V30.4639C98.0339 30.95 99.3412 31.2731 100.761 31.2731C108.945 31.276 109.02 23.2566 109.02 19.5783Z" fill="#E5E7EB"/>
<path d="M219.326 27.9229C220.437 27.9229 221.147 28.5538 221.147 29.4405C221.147 30.3349 220.418 30.9582 219.326 30.9582C218.25 30.9582 217.503 30.3349 217.503 29.4405C217.503 28.5446 218.241 27.9229 219.326 27.9229ZM219.326 30.4828C220.083 30.4828 220.577 30.0546 220.577 29.439C220.577 28.8234 220.083 28.3952 219.326 28.3952C218.578 28.3952 218.082 28.8157 218.082 29.439C218.082 30.0546 218.578 30.4828 219.326 30.4828ZM218.532 30.1247L218.541 29.9144L218.729 29.8748V28.9407L218.514 28.9177L218.524 28.7074H219.392C219.766 28.7074 220.113 28.8231 220.103 29.1355C220.094 29.3534 219.963 29.4783 219.785 29.5484C219.879 29.6887 220.01 29.8364 220.103 29.8912L220.234 29.9141L220.215 30.1245H219.776C219.626 30.0072 219.486 29.8519 219.356 29.6035H219.216V29.8761L219.402 29.9157L219.384 30.1261H218.532V30.1247H218.532ZM219.213 28.9651V29.3704H219.372C219.587 29.3704 219.634 29.2926 219.634 29.1753C219.634 28.997 219.494 28.9649 219.316 28.9649H219.213V28.9651Z" fill="#E5E7EB"/>
<path d="M161.066 36.9961H168.106V38.1789H162.394V41.5423H167.727V42.7251H162.394V46.5449H168.391V47.7266H161.065V36.9961H161.066Z" fill="#E5E7EB"/>
<path d="M178.846 43.6348C178.846 44.2207 178.77 44.777 178.617 45.3024C178.464 45.8278 178.222 46.2903 177.89 46.6887C177.557 47.0883 177.122 47.4066 176.584 47.6434C176.046 47.8815 175.392 48 174.622 48C173.852 48 173.198 47.8815 172.661 47.6434C172.123 47.4066 171.688 47.0883 171.355 46.6887C171.023 46.2903 170.78 45.8278 170.628 45.3024C170.475 44.777 170.397 44.2207 170.397 43.6348V36.9966H171.727V43.4535C171.727 43.8876 171.775 44.307 171.869 44.7116C171.964 45.1149 172.123 45.4739 172.344 45.7871C172.565 46.1004 172.86 46.3508 173.23 46.5371C173.599 46.7246 174.063 46.8183 174.621 46.8183C175.18 46.8183 175.645 46.7246 176.015 46.5371C176.383 46.3508 176.679 46.1004 176.9 45.7871C177.122 45.4739 177.28 45.1149 177.374 44.7116C177.47 44.307 177.517 43.8878 177.517 43.4535V36.9966H178.846V43.6348H178.846Z" fill="#E5E7EB"/>
<path d="M181.587 36.9966H184.45C184.988 36.9966 185.524 37.0274 186.057 37.0879C186.589 37.1484 187.066 37.2804 187.489 37.4814C187.91 37.6837 188.254 37.9797 188.516 38.3681C188.78 38.7578 188.913 39.2856 188.913 39.9517C188.913 40.74 188.664 41.3763 188.168 41.8622C187.673 42.347 186.988 42.6552 186.112 42.7861L189.292 47.7271H187.662L184.625 42.9069H182.917V47.7271H181.587V36.9966V36.9966ZM182.917 41.7255H184.103C184.472 41.7255 184.855 41.7156 185.25 41.6946C185.645 41.675 186.01 41.6094 186.342 41.4985C186.674 41.3875 186.948 41.2123 187.165 40.9755C187.381 40.7373 187.489 40.397 187.489 39.9517C187.489 39.5681 187.409 39.2599 187.251 39.0279C187.094 38.7948 186.885 38.6158 186.627 38.4889C186.368 38.3631 186.078 38.2805 185.756 38.2399C185.434 38.1992 185.11 38.1793 184.784 38.1793H182.917V41.7255H182.917Z" fill="#E5E7EB"/>
<path d="M196.464 47.9994C195.61 47.9994 194.826 47.8576 194.114 47.5752C193.402 47.2927 192.785 46.9006 192.264 46.4009C191.741 45.9002 191.335 45.3045 191.044 44.6126C190.755 43.9207 190.61 43.1707 190.61 42.3615C190.61 41.5536 190.754 40.8026 191.044 40.1105C191.335 39.4186 191.741 38.8228 192.264 38.3221C192.785 37.8225 193.402 37.4304 194.114 37.1479C194.826 36.8654 195.61 36.7236 196.464 36.7236C197.318 36.7236 198.101 36.8654 198.813 37.1479C199.525 37.4304 200.142 37.8225 200.665 38.3221C201.186 38.8228 201.592 39.4186 201.883 40.1105C202.172 40.8024 202.318 41.5536 202.318 42.3615C202.318 43.1707 202.172 43.9205 201.883 44.6126C201.592 45.3045 201.186 45.9002 200.665 46.4009C200.142 46.9006 199.525 47.2927 198.813 47.5752C198.101 47.8576 197.318 47.9994 196.464 47.9994ZM196.464 46.818C197.118 46.818 197.716 46.702 198.26 46.4689C198.803 46.2371 199.269 45.9188 199.659 45.5142C200.049 45.1096 200.353 44.6373 200.569 44.097C200.786 43.5567 200.894 42.9783 200.894 42.3615C200.894 41.7448 200.786 41.1663 200.569 40.6261C200.353 40.0858 200.049 39.6135 199.659 39.2089C199.269 38.8056 198.803 38.4873 198.26 38.2542C197.716 38.0224 197.118 37.9051 196.464 37.9051C195.809 37.9051 195.211 38.0222 194.667 38.2542C194.124 38.4873 193.658 38.8056 193.268 39.2089C192.878 39.6135 192.574 40.0858 192.358 40.6261C192.141 41.1663 192.033 41.7448 192.033 42.3615C192.033 42.9783 192.141 43.5567 192.358 44.097C192.574 44.6373 192.878 45.1096 193.268 45.5142C193.658 45.9188 194.124 46.2369 194.667 46.4689C195.211 46.702 195.809 46.818 196.464 46.818Z" fill="#E5E7EB"/>
<path d="M204.444 36.9966H207.767C208.284 36.9966 208.777 37.0446 209.247 37.141C209.715 37.2371 210.132 37.3988 210.497 37.6258C210.86 37.8527 211.149 38.1562 211.366 38.5348C211.582 38.9147 211.69 39.3822 211.69 39.9371C211.69 40.523 211.575 41.0078 211.343 41.3925C211.111 41.7761 210.812 42.0796 210.449 42.3015C210.085 42.5235 209.687 42.6801 209.255 42.7715C208.822 42.8628 208.41 42.9071 208.02 42.9071H205.775V47.7273H204.445V36.9966H204.444ZM205.774 41.7255H208.02C208.685 41.7255 209.225 41.581 209.642 41.2938C210.058 41.0052 210.266 40.5586 210.266 39.9517C210.266 39.3462 210.058 38.8983 209.642 38.611C209.225 38.3224 208.685 38.1793 208.02 38.1793H205.774V41.7255Z" fill="#E5E7EB"/>
<path d="M213.829 36.9966H220.87V38.1793H215.159V41.5428H220.491V42.7256H215.159V46.5454H221.155V47.7271H213.829V36.9966Z" fill="#E5E7EB"/>
</svg>
