<svg width="346" height="87" viewBox="0 0 346 87" fill="none" xmlns="http://www.w3.org/2000/svg">
<path fill-rule="evenodd" clip-rule="evenodd" d="M32.9583 22C15.2851 22 0.958252 36.3269 0.958252 54C0.958252 71.6731 15.2851 86 32.9583 86C50.6314 86 64.9583 71.6731 64.9583 54C64.9583 36.3269 50.6314 22 32.9583 22ZM11.4583 58.5L21.9583 68.5L32.4583 57.5L42.9583 68.5L53.4583 58.5L32.4583 37L11.4583 58.5Z" fill="url(#paint0_linear_7957_38774)"/>
<path d="M21.9583 68.5L21.6134 68.8621L21.9751 69.2065L22.3199 68.8452L21.9583 68.5ZM11.4583 58.5L11.1006 58.1506L10.7468 58.5129L11.1134 58.8621L11.4583 58.5ZM32.4583 57.5L32.8199 57.1548L32.4583 56.7759L32.0966 57.1548L32.4583 57.5ZM42.9583 68.5L42.5966 68.8452L42.9414 69.2065L43.3031 68.8621L42.9583 68.5ZM53.4583 58.5L53.8031 58.8621L54.1697 58.5129L53.8159 58.1506L53.4583 58.5ZM32.4583 37L32.8159 36.6506L32.4583 36.2844L32.1006 36.6506L32.4583 37ZM1.45825 54C1.45825 36.603 15.5613 22.5 32.9583 22.5V21.5C15.009 21.5 0.458252 36.0507 0.458252 54H1.45825ZM32.9583 85.5C15.5613 85.5 1.45825 71.397 1.45825 54H0.458252C0.458252 71.9493 15.009 86.5 32.9583 86.5V85.5ZM64.4583 54C64.4583 71.397 50.3552 85.5 32.9583 85.5V86.5C50.9075 86.5 65.4583 71.9493 65.4583 54H64.4583ZM32.9583 22.5C50.3552 22.5 64.4583 36.603 64.4583 54H65.4583C65.4583 36.0507 50.9075 21.5 32.9583 21.5V22.5ZM22.3031 68.1379L11.8031 58.1379L11.1134 58.8621L21.6134 68.8621L22.3031 68.1379ZM32.0966 57.1548L21.5966 68.1548L22.3199 68.8452L32.8199 57.8452L32.0966 57.1548ZM43.3199 68.1548L32.8199 57.1548L32.0966 57.8452L42.5966 68.8452L43.3199 68.1548ZM53.1134 58.1379L42.6134 68.1379L43.3031 68.8621L53.8031 58.8621L53.1134 58.1379ZM32.1006 37.3494L53.1006 58.8494L53.8159 58.1506L32.8159 36.6506L32.1006 37.3494ZM11.8159 58.8494L32.8159 37.3494L32.1006 36.6506L11.1006 58.1506L11.8159 58.8494Z" fill="#2E1E00"/>
<path fill-rule="evenodd" clip-rule="evenodd" d="M88.9583 1C71.2851 1 56.9583 15.3269 56.9583 33C56.9583 50.6731 71.2851 65 88.9583 65C106.631 65 120.958 50.6731 120.958 33C120.958 15.3269 106.631 1 88.9583 1ZM109.458 34.1943C109.458 36.6936 101.166 38.7256 90.8556 38.7766C90.7235 38.7774 90.591 38.7778 90.4583 38.7778C90.3255 38.7778 90.193 38.7774 90.0609 38.7766C79.751 38.7256 71.4583 36.6936 71.4583 34.1943C71.4583 31.9551 78.115 30.0909 86.9153 29.6905V36H93.9153V29.6866C102.758 30.0788 109.458 31.9478 109.458 34.1943ZM93.9153 29.0862C103.036 29.5464 109.958 31.7952 109.958 34.5C109.958 37.2048 103.036 39.4536 93.9153 39.9138V52H86.9153V39.9094C77.8373 39.4395 70.9583 37.1963 70.9583 34.5C70.9583 31.8037 77.8373 29.5605 86.9153 29.0906V25H75.9583V18H104.958V25H93.9153V29.0862Z" fill="#50AF95"/>
<path d="M90.8556 38.7766L90.8531 38.2767H90.8527L90.8556 38.7766ZM90.0609 38.7766L90.0638 38.2767H90.0634L90.0609 38.7766ZM86.9153 29.6905H87.4153V29.1672L86.8926 29.191L86.9153 29.6905ZM86.9153 36H86.4153V36.5H86.9153V36ZM93.9153 36V36.5H94.4153V36H93.9153ZM93.9153 29.6866L93.9374 29.1871L93.4153 29.164V29.6866H93.9153ZM93.9153 29.0862H93.4153V29.5616L93.8901 29.5855L93.9153 29.0862ZM93.9153 39.9138L93.8901 39.4145L93.4153 39.4384V39.9138H93.9153ZM93.9153 52V52.5H94.4153V52H93.9153ZM86.9153 52H86.4153V52.5H86.9153V52ZM86.9153 39.9094H87.4153V39.4347L86.9411 39.4101L86.9153 39.9094ZM86.9153 29.0906L86.9411 29.5899L87.4153 29.5653V29.0906H86.9153ZM86.9153 25H87.4153V24.5H86.9153V25ZM75.9583 25H75.4583V25.5H75.9583V25ZM75.9583 18V17.5H75.4583V18H75.9583ZM104.958 18H105.458V17.5H104.958V18ZM104.958 25V25.5H105.458V25H104.958ZM93.9153 25V24.5H93.4153V25H93.9153ZM57.4583 33C57.4583 15.603 71.5613 1.5 88.9583 1.5V0.5C71.009 0.5 56.4583 15.0507 56.4583 33H57.4583ZM88.9583 64.5C71.5613 64.5 57.4583 50.397 57.4583 33H56.4583C56.4583 50.9493 71.009 65.5 88.9583 65.5V64.5ZM120.458 33C120.458 50.397 106.355 64.5 88.9583 64.5V65.5C106.908 65.5 121.458 50.9493 121.458 33H120.458ZM88.9583 1.5C106.355 1.5 120.458 15.603 120.458 33H121.458C121.458 15.0507 106.908 0.5 88.9583 0.5V1.5ZM90.8581 39.2766C96.0401 39.251 100.732 38.7279 104.143 37.8891C105.844 37.4707 107.254 36.967 108.252 36.3903C109.212 35.8349 109.958 35.1106 109.958 34.1943H108.958C108.958 34.5276 108.668 34.9945 107.751 35.5247C106.871 36.0335 105.564 36.5097 103.904 36.918C100.59 37.7329 95.981 38.2513 90.8531 38.2767L90.8581 39.2766ZM90.4583 39.2778C90.592 39.2778 90.7254 39.2774 90.8584 39.2766L90.8527 38.2767C90.7216 38.2774 90.5901 38.2778 90.4583 38.2778V39.2778ZM90.0581 39.2766C90.1911 39.2774 90.3245 39.2778 90.4583 39.2778V38.2778C90.3264 38.2778 90.1949 38.2774 90.0638 38.2767L90.0581 39.2766ZM70.9583 34.1943C70.9583 35.1106 71.7044 35.8349 72.6648 36.3903C73.662 36.967 75.0726 37.4707 76.7739 37.8891C80.1845 38.7279 84.8764 39.251 90.0585 39.2766L90.0634 38.2767C84.9355 38.2513 80.326 37.7329 77.0128 36.918C75.3522 36.5097 74.0452 36.0335 73.1654 35.5247C72.2487 34.9945 71.9583 34.5276 71.9583 34.1943H70.9583ZM86.8926 29.191C82.4686 29.3923 78.5625 29.962 75.7483 30.7724C74.3448 31.1765 73.1841 31.6486 72.363 32.1832C71.5646 32.7031 70.9583 33.37 70.9583 34.1943H71.9583C71.9583 33.899 72.184 33.4931 72.9087 33.0212C73.6108 32.564 74.6643 32.1251 76.025 31.7333C78.7393 30.9517 82.5617 30.3891 86.938 30.19L86.8926 29.191ZM86.4153 29.6905V36H87.4153V29.6905H86.4153ZM86.9153 36.5H93.9153V35.5H86.9153V36.5ZM94.4153 36V29.6866H93.4153V36H94.4153ZM109.958 34.1943C109.958 33.3674 109.348 32.6989 108.545 32.1779C107.72 31.6421 106.552 31.1691 105.141 30.7644C102.31 29.953 98.3828 29.3843 93.9374 29.1871L93.8931 30.1862C98.2906 30.3812 102.135 30.9429 104.865 31.7257C106.234 32.1181 107.294 32.5581 108.001 33.0168C108.731 33.4904 108.958 33.8979 108.958 34.1943H109.958ZM110.458 34.5C110.458 33.5939 109.879 32.8165 109.036 32.1789C108.183 31.5344 106.976 30.9644 105.515 30.4771C102.588 29.5004 98.5291 28.8183 93.9405 28.5868L93.8901 29.5855C98.4219 29.8142 102.385 30.4867 105.199 31.4257C106.609 31.8961 107.702 32.4242 108.433 32.9766C109.172 33.5357 109.458 34.0537 109.458 34.5H110.458ZM93.9405 40.4132C98.5291 40.1817 102.588 39.4996 105.515 38.5229C106.976 38.0356 108.183 37.4656 109.036 36.8211C109.879 36.1835 110.458 35.4061 110.458 34.5H109.458C109.458 34.9463 109.172 35.4643 108.433 36.0234C107.702 36.5758 106.609 37.1039 105.199 37.5743C102.385 38.5133 98.4219 39.1858 93.8901 39.4145L93.9405 40.4132ZM94.4153 52V39.9138H93.4153V52H94.4153ZM86.9153 52.5H93.9153V51.5H86.9153V52.5ZM86.4153 39.9094V52H87.4153V39.9094H86.4153ZM70.4583 34.5C70.4583 35.4033 71.0339 36.1787 71.8728 36.815C72.7204 37.458 73.921 38.0269 75.3736 38.5137C78.2847 39.4892 82.3221 40.1723 86.8894 40.4088L86.9411 39.4101C82.4304 39.1766 78.4893 38.5031 75.6914 37.5655C74.2895 37.0957 73.203 36.5689 72.4771 36.0183C71.7425 35.461 71.4583 34.9449 71.4583 34.5H70.4583ZM86.8894 28.5912C82.3221 28.8277 78.2847 29.5108 75.3736 30.4863C73.921 30.9731 72.7204 31.542 71.8728 32.185C71.0339 32.8213 70.4583 33.5967 70.4583 34.5H71.4583C71.4583 34.0551 71.7425 33.539 72.4771 32.9817C73.203 32.4311 74.2895 31.9043 75.6914 31.4345C78.4893 30.4969 82.4304 29.8234 86.9411 29.5899L86.8894 28.5912ZM86.4153 25V29.0906H87.4153V25H86.4153ZM75.9583 25.5H86.9153V24.5H75.9583V25.5ZM75.4583 18V25H76.4583V18H75.4583ZM104.958 17.5H75.9583V18.5H104.958V17.5ZM105.458 25V18H104.458V25H105.458ZM93.9153 25.5H104.958V24.5H93.9153V25.5ZM94.4153 29.0862V25H93.4153V29.0862H94.4153Z" fill="#2E1E00"/>
<rect x="112.458" y="21.5" width="65" height="65" rx="32.5" stroke="#2E1E00"/>
<mask id="path-6-outside-1_7957_38774" maskUnits="userSpaceOnUse" x="111.958" y="21" width="66" height="66" fill="black">
<rect fill="white" x="111.958" y="21" width="66" height="66"/>
<path fill-rule="evenodd" clip-rule="evenodd" d="M144.958 22C127.285 22 112.958 36.3269 112.958 54C112.958 71.6731 127.285 86 144.958 86C148.479 86 151.867 85.4314 155.035 84.381C155.008 84.3903 154.98 84.3995 154.952 84.4087C144.826 82.3864 136.51 75.351 132.701 66H120.958L124.458 58.5H130.718C130.547 57.191 130.458 55.8558 130.458 54.5C130.458 52.9711 130.571 51.4685 130.788 50H121.458L124.458 42.5H132.91C137.052 32.8302 146.049 25.7341 156.835 24.2764C153.163 22.8078 149.155 22 144.958 22ZM169.771 33.7914C167.065 32.6382 164.086 32 160.958 32C152.944 32 145.908 36.1905 141.922 42.5H170.458L167.458 50H138.908C138.613 51.454 138.458 52.9589 138.458 54.5C138.458 55.8651 138.58 57.2019 138.813 58.5H163.458L159.958 66H141.615C145.54 72.5872 152.734 77 160.958 77C163.588 77 166.113 76.5488 168.459 75.7195C173.734 70.0141 176.958 62.3835 176.958 54C176.958 46.3361 174.264 39.3014 169.771 33.7914Z"/>
</mask>
<path fill-rule="evenodd" clip-rule="evenodd" d="M144.958 22C127.285 22 112.958 36.3269 112.958 54C112.958 71.6731 127.285 86 144.958 86C148.479 86 151.867 85.4314 155.035 84.381C155.008 84.3903 154.98 84.3995 154.952 84.4087C144.826 82.3864 136.51 75.351 132.701 66H120.958L124.458 58.5H130.718C130.547 57.191 130.458 55.8558 130.458 54.5C130.458 52.9711 130.571 51.4685 130.788 50H121.458L124.458 42.5H132.91C137.052 32.8302 146.049 25.7341 156.835 24.2764C153.163 22.8078 149.155 22 144.958 22ZM169.771 33.7914C167.065 32.6382 164.086 32 160.958 32C152.944 32 145.908 36.1905 141.922 42.5H170.458L167.458 50H138.908C138.613 51.454 138.458 52.9589 138.458 54.5C138.458 55.8651 138.58 57.2019 138.813 58.5H163.458L159.958 66H141.615C145.54 72.5872 152.734 77 160.958 77C163.588 77 166.113 76.5488 168.459 75.7195C173.734 70.0141 176.958 62.3835 176.958 54C176.958 46.3361 174.264 39.3014 169.771 33.7914Z" fill="url(#paint1_linear_7957_38774)"/>
<path d="M155.035 84.381L155.35 85.3302L154.721 83.4318L155.035 84.381ZM154.952 84.4087L154.756 85.3893L155.014 85.4408L155.264 85.3587L154.952 84.4087ZM132.701 66L133.627 65.6227L133.373 65H132.701V66ZM120.958 66L120.052 65.5771L119.388 67H120.958V66ZM124.458 58.5V57.5H123.821L123.552 58.0771L124.458 58.5ZM130.718 58.5V59.5H131.858L131.71 58.3701L130.718 58.5ZM130.788 50L131.777 50.1463L131.947 49H130.788V50ZM121.458 50L120.53 49.6286L119.981 51H121.458V50ZM124.458 42.5V41.5H123.781L123.53 42.1286L124.458 42.5ZM132.91 42.5V43.5H133.569L133.829 42.8938L132.91 42.5ZM156.835 24.2764L156.969 25.2674L160.733 24.7585L157.206 23.3479L156.835 24.2764ZM169.771 33.7914L170.546 33.1595L170.39 32.9682L170.163 32.8715L169.771 33.7914ZM141.922 42.5L141.076 41.9659L140.107 43.5H141.922V42.5ZM170.458 42.5L171.387 42.8714L171.935 41.5H170.458V42.5ZM167.458 50V51H168.135L168.387 50.3714L167.458 50ZM138.908 50V49H138.091L137.928 49.8011L138.908 50ZM138.813 58.5L137.828 58.6766L137.976 59.5H138.813V58.5ZM163.458 58.5L164.364 58.9229L165.028 57.5H163.458V58.5ZM159.958 66V67H160.595L160.864 66.4229L159.958 66ZM141.615 66V65H139.855L140.756 66.5118L141.615 66ZM168.459 75.7195L168.792 76.6624L169.025 76.58L169.193 76.3984L168.459 75.7195ZM113.958 54C113.958 36.8792 127.837 23 144.958 23V21C126.733 21 111.958 35.7746 111.958 54H113.958ZM144.958 85C127.837 85 113.958 71.1208 113.958 54H111.958C111.958 72.2254 126.733 87 144.958 87V85ZM154.721 83.4318C151.653 84.449 148.371 85 144.958 85V87C148.587 87 152.082 86.4138 155.35 85.3302L154.721 83.4318ZM155.264 85.3587C155.292 85.3493 155.321 85.3398 155.35 85.3302L154.721 83.4318C154.694 83.4407 154.667 83.4496 154.64 83.4586L155.264 85.3587ZM131.775 66.3773C135.709 76.0341 144.296 83.3002 154.756 85.3893L155.147 83.428C145.357 81.4726 137.312 74.6679 133.627 65.6227L131.775 66.3773ZM120.958 67H132.701V65H120.958V67ZM123.552 58.0771L120.052 65.5771L121.864 66.4229L125.364 58.9229L123.552 58.0771ZM130.718 57.5H124.458V59.5H130.718V57.5ZM129.458 54.5C129.458 55.8994 129.55 57.2779 129.727 58.6299L131.71 58.3701C131.544 57.104 131.458 55.8123 131.458 54.5H129.458ZM129.799 49.8537C129.574 51.3705 129.458 52.922 129.458 54.5H131.458C131.458 53.0202 131.567 51.5665 131.777 50.1463L129.799 49.8537ZM121.458 51H130.788V49H121.458V51ZM123.53 42.1286L120.53 49.6286L122.387 50.3714L125.387 42.8714L123.53 42.1286ZM132.91 41.5H124.458V43.5H132.91V41.5ZM156.701 23.2854C145.558 24.7913 136.268 32.1208 131.99 42.1062L133.829 42.8938C137.836 33.5397 146.539 26.6769 156.969 25.2674L156.701 23.2854ZM144.958 23C149.025 23 152.907 23.7827 156.463 25.2049L157.206 23.3479C153.418 21.8328 149.284 21 144.958 21V23ZM160.958 33C163.949 33 166.794 33.61 169.379 34.7114L170.163 32.8715C167.335 31.6664 164.223 31 160.958 31V33ZM142.767 43.0341C146.578 37.0024 153.301 33 160.958 33V31C152.586 31 145.238 35.3786 141.076 41.9659L142.767 43.0341ZM170.458 41.5H141.922V43.5H170.458V41.5ZM168.387 50.3714L171.387 42.8714L169.53 42.1286L166.53 49.6286L168.387 50.3714ZM138.908 51H167.458V49H138.908V51ZM139.458 54.5C139.458 53.0261 139.606 51.5878 139.888 50.1989L137.928 49.8011C137.62 51.3202 137.458 52.8917 137.458 54.5H139.458ZM139.797 58.3234C139.575 57.0833 139.458 55.8056 139.458 54.5H137.458C137.458 55.9246 137.585 57.3205 137.828 58.6766L139.797 58.3234ZM163.458 57.5H138.813V59.5H163.458V57.5ZM160.864 66.4229L164.364 58.9229L162.552 58.0771L159.052 65.5771L160.864 66.4229ZM141.615 67H159.958V65H141.615V67ZM160.958 76C153.1 76 146.226 71.7852 142.474 65.4881L140.756 66.5118C144.854 73.3891 152.367 78 160.958 78V76ZM168.125 74.7767C165.885 75.5686 163.473 76 160.958 76V78C163.703 78 166.34 77.5289 168.792 76.6624L168.125 74.7767ZM175.958 54C175.958 62.1221 172.836 69.5127 167.724 75.0406L169.193 76.3984C174.633 70.5155 177.958 62.645 177.958 54H175.958ZM168.996 34.4234C173.349 39.7614 175.958 46.5746 175.958 54H177.958C177.958 46.0975 175.179 38.8414 170.546 33.1595L168.996 34.4234Z" fill="#2E1E00" mask="url(#path-6-outside-1_7957_38774)"/>
<path fill-rule="evenodd" clip-rule="evenodd" d="M256.958 22C239.285 22 224.958 36.3269 224.958 54C224.958 71.6731 239.285 86 256.958 86C274.631 86 288.958 71.6731 288.958 54C288.958 36.3269 274.631 22 256.958 22ZM255.551 39C256.32 37.6667 258.245 37.6667 259.015 39L261.796 43.8174C262.566 45.1507 261.604 46.8174 260.064 46.8174H254.501C252.962 46.8174 252 45.1507 252.769 43.8174L255.551 39ZM264.455 50.423C265.17 50.423 265.83 50.8042 266.187 51.423L275.067 66.8028C275.837 68.1361 274.874 69.8028 273.335 69.8028H241.231C239.691 69.8028 238.729 68.1361 239.499 66.8028L248.378 51.423C248.736 50.8042 249.396 50.423 250.11 50.423H264.455Z" fill="#22996E"/>
<path d="M259.015 39L258.582 39.25L259.015 39ZM255.551 39L255.118 38.75L255.551 39ZM261.796 43.8174L261.363 44.0674L261.796 43.8174ZM252.769 43.8174L253.202 44.0674L252.769 43.8174ZM266.187 51.423L266.62 51.173L266.187 51.423ZM275.067 66.8028L274.634 67.0528L275.067 66.8028ZM239.499 66.8028L239.932 67.0528L239.499 66.8028ZM248.378 51.423L247.945 51.173L248.378 51.423ZM225.458 54C225.458 36.603 239.561 22.5 256.958 22.5V21.5C239.009 21.5 224.458 36.0507 224.458 54H225.458ZM256.958 85.5C239.561 85.5 225.458 71.397 225.458 54H224.458C224.458 71.9493 239.009 86.5 256.958 86.5V85.5ZM288.458 54C288.458 71.397 274.355 85.5 256.958 85.5V86.5C274.908 86.5 289.458 71.9493 289.458 54H288.458ZM256.958 22.5C274.355 22.5 288.458 36.603 288.458 54H289.458C289.458 36.0507 274.908 21.5 256.958 21.5V22.5ZM259.448 38.75C258.486 37.0833 256.08 37.0833 255.118 38.75L255.984 39.25C256.561 38.25 258.004 38.25 258.582 39.25L259.448 38.75ZM262.229 43.5674L259.448 38.75L258.582 39.25L261.363 44.0674L262.229 43.5674ZM260.064 47.3174C261.989 47.3174 263.191 45.234 262.229 43.5674L261.363 44.0674C261.94 45.0674 261.219 46.3174 260.064 46.3174V47.3174ZM254.501 47.3174H260.064V46.3174H254.501V47.3174ZM252.336 43.5674C251.374 45.234 252.577 47.3174 254.501 47.3174V46.3174C253.347 46.3174 252.625 45.0674 253.202 44.0674L252.336 43.5674ZM255.118 38.75L252.336 43.5674L253.202 44.0674L255.984 39.25L255.118 38.75ZM266.62 51.173C266.174 50.3995 265.348 49.923 264.455 49.923V50.923C264.991 50.923 265.486 51.2089 265.754 51.673L266.62 51.173ZM275.5 66.5528L266.62 51.173L265.754 51.673L274.634 67.0528L275.5 66.5528ZM273.335 70.3028C275.259 70.3028 276.462 68.2195 275.5 66.5528L274.634 67.0528C275.211 68.0528 274.489 69.3028 273.335 69.3028V70.3028ZM241.231 70.3028H273.335V69.3028H241.231V70.3028ZM239.066 66.5528C238.103 68.2195 239.306 70.3028 241.231 70.3028V69.3028C240.076 69.3028 239.354 68.0528 239.932 67.0528L239.066 66.5528ZM247.945 51.173L239.066 66.5528L239.932 67.0528L248.811 51.673L247.945 51.173ZM250.11 49.923C249.217 49.923 248.392 50.3995 247.945 51.173L248.811 51.673C249.079 51.2089 249.574 50.923 250.11 50.923V49.923ZM264.455 49.923H250.11V50.923H264.455V49.923Z" fill="#2E1E00"/>
<path fill-rule="evenodd" clip-rule="evenodd" d="M314.877 5.56144V1C331.657 1.99242 344.958 15.9146 344.958 32.9434C344.958 49.9723 331.657 63.8944 314.877 64.8868V59.5856L338.958 43.2709V21.876L314.877 5.56144ZM331.661 41.1569L312.958 56.644L294.256 41.1579V23.991L312.959 8.50397L331.661 23.99V41.1569ZM311.039 1V5.56241L286.958 21.877V43.2719L311.039 59.5865V64.8868C294.26 63.8944 280.958 49.9723 280.958 32.9434C280.958 15.9146 294.26 1.99242 311.039 1ZM315.492 28.0176C315.712 28.4859 316.116 28.8981 316.634 28.8981H319.275C319.832 28.8981 320.29 28.4414 320.203 27.8919C320.071 27.0604 319.78 26.3062 319.332 25.6293C318.709 24.6888 317.833 23.9592 316.702 23.4403C316.307 23.2557 315.887 23.1034 315.442 22.9837V20.0002C315.442 19.448 314.994 19.0002 314.442 19.0002H312.06C311.508 19.0002 311.06 19.448 311.06 20.0002V22.7689C310.221 22.892 309.443 23.1126 308.726 23.4306C307.558 23.9495 306.642 24.6726 305.981 25.6001C305.32 26.5275 304.992 27.6074 304.998 28.8397C304.992 30.3509 305.48 31.5507 306.463 32.4393C307.445 33.3213 308.791 33.9602 310.499 34.3558L312.56 34.8422C313.279 35.0108 313.87 35.1957 314.333 35.3967C314.801 35.5913 315.148 35.8248 315.373 36.0972C315.598 36.3631 315.713 36.6842 315.72 37.0603C315.713 37.4624 315.588 37.8192 315.344 38.1305C315.1 38.4418 314.75 38.685 314.294 38.8601C313.845 39.0352 313.299 39.1228 312.657 39.1228C311.957 39.1228 311.34 39.0125 310.807 38.792C310.28 38.5715 309.866 38.2472 309.564 37.8192C309.421 37.6161 309.308 37.3889 309.224 37.1376C309.056 36.6358 308.641 36.2139 308.112 36.2139H305.5C304.943 36.2139 304.486 36.6707 304.551 37.2241C304.682 38.3364 305.01 39.2871 305.538 40.0762C306.219 41.0944 307.172 41.8533 308.399 42.3527C309.196 42.6774 310.083 42.8965 311.06 43.0101V45.753C311.06 46.3053 311.508 46.753 312.06 46.753H314.442C314.994 46.753 315.442 46.3053 315.442 45.753V42.8365C315.973 42.722 316.467 42.5705 316.924 42.3819C318.093 41.9019 318.988 41.2112 319.611 40.3097C320.234 39.4082 320.549 38.3283 320.555 37.0701C320.549 36.2723 320.414 35.5524 320.151 34.9103C319.887 34.2682 319.499 33.7007 318.985 33.2078C318.478 32.7149 317.849 32.2901 317.097 31.9334C316.352 31.5767 315.492 31.2913 314.516 31.0773L312.82 30.6881C312.371 30.5908 311.966 30.4773 311.607 30.3476C311.247 30.2179 310.939 30.0687 310.682 29.9001C310.431 29.725 310.239 29.5239 310.104 29.2969C309.975 29.0699 309.918 28.8073 309.93 28.5089C309.937 28.1457 310.043 27.8247 310.248 27.5458C310.454 27.2604 310.762 27.0367 311.173 26.8745C311.584 26.7124 312.098 26.6313 312.714 26.6313C313.645 26.6313 314.362 26.8324 314.862 27.2345C315.137 27.4489 315.347 27.7099 315.492 28.0176Z" fill="#F5C09A"/>
<path d="M314.877 1L314.921 0.251308L314.127 0.204331V1H314.877ZM314.877 5.56144H314.127V5.95924L314.457 6.18236L314.877 5.56144ZM314.877 64.8868H314.127V65.6825L314.921 65.6355L314.877 64.8868ZM314.877 59.5856L314.457 58.9646L314.127 59.1878V59.5856H314.877ZM338.958 43.2709L339.379 43.8919L339.708 43.6687V43.2709H338.958ZM338.958 21.876H339.708V21.4782L339.379 21.2551L338.958 21.876ZM312.958 56.644L312.479 57.2217L312.958 57.6177L313.436 57.2217L312.958 56.644ZM331.661 41.1569L332.139 41.7346L332.411 41.5097V41.1569H331.661ZM294.256 41.1579H293.506V41.5106L293.777 41.7356L294.256 41.1579ZM294.256 23.991L293.777 23.4134L293.506 23.6383V23.991H294.256ZM312.959 8.50397L313.437 7.9263L312.959 7.53022L312.481 7.9263L312.959 8.50397ZM331.661 23.99H332.411V23.6373L332.139 23.4124L331.661 23.99ZM311.039 5.56241L311.46 6.18333L311.789 5.96021V5.56241H311.039ZM311.039 1H311.789V0.204331L310.995 0.251308L311.039 1ZM286.958 21.877L286.538 21.2561L286.208 21.4792V21.877H286.958ZM286.958 43.2719H286.208V43.6697L286.538 43.8928L286.958 43.2719ZM311.039 59.5865H311.789V59.1887L311.46 58.9656L311.039 59.5865ZM311.039 64.8868L310.995 65.6355L311.789 65.6825V64.8868H311.039ZM315.492 28.0176L316.171 27.6983L315.492 28.0176ZM320.203 27.8919L319.462 28.0098V28.0098L320.203 27.8919ZM319.332 25.6293L319.957 25.2151L319.957 25.2151L319.332 25.6293ZM316.702 23.4403L316.385 24.1198L316.389 24.122L316.702 23.4403ZM315.442 22.9837H314.692V23.5585L315.247 23.7079L315.442 22.9837ZM311.06 22.7689L311.169 23.511L311.81 23.417V22.7689H311.06ZM308.726 23.4306L309.031 24.1161L309.031 24.1161L308.726 23.4306ZM305.981 25.6001L305.37 25.1646L305.981 25.6001ZM304.998 28.8397L305.749 28.8429L305.748 28.8358L304.998 28.8397ZM306.463 32.4393L305.96 32.9955L305.962 32.9974L306.463 32.4393ZM310.499 34.3558L310.671 33.6258L310.668 33.6251L310.499 34.3558ZM312.56 34.8422L312.388 35.5722L312.389 35.5724L312.56 34.8422ZM314.333 35.3967L314.033 36.0846L314.045 36.0895L314.333 35.3967ZM315.373 36.0972L314.794 36.5746L314.8 36.5814L315.373 36.0972ZM315.72 37.0603L316.47 37.0723L316.47 37.0599L316.47 37.0475L315.72 37.0603ZM314.294 38.8601L314.025 38.16L314.022 38.1613L314.294 38.8601ZM310.807 38.792L310.517 39.4838L310.52 39.485L310.807 38.792ZM309.564 37.8192L308.951 38.2514L308.951 38.2514L309.564 37.8192ZM309.224 37.1376L308.512 37.3752L309.224 37.1376ZM304.551 37.2241L305.296 37.1368L304.551 37.2241ZM305.538 40.0762L304.914 40.493L305.538 40.0762ZM308.399 42.3527L308.682 41.658L308.682 41.658L308.399 42.3527ZM311.06 43.0101H311.81V42.3423L311.147 42.2651L311.06 43.0101ZM315.442 42.8365L315.284 42.1033L314.692 42.2309V42.8365H315.442ZM316.924 42.3819L316.639 41.6881L316.638 41.6886L316.924 42.3819ZM319.611 40.3097L320.228 40.736L319.611 40.3097ZM320.555 37.0701L321.305 37.0739L321.305 37.064L320.555 37.0701ZM320.151 34.9103L319.457 35.1949V35.1949L320.151 34.9103ZM318.985 33.2078L318.463 33.7457L318.466 33.749L318.985 33.2078ZM317.097 31.9334L316.773 32.6098L316.776 32.6109L317.097 31.9334ZM314.516 31.0773L314.348 31.8083L314.355 31.8099L314.516 31.0773ZM312.82 30.6881L312.988 29.9571L312.979 29.9551L312.82 30.6881ZM311.607 30.3476L311.352 31.0531H311.352L311.607 30.3476ZM310.682 29.9001L310.252 30.5148L310.261 30.5211L310.27 30.5271L310.682 29.9001ZM310.104 29.2969L309.451 29.6663L309.455 29.6732L309.459 29.68L310.104 29.2969ZM309.93 28.5089L310.68 28.5412L310.68 28.5317L310.68 28.5222L309.93 28.5089ZM310.248 27.5458L310.852 27.9907L310.857 27.9841L310.248 27.5458ZM311.173 26.8745L310.898 26.1769H310.898L311.173 26.8745ZM314.862 27.2345L314.393 27.8194L314.401 27.8259L314.862 27.2345ZM314.127 1V5.56144H315.627V1H314.127ZM345.708 32.9434C345.708 15.5152 332.095 1.26703 314.921 0.251308L314.833 1.74869C331.219 2.71781 344.208 16.3139 344.208 32.9434H345.708ZM314.921 65.6355C332.095 64.6198 345.708 50.3716 345.708 32.9434H344.208C344.208 49.5729 331.219 63.169 314.833 64.1381L314.921 65.6355ZM314.127 59.5856V64.8868H315.627V59.5856H314.127ZM338.538 42.65L314.457 58.9646L315.298 60.2065L339.379 43.8919L338.538 42.65ZM338.208 21.876V43.2709H339.708V21.876H338.208ZM314.457 6.18236L338.538 22.497L339.379 21.2551L315.298 4.94052L314.457 6.18236ZM313.436 57.2217L332.139 41.7346L331.183 40.5793L312.479 56.0663L313.436 57.2217ZM293.777 41.7356L312.479 57.2217L313.436 56.0663L294.734 40.5803L293.777 41.7356ZM293.506 23.991V41.1579H295.006V23.991H293.506ZM312.481 7.9263L293.777 23.4134L294.734 24.5687L313.437 9.08164L312.481 7.9263ZM332.139 23.4124L313.437 7.9263L312.481 9.08164L331.183 24.5677L332.139 23.4124ZM332.411 41.1569V23.99H330.911V41.1569H332.411ZM311.789 5.56241V1H310.289V5.56241H311.789ZM287.379 22.4979L311.46 6.18333L310.619 4.94149L286.538 21.2561L287.379 22.4979ZM287.708 43.2719V21.877H286.208V43.2719H287.708ZM311.46 58.9656L287.379 42.651L286.538 43.8928L310.619 60.2075L311.46 58.9656ZM311.789 64.8868V59.5865H310.289V64.8868H311.789ZM280.208 32.9434C280.208 50.3716 293.821 64.6198 310.995 65.6355L311.084 64.1381C294.698 63.169 281.708 49.5729 281.708 32.9434H280.208ZM310.995 0.251308C293.821 1.26703 280.208 15.5152 280.208 32.9434H281.708C281.708 16.3139 294.698 2.71781 311.084 1.74869L310.995 0.251308ZM316.634 28.1481C316.586 28.1481 316.52 28.1317 316.433 28.0581C316.34 27.9805 316.245 27.8556 316.171 27.6983L314.813 28.337C315.085 28.9137 315.687 29.6481 316.634 29.6481V28.1481ZM319.275 28.1481H316.634V29.6481H319.275V28.1481ZM319.462 28.0098C319.465 28.0282 319.463 28.0392 319.461 28.047C319.458 28.0562 319.451 28.0697 319.436 28.0851C319.405 28.1177 319.349 28.1481 319.275 28.1481V29.6481C320.211 29.6481 321.116 28.8565 320.944 27.7741L319.462 28.0098ZM318.707 26.0434C319.094 26.6276 319.346 27.2801 319.462 28.0098L320.944 27.7741C320.795 26.8407 320.467 25.9848 319.957 25.2151L318.707 26.0434ZM316.389 24.122C317.406 24.5887 318.169 25.2313 318.707 26.0434L319.957 25.2151C319.249 24.1464 318.259 23.3297 317.015 22.7587L316.389 24.122ZM315.247 23.7079C315.652 23.817 316.031 23.9546 316.385 24.1198L317.02 22.7609C316.583 22.5567 316.122 22.3899 315.637 22.2594L315.247 23.7079ZM314.692 20.0002V22.9837H316.192V20.0002H314.692ZM314.442 19.7502C314.58 19.7502 314.692 19.8622 314.692 20.0002H316.192C316.192 19.0338 315.409 18.2502 314.442 18.2502V19.7502ZM312.06 19.7502H314.442V18.2502H312.06V19.7502ZM311.81 20.0002C311.81 19.8622 311.922 19.7502 312.06 19.7502V18.2502C311.093 18.2502 310.31 19.0337 310.31 20.0002H311.81ZM311.81 22.7689V20.0002H310.31V22.7689H311.81ZM309.031 24.1161C309.68 23.8279 310.391 23.625 311.169 23.511L310.951 22.0269C310.05 22.1591 309.206 22.3973 308.422 22.7451L309.031 24.1161ZM306.592 26.0356C307.166 25.2303 307.969 24.5873 309.031 24.1161L308.422 22.7451C307.146 23.3116 306.119 24.115 305.37 25.1646L306.592 26.0356ZM305.748 28.8358C305.743 27.7474 306.029 26.8242 306.592 26.0356L305.37 25.1646C304.61 26.2309 304.241 27.4674 304.248 28.8436L305.748 28.8358ZM306.966 31.883C306.164 31.1582 305.743 30.1741 305.748 28.8429L304.248 28.8365C304.241 30.5276 304.796 31.9432 305.96 32.9955L306.966 31.883ZM310.668 33.6251C309.044 33.249 307.826 32.6554 306.964 31.8812L305.962 32.9974C307.064 33.9873 308.537 34.6713 310.33 35.0865L310.668 33.6251ZM312.732 34.1123L310.671 33.6258L310.327 35.0857L312.388 35.5722L312.732 34.1123ZM314.632 34.709C314.114 34.4838 313.476 34.2867 312.731 34.112L312.389 35.5724C313.083 35.735 313.627 35.9076 314.034 36.0845L314.632 34.709ZM315.951 35.6199C315.622 35.2208 315.156 34.9264 314.62 34.704L314.045 36.0895C314.447 36.2563 314.674 36.4289 314.794 36.5745L315.951 35.6199ZM316.47 37.0475C316.461 36.5135 316.291 36.0219 315.946 35.613L314.8 36.5814C314.904 36.7043 314.966 36.8549 314.97 37.0731L316.47 37.0475ZM315.934 38.5932C316.281 38.1508 316.461 37.6351 316.47 37.0723L314.97 37.0484C314.966 37.2898 314.895 37.4876 314.754 37.6678L315.934 38.5932ZM314.563 39.5603C315.116 39.3479 315.589 39.0337 315.934 38.5932L314.754 37.6678C314.611 37.8499 314.384 38.0221 314.025 38.16L314.563 39.5603ZM312.657 39.8728C313.363 39.8728 314.007 39.777 314.566 39.559L314.022 38.1613C313.683 38.2934 313.235 38.3728 312.657 38.3728V39.8728ZM310.52 39.485C311.161 39.7503 311.879 39.8728 312.657 39.8728V38.3728C312.034 38.3728 311.519 38.2748 311.094 38.099L310.52 39.485ZM308.951 38.2514C309.342 38.8049 309.873 39.2139 310.517 39.4838L311.097 38.1002C310.688 37.9291 310.391 37.6895 310.177 37.387L308.951 38.2514ZM308.512 37.3752C308.618 37.6912 308.763 37.9847 308.951 38.2514L310.177 37.387C310.079 37.2474 309.997 37.0865 309.935 36.9L308.512 37.3752ZM308.112 36.9639C308.166 36.9639 308.231 36.9831 308.308 37.0503C308.388 37.1214 308.466 37.2353 308.512 37.3752L309.935 36.9C309.706 36.2146 309.076 35.4639 308.112 35.4639V36.9639ZM305.5 36.9639H308.112V35.4639H305.5V36.9639ZM305.296 37.1368C305.292 37.098 305.302 37.0639 305.334 37.0305C305.369 36.9936 305.428 36.9639 305.5 36.9639V35.4639C304.551 35.4639 303.683 36.2577 303.806 37.3113L305.296 37.1368ZM306.161 39.6594C305.711 38.9853 305.415 38.1524 305.296 37.1368L303.806 37.3113C303.948 38.5204 304.31 39.5889 304.914 40.493L306.161 39.6594ZM308.682 41.658C307.582 41.2103 306.752 40.5429 306.161 39.6594L304.914 40.493C305.685 41.646 306.763 42.4962 308.116 43.0473L308.682 41.658ZM311.147 42.2651C310.228 42.1583 309.408 41.9538 308.682 41.658L308.116 43.0473C308.984 43.4009 309.939 43.6347 310.973 43.7551L311.147 42.2651ZM311.81 45.753V43.0101H310.31V45.753H311.81ZM312.06 46.003C311.922 46.003 311.81 45.8911 311.81 45.753H310.31C310.31 46.7195 311.093 47.503 312.06 47.503V46.003ZM314.442 46.003H312.06V47.503H314.442V46.003ZM314.692 45.753C314.692 45.8911 314.58 46.003 314.442 46.003V47.503C315.409 47.503 316.192 46.7195 316.192 45.753H314.692ZM314.692 42.8365V45.753H316.192V42.8365H314.692ZM316.638 41.6886C316.226 41.8585 315.776 41.9974 315.284 42.1033L315.6 43.5696C316.171 43.4466 316.708 43.2824 317.21 43.0751L316.638 41.6886ZM318.994 39.8833C318.466 40.648 317.694 41.2546 316.639 41.6881L317.209 43.0756C318.491 42.5492 319.511 41.7744 320.228 40.736L318.994 39.8833ZM319.805 37.0662C319.8 38.1965 319.519 39.1238 318.994 39.8833L320.228 40.736C320.949 39.6925 321.298 38.46 321.305 37.0739L319.805 37.0662ZM319.457 35.1949C319.679 35.7363 319.8 36.3598 319.805 37.0761L321.305 37.064C321.298 36.1849 321.149 35.3685 320.845 34.6258L319.457 35.1949ZM318.466 33.749C318.906 34.1714 319.234 34.6521 319.457 35.1949L320.845 34.6258C320.541 33.8843 320.092 33.23 319.504 32.6666L318.466 33.749ZM316.776 32.6109C317.465 32.9384 318.023 33.3191 318.463 33.7457L319.508 32.6699C318.932 32.1107 318.232 31.6417 317.419 31.2559L316.776 32.6109ZM314.355 31.8099C315.286 32.014 316.09 32.2826 316.773 32.6098L317.421 31.2569C316.615 30.8707 315.697 30.5686 314.676 30.3447L314.355 31.8099ZM312.652 31.4191L314.348 31.8083L314.683 30.3463L312.988 29.9571L312.652 31.4191ZM311.352 31.0531C311.749 31.1961 312.186 31.3182 312.662 31.4212L312.979 29.9551C312.556 29.8635 312.184 29.7585 311.861 29.6421L311.352 31.0531ZM310.27 30.5271C310.586 30.7347 310.95 30.9081 311.352 31.0531L311.861 29.6421C311.544 29.5277 311.291 29.4028 311.093 29.2731L310.27 30.5271ZM309.459 29.68C309.656 30.0119 309.928 30.2882 310.252 30.5148L311.112 29.2855C310.935 29.1618 310.821 29.036 310.749 28.9139L309.459 29.68ZM309.181 28.4767C309.163 28.8945 309.244 29.3002 309.451 29.6663L310.757 28.9276C310.707 28.8397 310.672 28.7201 310.68 28.5412L309.181 28.4767ZM309.645 27.1009C309.342 27.5113 309.19 27.9849 309.181 28.4957L310.68 28.5222C310.684 28.3065 310.744 28.138 310.852 27.9907L309.645 27.1009ZM310.898 26.1769C310.387 26.3783 309.948 26.6789 309.64 27.1075L310.857 27.9841C310.959 27.8419 311.137 27.6951 311.448 27.5722L310.898 26.1769ZM312.714 25.8813C312.038 25.8813 311.424 25.9694 310.898 26.1769L311.448 27.5722C311.744 27.4554 312.157 27.3813 312.714 27.3813V25.8813ZM315.332 26.6496C314.65 26.1018 313.742 25.8813 312.714 25.8813V27.3813C313.549 27.3813 314.074 27.5629 314.393 27.8193L315.332 26.6496ZM316.171 27.6983C315.974 27.2814 315.689 26.9279 315.324 26.6431L314.401 27.8259C314.586 27.9698 314.72 28.1385 314.813 28.337L316.171 27.6983Z" fill="#2E1E00"/>
<path fill-rule="evenodd" clip-rule="evenodd" d="M200.915 65C218.588 65 232.915 50.6731 232.915 33C232.915 15.3269 218.588 1 200.915 1C183.242 1 168.915 15.3269 168.915 33C168.915 50.6731 183.242 65 200.915 65ZM209.371 32.9706C209.371 37.1047 206.02 40.456 201.886 40.456C197.752 40.456 194.401 37.1047 194.401 32.9706C194.401 28.8365 197.752 25.4852 201.886 25.4852C206.02 25.4852 209.371 28.8365 209.371 32.9706ZM216.857 32.9706C216.857 35.7629 216.092 38.3767 214.761 40.614L219.915 45.5655L214.729 50.9632L209.451 45.8923C207.231 47.1947 204.646 47.9414 201.886 47.9414C198.885 47.9414 196.091 47.0585 193.748 45.5383L188.101 50.9632L182.915 45.5655L188.679 40.0274C187.554 37.9249 186.915 35.5223 186.915 32.9706C186.915 30.4247 187.551 28.0272 188.672 25.9281L182.916 20.3978L188.102 15L193.734 20.4116C196.08 18.8861 198.879 17.9998 201.886 17.9998C204.652 17.9998 207.242 18.7496 209.465 20.0571L214.728 15L219.914 20.3978L214.77 25.3409C216.096 27.5752 216.857 30.184 216.857 32.9706Z" fill="#D1D5DB"/>
<path d="M214.761 40.614L214.117 40.2306L213.812 40.7423L214.242 41.1549L214.761 40.614ZM219.915 45.5655L220.456 46.0851L220.975 45.5442L220.434 45.0246L219.915 45.5655ZM214.729 50.9632L214.209 51.5041L214.75 52.0237L215.27 51.4828L214.729 50.9632ZM209.451 45.8923L209.97 45.3515L209.561 44.9581L209.071 45.2454L209.451 45.8923ZM193.748 45.5383L194.156 44.9091L193.657 44.5854L193.228 44.9975L193.748 45.5383ZM188.101 50.9632L187.561 51.4828L188.08 52.0237L188.621 51.5041L188.101 50.9632ZM182.915 45.5655L182.396 45.0246L181.855 45.5442L182.374 46.0851L182.915 45.5655ZM188.679 40.0274L189.199 40.5682L189.609 40.1744L189.341 39.6734L188.679 40.0274ZM188.672 25.9281L189.333 26.2814L189.601 25.7806L189.191 25.3872L188.672 25.9281ZM182.916 20.3978L182.375 19.8782L181.855 20.419L182.396 20.9386L182.916 20.3978ZM188.102 15L188.621 14.4592L188.081 13.9396L187.561 14.4804L188.102 15ZM193.734 20.4116L193.215 20.9524L193.644 21.365L194.143 21.0403L193.734 20.4116ZM209.465 20.0571L209.085 20.7035L209.575 20.9917L209.984 20.5979L209.465 20.0571ZM214.728 15L215.269 14.4804L214.75 13.9396L214.209 14.4592L214.728 15ZM219.914 20.3978L220.434 20.9386L220.975 20.419L220.455 19.8782L219.914 20.3978ZM214.77 25.3409L214.25 24.8001L213.821 25.2122L214.125 25.7237L214.77 25.3409ZM232.165 33C232.165 50.2589 218.174 64.25 200.915 64.25V65.75C219.003 65.75 233.665 51.0873 233.665 33H232.165ZM200.915 1.75C218.174 1.75 232.165 15.7411 232.165 33H233.665C233.665 14.9127 219.003 0.25 200.915 0.25V1.75ZM169.665 33C169.665 15.7411 183.656 1.75 200.915 1.75V0.25C182.828 0.25 168.165 14.9127 168.165 33H169.665ZM200.915 64.25C183.656 64.25 169.665 50.2589 169.665 33H168.165C168.165 51.0873 182.828 65.75 200.915 65.75V64.25ZM201.886 41.206C206.434 41.206 210.121 37.5189 210.121 32.9706H208.621C208.621 36.6905 205.606 39.706 201.886 39.706V41.206ZM193.651 32.9706C193.651 37.5189 197.338 41.206 201.886 41.206V39.706C198.166 39.706 195.151 36.6905 195.151 32.9706H193.651ZM201.886 24.7352C197.338 24.7352 193.651 28.4223 193.651 32.9706H195.151C195.151 29.2507 198.166 26.2352 201.886 26.2352V24.7352ZM210.121 32.9706C210.121 28.4223 206.434 24.7352 201.886 24.7352V26.2352C205.606 26.2352 208.621 29.2507 208.621 32.9706H210.121ZM215.406 40.9975C216.804 38.6474 217.607 35.9016 217.607 32.9706H216.107C216.107 35.6243 215.381 38.106 214.117 40.2306L215.406 40.9975ZM220.434 45.0246L215.281 40.0732L214.242 41.1549L219.395 46.1063L220.434 45.0246ZM215.27 51.4828L220.456 46.0851L219.374 45.0458L214.188 50.4436L215.27 51.4828ZM208.931 46.4332L214.209 51.5041L215.248 50.4224L209.97 45.3515L208.931 46.4332ZM201.886 48.6914C204.783 48.6914 207.499 47.9073 209.83 46.5392L209.071 45.2454C206.963 46.4822 204.509 47.1914 201.886 47.1914V48.6914ZM193.339 46.1674C195.8 47.7642 198.736 48.6914 201.886 48.6914V47.1914C199.034 47.1914 196.381 46.3529 194.156 44.9091L193.339 46.1674ZM188.621 51.5041L194.267 46.0791L193.228 44.9975L187.582 50.4224L188.621 51.5041ZM182.374 46.0851L187.561 51.4828L188.642 50.4436L183.456 45.0458L182.374 46.0851ZM188.16 39.4866L182.396 45.0246L183.435 46.1063L189.199 40.5682L188.16 39.4866ZM186.165 32.9706C186.165 35.6488 186.836 38.1727 188.018 40.3814L189.341 39.6734C188.272 37.6771 187.665 35.3958 187.665 32.9706H186.165ZM188.01 25.5748C186.833 27.7799 186.165 30.2984 186.165 32.9706H187.665C187.665 30.5509 188.269 28.2744 189.333 26.2814L188.01 25.5748ZM182.396 20.9386L188.152 26.4689L189.191 25.3872L183.435 19.8569L182.396 20.9386ZM187.561 14.4804L182.375 19.8782L183.457 20.9174L188.643 15.5196L187.561 14.4804ZM194.254 19.8708L188.621 14.4592L187.582 15.5408L193.215 20.9524L194.254 19.8708ZM201.886 17.2498C198.73 17.2498 195.789 18.1806 193.325 19.7829L194.143 21.0403C196.371 19.5915 199.029 18.7498 201.886 18.7498V17.2498ZM209.845 19.4106C207.51 18.0372 204.789 17.2498 201.886 17.2498V18.7498C204.514 18.7498 206.974 19.462 209.085 20.7035L209.845 19.4106ZM214.209 14.4592L208.945 19.5162L209.984 20.5979L215.248 15.5408L214.209 14.4592ZM220.455 19.8782L215.269 14.4804L214.187 15.5196L219.374 20.9174L220.455 19.8782ZM215.289 25.8817L220.434 20.9386L219.395 19.8569L214.25 24.8001L215.289 25.8817ZM217.607 32.9706C217.607 30.0456 216.807 27.3051 215.414 24.9581L214.125 25.7237C215.384 27.8453 216.107 30.3224 216.107 32.9706H217.607Z" fill="#2E1E00"/>
<defs>
<linearGradient id="paint0_linear_7957_38774" x1="32.9583" y1="22" x2="32.9583" y2="86" gradientUnits="userSpaceOnUse">
<stop stop-color="#9CB998"/>
<stop offset="1" stop-color="#FACDA9"/>
</linearGradient>
<linearGradient id="paint1_linear_7957_38774" x1="169.958" y1="20" x2="144.958" y2="86" gradientUnits="userSpaceOnUse">
<stop stop-color="#B030EC"/>
<stop offset="1" stop-color="#15BCFF"/>
</linearGradient>
</defs>
</svg>
