<svg width="802" height="541" viewBox="0 0 802 541" fill="none" xmlns="http://www.w3.org/2000/svg">
<path d="M236.57 315.571L214.153 367.139L262.703 348.493L276.706 321.798L236.57 315.571Z" fill="#73B7EA" stroke="#2E1E00" stroke-width="1.5" stroke-miterlimit="10" stroke-linecap="round" stroke-linejoin="round"/>
<path d="M309.55 385.093C309.55 385.093 501.404 230.343 515.047 83.7047L515.078 83.1698C373.553 79.3953 202.63 258.757 202.63 258.757C202.63 258.757 239.796 344.728 309.55 385.093Z" fill="#ADF0E7" stroke="#2E1E00" stroke-width="1.5" stroke-miterlimit="10" stroke-linecap="round" stroke-linejoin="round"/>
<path d="M145.573 230.927C145.573 230.927 217.912 229.266 245.936 248.357L202.63 258.757C202.63 258.757 180.25 242.248 145.573 230.927Z" fill="#73B7EA" stroke="#2E1E00" stroke-width="1.5" stroke-miterlimit="10" stroke-linecap="round" stroke-linejoin="round"/>
<path d="M299.639 445.914C299.639 445.914 336.808 381.25 334.65 346.486L304.583 380.547C304.657 380.494 307.361 408.941 299.639 445.914Z" fill="#73B7EA" stroke="#2E1E00" stroke-width="1.5" stroke-miterlimit="10" stroke-linecap="round" stroke-linejoin="round"/>
<path d="M305.993 288.464C317.678 290.73 328.915 282.708 331.091 270.546C333.268 258.384 325.56 246.689 313.875 244.423C302.19 242.158 290.953 250.18 288.776 262.342C286.599 274.504 294.307 286.199 305.993 288.464Z" stroke="#2E1E00" stroke-width="1.5" stroke-miterlimit="10" stroke-linecap="round" stroke-linejoin="round"/>
<path d="M421.938 219.196C417.364 225.882 411.207 231.246 404.086 234.734C399.593 236.973 394.687 238.253 389.756 238.581C385.551 238.848 378.767 238.276 374.675 237.55C359.356 234.58 346.568 232.71 331.413 228.825C326.261 227.488 320.931 226.049 316.103 223.626C313.897 222.522 309.937 220.334 310.51 217.132C311.433 211.97 316.243 211.956 320.308 212.474C338.686 214.685 357.038 217.769 375.081 222.214C375.144 222.226 375.269 222.25 375.332 222.263C374.653 222.063 372.962 218.085 372.502 217.387C371.413 215.486 370.336 213.519 369.184 211.605C366.519 206.897 363.791 202.176 361.126 197.467C358.166 192.228 355.194 187.055 352.234 181.816L349.636 177.458L354.078 178.049L364.417 179.445C364.729 171.528 377.494 163.726 377.494 163.726L377.117 159.663L376.359 152.282C380.538 152.89 384.699 155.048 388.609 158.241C395.139 163.496 400.992 169.633 406.237 176.262C409.56 180.557 412.512 185.118 415.589 189.704C418.614 194.212 421.962 198.377 425.211 202.725L428.378 207.531C428.39 207.466 426.634 212.196 421.938 219.196Z" fill="#FFDC38" stroke="#2E1E00" stroke-width="1.5" stroke-miterlimit="10" stroke-linecap="round" stroke-linejoin="round"/>
<path d="M359.207 193.309L377.847 181.711" stroke="#2E1E00" stroke-width="1.5" stroke-miterlimit="10" stroke-linecap="round" stroke-linejoin="round"/>
<path d="M385.972 171.522L373.314 179.818C373.314 179.818 380.347 185.17 386.286 181.386C392.225 177.602 385.972 171.522 385.972 171.522Z" fill="#2E1E00" stroke="#2E1E00" stroke-width="1.5" stroke-miterlimit="10" stroke-linecap="round" stroke-linejoin="round"/>
<path d="M393.233 167.25L404.053 160.153C404.053 160.153 405.415 167.787 400.46 171.153C395.431 174.573 393.233 167.25 393.233 167.25Z" fill="#2E1E00" stroke="#2E1E00" stroke-width="1.5" stroke-miterlimit="10" stroke-linecap="round" stroke-linejoin="round"/>
<path d="M389 174.205L396.233 169.725" stroke="#2E1E00" stroke-width="1.5" stroke-miterlimit="10" stroke-linecap="round" stroke-linejoin="round"/>
<path d="M395.506 182.498C396.512 182.693 397.479 182.002 397.666 180.956C397.853 179.909 397.19 178.903 396.184 178.708C395.179 178.513 394.212 179.203 394.025 180.25C393.837 181.296 394.501 182.303 395.506 182.498Z" fill="#2E1E00"/>
<path d="M388.852 185.197C388.852 185.197 392.247 190.182 397.736 187.46" stroke="#2E1E00" stroke-width="1.5" stroke-miterlimit="10" stroke-linecap="round" stroke-linejoin="round"/>
<path d="M362.292 198.572L373.758 194.034L366.695 205.917L362.292 198.572Z" fill="#2E1E00" stroke="#2E1E00" stroke-width="1.5" stroke-miterlimit="10" stroke-linecap="round" stroke-linejoin="round"/>
<path d="M368.935 209.732L377.309 205.405L371.544 214.024L368.935 209.732Z" fill="#2E1E00" stroke="#2E1E00" stroke-width="1.5" stroke-miterlimit="10" stroke-linecap="round" stroke-linejoin="round"/>
<path d="M228.506 334.494L247.812 331.882L235.963 317.144" fill="#2E1E00"/>
<path d="M228.506 334.494L247.812 331.882L235.963 317.144" stroke="#2E1E00" stroke-width="1.5" stroke-miterlimit="10" stroke-linecap="round" stroke-linejoin="round"/>
<path opacity="0.4" d="M377.341 222.652C398.978 226.847 419.785 211.992 423.815 189.474C427.846 166.955 413.573 145.299 391.937 141.104C370.3 136.909 349.493 151.764 345.463 174.283C341.432 196.802 355.705 218.457 377.341 222.652Z" fill="#FEFFFA" stroke="#2E1E00" stroke-width="1.5" stroke-miterlimit="10" stroke-linecap="round" stroke-linejoin="round"/>
<path d="M377.341 222.652C398.978 226.847 419.785 211.992 423.815 189.474C427.846 166.955 413.573 145.299 391.937 141.104C370.3 136.909 349.493 151.764 345.463 174.283C341.432 196.802 355.705 218.457 377.341 222.652Z" stroke="#2E1E00" stroke-width="1.5" stroke-miterlimit="10" stroke-linecap="round" stroke-linejoin="round"/>
<path opacity="0.15" d="M540 179.5L224.5 535H798V25L616.5 246L540 179.5Z" fill="url(#paint0_linear_2603:33635)"/>
<path d="M224.5 535L533.454 190.041C538.194 184.749 546.305 184.242 551.667 188.903L608.333 238.162C613.888 242.991 622.342 242.248 626.97 236.524L798 25" stroke="#50C56E" stroke-width="5" stroke-linecap="round"/>
<path d="M783.5 27L798 25L799.5 38.5" stroke="#50C56E" stroke-width="5" stroke-linecap="round"/>
<path d="M140.885 404.97C140.654 405.47 140.3 405.846 139.782 405.961C139.11 406.189 138.161 405.994 137.024 405.489L136.535 405.242L136.487 405.803C136.4 406.764 136.163 408.086 135.325 409C134.675 409.689 133.774 410.006 132.697 409.974C132.345 409.938 132.041 409.877 131.748 409.779C130.98 409.521 130.558 409.05 130.333 408.727C129.669 407.72 129.722 406.336 129.857 405.351L129.953 404.765L129.376 404.942C128.582 405.17 127.412 405.314 126.444 404.782C125.45 404.202 124.868 403.058 124.744 401.326C124.631 400.092 124.983 399.056 125.751 398.241C127.217 396.713 129.899 396.5 130.988 396.494L131.193 396.481L131.323 396.318C131.463 396.118 131.641 395.93 131.891 395.767C133.391 394.662 135.558 394.689 137.108 395.827C139.213 397.4 139.467 400.041 139.467 401.113L139.484 401.325L139.655 401.424C140.038 401.759 141.664 403.047 140.885 404.97Z" fill="#FEFFFA"/>
<path d="M69.3017 395.973C69.4478 396.02 69.5573 396.055 69.7147 396.064C72.4599 396.659 73.852 393.733 74.8189 392.504C75.6803 393.24 77.3339 394.274 78.1373 394.533C78.056 397.09 78.7099 398.926 79.9782 400.043C81.3195 401.185 83.037 401.197 84.0381 401.062C84.2852 402.517 85.2061 404.397 87.4338 405.116C87.6894 405.199 87.9451 405.281 88.2599 405.3C91.8399 405.914 92.7191 400.948 93.2514 399.161C94.7751 399.153 96.5932 398.157 97.701 396.723C99.3162 394.661 99.274 391.981 99.0759 389.958C99.4134 389.901 101.582 389.475 101.905 389.33C101.819 390.427 101.334 392.187 102.094 393.266C102.853 394.344 104.097 394.871 105.804 394.921C106.052 395.835 106.628 397.395 107.953 398.323C108.309 398.605 108.699 398.772 109.101 398.902C109.795 399.126 110.582 399.172 111.437 398.989C114.545 398.367 114.403 394.947 114.341 392.469C114.45 392.504 115.448 392.784 115.557 392.82C116.251 393.044 116.892 393.042 117.542 392.877C118.9 392.482 119.813 390.36 120.397 389.34C120.896 390.085 121.62 391.818 122.682 392.286C123.988 392.874 125.472 392.728 127.076 391.913C128.357 391.243 128.553 390.181 128.854 388.903C129.365 386.652 127.874 384.129 127.048 382.737C127.132 382.723 128.136 382.714 128.257 382.711C128.701 382.563 129.642 381.825 130.025 381.615C130.141 382.569 130.413 384.074 131.35 384.959C132.287 385.845 133.875 386.024 135.54 385.811C135.341 386.747 135.096 388.376 135.675 389.522C136.129 390.418 136.397 391.13 137.492 391.483C137.785 391.578 138.125 391.646 138.465 391.714C140.224 391.99 141.608 391.645 142.593 390.755C143.092 390.291 143.409 389.226 143.616 388.668C144.123 389.249 144.81 390.303 145.686 390.586C146.88 391.013 148.123 390.873 149.415 390.165C152.524 388.46 153.278 385.662 153.442 384.173C154.071 384.21 154.796 384.194 155.567 384.026C156.759 383.786 157.677 383.124 158.261 382.104C159.232 380.459 158.72 377.877 158.523 376.522C159.274 376.556 160.97 376.104 161.676 375.748C162.307 376.452 163.182 377.817 164.679 378.301C165.519 378.572 166.232 379.135 167.082 378.701C168.722 377.897 170.03 376.195 170.56 374.283C170.863 373.13 170.84 371.998 170.542 370.985L170.578 370.997C172.493 370.615 174.172 367.532 174.824 366.284C175.88 367.042 178.004 368.644 179.774 368.215C180.941 367.925 181.369 367.563 181.909 366.154C183.415 362.308 181.587 358.634 180.453 356.935C182.394 356.062 183.192 352.444 183.453 351.029C185.041 351.208 187.36 351.623 188.599 348.94C190.037 345.862 187.775 342.841 186.625 341.595C186.932 341.235 187.236 340.75 187.516 340.216C189.919 335.242 187.751 331.5 187.426 330.979C186.858 329.795 186.293 329.405 185.248 329.151C184.167 328.885 183.043 329.564 182.289 329.946C182.051 328.327 181.207 324.847 179.498 323.462C177.814 322.127 175.923 323.1 174.721 323.503C174.672 322.863 174.571 321.455 174.385 320.603C173.788 318.036 172.476 316.529 170.523 316.232C169.188 316.009 168.982 316.568 168.126 317.291C167.531 317.808 166.955 319.205 166.726 319.84C165.557 318.254 162.795 315.029 160.516 314.752C159.97 314.701 159.654 315.224 159.173 315.36C158.964 314.585 158.448 312.96 157.854 311.726C156.455 308.9 154.375 307.145 151.863 306.71C149.424 306.297 147.559 307.987 146.439 310C145.372 308.073 143.053 305.241 139.89 305.512C138.127 305.651 137.381 306.41 136.569 307.523C135.968 308.329 135.77 309.265 135.723 309.958C134.692 309.792 132.488 309.664 131.176 310.574C130.973 310.717 130.807 310.871 130.641 311.026C129.676 309.965 127.656 308.146 125.493 308.823C123.653 309.354 123.432 311.574 123.378 313.098C122.328 312.593 120.447 311.652 118.981 312.137C117.695 312.556 117.247 313.119 116.69 314.856C115.77 317.809 116.24 318.919 117.022 319.921L117.681 320.8C117.132 321.165 115.801 322.944 115.355 323.633C113.736 322.485 112.091 321.288 110.612 321.685C108.555 322.272 107.238 324.679 106.726 325.723C104.821 325.399 103.188 325.372 101.926 326.382C101.189 326.977 100.682 328.813 100.366 330.544C99.473 330.048 97.8472 329.19 96.3991 329.347C94.9397 329.543 93.6768 329.885 92.6307 331.381C92.3487 331.79 91.7106 333.126 91.5495 333.532C90.5394 332.623 88.9034 331.261 86.5576 331.879C84.8615 332.332 83.9575 333.081 83.4366 334.83C83.0289 336.198 83.1551 337.656 83.7232 338.839C82.7386 339.188 81.3259 339.898 80.4712 341.289C79.7574 342.475 79.6054 343.926 80.0376 345.566C80.403 346.892 81.6574 347.922 82.6511 348.617C81.596 349.068 79.5539 350.951 78.9107 352.035C77.8074 351.304 76.2295 350.419 75.1981 350.253C73.7311 350.071 73.1581 349.845 71.9042 351.232C69.9881 353.363 70.7657 356.531 72.7054 359.156C69.1029 359.827 68.2697 361.683 68.3282 364.577C66.8612 364.395 64.2394 363.924 62.6744 364.877C61.8384 365.399 61.365 365.912 61.3262 366.983C61.216 369.906 62.7362 371.521 64.1177 372.259C63.4467 373.167 62.6424 374.658 62.7963 376.29C62.9036 377.408 64.0586 378.906 65.0435 379.766C63.0504 381.081 60.0803 383.122 60.9108 386.515C61.7552 389.995 64.7133 390.95 66.6979 391.007C66.5282 392.786 67.074 395.254 69.3017 395.973Z" fill="#FEFFFA"/>
<path d="M114.918 443.735C115.429 443.9 115.436 444.278 116.052 444.227C117.259 444.074 118.263 443.524 118.957 442.539C120.051 441.018 120.266 437.879 120.212 436.445C121.176 436.839 122.458 438.045 123.693 437.527C124.844 437.023 125.571 435.925 125.912 434.243C126.779 429.856 123.076 426.162 121.269 424.703C122.266 423.775 122.694 422.205 122.53 420.069C122.53 420.069 122.541 420.031 122.505 420.019C122.798 419.572 123.923 417.81 123.562 416.069C123.386 415.179 122.803 414.449 121.899 413.99C119.478 412.709 117.378 414.115 116.289 414.68C115.249 413.469 112.256 410.212 109.766 410.241C108.762 410.25 108.37 410.624 107.711 411.494C107.062 412.327 106.953 413.5 106.85 414.383C105.098 413.276 102.484 411.974 100.328 411.82C96.9243 411.554 95.128 414.224 93.8517 416.896L93.8177 417.01C93.6906 417.302 93.4728 417.898 93.3344 418.229C91.9 417.266 90.3358 416.469 89.0237 416.171C86.9219 415.701 85.3555 415.987 84.3862 417.09C83.2619 418.311 83.2284 420.841 83.3748 422.097C82.5008 421.94 81.3271 421.311 80.3614 421.999C79.3366 422.752 78.8924 424.108 79.0036 426.019C79.0768 427.251 79.4259 428.364 80.062 429.319C78.4893 429.895 75.6249 431.178 74.4819 433.268C73.9457 434.261 73.8338 435.308 74.1463 436.409C75.2489 440.098 77.7512 441.239 78.9312 441.578C78.9541 442.711 79.2077 445.084 80.6687 446.764C81.2997 447.468 82.0352 447.955 82.9117 448.238C83.5325 448.438 84.1873 448.525 84.9013 448.547C89.1826 448.554 90.6574 443.738 91.4842 440.964C92.7021 441.982 94.7285 443.511 95.9939 443.294C97.0907 443.106 98.3081 441.708 98.8884 441.103C99.5373 442.688 100.412 445.262 102.128 445.816C102.749 446.016 103.463 446.038 104.27 445.882C106.652 445.276 108.216 443.656 109.021 441.624C109.505 440.405 109.472 438.77 109.12 437.531C109.64 437.532 111.679 437.274 112.075 437.152C112.19 438.647 112.201 441.567 113.73 443.019C114.182 443.248 114.443 443.582 114.918 443.735Z" fill="#FEFFFA"/>
<path d="M52.1485 358.688C52.4647 359.373 52.9949 359.878 53.7871 360.175C53.8236 360.187 53.8601 360.199 53.8966 360.21C54.7 360.47 55.4367 360.416 56.0952 360.087C56.6215 359.798 57.203 358.653 57.485 358.244C57.9787 358.736 58.499 359.946 59.4069 359.989C60.3513 360.044 61.2125 359.572 61.954 358.561C63.933 355.95 62.3772 352.573 59.9137 350.361C59.3104 349.833 58.6845 349.381 58.0359 349.005C55.7728 347.733 53.437 347.646 51.2953 348.788C49.0579 349.982 47.5183 352.194 47.632 354.23C47.6688 355.45 48.3162 356.368 49.3778 356.835C50.4508 357.265 51.7565 356.645 52.4062 356.479C52.3068 356.947 51.9444 358.164 52.1485 358.688Z" fill="#FEFFFA"/>
<path d="M75.8984 338.23C76.3024 337.277 76.1838 336.197 75.593 335.09C73.9831 332.029 70.5581 332.506 68.7349 333.251C68.1732 332.987 66.895 332.574 65.6347 333.042C64.6022 333.417 63.833 334.252 63.2905 335.535C62.5983 337.187 62.9725 338.349 63.4096 339.032C64.3342 340.497 66.2193 341.022 67.4194 341.16C67.4233 341.952 67.6062 343.22 68.3606 344.046C68.5709 344.281 68.9022 344.513 69.3404 344.654C69.6326 344.749 70.0204 344.791 70.4309 344.756C71.2519 344.688 71.9217 344.321 72.4291 343.693C73.1479 342.758 73.2181 341.448 73.1916 340.731C73.9344 340.387 75.3219 339.627 75.8984 338.23Z" fill="#FEFFFA"/>
<path d="M65.186 450.225C64.1923 449.529 63.1559 449.111 62.7176 448.97C61.8234 447.806 59.5413 446.195 56.5699 447.569C55.2755 448.151 54.8463 449.054 54.7381 449.686C54.4564 451.303 55.6757 452.988 56.3319 453.742C55.9958 454.466 55.4924 455.887 55.7987 457.278C56.0356 458.229 56.5709 458.985 57.4525 459.52C57.7585 459.702 58.0759 459.846 58.368 459.94C58.9889 460.14 59.5933 460.127 60.17 459.938C61.239 459.575 61.9691 458.603 62.319 457.966C63.1086 458.137 64.5391 458.307 65.7214 457.564C66.6052 457.016 67.1805 456.16 67.422 454.946C67.7856 453.189 67.002 451.519 65.186 450.225Z" fill="#FEFFFA"/>
<path d="M97.8162 314.514C98.4447 315.092 99.2343 315.263 99.8639 315.3C99.805 316.573 100.237 318.212 101.954 318.766C103.78 319.355 105.12 318.08 105.798 316.882C107.238 317.555 109.52 317.958 111.138 316.022C112 315.009 112.053 314.026 111.967 313.373C111.798 312.194 110.993 311.268 110.427 310.751C110.624 310.357 110.856 309.848 110.989 309.266C111.451 307.582 111.035 306.156 109.845 305.314C108.458 304.325 107.048 303.953 105.639 304.248C103.76 304.642 102.447 306.093 101.929 306.759C100.14 306.848 97.2092 307.819 96.8787 311.212C96.7518 312.712 97.0643 313.813 97.8162 314.514Z" fill="#FEFFFA"/>
<path d="M88.2882 291.273C88.4761 292.792 89.3794 295 91.7897 295.778C91.9723 295.837 92.1549 295.896 92.3123 295.905C93.6975 296.227 94.6066 295.729 95.1303 295.315C96.2483 294.384 96.5779 292.741 96.681 291.857C97.5951 291.611 99.3591 290.93 99.9809 289.381C100.419 288.314 100.261 287.096 99.4488 285.793C97.3225 282.315 93.0513 282.811 90.8315 283.678C89.3064 283.019 86.5046 282.615 85.0884 284.949C84.4339 286.071 84.3132 287.282 84.8197 288.404C85.539 289.886 87.01 290.861 88.2882 291.273Z" fill="#FEFFFA"/>
<path d="M65.6567 305.426C65.1972 306.027 64.6723 306.983 64.6839 308.153C64.7093 309.411 65.3253 310.569 66.5432 311.587C67.0596 312.003 67.5986 312.344 68.1099 312.509C68.7307 312.709 69.3238 312.734 69.9005 312.545C71.1634 312.203 71.921 310.198 72.412 309.356C73.1223 309.794 74.3339 311.101 75.3098 310.916C75.9482 310.789 76.4971 310.425 76.8835 309.799C77.8201 308.268 76.6286 306.759 75.8603 305.844C76.9253 304.688 78.4751 302.98 77.4183 301.556C76.1625 299.859 72.8043 300.65 71.4936 301.018C70.7694 300.493 68.995 299.462 67.4285 299.748C66.6214 299.904 65.9655 300.359 65.5085 301.087C64.8992 302.057 64.6892 303.03 64.8896 303.97C65.071 304.57 65.3708 305.042 65.6567 305.426Z" fill="#FEFFFA"/>
<path d="M37.2483 372.419L37.2117 372.408C37.0657 372.36 34.1113 370.99 32.0035 372.018C31.1171 372.44 30.528 373.209 30.1995 374.311C29.851 375.615 30.0993 376.528 30.685 377.384C31.2959 378.289 32.8586 378.419 33.5273 378.593C33.399 379.427 33.0581 381.108 33.6463 382.09C33.9713 382.611 34.0067 383.164 34.5545 383.341C34.6641 383.376 34.7371 383.4 34.8467 383.435C36.5467 383.776 39.0898 381.555 39.9808 378.968C40.9423 376.278 39.9269 373.909 37.2483 372.419Z" fill="#FEFFFA"/>
<path d="M52.7855 393.767C53.0095 392.881 53.8062 391.013 53.3023 390.017C53.0617 389.481 52.607 389.126 52.0957 388.961C50.4045 388.457 49.1908 389.44 48.6105 390.044C48.6105 390.044 48.6104 390.044 48.5739 390.032C46.894 389.49 44.0746 389.413 42.6435 392.201C42.0506 393.385 41.9614 394.356 42.401 395.165C42.9024 396.035 44.46 395.912 45.2244 396.034C44.9124 397.35 44.4381 399.614 46.1483 400.457C46.283 400.542 46.4291 400.589 46.5752 400.637C48.1821 401.155 49.4776 400.032 50.1938 398.971C50.9658 399.471 52.2856 400.147 53.5372 399.842C54.1391 399.703 54.9525 399.257 55.5315 397.986C56.0173 396.893 56.0222 395.936 55.5938 395.09C55.0534 394.082 53.5159 394.002 52.7855 393.767Z" fill="#FEFFFA"/>
<path d="M32.139 423.559C31.7336 423.845 31.2741 424.447 31.2718 425.529C31.2757 426.322 31.5554 426.996 32.0743 427.538C33.1235 428.585 34.8688 428.773 35.6306 428.769C36.0538 429.364 36.7805 430.015 37.584 430.275C38.1683 430.463 38.8092 430.462 39.4677 430.133C40.4977 429.632 41.0653 428.398 41.0008 427.003C40.9389 425.733 40.3959 424.599 39.5257 424.027C39.5973 423.383 39.6248 422.35 39.0756 421.507C38.801 421.085 38.2708 420.58 37.2281 420.452C36.1741 420.362 35.5774 420.752 35.2589 421.15C34.7742 421.701 34.7971 422.834 34.8211 423.425C34.0819 423.353 32.8655 423.002 32.139 423.559Z" fill="#FEFFFA"/>
<path d="M118.577 294.549C117.906 295.458 116.165 297.271 116.31 299.067C116.42 300.311 117.058 301.392 118.212 302.223C118.74 302.602 119.217 302.881 119.728 303.046C120.459 303.281 121.136 303.292 121.808 303.05C122.973 302.635 123.688 300.907 124.142 300.054C125.127 300.913 126.94 302.623 129.347 302.067C130.936 301.705 131.965 300.537 132.151 298.972C132.323 297.32 131.053 295.535 129.689 294.47C130.476 293.307 132.207 290.991 131.936 288.945C131.795 287.941 131.282 287.109 130.412 286.537C127.751 284.719 124.804 286.143 123.258 287.436C121.374 286.37 118.101 285.396 116.291 287.979C115.679 288.823 115.469 289.797 115.611 290.801C115.801 292.445 117.763 293.787 118.577 294.549Z" fill="#FEFFFA"/>
<path d="M66.9539 413.256C68.0243 413.559 69.0141 413.462 69.8388 412.978C70.6156 412.521 71.0485 411.202 71.3506 410.592C71.9539 411.12 72.8847 412.295 73.79 412.212C74.2484 412.152 74.9207 411.911 75.4091 410.943C76.3267 409.073 75.5596 407.617 74.6364 406.819C75.2847 405.987 76.2351 404.544 76.0497 403.15C75.9779 402.586 75.6704 401.736 74.6906 401.129C72.0825 399.537 68.9963 400.624 68.1213 401.008C67.7082 400.916 66.8821 400.733 65.9516 400.766C64.127 400.844 62.849 401.64 62.2248 403.063C61.7641 404.206 61.9507 405.058 62.2391 405.568C62.7934 406.663 64.5135 406.802 65.317 407.061C65.059 408.061 64.2813 410.268 64.925 411.601C65.3281 412.398 65.9566 412.975 66.8331 413.258L66.9426 413.294L66.9539 413.256Z" fill="#FEFFFA"/>
<path d="M88.8979 316.635C89.3158 315.77 90.3053 314.465 90.0432 313.463C89.873 312.825 89.4158 312.344 88.7698 312.094C86.5622 311.173 84.0581 313.531 83.1932 314.419C81.5323 314.216 78.8187 314.59 78.0537 317.427C77.7165 318.693 77.8351 319.773 78.4094 320.666C79.208 321.882 80.82 322.652 83.3549 323.012C83.758 323.809 84.7468 325.461 86.4998 326.027C86.9015 326.157 87.3624 326.222 87.8459 326.212C89.0547 326.185 89.6603 325.631 89.9536 325.184C90.4697 324.392 90.4607 323.348 90.3246 322.595C90.8786 322.483 91.5988 322.215 92.0948 321.625C92.4612 321.202 92.8564 320.413 92.6736 319.145C92.5462 318.229 92.0839 317.497 91.4215 317.033C90.8207 316.631 89.5275 316.672 88.8979 316.635Z" fill="#FEFFFA"/>
<path d="M89.9455 459.966C90.268 460.362 90.6974 460.667 91.2087 460.832C91.8295 461.032 92.5914 461.028 93.3368 460.811C94.5745 460.418 95.297 459.068 95.6393 458.054C96.2664 457.965 97.4212 458.254 98.0834 457.509C98.4019 457.112 98.7631 456.437 98.608 455.346C98.4529 454.254 97.9227 453.75 97.4819 453.482C96.8333 453.106 95.7606 453.885 95.1701 453.986C95.0931 453.17 95.167 451.443 94.4403 450.792C94.0587 450.461 93.3623 450.111 92.3273 450.36C91.5932 450.54 90.9738 451.007 90.6238 451.644C89.8648 452.982 90.7265 454.927 90.8878 455.729C90.1464 456.739 88.754 458.456 89.9455 459.966Z" fill="#FEFFFA"/>
<path d="M29.634 465.957C28.6105 467.376 25.9511 467.435 24.9953 467.418C24.5081 467.844 23.2944 468.827 21.8665 468.783C21.5882 468.776 21.3212 468.732 21.0656 468.649C20.4812 468.461 19.917 468.07 19.446 467.502C18.8515 466.81 18.6536 465.996 18.7819 465.162C19.0497 463.457 21.0038 462.005 21.8989 461.419C21.681 460.807 21.2753 459.884 21.6454 459.045C21.8656 458.575 22.3138 458.011 23.3488 457.762C24.4204 457.524 25.1281 457.836 25.5576 458.141C26.2817 458.667 26.5892 459.516 26.7454 460.066C27.501 460.352 29.0311 461.262 29.8804 463.786C30.252 464.823 29.9638 465.522 29.634 465.957Z" fill="#FEFFFA"/>
<path d="M91.5378 486.062C91.6409 485.178 91.823 482.821 89.9804 480.809C89.1894 479.971 88.3004 480.267 87.7943 480.354C86.0591 480.669 85.1845 483.47 84.7918 484.384C84.1925 484.649 82.6652 485.073 82.0522 486.458C81.6595 487.373 81.4191 488.046 81.8387 489.056C82.1826 489.917 82.7997 490.533 83.5667 490.78C85.2101 491.311 87.2813 490.271 88.2495 489.708C88.7067 490.189 89.4447 490.803 90.3526 490.846C90.8613 490.885 91.5954 490.705 92.3029 489.808C93.0218 488.874 93.0657 488.055 92.9938 487.49C92.8438 486.65 91.9446 486.443 91.5378 486.062Z" fill="#FEFFFA"/>
<path d="M118.739 495.133C118.091 494.216 116.494 494.2 115.595 493.993C115.712 493.198 115.935 491.645 115.335 490.701C114.811 489.907 113.932 489.498 112.794 489.423C111.45 489.364 110.676 489.947 110.287 490.447C109.45 491.51 109.679 493.292 109.759 494.234C108.409 494.465 106.437 495.037 106.382 497.103C106.35 499.092 108.19 499.769 109.502 500.068C109.275 500.828 108.795 502.173 109.332 503.055C109.632 503.526 110.025 503.82 110.61 504.009C111.011 504.138 111.472 504.204 112.004 504.167C115.121 504.048 115.966 500.946 116.267 499.127C117.061 498.883 118.796 498.568 119.109 496.711C119.195 496.155 119.075 495.616 118.739 495.133Z" fill="#FEFFFA"/>
<path d="M230.043 453.061C229.216 454.478 228.194 455.334 227 455.553C226.108 455.707 225.328 455.486 224.827 455.276L224.252 455.042L224.036 455.631C223.695 456.633 223.059 457.949 221.851 458.618C221.708 458.693 221.516 458.794 221.288 458.883L220.748 459.074L220.942 459.635C221.396 460.946 221.996 463.381 220.661 464.875C219.457 466.207 217.725 465.666 216.807 465.233L215.999 464.837L215.971 465.738C215.96 466.85 215.741 468.389 214.795 469.395C213.967 470.274 212.751 470.568 211.146 470.276C210.684 470.204 210.271 470.106 209.868 469.97C208.404 469.478 207.379 468.596 206.892 467.398L206.621 466.687L206.036 467.027C205.45 467.368 204.814 467.609 204.15 467.675L203.57 467.728L203.632 468.328C203.88 470.189 203.55 471.691 202.641 472.709C201.307 474.204 199.083 474.365 198.199 474.357L197.762 474.335L197.639 474.748C197.109 476.514 196.11 477.832 194.841 478.438C194.145 478.742 193.002 479.061 191.49 478.593L190.722 478.335L190.753 479.172C190.798 480.097 190.683 481.423 189.971 482.59C189.222 483.744 188.051 484.425 186.435 484.709C186.049 484.786 185.613 484.763 185.224 484.715L184.399 484.644L184.599 485.456C184.906 486.717 184.96 488.555 183.533 490.225C182.531 491.418 181.041 491.951 179.484 491.634C178.268 491.39 177.15 490.684 176.463 489.749L176.063 489.201L175.602 489.666C174.904 490.383 173.75 491.276 172.347 491.384C171.151 491.478 169.966 490.996 168.865 489.964C167.949 489.119 167.443 488.121 167.31 487.084L167.164 485.96L166.344 486.677C165.311 487.57 164.317 488.062 163.411 488.13L162.831 488.183L162.893 488.783C163.031 490.07 162.924 491.233 162.606 492.16C162.187 493.425 161.165 494.28 159.614 494.751C156.559 495.667 154.864 493.526 153.949 491.605L153.58 490.819L152.989 491.447C152.172 492.289 150.531 493.598 148.445 492.896C148.189 492.81 147.944 492.686 147.662 492.55L147.074 492.228L146.846 492.855C146.404 494.195 145.368 496.576 143.764 497.359C143.02 497.688 142.246 497.717 141.449 497.284C138.879 496.047 138.467 493.924 138.442 492.799L138.414 492.086L137.738 492.19C136.713 492.382 135.213 492.415 134.033 491.646C133.233 491.088 132.67 490.278 132.414 489.117L132.239 488.355L131.594 488.758C130.699 489.326 128.329 490.513 126.059 489.75C125.437 489.541 124.885 489.231 124.39 488.733C121.596 486.222 122.792 482.903 123.232 481.975L123.474 481.436L122.947 481.177C121.894 480.657 119.549 479.206 120.204 476.615C120.863 474.148 123.517 473.222 125.06 472.914L125.615 472.811L125.505 472.236C125.277 471.25 125.243 470.287 125.381 469.424L125.431 468.986L125.051 468.775C122.945 467.736 121.717 466.455 121.416 464.906C121.103 463.394 121.725 461.991 122.311 461.113L122.615 460.636L122.195 460.288C121.418 459.654 119.683 457.913 120.576 455.07C121.544 451.839 126.4 452.439 127.859 452.682L128.284 452.742L128.481 452.353C129.106 451.075 130.189 450.281 131.743 449.936C134.153 449.423 137.017 450.221 138.481 451.251L138.948 451.574L139.289 451.109C139.441 450.871 139.677 450.619 139.939 450.418L140.688 449.802L139.795 449.419C138.965 449.098 137.872 448.441 137.351 447.356C136.856 446.321 136.937 445.107 137.57 443.666L137.767 443.278L137.458 442.967C136.864 442.395 135.844 441.225 135.641 439.75C135.472 438.701 135.787 437.649 136.491 436.645C138.394 434.06 141.635 435.481 142.947 436.211L143.707 436.633L143.772 435.745C143.85 434.944 144.078 434.318 144.515 433.803C145.365 432.848 146.727 432.603 147.707 432.561L148.639 432.543L148.171 431.683C147.842 431.035 147.408 430.062 147.493 428.974C147.56 427.673 148.272 426.506 149.581 425.499C150.58 424.719 151.664 424.463 152.748 424.745C154.77 425.26 156.358 427.489 157.149 428.748L157.589 429.433L158.154 428.755C158.214 428.693 158.225 428.655 158.284 428.592C158.58 428.278 158.864 428.001 159.258 427.762L159.925 427.283L159.224 426.799C158.596 426.34 157.743 425.557 157.439 424.421C157.16 423.334 157.41 422.095 158.288 420.778L158.733 420.1L157.953 419.879C157.173 419.658 156.098 419.214 155.484 418.304C154.87 417.395 154.783 416.207 155.21 414.78C155.683 413.202 156.519 412.16 157.575 411.729C158.079 411.527 158.622 411.461 159.205 411.533L160.103 411.629L159.804 410.742C159.52 409.944 159.393 409.157 159.486 408.444C159.618 407.33 160.237 406.339 161.31 405.583C163.953 403.619 166.521 404.193 167.816 404.712L168.317 404.922L168.512 404.408C168.728 403.819 169.066 403.23 169.525 402.64C170.184 401.786 171.008 401.319 171.999 401.239C173.728 401.117 175.547 402.308 176.459 403.029L177.051 403.476L177.338 402.787C177.613 402.135 178.024 401.57 178.548 401.167L178.869 400.903L178.751 400.491C178.297 399.181 177.413 395.947 179.268 394.462C180.588 393.417 182.48 393.02 184.22 393.398C185.242 393.618 186.112 394.076 186.782 394.798L187.241 395.283L187.652 394.718L187.663 394.681C188.733 393.262 190.98 393.026 192.238 392.994L192.88 393.003L192.793 392.353C192.632 391.141 192.522 388.954 193.594 387.661C194.23 386.882 195.227 386.514 196.514 386.658C200.239 387.001 202.477 390.152 203.463 391.973L203.804 392.584L204.339 392.143C205.836 390.91 208.429 391.534 209.502 391.854L210.014 392.026L210.209 391.512C210.574 390.56 211.734 388.304 214.654 388.376C217.646 388.473 219.15 391.791 219.643 393.239L219.812 393.75L220.33 393.635C220.764 393.533 221.27 393.455 221.791 393.465C226.974 393.513 229.078 397.115 229.281 397.514L229.306 397.564C229.945 398.524 230.196 399.435 229.999 400.361C229.78 401.363 229.07 402.116 228.536 402.557L227.942 403.06L228.569 403.519C229.752 404.413 231.802 406.178 232.199 408.214C232.532 410.063 231.524 411.543 230.648 412.448L230.08 413.001L230.767 413.398C231.209 413.671 231.885 414.105 232.563 414.664C234.343 416.255 235.01 417.927 234.456 419.643C234.096 420.845 233.46 421.623 232.536 422.016C232.021 422.256 231.393 422.334 230.737 422.238L229.729 422.105L230.174 423.041C230.875 424.6 231.982 427.495 231.231 429.599C231.059 430.038 230.814 430.452 230.519 430.766L230.105 431.206L230.55 431.603C231.119 432.125 231.924 432.934 232.687 434.018C234.413 436.459 234.98 439.007 234.259 441.411C233.595 443.628 232.027 444.961 230.02 445.072L229.04 445.114L229.592 445.962C230.521 447.432 231.71 450.189 230.043 453.061Z" fill="#FEFFFA"/>
<path d="M201.001 495.74L200.821 495.803L200.765 495.991C200.525 496.654 199.197 500.009 195.985 499.301C195.791 499.277 195.608 499.216 195.425 499.154C194.51 498.847 193.857 498.338 193.44 497.578C192.734 496.307 192.812 494.433 193.662 491.867L193.718 491.679L193.606 491.517C192.992 490.609 191.632 488.292 192.825 485.924C193.335 484.897 194.019 484.631 194.478 484.579C194.815 484.527 195.156 484.6 195.485 484.711C195.961 484.871 196.403 485.144 196.724 485.417L197.02 485.64L197.231 485.339C197.549 484.95 198.07 484.423 198.779 484.207C199.26 484.08 200.071 484.063 201.02 484.795C201.709 485.316 202.112 485.989 202.202 486.763C202.264 487.362 202.183 488.037 201.848 488.751L201.606 489.29L202.2 489.324C203.472 489.38 204.435 489.662 204.967 490.172C205.375 490.557 205.569 491.118 205.499 491.756C205.347 494.143 201.986 495.41 201.001 495.74Z" fill="#FEFFFA"/>
<path d="M174.447 506.701C174.436 507.275 174.228 508.776 173.209 509.756C172.404 510.56 171.298 510.891 169.879 510.786C168.46 510.68 167.43 510.086 166.85 509.064C165.853 507.282 166.573 504.879 166.787 504.166L166.888 503.828L166.618 503.654C165.957 503.308 164.861 502.526 164.473 501.404C164.293 500.93 164.239 500.168 164.762 499.228C165.182 498.501 165.801 498.048 166.572 497.894C167.211 497.778 167.867 497.875 168.453 498.071C168.929 498.231 169.309 498.442 169.59 498.578L169.835 498.702L170.049 498.526C170.713 497.922 172.059 496.928 173.526 497.008C174.545 497.103 175.417 497.685 176.144 498.756C178.588 502.43 174.962 505.923 174.571 506.287L174.464 506.375L174.447 506.701Z" fill="#FEFFFA"/>
<path d="M111.426 480.981C112.927 481.049 114.205 480.253 115.066 478.573C115.52 477.72 115.733 476.872 115.821 476.442C116.534 475.797 118.832 473.456 118.611 470.301C118.527 469.107 117.958 468.465 117.492 468.148C116.363 467.367 114.698 467.58 113.711 467.803C113.421 466.626 112.522 465.211 110.504 465.268C109.463 465.265 108.954 465.767 108.672 466.176C108.203 466.942 108.61 468.532 108.82 469.307C108.167 469.347 106.999 468.97 106.283 469.489C105.473 470.06 104.982 470.902 104.763 472.04C104.589 473.025 104.765 473.915 105.311 474.633C106.194 475.835 108.437 476.1 109.409 476.331C109.269 477.202 108.625 478.827 109.323 479.844C109.572 480.216 109.979 480.598 110.636 480.81C110.844 480.919 111.111 480.963 111.426 480.981Z" fill="#FEFFFA"/>
<path d="M251.24 456.553C250.863 457.541 250.266 457.919 249.796 458.009C249.098 458.188 248.33 457.929 247.84 457.682L247.46 457.472L247.336 457.884C247.063 458.66 246.601 459.662 245.751 460.079C245.416 460.255 244.851 460.395 244.119 460.149C243.972 460.1 243.789 460.039 243.654 459.952C242.956 459.593 242.483 459.021 242.261 458.285C241.791 456.764 242.511 454.899 242.857 454.148L242.95 453.972L242.874 453.823C242.657 453.337 241.621 450.882 243.394 449.536C244.121 448.995 245.075 448.903 246.026 449.222C246.319 449.321 246.601 449.457 246.871 449.63C248 450.299 248.726 451.369 248.884 452.455L248.889 452.705L249.109 452.779C249.658 452.964 250.674 453.47 251.13 454.367C251.431 454.841 251.617 455.564 251.24 456.553Z" fill="#FEFFFA"/>
<path d="M235.412 472.733C234.331 474.187 231.306 474.203 230.433 474.157L230.275 474.146L230.169 474.234C229.67 474.686 228.362 475.691 226.859 475.599C225.938 475.579 225.08 475.084 224.37 474.226C223.773 473.53 223.537 472.707 223.7 471.894C224.01 470.057 225.997 468.536 226.855 467.958L227.106 467.794L226.99 467.507C226.833 466.959 226.568 465.961 226.948 465.098C227.156 464.672 227.604 464.12 228.639 463.89C229.278 463.775 229.788 463.822 230.19 463.957C230.483 464.056 230.691 464.167 230.852 464.303C231.578 464.837 231.888 465.684 232.034 466.27L232.099 466.457L232.282 466.519C233.149 466.851 234.708 467.83 235.665 470.547C235.879 471.445 235.823 472.169 235.412 472.733Z" fill="#FEFFFA"/>
<path d="M202.595 517.958C202.696 518.694 202.823 520.554 202.001 521.683C201.602 522.209 201.064 522.524 200.4 522.59C199.482 522.695 198.739 522.486 198.122 521.99C197.802 521.717 197.514 521.331 197.36 520.907L197.244 520.621L196.943 520.685C196.341 520.813 195.445 520.842 194.649 520.409C193.79 519.914 193.177 519.006 192.903 517.633C192.67 516.398 192.841 515.423 193.455 514.72C194.187 513.892 195.307 513.649 196.129 513.595L196.503 513.556L196.495 513.181C196.467 512.469 196.528 511.458 196.973 510.781C197.266 510.342 197.696 510.115 198.228 510.087C199.762 509.942 200.492 511.137 200.798 511.86L200.939 512.197L201.252 512.095C202.045 511.866 203.973 511.482 204.635 512.902C205.373 514.472 203.324 517.005 202.699 517.745L202.581 517.871L202.595 517.958Z" fill="#FEFFFA"/>
<path d="M236.721 513.333C236.681 513.733 236.341 517.426 233.416 517.641C232.304 517.722 231.338 517.314 230.639 516.417C229.679 515.184 229.555 513.446 229.782 512.281L229.813 512.043L229.616 511.894C228.952 511.422 226.766 509.57 227.568 506.488C227.903 505.235 228.593 504.681 229.156 504.415C230.175 503.972 231.391 504.216 232.197 504.487C232.307 504.524 232.416 504.561 232.526 504.598L232.783 504.684L232.96 504.495C233.574 503.791 234.807 502.634 236.237 502.702C237.231 502.746 238.082 503.405 238.8 504.64C241.169 508.706 237.298 512.617 236.847 513.044L236.74 513.132L236.721 513.333Z" fill="#FEFFFA"/>
<path d="M174.462 323.836C174.462 323.836 174.861 317.257 170.882 316.64C166.903 316.022 166.762 320.393 166.762 320.393C166.762 320.393 161.849 311.891 157.696 316.425C153.542 320.959 158.981 325.547 161.679 325.627C161.679 325.627 159.175 333.36 164.262 333.752C169.313 334.132 168.417 331.093 168.417 331.093C168.417 331.093 169.768 335.695 173.25 335.028C173.25 335.028 172.676 332.384 175.318 332.654C175.27 332.68 170.518 327.938 174.462 323.836Z" stroke="#2E1E00" stroke-width="1.5" stroke-miterlimit="10" stroke-linecap="round" stroke-linejoin="round"/>
<path d="M174.462 323.836C174.462 323.836 177.448 322.009 179.674 323.81C181.899 325.612 182.103 330.302 182.103 330.302C182.103 330.302 185.724 327.555 187.515 331.216C187.515 331.216 189.995 334.85 187.604 339.786C185.212 344.722 181.926 339.495 181.926 339.495C181.926 339.495 174.326 342.833 173.238 335.066" stroke="#2E1E00" stroke-width="1.5" stroke-miterlimit="10" stroke-linecap="round" stroke-linejoin="round"/>
<path d="M161.967 332.72C161.967 332.72 158.713 333.836 158.11 338.141C157.508 342.446 162.501 342.35 162.501 342.35C162.501 342.35 157.132 344.783 160.292 349.761C163.441 354.777 167.025 353.768 167.025 353.768C167.025 353.768 171.167 350.48 174.743 353.259C174.743 353.259 174.404 348.483 176.777 348.582C176.777 348.582 170.482 344.717 174.417 338.363" stroke="#2E1E00" stroke-width="1.5" stroke-miterlimit="10" stroke-linecap="round" stroke-linejoin="round"/>
<path d="M158.706 315.585C158.706 315.585 157.573 307.969 151.893 307.011C146.225 306.015 144.366 313.331 148.134 316.672C148.134 316.672 142.687 318.83 145.144 324.29C147.6 329.749 152.231 325.494 152.231 325.494C152.231 325.494 157.025 331.708 159.695 325.028" stroke="#2E1E00" stroke-width="1.5" stroke-miterlimit="10" stroke-linecap="round" stroke-linejoin="round"/>
<path d="M158.586 340.711C158.586 340.711 149.977 345.015 148.792 335.425C148.792 335.425 138.467 332.592 145.558 325.048" stroke="#2E1E00" stroke-width="1.5" stroke-miterlimit="10" stroke-linecap="round" stroke-linejoin="round"/>
<path d="M186.259 341.477C186.259 341.477 190.3 345.114 188.701 348.598C187.103 352.082 183.417 351.017 183.417 351.017C183.417 351.017 182.388 361.726 174.729 353.171" stroke="#2E1E00" stroke-width="1.5" stroke-miterlimit="10" stroke-linecap="round" stroke-linejoin="round"/>
<path d="M165.271 353.743C165.271 353.743 162.755 359.097 168.647 360.416C168.647 360.416 163.555 364.605 167.734 369.121C171.913 373.636 174.765 366.349 174.765 366.349C174.765 366.349 179.95 370.98 181.872 366.143C183.769 361.255 179.767 356.547 179.767 356.547" stroke="#2E1E00" stroke-width="1.5" stroke-miterlimit="10" stroke-linecap="round" stroke-linejoin="round"/>
<path d="M144.633 333.124C144.633 333.124 140.625 339.455 136.172 333.977C136.172 333.977 130.369 335.854 129.533 331.001C128.708 326.11 133.132 319.996 133.132 319.996C133.132 319.996 134.778 321.861 137.522 320.58C137.522 320.58 137.255 328.327 143.327 328.37" stroke="#2E1E00" stroke-width="1.5" stroke-miterlimit="10" stroke-linecap="round" stroke-linejoin="round"/>
<path d="M154.747 341.638C154.747 341.638 154.138 351.608 147.226 347.127C147.226 347.127 143.109 350.465 140.002 344.504C137.964 340.596 140.244 336.166 140.244 336.166" stroke="#2E1E00" stroke-width="1.5" stroke-miterlimit="10" stroke-linecap="round" stroke-linejoin="round"/>
<path d="M146.322 310.796C146.322 310.796 144.737 305.368 139.932 305.775C135.127 306.182 135.815 310.321 135.815 310.321C135.815 310.321 130.314 308.629 129.808 314.09C129.415 317.963 133.132 319.996 133.132 319.996" stroke="#2E1E00" stroke-width="1.5" stroke-miterlimit="10" stroke-linecap="round" stroke-linejoin="round"/>
<path d="M151.863 347.957C151.863 347.957 149.687 353.38 153.682 357.169C157.677 360.958 164.911 357.502 164.911 357.502" stroke="#2E1E00" stroke-width="1.5" stroke-miterlimit="10" stroke-linecap="round" stroke-linejoin="round"/>
<path d="M130.536 311.784C130.536 311.784 128.047 308.314 125.498 309.074C122.95 309.835 123.644 313.684 123.644 313.684C123.644 313.684 118.326 309.634 116.565 315.274C114.805 320.914 119.361 322.551 122.93 321.995C122.93 321.995 123.155 325.942 129.891 326.575" stroke="#2E1E00" stroke-width="1.5" stroke-miterlimit="10" stroke-linecap="round" stroke-linejoin="round"/>
<path d="M129.545 330.963C129.545 330.963 124.679 330.767 124.365 334.374C124.051 337.981 127.008 339.477 127.008 339.477C127.008 339.477 121.904 344.246 128.469 348.948C128.469 348.948 132.813 351.433 134.88 347.184C135.484 345.962 136.296 344.849 137.405 344.082C138.168 343.537 138.911 343.194 139.233 343.589" stroke="#2E1E00" stroke-width="1.5" stroke-miterlimit="10" stroke-linecap="round" stroke-linejoin="round"/>
<path d="M134.33 348.089C134.33 348.089 132.45 354.399 139.774 356.555C139.774 356.555 143.22 354.125 144.338 356.82C144.338 356.82 146.868 350.345 151.9 354.552" stroke="#2E1E00" stroke-width="1.5" stroke-miterlimit="10" stroke-linecap="round" stroke-linejoin="round"/>
<path d="M158.555 358.95C158.555 358.95 156.904 363.417 161.183 365.715C161.183 365.715 155.173 366.941 155.388 371.594C155.64 376.258 159.337 377.285 161.592 375.763C161.592 375.763 164.67 379.673 167.22 378.371C169.77 377.069 171.591 373.24 169.854 370.472" stroke="#2E1E00" stroke-width="1.5" stroke-miterlimit="10" stroke-linecap="round" stroke-linejoin="round"/>
<path d="M139.773 356.555C139.773 356.555 136.028 359.72 140.5 364.997C143.512 368.594 146.12 367.769 147.443 366.821C148.696 365.976 150.175 365.578 151.631 365.798C153.148 366.08 154.858 366.923 155.835 369.155" stroke="#2E1E00" stroke-width="1.5" stroke-miterlimit="10" stroke-linecap="round" stroke-linejoin="round"/>
<path d="M118.06 321.006C118.06 321.006 114.394 322.156 114.973 326.26C115.552 330.363 117.444 334.223 124.413 335.556" stroke="#2E1E00" stroke-width="1.5" stroke-miterlimit="10" stroke-linecap="round" stroke-linejoin="round"/>
<path d="M128.506 348.96C128.506 348.96 122.856 351.261 124.155 356.305C125.48 361.399 129.522 360.329 129.522 360.329C129.522 360.329 123.428 365.195 127.651 367.683C131.837 370.159 133.018 364.582 133.018 364.582C133.018 364.582 136.416 371.72 140.574 365.021" stroke="#2E1E00" stroke-width="1.5" stroke-miterlimit="10" stroke-linecap="round" stroke-linejoin="round"/>
<path d="M118.916 333.449C118.916 333.449 117.414 338.088 114.109 336.147C114.109 336.147 113.205 341.063 108.791 338.68C108.791 338.68 107.321 338.372 106.792 334.91C106.792 334.91 100.202 334.991 100.228 330.875C100.251 326.632 103.4 325.066 106.853 325.972C106.853 325.972 109.406 318.88 115.187 323.662" stroke="#2E1E00" stroke-width="1.5" stroke-miterlimit="10" stroke-linecap="round" stroke-linejoin="round"/>
<path d="M100.228 330.875C100.228 330.875 95.8927 327.017 92.6725 331.644C91.8492 332.795 91.5536 334.325 92.0651 335.698C92.5011 336.922 93.6145 338.156 96.1279 338.051C96.1279 338.051 92.0335 341.313 96.4541 344.614C100.875 347.916 102.664 343.119 102.664 343.119C102.664 343.119 108.014 345.721 109.327 338.895" stroke="#2E1E00" stroke-width="1.5" stroke-miterlimit="10" stroke-linecap="round" stroke-linejoin="round"/>
<path d="M112.613 338.747C112.613 338.747 110.127 343.195 113.234 346.739C116.33 350.321 119.503 348.137 119.503 348.137C119.503 348.137 120.518 352.256 124.339 352.865" stroke="#2E1E00" stroke-width="1.5" stroke-miterlimit="10" stroke-linecap="round" stroke-linejoin="round"/>
<path d="M136.677 367.888C136.677 367.888 131.833 371.782 134.321 375.794C136.809 379.805 141.703 378.426 143.467 377.746C143.467 377.746 143.851 371.62 148.356 372.49C148.356 372.49 144.91 369.545 146.115 367.517" stroke="#2E1E00" stroke-width="1.5" stroke-miterlimit="10" stroke-linecap="round" stroke-linejoin="round"/>
<path d="M126.168 365.538C126.168 365.538 121.616 363.485 119.565 366.74C117.503 370.032 119.028 373.649 122.847 374.132C122.847 374.132 118.655 378.528 123.435 381.696C128.216 384.864 132.649 379.795 134.406 375.779" stroke="#2E1E00" stroke-width="1.5" stroke-miterlimit="10" stroke-linecap="round" stroke-linejoin="round"/>
<path d="M114.357 347.81C114.357 347.81 108.411 346.807 107.508 351.182C106.641 355.569 108.572 357.15 112.009 358.51C112.009 358.51 107.446 361.87 110.772 365.485C114.087 369.138 118.755 368.52 118.755 368.52" stroke="#2E1E00" stroke-width="1.5" stroke-miterlimit="10" stroke-linecap="round" stroke-linejoin="round"/>
<path d="M91.7901 334.068C91.7901 334.068 89.8176 331.015 86.4254 331.92C83.0333 332.825 82.4814 337.23 84.251 339.217C84.251 339.217 78.6098 340.147 80.0326 345.314C81.4553 350.481 87.4562 348.21 87.4562 348.21C87.4562 348.21 87.0943 351.843 91.7927 352.734C96.4545 353.614 97.8493 345.44 97.8493 345.44" stroke="#2E1E00" stroke-width="1.5" stroke-miterlimit="10" stroke-linecap="round" stroke-linejoin="round"/>
<path d="M107.785 355.355C107.785 355.355 100.177 358.857 96.4111 350.267" stroke="#2E1E00" stroke-width="1.5" stroke-miterlimit="10" stroke-linecap="round" stroke-linejoin="round"/>
<path d="M83.801 348.655C83.801 348.655 78.7026 349.509 78.7096 352.845C78.7531 356.192 79.728 357.756 83.4216 359.199C83.4216 359.199 80.3478 365.081 86.2716 367.368C92.1955 369.655 96.5322 363.43 96.5322 363.43C96.5322 363.43 89.9212 356.463 98.7087 353.842" stroke="#2E1E00" stroke-width="1.5" stroke-miterlimit="10" stroke-linecap="round" stroke-linejoin="round"/>
<path d="M110.012 364.406C110.012 364.406 102.833 364.047 103.368 368.97C103.368 368.97 103.102 371.342 106.192 372.256C106.192 372.256 103.586 376.165 105.994 378.025C108.402 379.886 112.202 378.821 112.202 378.821C112.202 378.821 115.495 373.009 121.374 376.656" stroke="#2E1E00" stroke-width="1.5" stroke-miterlimit="10" stroke-linecap="round" stroke-linejoin="round"/>
<path d="M78.7898 352.037C77.7206 351.192 76.4234 350.44 75.0773 350.256C73.6946 350.059 72.5237 350.765 71.6135 351.804C69.3537 354.283 70.5203 356.951 72.6211 359.171C72.6211 359.171 67.9621 359.625 68.1417 363.725C68.3101 367.862 72.6152 367.252 72.6517 367.264C72.0612 367.365 72.2015 370.118 72.3048 370.443C72.7207 371.869 74.0317 372.709 75.3325 373.045C76.549 373.396 78.4656 373.681 79.0395 372.158C79.3504 371.384 79.0795 370.546 79.0755 369.754C79.0804 368.797 79.2652 367.773 79.5371 366.861C80.0693 365.075 81.2779 363.84 83.109 364.681" stroke="#2E1E00" stroke-width="1.5" stroke-miterlimit="10" stroke-linecap="round" stroke-linejoin="round"/>
<path d="M94.7568 365.357C94.7568 365.357 96.5314 372.971 103.484 369.924" stroke="#2E1E00" stroke-width="1.5" stroke-miterlimit="10" stroke-linecap="round" stroke-linejoin="round"/>
<path d="M78.4866 372.938C78.4866 372.938 79.6484 376.563 83.3264 376.042C83.3264 376.042 81.6378 382.247 85.5228 383.584C89.4556 384.895 91.9654 379.83 91.9654 379.83C91.9654 379.83 87.6294 371.14 96.8037 369.101" stroke="#2E1E00" stroke-width="1.5" stroke-miterlimit="10" stroke-linecap="round" stroke-linejoin="round"/>
<path d="M112.166 378.809C112.166 378.809 111.557 382.196 114.185 382.377C114.185 382.377 109.022 387.21 113.595 391.478C118.179 395.707 120.198 389.068 120.198 389.068C120.198 389.068 121.887 394.279 126.652 391.859C131.416 389.439 126.587 382.672 126.587 382.672" stroke="#2E1E00" stroke-width="1.5" stroke-miterlimit="10" stroke-linecap="round" stroke-linejoin="round"/>
<path d="M91.9771 379.792C91.9771 379.792 93.5024 381.66 95.92 381.607C95.92 381.607 92.782 387.302 97.6518 389.499C102.51 391.733 103.396 383.52 111.741 387.088" stroke="#2E1E00" stroke-width="1.5" stroke-miterlimit="10" stroke-linecap="round" stroke-linejoin="round"/>
<path d="M86.7117 383.759C86.7117 383.759 81.5951 387.899 83.8108 391.614C86.0265 395.329 89.7346 393.901 89.7346 393.901C89.7346 393.901 88.6199 398.583 93.2766 399.211C97.9333 399.839 99.9277 392.608 99.0646 389.996" stroke="#2E1E00" stroke-width="1.5" stroke-miterlimit="10" stroke-linecap="round" stroke-linejoin="round"/>
<path d="M102.086 388.722C102.086 388.722 99.9534 395.075 106.127 394.776C106.127 394.776 106.881 399.769 111.049 398.947C115.217 398.126 114.075 391.883 114.075 391.883" stroke="#2E1E00" stroke-width="1.5" stroke-miterlimit="10" stroke-linecap="round" stroke-linejoin="round"/>
<path d="M143.515 377.72C143.515 377.72 144.623 382.869 150.156 381.363C150.156 381.363 151.431 384.607 155.742 383.707C160.054 382.807 158.24 376.264 158.24 376.264" stroke="#2E1E00" stroke-width="1.5" stroke-miterlimit="10" stroke-linecap="round" stroke-linejoin="round"/>
<path d="M130.247 381.27C130.247 381.27 129.537 387.416 136.046 385.725C136.046 385.725 133.752 390.734 138.653 391.483C143.554 392.231 143.39 387.679 143.39 387.679C143.39 387.679 145.354 392.104 149.302 390.004C153.251 387.903 153.009 383.742 153.009 383.742" stroke="#2E1E00" stroke-width="1.5" stroke-miterlimit="10" stroke-linecap="round" stroke-linejoin="round"/>
<path d="M68.2327 364.629C68.2327 364.629 61.284 363.095 61.1262 367.252C60.9936 371.459 64.4918 372.213 64.4918 372.213C64.4918 372.213 59.9369 376.617 64.9228 379.768C69.92 382.881 72.5687 373.32 83.0506 380.328" stroke="#2E1E00" stroke-width="1.5" stroke-miterlimit="10" stroke-linecap="round" stroke-linejoin="round"/>
<path d="M64.9224 379.768C64.9224 379.768 59.5309 382.278 60.6626 386.81C61.7578 391.33 66.6561 390.744 66.6561 390.744C66.6561 390.744 65.938 395.304 69.1076 395.952C72.3137 396.611 74.8439 392.553 74.8439 392.553C74.8439 392.553 71.2466 388.101 75.5524 384.533C75.5524 384.533 70.8423 381.262 75.0411 377.784" stroke="#2E1E00" stroke-width="1.5" stroke-miterlimit="10" stroke-linecap="round" stroke-linejoin="round"/>
<path d="M84.4332 392.482C84.4332 392.482 79.9753 397.501 74.8191 392.504" stroke="#2E1E00" stroke-width="1.5" stroke-miterlimit="10" stroke-linecap="round" stroke-linejoin="round"/>
<path d="M93.2769 399.211C93.2769 399.211 91.5985 405.919 87.8975 405.308C84.1965 404.696 84.1907 400.82 84.1907 400.82C84.1907 400.82 77.6759 402.8 78.3064 394.504" stroke="#2E1E00" stroke-width="1.5" stroke-miterlimit="10" stroke-linecap="round" stroke-linejoin="round"/>
<path d="M138.939 401.408C138.939 401.408 139.289 397.813 136.797 395.967C135.385 394.928 133.426 394.92 132.032 395.971C131.722 396.204 131.486 396.461 131.384 396.803C131.384 396.803 124.75 396.495 125.114 401.321C125.566 406.924 130.587 404.045 130.587 404.045C130.587 404.045 128.773 409.46 132.72 409.65C136.666 409.841 136.135 404.503 136.135 404.503C136.135 404.503 139.641 406.843 140.554 404.721C141.393 402.575 138.939 401.408 138.939 401.408Z" stroke="#2E1E00" stroke-width="1.5" stroke-miterlimit="10" stroke-linecap="round" stroke-linejoin="round"/>
<path d="M123.218 287.84C123.218 287.84 118.486 284.645 116.205 287.867C113.96 291.101 118.541 294.538 118.541 294.538C118.541 294.538 114.027 299.206 118.128 302.237C122.228 305.269 123.871 299.758 123.871 299.758C123.871 299.758 126.046 302.668 129.609 301.86C133.173 301.052 132.556 296.27 129.416 294.715C129.416 294.715 133.991 288.9 130.508 286.484C127.024 284.068 123.218 287.84 123.218 287.84Z" stroke="#2E1E00" stroke-width="1.5" stroke-miterlimit="10" stroke-linecap="round" stroke-linejoin="round"/>
<path d="M90.6797 283.92C90.6797 283.92 86.6724 281.919 84.9177 284.852C83.1629 287.785 86.2158 290.437 88.6185 290.838C88.6185 290.838 88.632 295.092 92.5798 295.95C96.5276 296.807 96.553 291.482 96.553 291.482C96.553 291.482 102.602 290.393 99.8006 285.823C96.9992 281.252 90.6797 283.92 90.6797 283.92Z" stroke="#2E1E00" stroke-width="1.5" stroke-miterlimit="10" stroke-linecap="round" stroke-linejoin="round"/>
<path d="M101.996 307.072C101.996 307.072 97.0822 306.903 96.6398 311.343C96.1975 315.783 100.194 314.865 100.194 314.865C100.194 314.865 99.341 318.131 101.824 318.933C104.308 319.734 105.619 316.408 105.619 316.408C105.619 316.408 109.103 318.823 111.453 316.041C113.756 313.284 110.151 310.871 110.151 310.871C110.151 310.871 112.709 306.988 110.158 305.206C105.287 301.801 101.996 307.072 101.996 307.072Z" stroke="#2E1E00" stroke-width="1.5" stroke-miterlimit="10" stroke-linecap="round" stroke-linejoin="round"/>
<path d="M83.2008 314.796C83.2008 314.796 78.8286 313.885 77.8623 317.531C76.8959 321.178 80.0531 322.405 83.6419 322.855C83.6419 322.855 85.0341 326.513 88.1771 326.444C91.3201 326.375 89.9593 322.478 89.9593 322.478C89.9593 322.478 93.324 322.605 92.8247 319.444C92.3254 316.283 88.5341 317.184 88.5341 317.184C88.5341 317.184 91.3652 313.057 88.8655 312.042C86.4136 311 83.2008 314.796 83.2008 314.796Z" stroke="#2E1E00" stroke-width="1.5" stroke-miterlimit="10" stroke-linecap="round" stroke-linejoin="round"/>
<path d="M71.4396 301.334C71.4396 301.334 67.3226 298.089 65.5766 300.859C63.8307 303.628 66.2336 305.237 66.2336 305.237C66.2336 305.237 62.6681 308.336 66.5295 311.499C70.3909 314.662 72.4713 309.292 72.4713 309.292C72.4713 309.292 75.6677 311.865 76.9429 309.735C78.218 307.605 75.9196 305.78 75.9196 305.78C75.9196 305.78 78.9021 303.16 77.6212 301.413C76.3541 299.754 71.4396 301.334 71.4396 301.334Z" stroke="#2E1E00" stroke-width="1.5" stroke-miterlimit="10" stroke-linecap="round" stroke-linejoin="round"/>
<path d="M68.521 333.432C68.521 333.432 64.7895 331.311 63.0828 335.427C61.3648 339.58 66.1161 340.697 67.7971 340.698C67.7971 340.698 67.3636 344.975 70.3327 344.683C73.2906 344.429 72.7005 340.364 72.7005 340.364C72.7005 340.364 77.6904 338.933 75.6157 335.014C73.541 331.094 68.521 333.432 68.521 333.432Z" stroke="#2E1E00" stroke-width="1.5" stroke-miterlimit="10" stroke-linecap="round" stroke-linejoin="round"/>
<path d="M57.8947 349.21C55.8394 348.046 53.5124 347.795 51.2384 348.978C47.5405 350.909 46.4547 355.225 49.0527 356.314C51.6507 357.402 52.7194 355.831 52.7194 355.831C52.7194 355.831 51.335 359.134 53.8687 360.035C56.4024 360.936 57.2631 358.047 57.2631 358.047C57.2631 358.047 59.5494 361.66 61.9286 358.511C63.9668 355.836 61.843 352.484 59.7864 350.654C59.2057 350.05 58.5433 349.586 57.8947 349.21Z" stroke="#2E1E00" stroke-width="1.5" stroke-miterlimit="10" stroke-linecap="round" stroke-linejoin="round"/>
<path d="M37.0849 372.7C37.0849 372.7 31.6282 370.189 30.5007 374.241C29.3733 378.294 33.5275 378.593 33.5275 378.593C33.5275 378.593 32.521 382.643 35.0471 383.167C37.5367 383.678 43.7255 376.343 37.0849 372.7Z" stroke="#2E1E00" stroke-width="1.5" stroke-miterlimit="10" stroke-linecap="round" stroke-linejoin="round"/>
<path d="M48.7754 390.431C48.7754 390.431 44.5289 388.56 42.5842 392.265C40.6395 395.971 45.1991 395.984 45.1991 395.984C45.1991 395.984 43.7756 399.15 46.1457 400.331C48.5158 401.513 50.0463 398.257 50.0463 398.257C50.0463 398.257 53.9102 401.546 55.4584 397.962C57.0065 394.379 52.7602 393.717 52.7602 393.717C52.7602 393.717 54.2503 389.656 52.1574 389.022C50.0896 388.438 48.7754 390.431 48.7754 390.431Z" stroke="#2E1E00" stroke-width="1.5" stroke-miterlimit="10" stroke-linecap="round" stroke-linejoin="round"/>
<path d="M68.1127 401.172C68.1127 401.172 63.5364 399.736 62.1859 402.925C60.8354 406.114 65.3285 407.023 65.3285 407.023C65.3285 407.023 63.3891 412.188 66.9176 413.244C70.4462 414.299 71.43 410.325 71.43 410.325C71.43 410.325 74.099 413.728 75.4118 411.069C76.7247 408.41 74.1077 406.982 74.1077 406.982C74.1077 406.982 77.9589 403.058 74.9099 401.199C71.9088 399.314 68.1127 401.172 68.1127 401.172Z" stroke="#2E1E00" stroke-width="1.5" stroke-miterlimit="10" stroke-linecap="round" stroke-linejoin="round"/>
<path d="M39.0839 424.301C39.0839 424.301 39.9936 420.845 37.2674 420.59C34.5411 420.335 35.2281 423.806 35.2281 423.806C35.2281 423.806 31.2474 422.521 31.2015 425.631C31.1555 428.741 35.8561 428.55 35.8561 428.55C35.8561 428.55 37.4949 431.246 39.5661 430.206C41.6008 429.155 41.2046 425.11 39.0839 424.301Z" stroke="#2E1E00" stroke-width="1.5" stroke-miterlimit="10" stroke-linecap="round" stroke-linejoin="round"/>
<path d="M95.6395 458.054C95.6395 458.054 99.0885 458.167 98.656 455.319C98.2601 452.483 95.1589 454.024 95.1589 454.024C95.1589 454.024 95.4099 449.689 92.5214 450.381C89.6216 451.112 90.8767 455.767 90.8767 455.767C90.8767 455.767 88.7466 458.079 90.2101 459.885C91.6737 461.69 95.3592 460.338 95.6395 458.054Z" stroke="#2E1E00" stroke-width="1.5" stroke-miterlimit="10" stroke-linecap="round" stroke-linejoin="round"/>
<path d="M62.4901 449.063C62.4901 449.063 60.2959 445.813 56.4241 447.522C52.5524 449.23 56.788 453.555 56.788 453.555C56.788 453.555 54.4013 457.535 57.4755 459.444C60.5496 461.352 62.1292 457.529 62.1292 457.529C62.1292 457.529 66.6236 459.105 67.4589 454.958C68.2577 450.799 62.4901 449.063 62.4901 449.063Z" stroke="#2E1E00" stroke-width="1.5" stroke-miterlimit="10" stroke-linecap="round" stroke-linejoin="round"/>
<path d="M26.3714 460.112C26.3714 460.112 26.0547 457.01 23.3463 457.636C20.6378 458.262 22.2251 461.399 22.2251 461.399C22.2251 461.399 16.8715 464.587 19.2886 467.492C21.7056 470.397 24.7598 467.133 24.7598 467.133C24.7598 467.133 31.056 467.499 29.8968 464C28.7376 460.501 26.3714 460.112 26.3714 460.112Z" stroke="#2E1E00" stroke-width="1.5" stroke-miterlimit="10" stroke-linecap="round" stroke-linejoin="round"/>
<path d="M231.714 466.767C231.714 466.767 231.397 463.665 228.689 464.29C225.98 464.916 227.567 468.053 227.567 468.053C227.567 468.053 222.214 471.242 224.631 474.147C227.048 477.052 230.102 473.788 230.102 473.788C230.102 473.788 236.398 474.153 235.239 470.654C234.08 467.155 231.714 466.767 231.714 466.767Z" stroke="#2E1E00" stroke-width="1.5" stroke-miterlimit="10" stroke-linecap="round" stroke-linejoin="round"/>
<path d="M229.71 411.956C229.71 411.956 235.555 414.509 234.281 418.515C233.008 422.52 229.197 420.665 229.197 420.665C229.197 420.665 234.276 429.012 228.557 430.875C222.838 432.737 221.316 425.621 222.4 423.055C222.4 423.055 214.65 421.928 216.546 417.04C218.48 412.165 220.665 414.37 220.665 414.37C220.665 414.37 217.332 411.044 219.438 408.141C219.438 408.141 221.445 409.872 222.383 407.258C222.468 407.244 224.402 413.784 229.71 411.956Z" stroke="#2E1E00" stroke-width="1.5" stroke-miterlimit="10" stroke-linecap="round" stroke-linejoin="round"/>
<path d="M229.71 411.956C229.71 411.956 232.61 410.017 232.068 407.134C231.526 404.251 227.598 401.983 227.598 401.983C227.598 401.983 231.594 399.857 229.217 396.548C229.217 396.548 227.227 392.614 221.894 392.643C216.561 392.672 219.597 398.068 219.597 398.068C219.597 398.068 213.336 403.63 219.522 408.126" stroke="#2E1E00" stroke-width="1.5" stroke-miterlimit="10" stroke-linecap="round" stroke-linejoin="round"/>
<path d="M216.501 419.609C216.501 419.609 214.073 422.117 210.104 420.794C206.134 419.471 208.435 414.839 208.435 414.839C208.435 414.839 203.943 418.764 201.081 413.59C198.219 408.417 200.677 405.543 200.677 405.543C200.677 405.543 205.357 403.137 204.588 398.598C204.588 398.598 208.543 401.041 209.538 398.779C209.538 398.779 210.03 406.396 217.257 405.52" stroke="#2E1E00" stroke-width="1.5" stroke-miterlimit="10" stroke-linecap="round" stroke-linejoin="round"/>
<path d="M229.767 430.307C229.767 430.307 235.807 434.756 234.097 440.496C232.398 446.197 225.292 444.653 224.139 439.656C224.139 439.656 219.832 443.766 216.241 439.024C212.65 434.282 218.37 431.878 218.37 431.878C218.37 431.878 215.164 424.635 222.092 425.163" stroke="#2E1E00" stroke-width="1.5" stroke-miterlimit="10" stroke-linecap="round" stroke-linejoin="round"/>
<path d="M208.1 419.189C208.1 419.189 200.556 425.295 208.284 430.664C208.284 430.664 206.121 441.549 215.767 438.329" stroke="#2E1E00" stroke-width="1.5" stroke-miterlimit="10" stroke-linecap="round" stroke-linejoin="round"/>
<path d="M219.799 393.091C219.799 393.091 218.481 387.708 214.779 387.638C211.029 387.594 210.321 391.449 210.321 391.449C210.321 391.449 200.653 387.62 204.599 398.56" stroke="#2E1E00" stroke-width="1.5" stroke-miterlimit="10" stroke-linecap="round" stroke-linejoin="round"/>
<path d="M199.875 407.16C199.875 407.16 194.129 407.097 195.652 401.047C195.652 401.047 189.784 403.944 187.753 397.997C185.711 392.088 193.269 392.653 193.269 392.653C193.269 392.653 191.642 385.753 196.645 386.16C201.648 386.566 203.918 392.382 203.918 392.382" stroke="#2E1E00" stroke-width="1.5" stroke-miterlimit="10" stroke-linecap="round" stroke-linejoin="round"/>
<path d="M208.383 435.571C208.383 435.571 201.156 436.447 203.866 443.071C203.866 443.071 199.665 447.631 203.474 450.569C207.282 453.506 214.535 452.139 214.535 452.139C214.535 452.139 213.677 449.779 215.995 447.777C215.995 447.777 209.23 444.552 211.884 438.868" stroke="#2E1E00" stroke-width="1.5" stroke-miterlimit="10" stroke-linecap="round" stroke-linejoin="round"/>
<path d="M205.563 422.328C205.563 422.328 196.716 418.431 197.48 426.886C197.48 426.886 192.786 429.204 196.49 434.774C198.923 438.434 203.769 438.29 203.769 438.29" stroke="#2E1E00" stroke-width="1.5" stroke-miterlimit="10" stroke-linecap="round" stroke-linejoin="round"/>
<path d="M228.338 443.97C228.338 443.97 232.299 447.873 229.774 452.183C227.285 456.505 224.041 453.958 224.041 453.958C224.041 453.958 223.047 459.845 218.11 457.876C214.635 456.505 214.535 452.139 214.535 452.139" stroke="#2E1E00" stroke-width="1.5" stroke-miterlimit="10" stroke-linecap="round" stroke-linejoin="round"/>
<path d="M198.873 422.211C198.873 422.211 193.229 421.806 191.754 416.413C190.289 410.982 196.51 405.824 196.51 405.824" stroke="#2E1E00" stroke-width="1.5" stroke-miterlimit="10" stroke-linecap="round" stroke-linejoin="round"/>
<path d="M220.403 458.241C220.403 458.241 222.259 462.09 220.486 464.143C218.714 466.196 215.702 463.807 215.702 463.807C215.702 463.807 216.818 470.542 211.189 469.683C205.572 468.787 206.173 463.814 208.251 460.735C208.251 460.735 204.958 458.756 207.426 452.219" stroke="#2E1E00" stroke-width="1.5" stroke-miterlimit="10" stroke-linecap="round" stroke-linejoin="round"/>
<path d="M203.473 450.569C203.473 450.569 201.462 455.17 198.218 453.831C194.974 452.492 195.026 449.092 195.026 449.092C195.026 449.092 188.645 451.699 187.572 443.478C187.572 443.478 187.383 438.334 191.954 438.31C193.273 438.319 194.597 438.038 195.757 437.371C196.57 436.925 197.176 436.37 196.997 435.896" stroke="#2E1E00" stroke-width="1.5" stroke-miterlimit="10" stroke-linecap="round" stroke-linejoin="round"/>
<path d="M190.869 438.459C190.869 438.459 184.583 437.389 186.058 429.615C186.058 429.615 189.703 427.459 187.869 425.284C187.869 425.284 194.592 425.829 193.178 419.289" stroke="#2E1E00" stroke-width="1.5" stroke-miterlimit="10" stroke-linecap="round" stroke-linejoin="round"/>
<path d="M192.383 411.075C192.383 411.075 187.802 410.596 187.762 405.625C187.762 405.625 184.018 410.666 180.102 408.361C176.185 406.055 176.952 402.136 179.294 400.726C179.294 400.726 177.302 396.125 179.564 394.313C181.825 392.501 185.937 392.537 187.52 395.422" stroke="#2E1E00" stroke-width="1.5" stroke-miterlimit="10" stroke-linecap="round" stroke-linejoin="round"/>
<path d="M186.058 429.615C186.058 429.615 181.685 431.662 179.099 425.161C177.34 420.719 179.222 418.701 180.632 417.865C181.91 417.069 182.939 415.901 183.381 414.419C183.845 412.86 183.866 410.909 182.389 409.015" stroke="#2E1E00" stroke-width="1.5" stroke-miterlimit="10" stroke-linecap="round" stroke-linejoin="round"/>
<path d="M206.888 465.712C206.888 465.712 204.262 468.614 200.997 466.269C197.708 463.874 195.267 460.378 197.216 453.299" stroke="#2E1E00" stroke-width="1.5" stroke-miterlimit="10" stroke-linecap="round" stroke-linejoin="round"/>
<path d="M187.524 443.505C187.524 443.505 183.015 447.757 179.255 444.252C175.496 440.747 178.199 437.453 178.199 437.453C178.199 437.453 171.315 440.94 171.045 435.936C170.774 430.932 176.087 432.314 176.087 432.314C176.087 432.314 171.459 425.945 179.074 425.111" stroke="#2E1E00" stroke-width="1.5" stroke-miterlimit="10" stroke-linecap="round" stroke-linejoin="round"/>
<path d="M196.613 459.354C196.613 459.354 191.942 458.638 192.156 462.623C192.156 462.623 187.546 461.302 187.577 466.437C187.577 466.437 187.208 467.943 189.922 469.985C189.922 469.985 186.913 476.055 190.445 477.904C194.087 479.788 196.836 477.55 197.633 473.932C197.633 473.932 204.881 474.73 203.326 467.187" stroke="#2E1E00" stroke-width="1.5" stroke-miterlimit="10" stroke-linecap="round" stroke-linejoin="round"/>
<path d="M190.445 477.904C190.445 477.904 191.819 483.639 186.408 484.6C185.022 484.82 183.612 484.448 182.658 483.348C181.792 482.36 181.252 480.811 182.452 478.532C182.452 478.532 177.831 480.874 176.969 475.304C176.117 469.696 181.05 470.205 181.05 470.205C181.05 470.205 181.204 464.047 187.662 465.881" stroke="#2E1E00" stroke-width="1.5" stroke-miterlimit="10" stroke-linecap="round" stroke-linejoin="round"/>
<path d="M189.246 462.851C189.246 462.851 184.306 463.173 182.632 458.716C180.957 454.259 184.231 452.274 184.231 452.274C184.231 452.274 181.139 449.485 182.319 445.658" stroke="#2E1E00" stroke-width="1.5" stroke-miterlimit="10" stroke-linecap="round" stroke-linejoin="round"/>
<path d="M174.948 427.404C174.948 427.404 169.44 430.168 167.096 426.078C164.752 421.988 168.142 418 169.494 416.686C169.494 416.686 174.948 419.072 176.187 414.513C176.187 414.513 177.161 419.036 179.466 418.822" stroke="#2E1E00" stroke-width="1.5" stroke-miterlimit="10" stroke-linecap="round" stroke-linejoin="round"/>
<path d="M172.265 438.288C172.265 438.288 172.007 443.454 168.267 443.914C164.527 444.373 162.108 441.343 163.398 437.551C163.398 437.551 157.74 439.475 157.163 433.622C156.585 427.769 162.908 425.893 167.144 426.052" stroke="#2E1E00" stroke-width="1.5" stroke-miterlimit="10" stroke-linecap="round" stroke-linejoin="round"/>
<path d="M182.202 457.203C182.202 457.203 180.376 463.196 176.229 462.066C172.082 460.936 171.585 458.442 171.967 454.607C171.967 454.607 167.064 457.358 165.421 452.661C163.778 447.964 166.404 443.854 166.404 443.854" stroke="#2E1E00" stroke-width="1.5" stroke-miterlimit="10" stroke-linecap="round" stroke-linejoin="round"/>
<path d="M183.972 484.314C183.972 484.314 185.705 487.498 183.439 490.267C181.136 493.023 177.128 491.563 176.206 489.015C176.206 489.015 172.881 493.859 169.082 490.216C165.284 486.574 169.921 482.029 169.921 482.029C169.921 482.029 166.629 480.716 167.96 475.98C169.291 471.243 176.958 473.592 176.958 473.592" stroke="#2E1E00" stroke-width="1.5" stroke-miterlimit="10" stroke-linecap="round" stroke-linejoin="round"/>
<path d="M172.787 459.914C172.787 459.914 166.38 465.429 172.08 472.768" stroke="#2E1E00" stroke-width="1.5" stroke-miterlimit="10" stroke-linecap="round" stroke-linejoin="round"/>
<path d="M167.834 485.272C167.834 485.272 164.814 489.63 161.978 488.131C159.142 486.633 158.226 485.004 158.651 480.891C158.651 480.891 152.221 481.108 152.887 474.573C153.553 468.038 160.856 466.771 160.856 466.771C160.856 466.771 163.898 476.044 170.069 469.036" stroke="#2E1E00" stroke-width="1.5" stroke-miterlimit="10" stroke-linecap="round" stroke-linejoin="round"/>
<path d="M166 453.806C166 453.806 163.115 460.667 159.118 457.96C159.118 457.96 156.986 457.188 157.536 453.866C157.536 453.866 153.014 454.531 152.481 451.485C151.984 448.449 154.546 445.36 154.546 445.36C154.546 445.36 161.007 444.904 160.524 437.79" stroke="#2E1E00" stroke-width="1.5" stroke-miterlimit="10" stroke-linecap="round" stroke-linejoin="round"/>
<path d="M162.66 488.393C162.893 489.76 162.949 491.32 162.505 492.676C162.049 494.071 160.915 494.788 159.629 495.206C156.493 496.194 154.693 493.905 153.763 490.98C153.763 490.98 151.294 495.099 147.844 493.111C144.393 491.122 146.833 487.368 146.833 487.368C146.48 487.879 144.203 486.519 143.92 486.261C142.859 485.252 142.778 483.643 143.029 482.265C143.293 480.976 143.871 479.037 145.422 479.205C146.245 479.262 146.815 479.904 147.511 480.254C148.354 480.651 149.303 480.957 150.214 481.126C151.998 481.452 153.571 480.876 153.673 478.785" stroke="#2E1E00" stroke-width="1.5" stroke-miterlimit="10" stroke-linecap="round" stroke-linejoin="round"/>
<path d="M158.37 467.593C158.37 467.593 152.632 462.533 158.357 457.423" stroke="#2E1E00" stroke-width="1.5" stroke-miterlimit="10" stroke-linecap="round" stroke-linejoin="round"/>
<path d="M144.579 479.349C144.579 479.349 141.984 476.637 144.085 473.482C144.085 473.482 137.99 472.306 138.618 468.051C139.245 463.795 144.71 463.726 144.71 463.726C144.71 463.726 150.228 471.673 156.072 464.018" stroke="#2E1E00" stroke-width="1.5" stroke-miterlimit="10" stroke-linecap="round" stroke-linejoin="round"/>
<path d="M154.582 445.371C154.582 445.371 151.419 444.434 152.419 441.882C152.419 441.882 145.943 444.541 144.342 438.358C142.742 432.175 149.379 433.276 149.379 433.276C149.379 433.276 145.66 429.367 149.861 426.015C154.099 422.675 157.71 430.173 157.71 430.173" stroke="#2E1E00" stroke-width="1.5" stroke-miterlimit="10" stroke-linecap="round" stroke-linejoin="round"/>
<path d="M144.71 463.726C144.71 463.726 143.781 461.468 144.933 459.215C144.933 459.215 138.652 459.604 138.892 454.098C139.131 448.592 146.614 451.424 147.247 442.046" stroke="#2E1E00" stroke-width="1.5" stroke-miterlimit="10" stroke-linecap="round" stroke-linejoin="round"/>
<path d="M138.932 466.86C138.932 466.86 133.101 469.77 130.885 466.055C128.67 462.34 131.551 459.52 131.551 459.52C131.551 459.52 127.019 458.474 128.558 453.846C130.097 449.218 137.212 450.598 139.066 452.571" stroke="#2E1E00" stroke-width="1.5" stroke-miterlimit="10" stroke-linecap="round" stroke-linejoin="round"/>
<path d="M141.548 450.289C141.548 450.289 135.121 449.423 138.152 443.818C138.152 443.818 134.222 440.883 136.788 437.378C139.353 433.873 144.22 437.694 144.22 437.694" stroke="#2E1E00" stroke-width="1.5" stroke-miterlimit="10" stroke-linecap="round" stroke-linejoin="round"/>
<path d="M169.542 416.66C169.542 416.66 165.605 413.348 169.384 408.86C169.384 408.86 167.13 406.216 169.887 402.606C172.596 399.022 177.43 403.624 177.43 403.624" stroke="#2E1E00" stroke-width="1.5" stroke-miterlimit="10" stroke-linecap="round" stroke-linejoin="round"/>
<path d="M160.569 427.43C160.569 427.43 154.94 425.363 159.331 420.031C159.331 420.031 154.007 419.895 155.541 415.016C157.075 410.136 160.916 412.293 160.916 412.293C160.916 412.293 157.972 408.468 161.582 405.758C165.155 403.036 168.619 405.113 168.619 405.113" stroke="#2E1E00" stroke-width="1.5" stroke-miterlimit="10" stroke-linecap="round" stroke-linejoin="round"/>
<path d="M147.156 492.597C147.156 492.597 145.378 499.773 141.702 498.003C138.026 496.233 138.933 492.651 138.933 492.651C138.933 492.651 133.09 494.932 132.653 488.874C132.216 482.817 141.601 484.638 140.276 471.753" stroke="#2E1E00" stroke-width="1.5" stroke-miterlimit="10" stroke-linecap="round" stroke-linejoin="round"/>
<path d="M132.642 488.912C132.642 488.912 128.077 492.813 124.701 489.766C121.289 486.706 123.997 482.456 123.997 482.456C123.997 482.456 119.761 481.088 120.614 477.822C121.467 474.556 126.112 474.014 126.112 474.014C126.112 474.014 128.324 479.353 133.331 476.927C133.331 476.927 134.029 482.777 138.892 480.43" stroke="#2E1E00" stroke-width="1.5" stroke-miterlimit="10" stroke-linecap="round" stroke-linejoin="round"/>
<path d="M130.429 465.033C130.429 465.033 124.131 466.958 126.123 473.976" stroke="#2E1E00" stroke-width="1.5" stroke-miterlimit="10" stroke-linecap="round" stroke-linejoin="round"/>
<path d="M128.606 453.82C128.606 453.82 122.107 452.389 120.961 456.102C119.851 459.827 123.139 461.555 123.139 461.555C123.139 461.555 118.515 466.729 125.944 469.876" stroke="#2E1E00" stroke-width="1.5" stroke-miterlimit="10" stroke-linecap="round" stroke-linejoin="round"/>
<path d="M236.325 512.961C236.325 512.961 236.274 517.028 233.352 517.293C230.431 517.558 229.646 514.013 230.269 511.923C230.269 511.923 227.054 510.218 227.949 506.674C228.845 503.13 232.878 505.182 232.878 505.182C232.878 505.182 236.075 500.631 238.445 504.77C240.825 508.872 236.325 512.961 236.325 512.961Z" stroke="#2E1E00" stroke-width="1.5" stroke-miterlimit="10" stroke-linecap="round" stroke-linejoin="round"/>
<path d="M200.474 495.432C200.474 495.432 199.375 499.66 196.011 498.991C192.648 498.322 192.955 495.005 194.146 491.681C194.146 491.681 191.768 488.914 193.151 486.152C194.535 483.39 197.132 486.228 197.132 486.228C197.132 486.228 198.462 483.241 200.82 485.002C203.177 486.763 200.818 489.71 200.818 489.71C200.818 489.71 205.363 488.968 205.149 491.566C204.924 494.202 200.474 495.432 200.474 495.432Z" stroke="#2E1E00" stroke-width="1.5" stroke-miterlimit="10" stroke-linecap="round" stroke-linejoin="round"/>
<path d="M202.156 517.599C202.156 517.599 202.92 521.887 200.35 522.182C197.78 522.477 197.538 520.066 197.538 520.066C197.538 520.066 194.074 521.615 193.278 517.566C192.483 513.518 196.977 513.886 196.977 513.886C196.977 513.886 196.329 510.552 198.272 510.345C200.252 510.151 200.651 512.572 200.651 512.572C200.651 512.572 203.564 511.262 204.297 512.832C205.055 514.451 202.156 517.599 202.156 517.599Z" stroke="#2E1E00" stroke-width="1.5" stroke-miterlimit="10" stroke-linecap="round" stroke-linejoin="round"/>
<path d="M174.063 506.281C174.063 506.281 174.226 510.709 169.903 510.438C165.58 510.168 166.726 505.246 167.468 503.695C167.468 503.695 163.592 502.193 165.172 499.579C166.715 496.952 169.943 499.285 169.943 499.285C169.943 499.285 173.381 495.27 175.875 498.992C178.308 502.652 174.063 506.281 174.063 506.281Z" stroke="#2E1E00" stroke-width="1.5" stroke-miterlimit="10" stroke-linecap="round" stroke-linejoin="round"/>
<path d="M116.257 499.165C116.257 499.165 115.954 503.942 111.906 504.093C107.857 504.245 109.888 499.984 109.888 499.984C109.888 499.984 106.512 499.894 106.565 497.162C106.619 494.429 110.102 494.428 110.102 494.428C110.102 494.428 109.008 489.367 112.772 489.499C116.524 489.668 115.219 493.913 115.219 493.913C115.219 493.913 119.376 494.338 118.997 496.549C118.619 498.76 116.257 499.165 116.257 499.165Z" stroke="#2E1E00" stroke-width="1.5" stroke-miterlimit="10" stroke-linecap="round" stroke-linejoin="round"/>
<path d="M115.675 476.395C115.675 476.395 114.855 481.297 111.513 481.093C108.16 480.927 109.409 476.331 109.409 476.331C109.409 476.331 104.078 475.818 104.788 472.089C105.499 468.361 109.337 469.183 109.337 469.183C109.337 469.183 107.611 465.168 110.501 465.142C113.355 465.105 113.441 468.174 113.441 468.174C113.441 468.174 118.544 466.363 118.775 470.021C118.97 473.667 115.675 476.395 115.675 476.395Z" stroke="#2E1E00" stroke-width="1.5" stroke-miterlimit="10" stroke-linecap="round" stroke-linejoin="round"/>
<path d="M248.523 452.943C248.523 452.943 251.875 453.65 250.889 456.29C249.902 458.929 247.233 456.735 247.233 456.735C247.233 456.735 246.558 461.017 243.882 459.653C241.206 458.289 243.441 454.011 243.441 454.011C243.441 454.011 241.861 451.251 243.683 449.839C245.457 448.454 248.767 450.647 248.523 452.943Z" stroke="#2E1E00" stroke-width="1.5" stroke-miterlimit="10" stroke-linecap="round" stroke-linejoin="round"/>
<path d="M91.5378 486.062C91.5378 486.062 94.039 487.744 92.3307 489.984C90.6224 492.224 88.5932 489.361 88.5932 489.361C88.5932 489.361 83.4525 492.91 82.0264 489.366C80.6002 485.823 84.7805 484.422 84.7805 484.422C84.7805 484.422 87.2952 478.401 89.7915 481.04C92.2879 483.679 91.5378 486.062 91.5378 486.062Z" stroke="#2E1E00" stroke-width="1.5" stroke-miterlimit="10" stroke-linecap="round" stroke-linejoin="round"/>
<path d="M122.549 419.2C122.549 419.2 125.174 415.631 122.276 414.07C119.378 412.51 116.264 414.63 116.264 414.63C116.264 414.63 110.851 407.675 108.046 411.311C105.241 414.947 109.429 419.298 109.429 419.298C109.429 419.298 105.732 423.646 110.005 426.234C114.278 428.821 116.38 423.917 116.38 423.917C116.38 423.917 123.142 427.016 122.486 419.68" stroke="#2E1E00" stroke-width="1.5" stroke-miterlimit="10" stroke-linecap="round" stroke-linejoin="round"/>
<path d="M95.4104 421.607C95.1421 420.895 94.7893 420.198 94.3661 419.603C92.9365 417.684 90.5854 416.841 88.3854 416.298C81.715 414.77 83.701 422.077 83.701 422.077C83.701 422.077 78.6146 419.936 78.923 425.618C79.2314 431.301 86.1662 432.747 90.7836 432.03C90.7836 432.03 94.0415 426.873 97.6102 427.525C97.3798 427.492 96.8329 425.566 96.7069 425.317C96.2005 424.195 95.8829 422.843 95.4104 421.607Z" stroke="#2E1E00" stroke-width="1.5" stroke-miterlimit="10" stroke-linecap="round" stroke-linejoin="round"/>
<path d="M107.127 414.931C105.078 413.478 102.692 412.083 100.196 411.86C97.0706 411.602 95.4996 414.053 94.2094 416.636C93.9073 417.247 93.4529 418.1 93.6482 418.788" stroke="#2E1E00" stroke-width="1.5" stroke-miterlimit="10" stroke-linecap="round" stroke-linejoin="round"/>
<path d="M110.03 426.284C110.03 426.284 106.358 427.723 106.619 433.432C106.891 439.103 112.116 436.748 112.116 436.748C112.116 436.748 111.934 444.48 116.531 443.964C121.14 443.41 119.92 436.35 119.92 436.35C119.92 436.35 124.945 439.639 126.022 434.278C127.099 428.918 120.575 424.479 120.575 424.479" stroke="#2E1E00" stroke-width="1.5" stroke-miterlimit="10" stroke-linecap="round" stroke-linejoin="round"/>
<path d="M97.5881 427.601C97.5881 427.601 101.862 429.647 103.496 425.508C103.496 425.508 104.305 429.644 106.816 430.621" stroke="#2E1E00" stroke-width="1.5" stroke-miterlimit="10" stroke-linecap="round" stroke-linejoin="round"/>
<path d="M90.7611 432.106C90.7611 432.106 88.4202 438.35 92.2842 441.638C96.1481 444.927 98.7803 440.527 98.7803 440.527C98.7803 440.527 100.255 446.461 104.226 445.493C108.172 444.475 110.671 440.657 108.627 437.039" stroke="#2E1E00" stroke-width="1.5" stroke-miterlimit="10" stroke-linecap="round" stroke-linejoin="round"/>
<path d="M80.5619 429.522C80.5619 429.522 72.526 431.636 73.8882 436.201C75.2503 440.765 78.8983 441.151 78.8983 441.151C78.8983 441.151 78.4112 448.16 84.3623 448.206C90.3247 448.214 91.493 440.8 91.493 440.8" stroke="#2E1E00" stroke-width="1.5" stroke-miterlimit="10" stroke-linecap="round" stroke-linejoin="round"/>
<path d="M307.531 62.7434C305.597 66.9611 301.508 69.8632 296.712 69.8632C291.916 69.8632 287.789 66.9611 285.893 62.7434C289.165 63.0917 292.845 63.2464 296.712 63.2464C300.578 63.2464 304.259 63.053 307.531 62.7434Z" fill="#FEFFFA" stroke="#2E1E00" stroke-width="1.5" stroke-miterlimit="10" stroke-linecap="round" stroke-linejoin="round"/>
<path d="M308.646 57.4422C308.646 59.3382 308.237 61.1182 307.494 62.7433C304.222 63.0916 300.542 63.2464 296.675 63.2464C292.808 63.2464 289.128 63.0529 285.856 62.7433C285.113 61.1182 284.704 59.3382 284.704 57.4422C284.704 56.1266 284.89 54.8497 285.261 53.6888C286.786 48.6586 291.321 45.0213 296.675 45.0213C302.029 45.0213 306.527 48.6586 308.052 53.6888C308.46 54.8497 308.646 56.1266 308.646 57.4422Z" fill="#FEFFFA" stroke="#2E1E00" stroke-width="1.5" stroke-miterlimit="10" stroke-linecap="round" stroke-linejoin="round"/>
<path d="M284.741 57.4423C284.741 59.3383 285.15 61.1182 285.893 62.7434C277.714 61.9308 272.1 60.1895 272.1 58.1774C272.1 56.204 277.454 54.5402 285.298 53.6889C284.964 54.8497 284.741 56.1266 284.741 57.4423Z" stroke="#2E1E00" stroke-width="1.5" stroke-miterlimit="10" stroke-linecap="round" stroke-linejoin="round"/>
<path d="M321.324 58.1774C321.324 60.1895 315.71 61.9308 307.531 62.7434C308.274 61.1182 308.683 59.3383 308.683 57.4423C308.683 56.1266 308.497 54.8497 308.126 53.6889C315.97 54.5015 321.324 56.204 321.324 58.1774Z" stroke="#2E1E00" stroke-width="1.5" stroke-miterlimit="10" stroke-linecap="round" stroke-linejoin="round"/>
<path d="M254.106 14.4528L247.748 14.7623L244.439 20.373L242.172 14.1819L236 12.6341L240.945 8.49382L240.499 1.87708L245.815 5.51435L251.689 2.99921L250.016 9.38379L254.106 14.4528Z" fill="#FFDC38" stroke="#2E1E00" stroke-width="1.5" stroke-miterlimit="10" stroke-linecap="round" stroke-linejoin="round"/>
<path d="M251.355 113.859C254.866 113.859 257.712 110.896 257.712 107.242C257.712 103.588 254.866 100.625 251.355 100.625C247.843 100.625 244.997 103.588 244.997 107.242C244.997 110.896 247.843 113.859 251.355 113.859Z" fill="#FFDC38" stroke="#2E1E00" stroke-width="1.5" stroke-miterlimit="10" stroke-linecap="round" stroke-linejoin="round"/>
<path d="M331.622 98.9613C333.696 98.9613 335.377 97.2116 335.377 95.0532C335.377 92.8948 333.696 91.1451 331.622 91.1451C329.548 91.1451 327.867 92.8948 327.867 95.0532C327.867 97.2116 329.548 98.9613 331.622 98.9613Z" fill="#FEFFFA" stroke="#2E1E00" stroke-width="1.5" stroke-miterlimit="10" stroke-linecap="round" stroke-linejoin="round"/>
<path d="M354.747 17.8579C359.182 17.8579 362.778 14.1159 362.778 9.4999C362.778 4.88391 359.182 1.14191 354.747 1.14191C350.312 1.14191 346.717 4.88391 346.717 9.4999C346.717 14.1159 350.312 17.8579 354.747 17.8579Z" fill="#FEFFFA" stroke="#2E1E00" stroke-width="1.5" stroke-miterlimit="10" stroke-linecap="round" stroke-linejoin="round"/>
<path d="M377.612 96.2141L372.146 92.809L366.384 95.5563L367.796 89.0943L363.521 84.2188L369.841 83.6384L372.964 77.9116L375.455 83.9866L381.664 85.3023L376.868 89.636L377.612 96.2141Z" fill="#FEFFFA" stroke="#2E1E00" stroke-width="1.5" stroke-miterlimit="10" stroke-linecap="round" stroke-linejoin="round"/>
<path d="M413.972 42.7771C415.779 42.7771 417.244 41.2526 417.244 39.372C417.244 37.4914 415.779 35.9669 413.972 35.9669C412.165 35.9669 410.7 37.4914 410.7 39.372C410.7 41.2526 412.165 42.7771 413.972 42.7771Z" fill="#FFDC38" stroke="#2E1E00" stroke-width="1.5" stroke-miterlimit="10" stroke-linecap="round" stroke-linejoin="round"/>
<defs>
<linearGradient id="paint0_linear_2603:33635" x1="511.25" y1="25" x2="511.25" y2="535" gradientUnits="userSpaceOnUse">
<stop stop-color="#50C56E"/>
<stop offset="1" stop-color="#50C56E" stop-opacity="0"/>
</linearGradient>
</defs>
</svg>
