<svg width="1266" height="250" viewBox="0 0 1266 250" fill="none" xmlns="http://www.w3.org/2000/svg">
<g clip-path="url(#clip0_2320:34767)">
<path d="M1266 471.851V196.641L676.551 69.804V91.6049L729.732 194.842L763.757 260.985L832.708 394.754L872.395 471.851H930.762L930.868 474.126L980.028 471.851H1266Z" fill="#FFDC38"/>
<path d="M788.047 -100L753.069 -49.9954L685.706 46.3626V46.4155L676.551 59.4854H589.451L477.955 -100H788.047Z" fill="#FDEAA7"/>
<path d="M589.45 59.4854V69.8038L532.776 60.1204L494.2 53.5061L0 -9.40972V-100H477.954L589.45 59.4854Z" fill="#ADF0E7"/>
<path d="M1266 -100V-9.40972L676.551 69.8038V59.4854L685.705 46.4155V46.3626L753.068 -49.9954L788.046 -100H1266Z" fill="#ADF0E7"/>
<path d="M589.45 69.8038L530.183 96.2613L476.102 120.443L426.096 142.773L385.773 160.765L327.459 186.852L266.552 214.05L224.272 232.94L205.751 241.195L0 277.283V-47.9847L498.062 46.5742L532.352 55.3052L589.45 69.8038Z" fill="#FDEAA7"/>
<path d="M1266 277.283V-47.9846L676.551 69.8039L1266 277.283Z" fill="#F9A058"/>
<path d="M589.45 91.6577V69.8039L0 196.641V471.904H393.552L420.434 419.73L483.669 297.02L514.308 237.597L589.45 91.6577Z" fill="#FA6456"/>
<path d="M871.549 471.851H393.605L420.487 419.677L483.723 296.967L514.308 237.597L589.503 91.6577H676.551L729.679 195.265L763.599 261.409L832.496 395.707L871.549 471.851Z" fill="#FDEAA7"/>
<path d="M499.317 370.109H445.033L441.77 333.793C441.77 333.793 428.794 335.521 420.463 330.914L418.275 370.109H373.781C374.242 365.004 375.393 350.109 375.316 337.978C375.278 330.838 375.009 322.737 374.318 313.946C371.593 279.435 362.379 234.597 336.043 197.244C332.473 192.177 328.596 187.263 324.373 182.503C319.536 177.09 314.276 171.908 308.518 167.032C308.518 167.032 316.58 162.502 334.431 160.928C335.813 160.813 337.233 160.698 338.731 160.621L352.628 149.988L352.167 144.536L349.787 117.587L349.48 113.864L348.827 106.455C348.827 106.455 358.079 107.107 372.13 113.825C379.962 117.587 389.291 123.192 399.349 131.676C404.762 136.206 410.367 141.58 416.087 147.915C418.851 150.986 421.653 154.287 424.418 157.819C432.518 168.107 440.695 180.43 448.603 195.248C453.556 204.538 458.431 214.826 463.076 226.189C474.133 253.177 484.114 286.23 491.907 326.768C494.096 338.707 497.436 356.827 499.317 370.109Z" fill="#FFDC38"/>
<path d="M499.316 370.493H445.032C444.84 370.493 444.686 370.34 444.648 370.148L441.423 334.216C439.197 334.485 428.409 335.444 420.846 331.529L418.696 370.109C418.696 370.301 418.504 370.455 418.312 370.455H373.78C373.665 370.455 373.588 370.417 373.511 370.34C373.434 370.263 373.396 370.148 373.396 370.033C373.549 368.19 375.008 351.683 374.932 337.94C374.893 329.993 374.548 321.893 373.933 313.946C372.321 293.716 368.866 274.483 363.645 256.747C357.042 234.328 347.674 214.366 335.697 197.436C332.05 192.292 328.134 187.34 324.026 182.733C319.112 177.205 313.776 172.023 308.209 167.301C308.133 167.224 308.056 167.109 308.094 166.955C308.133 166.802 308.171 166.725 308.286 166.648C308.363 166.61 316.617 162.042 334.353 160.506C335.697 160.391 337.079 160.276 338.538 160.199L352.166 149.757L348.366 106.416C348.366 106.301 348.404 106.186 348.481 106.109C348.557 106.032 348.673 105.994 348.788 105.994C348.865 105.994 358.27 106.723 372.244 113.365C381.535 117.818 390.71 123.806 399.54 131.254C405.26 136.091 410.903 141.542 416.316 147.531C419.195 150.717 421.998 154.057 424.685 157.473C433.323 168.453 441.5 181.044 448.909 194.941C454.015 204.538 458.891 214.98 463.421 225.921C475.322 254.904 484.996 288.763 492.252 326.576C494.21 336.711 497.78 355.867 499.776 369.956C499.776 370.071 499.776 370.186 499.7 370.263C499.546 370.455 499.431 370.493 499.316 370.493ZM445.378 369.726H498.855C496.859 355.675 493.327 336.826 491.407 326.807C484.19 289.07 474.477 255.25 462.615 226.305C458.161 215.402 453.286 204.999 448.18 195.402C440.771 181.543 432.67 168.952 424.033 158.011C421.345 154.594 418.543 151.293 415.702 148.107C410.327 142.156 404.722 136.705 399.002 131.906C390.211 124.497 381.074 118.509 371.86 114.132C359.767 108.374 351.168 107.107 349.133 106.877L352.934 149.949C352.934 150.064 352.896 150.218 352.78 150.295L338.883 160.967C338.806 161.005 338.73 161.044 338.653 161.044C337.194 161.12 335.735 161.236 334.391 161.351C319.304 162.694 311.165 166.188 309.131 167.147C314.582 171.792 319.765 176.898 324.602 182.273C328.71 186.879 332.664 191.87 336.311 197.014C348.327 214.02 357.771 234.059 364.374 256.555C369.595 274.329 373.05 293.639 374.663 313.908C375.277 321.893 375.623 329.993 375.661 337.978C375.738 351.03 374.432 366.539 374.164 369.726H417.89L420.078 330.914C420.078 330.799 420.155 330.646 420.27 330.607C420.385 330.531 420.539 330.531 420.654 330.607C428.755 335.099 441.577 333.448 441.692 333.448C441.807 333.448 441.884 333.448 441.999 333.525C442.076 333.602 442.114 333.678 442.153 333.794L445.378 369.726Z" fill="#2E1E00"/>
<path d="M497.82 143.231C496.169 171.984 485.228 201.198 469.411 219.625C468.835 220.278 462.884 225.959 463 226.189C458.354 214.826 453.479 204.538 448.527 195.248C447.951 194.173 457.855 178.702 458.892 176.284C461.925 169.374 464.19 162.118 465.495 154.671C468.067 139.814 466.416 123.538 462.501 108.988C459.545 98.0473 448.91 91.9435 444.841 81.8472C440.657 71.4054 450.331 64.1499 459.237 65.2632C464.958 65.9926 470.447 69.1405 474.632 73.0178C492.829 90.0624 499.355 116.474 497.82 143.231Z" fill="#FFDC38"/>
<path d="M462.999 226.573C462.846 226.573 462.692 226.496 462.654 226.343C458.162 215.402 453.286 204.999 448.181 195.402C447.797 194.711 449.14 192.177 454.86 182.503C456.626 179.509 458.162 176.936 458.546 176.092C461.694 168.913 463.882 161.658 465.149 154.594C468.182 137.281 465.187 120.274 462.193 109.103C460.619 103.268 456.742 98.7383 452.979 94.3236C449.755 90.5615 446.415 86.6842 444.534 82.0007C442.806 77.7012 443.267 73.5168 445.839 70.177C448.795 66.3765 454.208 64.2651 459.352 64.9177C464.727 65.6087 470.255 68.3727 474.939 72.7874C491.677 88.4501 499.931 113.48 498.241 143.269C496.591 171.946 485.688 201.313 469.756 219.894C469.564 220.124 468.681 220.969 467.606 222.043C466.147 223.502 463.69 225.882 463.422 226.305C463.383 226.42 463.306 226.497 463.191 226.573C463.076 226.573 463.038 226.573 462.999 226.573ZM448.872 195.094C453.901 204.5 458.661 214.711 463.076 225.422C463.613 224.807 464.765 223.656 466.992 221.468C467.952 220.508 468.911 219.587 469.065 219.395C484.92 200.93 495.746 171.754 497.397 143.231L497.781 143.269L497.397 143.231C499.086 113.672 490.909 88.834 474.324 73.3632C469.794 69.1405 464.266 66.3381 459.16 65.6855C454.285 65.0712 449.14 67.0675 446.376 70.676C443.996 73.7855 443.574 77.7012 445.186 81.732C447.029 86.3003 450.292 90.1392 453.478 93.8629C457.279 98.316 461.233 102.923 462.846 108.911C465.878 120.198 468.873 137.281 465.84 154.748C464.612 161.888 462.347 169.182 459.199 176.437C458.815 177.32 457.279 179.931 455.475 182.925C453.018 187.11 448.872 194.096 448.872 195.094Z" fill="#2E1E00"/>
<path d="M375.162 337.556C361.418 335.099 349.095 331.26 338.307 321.394C324.755 308.956 319.803 288.955 321.761 270.529C322.913 259.549 330.629 238.512 343.759 243.119C350.4 245.461 350.669 252.639 349.018 258.513C346.1 268.84 341.186 278.514 343.259 289.57C345.371 300.626 353.471 308.802 364.029 311.873C369.019 313.332 374.317 314.062 374.317 313.985C374.893 321.279 376.544 330.339 375.162 337.556Z" fill="#FFDC38"/>
<path d="M375.162 337.939C375.123 337.939 375.123 337.939 375.085 337.939C362.647 335.713 349.556 332.22 338.039 321.663C325.447 310.069 319.189 290.952 321.377 270.49C322.183 262.851 326.406 248.839 334.315 243.848C337.309 241.929 340.534 241.583 343.912 242.773C347.099 243.887 349.095 246.113 349.901 249.415C350.707 252.716 350.093 256.248 349.402 258.628C348.711 261.008 347.943 263.388 347.175 265.692C344.526 273.6 342.069 281.086 343.643 289.531C345.64 300.165 353.318 308.38 364.144 311.528C368.751 312.872 373.665 313.601 374.24 313.639H374.279C374.509 313.639 374.663 313.793 374.701 313.985C374.855 315.712 375.047 317.517 375.239 319.398C375.891 325.348 376.621 332.104 375.546 337.671C375.507 337.786 375.354 337.939 375.162 337.939ZM340.112 242.85C338.23 242.85 336.426 243.388 334.699 244.501C330.322 247.265 323.527 257.169 322.107 270.567C319.957 290.798 326.099 309.685 338.538 321.125C349.786 331.452 362.608 334.945 374.816 337.133C375.776 331.759 375.047 325.233 374.432 319.474C374.24 317.709 374.048 315.981 373.933 314.369C373.473 314.33 372.59 314.215 370.9 313.908C369.173 313.601 366.562 313.063 363.913 312.296C352.819 309.071 344.949 300.625 342.876 289.685C341.225 281.047 343.874 273.139 346.408 265.461C347.175 263.158 347.943 260.816 348.634 258.436C349.44 255.634 351.398 246.228 343.643 243.503C342.453 243.042 341.263 242.85 340.112 242.85Z" fill="#2E1E00"/>
<path d="M752.922 158.548C751.079 187.532 742.441 223.886 718.371 242.965C709.195 250.259 700.75 254.367 690.922 256.785C688.273 257.438 685.509 257.937 682.591 258.359C685.01 302.699 689.386 348.458 691.651 368.113H642.32L641.053 344.351C630.687 346.807 611.723 343.391 611.723 343.391L609.534 368.996L559.013 368.113C556.902 334.331 561.585 294.407 566.845 260.087C553.485 253.906 544.156 246.037 537.63 237.706C519.164 214.097 523.54 187.148 523.54 187.148C525.921 154.633 528.838 129.258 532.14 109.602C532.485 107.529 532.831 105.495 533.215 103.537C533.791 100.389 534.367 97.3948 534.981 94.554C535.633 91.5213 536.286 88.6421 536.939 85.9549C539.588 75.0525 542.428 66.9524 545.308 61.0789C546.229 59.1595 547.189 57.5087 548.11 56.05C553.83 47.1821 559.781 46.1456 565.271 48.5641C569.801 50.5603 572.142 55.3973 572.987 62.3841C573.141 63.4974 573.217 64.6491 573.294 65.8775C573.524 69.9851 573.333 74.707 572.872 79.8895C572.757 81.3482 572.603 82.807 572.411 84.3426C572.258 85.8397 572.066 87.3753 571.835 88.9492C571.72 89.9857 571.567 91.0222 571.413 92.0587C568.534 112.597 563.121 138.164 559.973 164.153C558.399 177.244 558.629 187.11 559.858 194.595C562.583 210.949 570.261 215.633 574.753 216.976C587.23 157.627 603.085 112.597 603.085 112.597L613.873 140.237C633.106 132.521 648.692 136.091 657.829 140.006C663.549 142.463 666.736 144.997 666.736 144.997L666.928 144.843L689.194 126.801C682.591 143.961 680.595 175.363 680.902 210.258C680.94 213.483 680.979 216.746 681.055 220.047C681.67 220.009 682.322 219.932 682.975 219.855C691.152 218.896 702.132 215.249 708.159 203.31C716.95 185.958 721.749 168.76 721.979 149.719C722.171 135.169 719.638 114.017 706.278 104.343C702.515 101.618 697.64 99.6597 693.11 97.4716C684.51 93.3256 683.512 83.6899 687.543 77.279C687.697 77.0487 687.85 76.8183 688.004 76.588C688.196 76.3193 688.35 76.089 688.58 75.8586C688.81 75.5899 689.041 75.3212 689.309 75.0525C692.035 72.2501 695.989 70.561 700.903 71.2136C707.391 72.0965 715.645 75.0525 725.972 81.7705C726.049 81.8473 726.164 81.8857 726.279 81.9625C729.081 83.8051 731.577 85.9165 733.803 88.1815C735.838 90.2929 737.681 92.5194 739.293 94.9379C740.867 97.2412 742.249 99.6981 743.439 102.27C751.655 119.66 754.15 139.124 752.922 158.548Z" fill="#73B7EA"/>
<path d="M609.534 369.38L559.012 368.497C558.82 368.497 558.667 368.344 558.628 368.152C556.363 331.913 561.968 289.339 566.421 260.317C554.328 254.713 544.577 247.188 537.322 237.937C527.724 225.652 524.346 212.485 523.232 203.617C522.042 193.981 523.117 187.148 523.117 187.071C525.382 156.245 528.262 130.141 531.717 109.526C532.062 107.453 532.408 105.418 532.792 103.46C533.367 100.389 533.943 97.3565 534.558 94.4389C535.172 91.483 535.824 88.5654 536.515 85.8014C539.049 75.4364 541.852 67.0293 544.884 60.8487C545.806 58.9676 546.766 57.2785 547.725 55.7813C552.87 47.8348 558.782 45.2628 565.346 48.1419C569.761 50.0998 572.372 54.7064 573.293 62.2691C573.447 63.3439 573.524 64.4956 573.6 65.8008C573.792 69.7549 573.677 74.3615 573.178 79.8895C573.063 81.3483 572.909 82.8455 572.717 84.3427C572.564 85.7631 572.372 87.2602 572.141 88.9877C572.026 90.0242 571.873 91.0607 571.719 92.0972C570.529 100.543 568.917 109.833 567.228 119.66C564.732 134.018 562.16 148.874 560.317 164.192C558.897 176.13 558.858 186.342 560.202 194.519C562.813 210.258 570.068 215.018 574.407 216.477C586.73 157.973 602.508 112.904 602.7 112.443C602.738 112.29 602.892 112.175 603.046 112.175C603.199 112.175 603.353 112.251 603.391 112.405L614.14 139.738C633.067 132.29 648.423 135.553 658.02 139.661C662.896 141.734 665.929 143.884 666.773 144.536L689.001 126.532C689.155 126.417 689.347 126.417 689.462 126.532C689.615 126.647 689.654 126.801 689.577 126.993C683.742 142.233 680.939 170.257 681.323 210.297C681.362 213.061 681.4 216.017 681.477 219.663C682.014 219.625 682.475 219.587 682.974 219.51C691.036 218.55 701.9 214.98 707.889 203.195C717.064 185.075 721.441 168.107 721.671 149.757C721.825 137.243 720.02 114.747 706.123 104.689C703.282 102.654 699.712 101.003 696.295 99.3911C695.22 98.892 694.107 98.3546 693.032 97.8555C688.195 95.5138 686.275 91.8285 685.508 89.1797C684.356 85.2256 685.047 80.7341 687.274 77.1255C687.427 76.8952 687.581 76.6265 687.773 76.3962C687.926 76.1658 688.118 75.8971 688.349 75.6284C688.579 75.3597 688.809 75.0909 689.078 74.7838C692.111 71.5975 696.372 70.2155 700.979 70.8298C708.465 71.8279 716.949 75.3981 726.24 81.4635C726.355 81.5403 726.432 81.5787 726.547 81.6554C729.272 83.4597 731.845 85.5711 734.11 87.9512C736.106 90.0242 737.987 92.2892 739.638 94.746C741.173 97.011 742.594 99.5063 743.822 102.117C751.5 118.355 754.725 137.358 753.343 158.548L752.959 158.51L753.343 158.548C751.884 181.044 745.473 221.967 718.638 243.234C709.655 250.375 701.132 254.674 691.036 257.093C688.541 257.707 685.892 258.206 683.051 258.628C685.584 304.656 690.038 350.301 692.072 368.036C692.072 368.152 692.034 368.267 691.996 368.344C691.957 368.42 691.804 368.459 691.727 368.459H642.319C642.127 368.459 641.935 368.305 641.935 368.113L640.706 344.811C631.186 346.884 614.87 344.312 612.067 343.852L609.917 369.035C609.917 369.227 609.725 369.38 609.534 369.38ZM559.396 367.768L609.188 368.612L611.338 343.391C611.338 343.276 611.415 343.199 611.491 343.122C611.568 343.045 611.683 343.045 611.799 343.045C611.99 343.084 630.84 346.424 640.975 344.005C641.09 343.967 641.205 344.005 641.282 344.082C641.359 344.159 641.436 344.274 641.436 344.351L642.664 367.768H691.228C689.193 349.687 684.74 304.234 682.245 258.398C682.245 258.206 682.36 258.014 682.59 258.014C685.584 257.592 688.272 257.054 690.882 256.44C700.864 254.022 709.271 249.76 718.178 242.697C729.58 233.637 749.235 210.68 752.575 158.548C753.919 137.473 750.733 118.586 743.131 102.462C741.903 99.8902 740.521 97.4333 739.024 95.2067C737.411 92.7882 735.568 90.5233 733.572 88.527C731.307 86.2237 728.812 84.1507 726.124 82.3464C726.009 82.2697 725.933 82.2313 725.856 82.1545C716.68 76.1658 708.311 72.634 700.941 71.6359C696.564 71.0601 692.571 72.3653 689.692 75.3597C689.423 75.6284 689.193 75.8971 689.001 76.1274C688.771 76.3962 688.579 76.6265 688.464 76.8568C688.31 77.0872 688.157 77.3175 688.003 77.5478C685.853 80.9644 685.239 85.2256 686.314 88.9877C687.043 91.5214 688.848 94.9764 693.416 97.2029C694.491 97.7404 695.604 98.2394 696.679 98.7385C700.173 100.351 703.743 102.002 706.661 104.113C720.865 114.363 722.708 137.127 722.554 149.796C722.324 168.261 717.909 185.344 708.695 203.579C702.591 215.671 691.458 219.356 683.204 220.316C682.59 220.393 681.976 220.431 681.285 220.508C681.17 220.508 681.093 220.47 681.016 220.393C680.939 220.316 680.901 220.239 680.901 220.124C680.824 216.285 680.786 213.176 680.747 210.335C680.402 171.332 683.012 143.653 688.579 128.068L667.196 145.381C667.042 145.496 666.85 145.496 666.696 145.381C666.658 145.343 663.472 142.809 657.867 140.429C648.346 136.36 633.067 133.135 614.217 140.659C614.14 140.698 614.025 140.698 613.91 140.659C613.833 140.621 613.756 140.544 613.718 140.429L603.276 113.749C600.896 120.659 586.615 163.232 575.289 217.091C575.251 217.207 575.213 217.283 575.098 217.36C575.021 217.399 574.906 217.437 574.79 217.399C570.337 216.055 562.429 211.371 559.626 194.711C558.244 186.457 558.283 176.207 559.741 164.153C561.584 148.836 564.156 133.979 566.652 119.584C568.341 109.756 569.953 100.466 571.143 92.0588C571.297 91.0223 571.45 89.9858 571.566 88.9493C571.796 87.2602 571.988 85.7247 572.141 84.3427C572.295 82.8455 572.449 81.3483 572.602 79.8895C573.101 74.3999 573.216 69.7933 573.024 65.916C572.948 64.6108 572.871 63.4975 572.717 62.461C571.834 55.2055 569.377 50.7908 565.231 48.9481C558.974 46.2225 553.522 48.6026 548.57 56.3188C547.61 57.7776 546.689 59.4667 545.767 61.3093C542.773 67.4516 539.971 75.7819 537.437 86.1085C536.784 88.8725 536.093 91.7517 535.479 94.7077C534.865 97.5868 534.289 100.62 533.713 103.691C533.367 105.648 532.984 107.683 532.638 109.756C529.183 130.333 526.304 156.399 524.039 187.263C524 187.57 519.892 214.366 538.089 237.553C545.307 246.728 555.058 254.252 567.151 259.818C567.304 259.895 567.381 260.049 567.381 260.241C562.813 289.032 557.169 331.567 559.396 367.768Z" fill="#2E1E00"/>
<path d="M862.182 367.422L861.99 364.62L859.494 326.231C851.164 330.837 838.188 329.11 838.188 329.11L833.351 368.151H781.217C783.904 348.266 787.129 326.346 790.699 309.378C790.738 309.148 790.776 308.917 790.853 308.687C793.348 296.863 796.074 285.731 798.915 275.212C801.602 265.346 804.443 256.018 807.399 247.265C810.355 238.512 813.388 230.297 816.536 222.581C821.027 211.486 825.749 201.429 830.51 192.292C838.802 176.476 847.44 163.424 855.963 152.636C859.456 148.26 862.911 144.229 866.366 140.544C870.781 135.822 875.119 131.676 879.381 128.029C886.06 122.271 892.433 117.779 898.307 114.247C917.617 102.654 931.246 101.733 931.246 101.733L929.633 120.121L928.597 131.829C932.129 134.402 936.966 138.624 940.421 144.69C942.302 147.953 943.799 151.792 944.529 156.13C963.109 157.627 971.517 162.349 971.517 162.349C967.179 165.996 963.148 169.834 959.347 173.827C953.819 179.624 948.828 185.727 944.337 192.062C918.692 228.109 909.171 271.22 906.023 305.309C905.025 316.135 904.68 326.039 904.68 334.523C904.641 352.642 904.68 367.153 904.68 367.153L862.182 367.422Z" fill="#ADF0E7"/>
<path d="M833.349 368.536H781.215C781.1 368.536 780.985 368.497 780.908 368.42C780.831 368.344 780.793 368.228 780.831 368.113C783.288 349.955 786.628 326.845 790.314 309.301C790.352 309.071 790.391 308.841 790.467 308.61C792.924 297.055 795.65 285.769 798.529 275.135C801.178 265.461 804.019 256.056 807.014 247.15C809.893 238.589 812.964 230.297 816.15 222.427C820.489 211.755 825.211 201.582 830.163 192.1C837.918 177.282 846.517 163.923 855.654 152.406C858.994 148.183 862.526 144.114 866.058 140.314C870.281 135.784 874.657 131.561 879.11 127.76C885.253 122.463 891.664 117.818 898.075 113.94C913.393 104.727 926.407 101.694 931.167 101.349C931.283 101.349 931.398 101.387 931.475 101.464C931.551 101.541 931.59 101.656 931.59 101.771L928.979 131.676C932.473 134.21 937.271 138.471 940.727 144.498C942.761 148.03 944.143 151.83 944.796 155.784C963.031 157.281 971.554 161.965 971.631 162.003C971.746 162.08 971.823 162.195 971.823 162.31C971.823 162.426 971.784 162.541 971.707 162.656C967.485 166.226 963.415 170.065 959.538 174.096C954.163 179.701 949.134 185.843 944.566 192.292C932.895 208.684 923.643 227.955 917.04 249.53C911.742 266.805 908.172 285.577 906.329 305.309C905.446 314.945 904.985 324.772 904.985 334.485C904.947 352.412 904.985 367 904.985 367.115C904.985 367.345 904.832 367.499 904.601 367.499L862.142 367.768C861.95 367.768 861.758 367.614 861.758 367.422L861.566 364.62L859.109 326.807C851.508 330.722 840.72 329.724 838.494 329.494L833.695 368.19C833.733 368.382 833.58 368.536 833.349 368.536ZM781.676 367.768H833.004L837.803 329.033C837.803 328.918 837.879 328.841 837.956 328.765C838.033 328.688 838.148 328.688 838.225 328.688C838.34 328.688 851.162 330.377 859.263 325.847C859.378 325.77 859.531 325.77 859.647 325.847C859.762 325.924 859.838 326.039 859.838 326.154L862.526 367L904.218 366.731C904.218 364.313 904.179 350.761 904.218 334.446C904.218 324.695 904.678 314.829 905.561 305.194C907.366 285.385 910.974 266.536 916.272 249.261C922.914 227.61 932.204 208.262 943.913 191.793C948.52 185.305 953.587 179.163 958.962 173.52C962.686 169.604 966.64 165.881 970.748 162.387C968.675 161.389 960.229 157.742 944.412 156.475C944.22 156.475 944.105 156.322 944.067 156.168C943.414 152.214 942.07 148.414 940.036 144.843C936.58 138.816 931.743 134.594 928.327 132.137C928.211 132.06 928.173 131.945 928.173 131.791L930.784 102.117C925.754 102.616 913.201 105.725 898.497 114.555C892.086 118.394 885.752 123 879.609 128.298C875.195 132.098 870.856 136.283 866.634 140.774C863.102 144.575 859.608 148.606 856.268 152.828C847.131 164.307 838.609 177.628 830.854 192.407C825.902 201.851 821.218 212.024 816.88 222.658C813.693 230.489 810.622 238.781 807.743 247.342C804.749 256.248 801.908 265.615 799.259 275.289C796.341 285.923 793.654 297.171 791.197 308.726C791.197 308.726 791.197 308.726 791.197 308.764C791.158 308.994 791.082 309.225 791.043 309.455C787.435 326.807 784.133 349.687 781.676 367.768Z" fill="#2E1E00"/>
<path d="M974.779 273.83C965.374 299.935 944.835 320.588 917.77 330.454C913.47 332.028 909.094 333.371 904.641 334.485C904.641 326.001 904.986 316.096 905.984 305.271C914.315 304.196 926.485 300.165 937.887 287.381C957.773 265.116 954.202 218.397 971.478 221.698C982.458 223.809 980.768 242.082 980.039 249.952C979.31 258.244 977.505 266.268 974.779 273.83Z" fill="#ADF0E7"/>
<path d="M904.64 334.869C904.563 334.869 904.486 334.83 904.409 334.792C904.333 334.715 904.256 334.6 904.256 334.485C904.256 324.734 904.717 314.868 905.6 305.232C905.6 305.04 905.753 304.925 905.945 304.887C914.122 303.812 926.253 299.858 937.617 287.113C946.869 276.748 950.938 261.277 954.585 247.611C958.732 231.91 962.033 219.472 971.592 221.314C982.879 223.464 981.19 242.006 980.46 249.914V249.991C979.693 258.244 977.927 266.306 975.163 273.984C965.642 300.319 944.796 321.049 917.923 330.838C913.738 332.373 909.323 333.717 904.793 334.869C904.717 334.869 904.678 334.869 904.64 334.869ZM906.367 305.616C905.523 314.983 905.062 324.542 905.024 334.024C909.362 332.911 913.623 331.605 917.616 330.108C944.297 320.358 964.989 299.819 974.395 273.715L974.74 273.83L974.395 273.715C977.12 266.114 978.925 258.091 979.654 249.914V249.837C980.345 242.121 981.996 224.078 971.4 222.082C962.571 220.393 959.346 232.485 955.276 247.841C951.629 261.584 947.522 277.17 938.154 287.65C926.829 300.395 914.66 304.465 906.367 305.616Z" fill="#2E1E00"/>
<path d="M876.155 234.98C873.083 249.415 863.946 255.672 849.627 255.634C829.472 255.518 807.858 253.138 796.533 234.75C792.541 228.224 787.627 220.239 779.834 217.936C770.121 215.057 760.869 223.732 761.867 233.33C763.518 248.992 780.333 267.342 802.177 276.632C817.341 283.082 835.615 285.922 852.046 285.615C872.162 285.231 898.613 276.095 901.262 252.87" fill="#ADF0E7"/>
<path d="M849.551 285.999C832.813 285.999 815.614 282.736 801.986 276.978C780.142 267.726 763.096 249.376 761.445 233.368C760.946 228.493 762.981 223.617 766.897 220.354C770.659 217.245 775.381 216.208 779.911 217.552C787.82 219.894 792.81 227.994 796.803 234.481L796.841 234.52C807.936 252.524 828.744 255.135 849.589 255.211C849.666 255.211 849.743 255.211 849.82 255.211C864.37 255.211 872.854 248.57 875.733 234.865C875.771 234.673 875.963 234.52 876.194 234.558C876.386 234.596 876.539 234.788 876.501 235.019C873.506 249.107 864.792 255.941 849.82 255.941C849.743 255.941 849.666 255.941 849.551 255.941C828.475 255.826 807.437 253.215 796.15 234.865L796.112 234.827C792.196 228.454 787.282 220.508 779.642 218.243C775.381 216.976 770.889 217.936 767.319 220.892C763.595 224.001 761.637 228.608 762.136 233.214C763.787 248.954 780.641 267.035 802.216 276.21C816.42 282.237 834.54 285.5 851.931 285.155C863.103 284.924 874.389 282.122 882.912 277.4C893.431 271.565 899.612 263.043 900.763 252.754C900.802 252.562 900.994 252.409 901.186 252.409C901.378 252.447 901.531 252.639 901.531 252.831C900.341 263.388 894.045 272.141 883.296 278.091C874.658 282.851 863.256 285.73 851.97 285.961C851.202 285.999 850.357 285.999 849.551 285.999Z" fill="#2E1E00"/>
<path d="M830.548 192.254C825.749 201.39 821.066 211.448 816.574 222.543C807.898 216.592 798.992 208.723 793.847 201.621C779.259 181.467 778.184 157.358 781.716 133.365C784.096 117.204 786.937 99.8902 795.728 85.8015C800.182 78.6228 807.092 72.0967 815.538 70.1389C822.793 68.4498 829.627 72.0967 829.512 80.2351C829.358 89.3717 822.102 97.3182 818.762 105.495C815.423 113.71 813.503 122.463 812.658 131.292C810.969 148.683 813.081 167.877 822.333 183.041C824.444 186.457 827.132 189.874 830.548 192.254Z" fill="#ADF0E7"/>
<path d="M816.574 222.888C816.497 222.888 816.42 222.85 816.344 222.811C806.9 216.324 798.377 208.454 793.54 201.774C780.91 184.346 777.032 162.579 781.332 133.25C783.866 115.937 786.86 99.2376 795.383 85.5328C800.565 77.2408 807.859 71.4441 815.422 69.6782C819.53 68.7185 823.484 69.4095 826.21 71.636C828.667 73.5939 829.934 76.5498 829.857 80.1584C829.742 86.2238 826.555 91.7902 823.446 97.1646C821.795 100.044 820.221 102.731 819.108 105.533C815.998 113.25 813.925 121.887 813.042 131.216C811.123 151.063 814.501 169.374 822.64 182.733C825.173 186.879 827.822 189.874 830.778 191.87C830.932 191.985 831.009 192.177 830.893 192.369C825.941 201.813 821.258 211.986 816.919 222.62C816.881 222.735 816.804 222.811 816.689 222.85C816.651 222.888 816.612 222.888 816.574 222.888ZM818.993 70.0621C817.918 70.0621 816.766 70.1772 815.614 70.446C808.243 72.1735 801.103 77.8166 796.035 85.9551C787.551 99.5447 784.595 116.129 782.061 133.365C777.8 162.464 781.639 184.077 794.154 201.352C798.876 207.878 807.168 215.518 816.382 221.929C820.605 211.525 825.212 201.582 830.049 192.369C827.131 190.296 824.482 187.302 821.987 183.194C813.772 169.681 810.316 151.216 812.274 131.216C813.196 121.849 815.269 113.134 818.417 105.341C819.568 102.501 821.219 99.6599 822.832 96.8959C825.903 91.5982 829.051 86.147 829.128 80.2351C829.166 76.8569 828.014 74.1313 825.749 72.2886C823.945 70.7915 821.603 70.0621 818.993 70.0621Z" fill="#2E1E00"/>
<path d="M606.385 167C606.274 167 606.127 166.918 606.053 166.794C605.943 166.588 606.016 166.341 606.164 166.218C606.422 166.053 612.283 162.143 618.772 165.106C618.956 165.189 619.066 165.436 618.956 165.642C618.845 165.847 618.661 165.971 618.477 165.847C612.357 163.048 606.606 166.877 606.532 166.918C606.532 166.959 606.459 167 606.385 167Z" fill="#2E1E00"/>
<path d="M658.643 170C658.569 170 658.495 170 658.458 169.958C658.384 169.917 652.631 166.035 646.508 168.873C646.323 168.957 646.102 168.873 646.028 168.664C645.954 168.456 646.028 168.205 646.213 168.122C652.704 165.117 658.569 169.082 658.827 169.249C659.012 169.374 659.048 169.624 658.938 169.833C658.864 169.917 658.753 170 658.643 170Z" fill="#2E1E00"/>
<path d="M632.5 176C634.985 176 637 173.985 637 171.5C637 169.015 634.985 167 632.5 167C630.015 167 628 169.015 628 171.5C628 173.985 630.015 176 632.5 176Z" fill="#2E1E00"/>
<path d="M637.376 182C637.188 182 637 181.858 637 181.644C637 181.43 637.15 181.288 637.376 181.288C637.639 181.288 643.688 181.003 645.266 175.268C645.304 175.09 645.529 174.947 645.717 175.019C645.905 175.054 646.055 175.268 645.98 175.446C644.252 181.679 637.451 182 637.376 182Z" fill="#2E1E00"/>
<path d="M615.871 158.001C619.847 156.526 622.419 153.574 621.615 151.407C620.811 149.24 616.937 148.679 612.961 150.154C608.985 151.629 606.413 154.581 607.217 156.748C608.021 158.914 611.896 159.475 615.871 158.001Z" fill="#2E1E00"/>
<path d="M661.265 160.485C662.069 158.318 659.498 155.366 655.522 153.891C651.546 152.416 647.671 152.977 646.867 155.144C646.064 157.311 648.635 160.263 652.611 161.737C656.587 163.212 660.462 162.651 661.265 160.485Z" fill="#2E1E00"/>
<path d="M586.885 166.456L600.552 175.324L584.312 176.207L586.885 166.456Z" fill="#2E1E00"/>
<path d="M584.311 176.591C584.196 176.591 584.081 176.553 584.004 176.438C583.927 176.361 583.889 176.207 583.927 176.092L586.499 166.341C586.538 166.226 586.614 166.111 586.73 166.073C586.845 166.034 586.96 166.034 587.075 166.111L600.742 174.94C600.896 175.017 600.934 175.209 600.896 175.363C600.857 175.516 600.704 175.631 600.55 175.631L584.311 176.591ZM587.114 167.071L584.81 175.785L599.36 174.979L587.114 167.071Z" fill="#2E1E00"/>
<path d="M583.66 180.084L605.12 186.419L580.512 192.945L583.66 180.084Z" fill="#2E1E00"/>
<path d="M580.512 193.329C580.396 193.329 580.32 193.29 580.243 193.213C580.128 193.137 580.089 192.983 580.128 192.83L583.276 179.931C583.314 179.816 583.352 179.739 583.468 179.701C583.544 179.662 583.66 179.624 583.775 179.662L605.235 186.035C605.388 186.073 605.504 186.227 605.504 186.419C605.504 186.572 605.388 186.726 605.235 186.802L580.627 193.329C580.588 193.329 580.55 193.329 580.512 193.329ZM583.928 180.545L581.049 192.407L603.699 186.38L583.928 180.545Z" fill="#2E1E00"/>
<path d="M681.48 173.021L665.816 177.435L681.057 183.079L681.48 173.021Z" fill="#2E1E00"/>
<path d="M681.056 183.463C681.018 183.463 680.98 183.463 680.941 183.424L665.7 177.781C665.547 177.704 665.432 177.589 665.432 177.397C665.432 177.205 665.547 177.09 665.7 177.052L681.364 172.637C681.479 172.598 681.594 172.637 681.709 172.714C681.824 172.79 681.863 172.906 681.863 173.021L681.44 183.079C681.44 183.194 681.364 183.309 681.287 183.386C681.21 183.424 681.133 183.463 681.056 183.463ZM667.044 177.474L680.711 182.503L681.095 173.481L667.044 177.474Z" fill="#2E1E00"/>
<path d="M681.055 186.649L658.674 187.225L680.748 199.893L681.055 186.649Z" fill="#2E1E00"/>
<path d="M680.749 200.277C680.673 200.277 680.634 200.277 680.557 200.239L658.483 187.57C658.329 187.493 658.253 187.301 658.291 187.148C658.329 186.994 658.483 186.879 658.637 186.841L681.018 186.227C681.133 186.227 681.21 186.265 681.287 186.342C681.364 186.419 681.402 186.534 681.402 186.61L681.095 199.893C681.095 200.047 681.018 200.162 680.903 200.2C680.903 200.277 680.826 200.277 680.749 200.277ZM660.057 187.57L680.404 199.24L680.673 187.033L660.057 187.57Z" fill="#2E1E00"/>
<path d="M629.907 219C621.591 219 613.504 217.603 605.837 214.884C588.633 208.766 579.212 197.738 579.097 197.625C578.945 197.474 578.983 197.209 579.135 197.096C579.288 196.945 579.555 196.983 579.669 197.134C579.746 197.247 589.091 208.124 606.104 214.166C616.098 217.716 626.741 218.962 637.726 217.829C651.497 216.432 665.839 211.296 680.411 202.572C680.602 202.459 680.83 202.534 680.945 202.685C681.059 202.874 680.983 203.101 680.83 203.214C666.145 211.976 651.688 217.149 637.803 218.547C635.132 218.887 632.5 219 629.907 219Z" fill="#FEFFFA"/>
<path d="M625.769 227C625.308 227 625 226.797 625 226.595L625.462 218.405C625.462 218.162 625.846 218 626.231 218C626.692 218 627 218.203 627 218.405L626.538 226.595C626.538 226.838 626.154 227 625.769 227Z" fill="#FEFFFA"/>
<path d="M632.185 240.201C633.221 242.236 632.415 244.77 630.38 245.806C628.538 246.766 626.349 246.19 625.121 244.616C624.775 245 624.353 245.345 623.892 245.576C621.858 246.612 619.324 245.806 618.288 243.772C617.673 242.543 617.712 241.199 618.249 240.048C617.942 240.009 617.635 239.971 617.328 239.856C615.14 239.165 613.911 236.785 614.64 234.597C615.331 232.408 617.712 231.18 619.9 231.909C620.284 232.025 620.629 232.216 620.975 232.447C620.053 230.451 620.898 228.032 622.894 227.034C624.929 225.997 627.463 226.804 628.499 228.838C628.96 229.721 629.075 230.719 628.883 231.602C630.918 230.643 633.336 231.449 634.373 233.483C635.41 235.518 634.603 238.052 632.569 239.088C632.3 239.242 631.993 239.357 631.686 239.434C631.839 239.626 632.031 239.894 632.185 240.201Z" fill="#FEFFFA"/>
<path d="M628.46 246.651C627.194 246.651 625.965 246.152 625.12 245.153C624.813 245.422 624.468 245.691 624.084 245.883C623.009 246.42 621.781 246.535 620.59 246.152C619.439 245.768 618.479 244.962 617.942 243.887C617.366 242.773 617.289 241.468 617.711 240.316C617.558 240.278 617.404 240.24 617.251 240.201C614.87 239.434 613.527 236.861 614.294 234.481C615.062 232.101 617.634 230.758 620.015 231.525C620.13 231.564 620.207 231.602 620.322 231.641C619.899 229.683 620.859 227.61 622.702 226.65C623.777 226.113 625.005 225.997 626.195 226.381C627.347 226.765 628.307 227.571 628.844 228.646C629.228 229.376 629.382 230.182 629.343 230.988C631.416 230.335 633.681 231.257 634.718 233.253C635.87 235.479 634.987 238.243 632.76 239.395C632.607 239.472 632.491 239.549 632.338 239.587C632.415 239.702 632.491 239.856 632.568 240.009C633.72 242.236 632.837 245 630.61 246.152C629.881 246.497 629.151 246.651 628.46 246.651ZM625.12 244.194C625.236 244.194 625.351 244.271 625.428 244.347C626.541 245.844 628.537 246.305 630.188 245.461C632.031 244.501 632.799 242.236 631.839 240.355C631.724 240.086 631.532 239.856 631.378 239.664C631.301 239.549 631.263 239.434 631.301 239.28C631.34 239.126 631.455 239.05 631.57 239.011C631.839 238.934 632.108 238.858 632.376 238.704C634.219 237.744 634.987 235.479 634.027 233.598C633.067 231.756 630.879 231.026 629.036 231.909C628.921 231.986 628.729 231.948 628.652 231.871C628.537 231.794 628.499 231.641 628.499 231.487C628.691 230.642 628.576 229.76 628.153 228.953C627.693 228.07 626.886 227.379 625.927 227.072C624.967 226.765 623.93 226.842 623.047 227.303C621.243 228.224 620.475 230.374 621.32 232.216C621.397 232.37 621.358 232.562 621.205 232.677C621.09 232.792 620.898 232.792 620.744 232.715C620.437 232.524 620.13 232.37 619.784 232.255C617.788 231.602 615.638 232.715 615.024 234.712C614.371 236.708 615.485 238.858 617.481 239.472C617.75 239.549 618.018 239.625 618.287 239.625C618.402 239.625 618.517 239.702 618.594 239.817C618.671 239.933 618.671 240.048 618.594 240.163C618.057 241.238 618.095 242.466 618.633 243.541C619.093 244.424 619.861 245.115 620.859 245.422C621.857 245.729 622.855 245.653 623.738 245.192C624.161 244.962 624.545 244.693 624.852 244.309C624.89 244.271 625.005 244.194 625.12 244.194Z" fill="#2E1E00"/>
<path d="M940.593 196C940.478 196 940.326 195.923 940.288 195.809L885.064 109.601C884.95 109.409 884.988 109.179 885.179 109.065C885.369 108.95 885.598 108.988 885.712 109.179L940.936 195.388C941.05 195.579 941.012 195.809 940.821 195.923C940.745 196 940.669 196 940.593 196Z" fill="#2E1E00"/>
<path d="M883.026 105.418C883.026 105.418 871.509 120.62 878.189 131.446C884.869 142.233 900.955 133.941 900.955 133.941L883.026 105.418Z" fill="#2E1E00"/>
<path d="M888.9 137.319C884.793 137.319 880.57 136.014 877.844 131.638C875.041 127.108 875.003 121.081 877.729 114.248C879.763 109.103 882.681 105.226 882.681 105.188C882.758 105.073 882.873 105.034 882.988 105.034C883.103 105.034 883.219 105.111 883.295 105.226L901.262 133.749C901.3 133.826 901.339 133.941 901.3 134.056C901.262 134.171 901.185 134.248 901.108 134.287C901.07 134.325 895.12 137.319 888.9 137.319ZM882.988 106.109C881.184 108.72 872.661 121.81 878.535 131.215C884.409 140.697 897.999 134.901 900.417 133.749L882.988 106.109Z" fill="#2E1E00"/>
<path d="M922.376 168.069C922.376 168.069 903.719 172.023 896.77 161.351C889.821 150.678 904.218 139.661 904.218 139.661L922.376 168.069Z" fill="#2E1E00"/>
<path d="M914.582 169.144C913.814 169.144 913.008 169.105 912.164 169.067C904.793 168.606 899.38 165.996 896.462 161.543C889.437 150.717 903.833 139.469 903.986 139.354C904.063 139.277 904.178 139.277 904.294 139.277C904.409 139.277 904.485 139.354 904.562 139.431L922.721 167.838C922.798 167.954 922.798 168.069 922.759 168.184C922.721 168.299 922.606 168.376 922.49 168.414C922.414 168.453 918.997 169.144 914.582 169.144ZM904.14 140.237C902.067 141.964 891.049 151.792 897.115 161.12C903.142 170.411 918.651 168.299 921.761 167.762L904.14 140.237Z" fill="#2E1E00"/>
<path d="M886 148C888.209 148 890 146.433 890 144.5C890 142.567 888.209 141 886 141C883.791 141 882 142.567 882 144.5C882 146.433 883.791 148 886 148Z" fill="#2E1E00"/>
<path d="M889.598 160C881.586 160 878.135 154.614 878.056 154.576C877.937 154.389 878.016 154.165 878.215 154.053C878.413 153.941 878.651 154.015 878.77 154.202C878.968 154.539 883.966 162.207 896.46 158.055C896.658 157.98 896.896 158.092 896.975 158.279C897.054 158.466 896.935 158.691 896.737 158.766C894 159.626 891.66 160 889.598 160Z" fill="#2E1E00"/>
<path d="M905.28 119.787C906.552 118.038 904.845 114.629 901.467 112.172C898.089 109.715 894.319 109.141 893.047 110.89C891.775 112.639 893.482 116.048 896.86 118.505C900.238 120.962 904.008 121.536 905.28 119.787Z" fill="#2E1E00"/>
<path d="M922.862 157.23C924.991 156.852 926.126 153.212 925.397 149.1C924.667 144.987 922.35 141.96 920.221 142.337C918.091 142.715 916.956 146.355 917.686 150.467C918.415 154.58 920.732 157.607 922.862 157.23Z" fill="#2E1E00"/>
<path d="M922.575 233H922.536C905.525 231.025 890.718 226.58 878.502 219.743C868.72 214.273 860.563 207.283 854.3 199.002C848.733 191.595 845.679 184.529 844.094 179.857C842.393 174.804 842.006 171.538 842.006 171.424C841.967 171.234 842.122 171.044 842.354 171.006C842.586 170.968 842.74 171.12 842.779 171.348C842.779 171.462 844.364 184.605 854.957 198.584C861.182 206.789 869.223 213.703 878.927 219.097C891.028 225.859 905.757 230.265 922.652 232.24C922.845 232.278 923 232.468 923 232.658C922.961 232.886 922.768 233 922.575 233Z" fill="#FEFFFA"/>
<path d="M852.395 209C852.321 209 852.247 208.962 852.173 208.925C851.988 208.813 851.952 208.588 852.062 208.4L856.31 202.176C856.421 201.988 856.642 201.951 856.827 202.063C857.012 202.176 857.048 202.401 856.938 202.588L852.69 208.813C852.616 208.925 852.506 209 852.395 209Z" fill="#FEFFFA"/>
<path d="M850.625 222.927C850.395 225.23 848.36 226.881 846.057 226.65C843.984 226.42 842.448 224.769 842.333 222.773C841.834 222.927 841.296 222.965 840.759 222.888C838.456 222.658 836.805 220.623 837.035 218.32C837.189 216.976 837.957 215.825 839.031 215.172C838.801 214.98 838.571 214.788 838.379 214.519C836.92 212.715 837.189 210.105 838.993 208.646C840.797 207.187 843.408 207.456 844.867 209.26C845.135 209.567 845.327 209.913 845.481 210.297C845.826 208.108 847.823 206.573 850.049 206.803C852.353 207.034 854.004 209.068 853.773 211.371C853.658 212.37 853.236 213.253 852.583 213.905C854.81 214.212 856.422 216.208 856.192 218.473C855.962 220.777 853.888 222.427 851.623 222.197C851.316 222.159 851.009 222.082 850.702 222.005C850.664 222.274 850.664 222.581 850.625 222.927Z" fill="#FEFFFA"/>
<path d="M846.479 227.034C846.325 227.034 846.172 227.034 846.018 226.996C843.945 226.765 842.333 225.23 841.987 223.234C841.565 223.31 841.143 223.31 840.72 223.272C838.225 223.003 836.382 220.777 836.651 218.281C836.766 217.015 837.419 215.901 838.379 215.134C838.263 215.018 838.148 214.903 838.033 214.75C837.265 213.79 836.92 212.638 837.035 211.41C837.15 210.181 837.764 209.107 838.686 208.339C840.644 206.765 843.523 207.034 845.097 208.991C845.174 209.068 845.212 209.145 845.289 209.222C846.018 207.341 847.938 206.151 850.011 206.342C851.239 206.458 852.314 207.072 853.082 207.993C853.85 208.953 854.195 210.105 854.08 211.333C854.003 212.139 853.696 212.907 853.197 213.598C855.309 214.212 856.691 216.208 856.46 218.435C856.192 220.93 853.965 222.773 851.47 222.504C851.316 222.504 851.163 222.466 851.009 222.427C851.009 222.581 851.009 222.735 850.971 222.888L850.587 222.85L850.971 222.888C850.855 224.117 850.241 225.191 849.32 225.959C848.552 226.689 847.515 227.034 846.479 227.034ZM842.294 222.389C842.371 222.389 842.448 222.427 842.525 222.466C842.602 222.543 842.678 222.619 842.678 222.773C842.794 224.616 844.214 226.113 846.095 226.266C847.093 226.382 848.091 226.074 848.859 225.422C849.627 224.769 850.126 223.886 850.241 222.85C850.28 222.543 850.28 222.274 850.241 222.005C850.241 221.89 850.28 221.736 850.395 221.66C850.51 221.583 850.625 221.544 850.779 221.583C851.047 221.66 851.316 221.736 851.623 221.775C853.696 222.005 855.577 220.47 855.769 218.397C855.961 216.362 854.541 214.519 852.506 214.251C852.353 214.251 852.237 214.135 852.199 213.982C852.161 213.828 852.199 213.675 852.276 213.598C852.89 212.984 853.274 212.178 853.351 211.295C853.466 210.297 853.159 209.298 852.506 208.531C851.854 207.763 850.971 207.264 849.972 207.149C847.976 206.957 846.133 208.339 845.826 210.335C845.788 210.489 845.673 210.642 845.481 210.642C845.289 210.68 845.135 210.565 845.097 210.412C844.943 210.066 844.79 209.759 844.559 209.49C843.254 207.878 840.836 207.609 839.223 208.953C838.455 209.606 837.956 210.488 837.841 211.525C837.726 212.523 838.033 213.521 838.686 214.289C838.878 214.519 839.07 214.711 839.262 214.865C839.377 214.942 839.415 215.057 839.415 215.172C839.415 215.287 839.338 215.402 839.223 215.479C838.187 216.093 837.534 217.13 837.419 218.32C837.189 220.393 838.724 222.274 840.797 222.466C841.296 222.504 841.757 222.466 842.218 222.351C842.256 222.389 842.294 222.389 842.294 222.389Z" fill="#2E1E00"/>
<path d="M938.731 200.392L920.342 191.678L933.049 210.066L938.731 200.392Z" fill="#2E1E00"/>
<path d="M933.049 210.45C932.933 210.45 932.818 210.373 932.742 210.297L920.034 191.908C919.919 191.755 919.958 191.563 920.073 191.448C920.188 191.332 920.38 191.256 920.533 191.332L938.884 200.047C938.999 200.085 939.038 200.162 939.076 200.277C939.114 200.392 939.076 200.507 939.038 200.584L933.394 210.258C933.317 210.373 933.202 210.412 933.049 210.45C933.087 210.45 933.087 210.45 933.049 210.45ZM921.493 192.638L933.049 209.337L938.193 200.546L921.493 192.638Z" fill="#2E1E00"/>
<path d="M930.13 214.673L907.787 198.856L923.949 229.222L930.13 214.673Z" fill="#2E1E00"/>
<path d="M923.949 229.606C923.795 229.606 923.68 229.529 923.603 229.414L907.479 199.048C907.403 198.895 907.441 198.703 907.556 198.588C907.671 198.473 907.902 198.473 908.017 198.549L930.36 214.366C930.514 214.481 930.552 214.673 930.475 214.826L924.256 229.376C924.218 229.491 924.102 229.606 923.949 229.606ZM908.9 200.123L923.91 228.339L929.669 214.788L908.9 200.123Z" fill="#2E1E00"/>
<path d="M336.374 198C336.297 198 336.22 197.962 336.181 197.924C335.988 197.809 335.949 197.581 336.065 197.39L392.278 111.179C392.394 110.988 392.626 110.95 392.819 111.064C393.012 111.179 393.051 111.407 392.935 111.598L336.683 197.809C336.606 197.924 336.49 198 336.374 198Z" fill="#2E1E00"/>
<path d="M395.395 106.685C395.395 106.685 406.912 121.887 400.232 132.712C393.552 143.5 377.467 135.208 377.467 135.208L395.395 106.685Z" fill="#2E1E00"/>
<path d="M389.521 138.624C383.34 138.624 377.389 135.63 377.274 135.553C377.197 135.515 377.121 135.4 377.082 135.323C377.044 135.208 377.082 135.093 377.121 135.016L395.087 106.493C395.164 106.378 395.279 106.301 395.394 106.301C395.51 106.301 395.625 106.339 395.702 106.455C395.74 106.493 398.619 110.37 400.654 115.514C403.38 122.386 403.341 128.375 400.539 132.905C397.851 137.281 393.628 138.624 389.521 138.624ZM378.004 135.054C380.461 136.206 394.051 141.964 399.886 132.521C405.721 123.077 397.237 109.986 395.433 107.414L378.004 135.054Z" fill="#2E1E00"/>
<path d="M356.043 169.335C356.043 169.335 374.701 173.289 381.649 162.617C388.559 151.945 374.202 140.928 374.202 140.928L356.043 169.335Z" fill="#2E1E00"/>
<path d="M363.837 170.41C359.422 170.41 355.967 169.681 355.929 169.681C355.814 169.643 355.698 169.566 355.66 169.451C355.622 169.336 355.622 169.22 355.698 169.105L373.857 140.697C373.934 140.621 374.01 140.544 374.126 140.544C374.241 140.505 374.356 140.544 374.433 140.621C374.586 140.736 388.983 151.984 381.957 162.809C379.04 167.263 373.627 169.873 366.256 170.334C365.449 170.41 364.643 170.41 363.837 170.41ZM356.658 169.067C359.768 169.604 375.239 171.716 381.305 162.426C387.37 153.097 376.352 143.231 374.279 141.542L356.658 169.067Z" fill="#2E1E00"/>
<path d="M395.394 148.066C395.64 146.174 394.323 144.443 392.452 144.199C390.581 143.955 388.864 145.292 388.618 147.184C388.372 149.076 389.689 150.807 391.56 151.051C393.431 151.295 395.148 149.958 395.394 148.066Z" fill="#2E1E00"/>
<path d="M387.977 163C385.487 163 382.577 162.379 379.207 160.631C379.016 160.514 378.939 160.281 379.054 160.126C379.169 159.932 379.399 159.854 379.552 159.971C391.155 165.99 397.052 158.456 397.32 158.145C397.435 157.99 397.703 157.951 397.857 158.068C398.01 158.184 398.048 158.456 397.933 158.611C397.895 158.65 394.487 163 387.977 163Z" fill="#2E1E00"/>
<path d="M377.636 122.898C381.371 120.802 383.516 117.529 382.426 115.588C381.337 113.646 377.426 113.772 373.691 115.868C369.956 117.963 367.811 121.236 368.9 123.178C369.99 125.119 373.901 124.994 377.636 122.898Z" fill="#2E1E00"/>
<path d="M359.861 151.788C361.143 147.657 360.474 143.778 358.368 143.125C356.262 142.472 353.516 145.291 352.235 149.422C350.953 153.553 351.621 157.431 353.727 158.084C355.833 158.738 358.58 155.919 359.861 151.788Z" fill="#2E1E00"/>
<path d="M340.533 203.924L358.73 197.552L345.409 212.024L340.533 203.924Z" fill="#2E1E00"/>
<path d="M345.41 212.408H345.371C345.256 212.408 345.141 212.331 345.064 212.216L340.189 204.116C340.112 204.001 340.112 203.886 340.15 203.771C340.189 203.655 340.265 203.579 340.381 203.54L358.578 197.168C358.731 197.129 358.923 197.168 359.038 197.321C359.153 197.475 359.115 197.667 359 197.782L345.678 212.293C345.602 212.37 345.525 212.408 345.41 212.408ZM341.072 204.154L345.448 211.41L357.387 198.435L341.072 204.154Z" fill="#2E1E00"/>
<path d="M348.059 216.861L370.555 206.841L355.007 231.449L348.059 216.861Z" fill="#2E1E00"/>
<path d="M355.007 231.833C354.968 231.833 354.968 231.833 355.007 231.833C354.853 231.833 354.738 231.756 354.661 231.602L347.712 217.053C347.674 216.976 347.674 216.861 347.712 216.746C347.751 216.631 347.828 216.554 347.904 216.516L370.439 206.496C370.593 206.419 370.785 206.458 370.9 206.611C371.015 206.726 371.015 206.918 370.938 207.072L355.39 231.679C355.237 231.756 355.122 231.833 355.007 231.833ZM348.557 217.053L355.045 230.643L369.556 207.686L348.557 217.053Z" fill="#2E1E00"/>
<path d="M357.394 239C357.201 239 357.046 238.885 357.007 238.693C356.969 238.501 357.085 238.27 357.317 238.232C357.471 238.193 374.289 234.429 392.189 224.557C402.705 218.756 411.52 212.034 418.44 204.582C427.062 195.247 432.706 184.76 435.219 173.313C435.258 173.121 435.451 172.968 435.683 173.006C435.915 173.044 436.031 173.236 435.993 173.467C433.48 185.029 427.758 195.67 419.02 205.081C412.061 212.61 403.13 219.371 392.576 225.21C374.56 235.12 357.665 238.923 357.51 238.962C357.471 239 357.433 239 357.394 239Z" fill="#FEFFFA"/>
<path d="M430.554 203C430.383 203 430.255 202.929 430.169 202.824L426.06 196.544C425.932 196.367 426.018 196.156 426.232 196.05C426.446 195.944 426.702 196.014 426.831 196.191L430.94 202.471C431.068 202.647 430.982 202.859 430.768 202.965C430.683 203 430.597 203 430.554 203Z" fill="#FEFFFA"/>
<path d="M442.881 211.103C444.801 212.369 445.376 214.941 444.11 216.861C442.996 218.588 440.808 219.241 438.965 218.435C438.85 218.934 438.658 219.433 438.389 219.894C437.123 221.813 434.55 222.389 432.631 221.122C431.479 220.393 430.827 219.203 430.75 217.936C430.481 218.051 430.174 218.166 429.867 218.243C427.602 218.742 425.375 217.283 424.914 215.057C424.415 212.792 425.874 210.604 428.101 210.104C428.485 210.028 428.907 209.989 429.291 210.028C427.487 208.722 427.026 206.266 428.216 204.385C429.483 202.465 432.055 201.889 433.975 203.156C434.819 203.694 435.395 204.5 435.664 205.383C436.931 203.54 439.464 203.041 441.345 204.231C443.265 205.498 443.841 208.07 442.574 209.989C442.382 210.258 442.19 210.488 441.96 210.719C442.344 210.795 442.612 210.949 442.881 211.103Z" fill="#FEFFFA"/>
<path d="M434.897 222.197C434.053 222.197 433.208 221.967 432.44 221.468C431.365 220.777 430.674 219.702 430.444 218.473C430.29 218.512 430.137 218.55 429.983 218.588C428.793 218.857 427.565 218.627 426.566 217.974C425.53 217.322 424.839 216.285 424.57 215.095C424.033 212.638 425.607 210.22 428.064 209.682C428.179 209.644 428.256 209.644 428.371 209.644C427.027 208.147 426.797 205.882 427.948 204.154C428.601 203.118 429.638 202.427 430.828 202.158C432.018 201.889 433.246 202.12 434.244 202.772C434.935 203.233 435.473 203.847 435.857 204.576C437.354 202.964 439.773 202.657 441.654 203.885C443.765 205.267 444.379 208.07 442.997 210.181C442.921 210.296 442.805 210.45 442.729 210.565C442.882 210.642 442.997 210.719 443.151 210.795C445.262 212.139 445.877 214.98 444.495 217.091C443.381 218.819 441.231 219.586 439.312 218.972C439.197 219.356 439.005 219.74 438.774 220.124C437.853 221.468 436.394 222.197 434.897 222.197ZM430.713 217.552C430.789 217.552 430.828 217.552 430.905 217.59C431.02 217.667 431.096 217.782 431.096 217.897C431.173 219.087 431.826 220.162 432.824 220.815C434.59 221.928 436.932 221.429 438.045 219.702C438.314 219.279 438.506 218.857 438.583 218.396C438.621 218.281 438.659 218.166 438.774 218.128C438.89 218.089 439.005 218.051 439.12 218.128C440.809 218.857 442.767 218.243 443.804 216.707C444.917 214.941 444.418 212.6 442.69 211.486C442.46 211.333 442.191 211.218 441.922 211.103C441.807 211.064 441.692 210.949 441.654 210.834C441.615 210.719 441.654 210.565 441.769 210.488C441.961 210.296 442.153 210.066 442.306 209.836C443.42 208.07 442.921 205.728 441.193 204.576C439.466 203.463 437.2 203.924 436.01 205.613C435.934 205.728 435.78 205.805 435.627 205.766C435.473 205.728 435.358 205.651 435.319 205.498C435.051 204.653 434.513 203.962 433.784 203.502C432.939 202.964 431.903 202.772 430.943 202.964C429.945 203.194 429.1 203.77 428.563 204.615C427.449 206.304 427.872 208.569 429.522 209.759C429.676 209.874 429.714 210.028 429.676 210.22C429.599 210.373 429.446 210.488 429.292 210.488C428.947 210.45 428.563 210.488 428.217 210.565C427.219 210.795 426.374 211.371 425.837 212.216C425.3 213.06 425.108 214.097 425.3 215.057C425.53 216.055 426.106 216.899 426.95 217.437C427.795 217.974 428.831 218.166 429.791 217.974C430.06 217.897 430.329 217.821 430.597 217.705C430.597 217.59 430.674 217.552 430.713 217.552Z" fill="#2E1E00"/>
<path d="M384.874 265.039C373.895 241.66 364.451 217.552 353.049 194.365C343.298 174.518 331.397 155.746 322.375 135.515C314.505 117.818 306.251 99.4676 303.602 80.1196C302.604 72.9025 305.522 64.1882 314.62 66.8755C323.181 69.4091 328.748 79.0063 333.24 85.9931C349.747 111.637 362.685 139.354 375.584 166.955C388.445 194.442 402.649 221.352 414.396 249.376" fill="#FFDC38"/>
<path d="M384.875 265.423C384.721 265.423 384.606 265.346 384.529 265.193C379.654 254.789 374.97 244.117 370.478 233.752C364.835 220.815 359.038 207.417 352.704 194.519C348.519 186.035 343.874 177.589 339.382 169.412C333.355 158.51 327.174 147.224 321.992 135.63L321.8 135.208C313.968 117.626 305.829 99.4294 303.18 80.1582C302.643 76.2042 303.18 70.561 306.52 67.6818C308.555 65.9159 311.396 65.4937 314.659 66.4534C322.721 68.8335 328.134 77.3174 332.472 84.1123C332.818 84.6497 333.163 85.1872 333.509 85.7246C350.016 111.407 363.146 139.507 375.853 166.648L375.891 166.687C380.46 176.476 385.297 186.38 389.981 195.939C398.426 213.214 407.179 231.103 414.742 249.146C414.819 249.338 414.742 249.568 414.55 249.645C414.358 249.722 414.128 249.645 414.051 249.453C406.488 231.449 397.774 213.56 389.328 196.285C384.644 186.726 379.807 176.821 375.239 167.032L375.2 166.994C362.532 139.853 349.402 111.752 332.933 86.1469C332.587 85.6094 332.242 85.1104 331.896 84.5345C327.635 77.8165 322.299 69.4861 314.506 67.1828C311.434 66.2614 308.939 66.6453 307.058 68.2577C304.486 70.4458 303.296 75.0909 303.948 80.043C306.559 99.1607 314.659 117.357 322.491 134.901L322.683 135.323C327.827 146.878 334.046 158.164 340.035 169.067C344.527 177.244 349.172 185.689 353.356 194.173C359.691 207.072 365.526 220.47 371.169 233.407C375.661 243.733 380.306 254.444 385.22 264.809C385.297 265.001 385.22 265.231 385.028 265.308C384.99 265.423 384.913 265.423 384.875 265.423Z" fill="#2E1E00"/>
<path d="M611.939 3.07825C611.939 3.07825 604.16 2.28453 602.785 9.05763C601.409 15.8307 608.87 13.5554 608.87 13.5554C608.87 13.5554 608.076 19.2173 612.468 19.8523C616.86 20.4872 617.813 14.6666 617.813 14.6666C617.813 14.6666 625.697 17.8415 626.491 11.4917C627.285 5.14193 620.035 6.25315 620.035 6.25315C620.035 6.25315 620.512 -0.837445 616.807 -0.731615C613.103 -0.6787 611.939 3.07825 611.939 3.07825Z" fill="#FEFFFA"/>
<path d="M613.104 20.4343C612.892 20.4343 612.627 20.4343 612.363 20.3814C608.87 19.9051 608.129 16.5186 608.235 14.2432C607.018 14.5078 604.637 14.7724 603.208 13.4495C602.15 12.4971 601.832 11.0154 602.256 8.95176C603.473 2.70781 609.876 2.49615 611.569 2.49615C611.992 1.43785 613.527 -1.26081 616.808 -1.36664C617.654 -1.36664 618.395 -1.10206 618.977 -0.467079C620.459 1.06745 620.565 4.24234 620.565 5.56521C621.729 5.5123 624.216 5.56521 625.751 7.04683C626.809 8.05221 627.232 9.53383 626.968 11.4388C626.756 13.185 626.015 14.4549 624.798 15.1428C622.629 16.4128 619.507 15.672 618.184 15.2486C617.707 17.4181 616.173 20.4343 613.104 20.4343ZM608.87 13.0262C608.976 13.0262 609.135 13.0791 609.188 13.132C609.346 13.2379 609.399 13.4495 609.346 13.6083C609.294 13.8199 608.711 18.741 612.521 19.3231C616.331 19.8522 617.231 14.7724 617.284 14.5607C617.284 14.402 617.39 14.2433 617.549 14.1903C617.707 14.1374 617.866 14.0845 618.025 14.1374C618.078 14.1374 621.994 15.672 624.269 14.3491C625.222 13.8199 625.751 12.8146 625.962 11.3858C626.174 9.85132 625.857 8.63427 625.063 7.89346C623.422 6.30602 620.142 6.72934 620.142 6.72934C619.983 6.72934 619.824 6.72934 619.718 6.57059C619.612 6.46476 619.559 6.30602 619.559 6.14728C619.559 6.09437 619.824 1.91409 618.289 0.273726C617.919 -0.149593 617.443 -0.308341 616.861 -0.308341C613.58 -0.255426 612.521 3.0253 612.469 3.18404C612.416 3.44862 612.151 3.55445 611.886 3.55445C611.569 3.50153 604.531 2.91947 603.314 9.11051C602.996 10.8038 603.208 11.9679 603.949 12.6029C605.219 13.7141 607.812 13.2379 608.711 12.9733C608.764 13.0262 608.817 13.0262 608.87 13.0262Z" fill="#2E1E00"/>
<path d="M620.142 120.708C620.142 120.708 618.237 116.369 614.321 117.692C610.405 119.015 613.739 122.189 613.739 122.189C613.739 122.189 610.511 123.459 611.516 125.946C612.469 128.433 615.856 127.216 615.856 127.216C615.856 127.216 616.491 132.296 620.089 130.815C623.634 129.333 620.936 125.894 620.936 125.894C620.936 125.894 624.798 124.041 623.687 122.137C622.47 120.179 620.142 120.708 620.142 120.708Z" fill="#FEFFFA"/>
<path d="M618.818 131.608C618.342 131.608 617.866 131.503 617.443 131.238C616.173 130.497 615.591 128.804 615.379 127.851C613.95 128.169 611.781 128.116 610.987 126.105C610.193 124.094 611.622 122.666 612.839 121.978C612.31 121.343 611.622 120.232 611.886 119.12C612.098 118.221 612.839 117.533 614.109 117.163C617.337 116.104 619.559 118.485 620.406 120.126C621.2 120.073 622.999 120.126 624.004 121.872C624.322 122.348 624.375 122.93 624.216 123.459C623.846 124.677 622.417 125.629 621.623 126.105C622.046 126.793 622.628 128.063 622.258 129.28C621.993 130.18 621.306 130.92 620.194 131.397C619.718 131.503 619.242 131.608 618.818 131.608ZM615.802 126.687C615.908 126.687 616.014 126.687 616.067 126.74C616.226 126.846 616.278 126.952 616.331 127.111C616.331 127.111 616.649 129.545 617.972 130.286C618.501 130.603 619.083 130.603 619.824 130.286C620.618 129.968 621.147 129.492 621.253 128.91C621.57 127.693 620.459 126.158 620.459 126.158C620.353 126.052 620.3 125.894 620.353 125.735C620.406 125.576 620.512 125.47 620.618 125.364C621.253 125.047 622.893 124.094 623.211 123.089C623.316 122.825 623.263 122.613 623.105 122.348C622.205 120.761 620.3 121.131 620.194 121.184C619.93 121.237 619.718 121.131 619.612 120.867C619.559 120.708 617.866 117.004 614.426 118.115C613.527 118.433 612.998 118.803 612.892 119.332C612.68 120.232 613.686 121.396 614.056 121.766C614.162 121.872 614.268 122.084 614.215 122.242C614.162 122.401 614.056 122.56 613.897 122.613C613.791 122.666 611.198 123.724 611.939 125.682C612.733 127.693 615.485 126.687 615.591 126.634C615.643 126.687 615.749 126.687 615.802 126.687Z" fill="#2E1E00"/>
<path d="M1104.86 33.1868C1104.86 33.1868 1110.47 32.7635 1112.58 28.3186C1113.8 25.7787 1113.27 22.7096 1111.26 20.7518C1110.84 20.3285 1110.36 20.011 1109.83 19.9052C1109.83 19.9052 1108.46 9.26926 1101.15 11.1213C1092.69 13.2908 1098.51 20.5401 1098.51 20.5401C1098.51 20.5401 1089.78 19.1114 1090.57 25.4083C1091.36 31.7052 1099.35 29.4827 1099.35 29.4827C1099.35 29.4827 1096.76 35.7267 1100.25 36.5204C1103.69 37.42 1104.86 33.1868 1104.86 33.1868Z" fill="#FEFFFA"/>
<path d="M1101.1 37.2083C1100.78 37.2083 1100.47 37.1554 1100.1 37.1025C1099.25 36.8908 1098.67 36.4146 1098.24 35.6738C1097.45 34.0863 1098.03 31.5464 1098.46 30.2235C1097.03 30.4881 1094.22 30.6998 1092.16 29.3769C1090.89 28.5303 1090.15 27.2603 1089.94 25.5141C1089.72 23.8208 1090.1 22.498 1091.1 21.5455C1092.79 19.958 1095.7 19.8522 1097.34 19.958C1096.55 18.6881 1095.49 16.3598 1096.18 14.2432C1096.76 12.55 1098.35 11.3329 1100.94 10.645C1102.8 10.1688 1104.49 10.4334 1105.92 11.3858C1108.99 13.4495 1109.99 18.1589 1110.2 19.5347C1110.63 19.6935 1111.1 19.958 1111.53 20.3814C1113.64 22.445 1114.28 25.8316 1112.96 28.5303C1111.05 32.6047 1106.5 33.4513 1105.18 33.663C1104.75 35.1446 1103.43 37.2083 1101.1 37.2083ZM1099.3 29.0065C1099.46 29.0065 1099.62 29.0594 1099.73 29.1652C1099.88 29.324 1099.88 29.5356 1099.83 29.6944C1099.41 30.6998 1098.46 33.663 1099.25 35.1975C1099.46 35.6738 1099.83 35.9383 1100.36 36.0442C1103.32 36.7321 1104.33 33.1868 1104.33 33.028C1104.38 32.8164 1104.59 32.6576 1104.81 32.6576C1104.86 32.6576 1110.1 32.1814 1112.06 28.1069C1113.17 25.7787 1112.64 22.9213 1110.84 21.1751C1110.42 20.8047 1110.04 20.5401 1109.67 20.4872C1109.46 20.4343 1109.25 20.2755 1109.25 20.011C1109.25 19.9581 1108.51 14.402 1105.39 12.2854C1104.22 11.4917 1102.85 11.28 1101.26 11.7033C1099.04 12.2854 1097.66 13.2379 1097.24 14.6137C1096.39 17.1007 1098.88 20.2755 1098.88 20.2755C1099.04 20.4343 1099.04 20.6989 1098.93 20.8576C1098.83 21.0693 1098.61 21.1222 1098.4 21.1222C1098.35 21.1222 1093.91 20.4343 1091.89 22.3392C1091.15 23.08 1090.84 24.0854 1091.05 25.4083C1091.21 26.837 1091.84 27.8953 1092.79 28.5303C1095.18 30.1177 1099.14 29.0594 1099.14 29.0594C1099.25 29.0065 1099.25 29.0065 1099.3 29.0065Z" fill="#2E1E00"/>
<path opacity="0.56" d="M589.449 59.4854L434.033 -100H511.768L589.449 59.4854Z" fill="#FEFFFA"/>
<path opacity="0.56" d="M0 148.171V245.323L588 69.9999L0 148.171Z" fill="#FEFFFA"/>
<path opacity="0.56" d="M1266 309V195.087L677 69.0001L1266 309Z" fill="#FEFFFA"/>
<path opacity="0.56" d="M833.449 -98.3597L686.34 48.0029V48.0558H686.287L675.439 61.1258L763.863 -98.3597H833.449Z" fill="#FEFFFA"/>
<path d="M1006.38 59.9088C1006.38 59.9088 994.791 58.586 995.003 66.4703C995.215 74.3546 1003.05 72.5026 1003.05 72.5026C1003.05 72.5026 1003.42 80.334 1008.39 79.8048C1013.37 79.2757 1020.77 62.6075 1006.38 59.9088Z" fill="#FEFFFA"/>
<path d="M1007.91 80.334C1006.91 80.334 1005.96 80.0165 1005.22 79.3286C1003.31 77.6882 1002.73 74.4604 1002.62 73.1375C1001.46 73.2963 998.813 73.455 996.855 71.9734C995.373 70.8093 994.579 69.0102 994.526 66.5232C994.474 64.5124 995.109 62.925 996.432 61.7079C999.765 58.6918 1006.22 59.3797 1006.49 59.4326C1006.49 59.4326 1006.49 59.4326 1006.54 59.4326C1014.48 60.9142 1015.48 66.3115 1015.32 69.3806C1015.11 74.4604 1011.67 80.0165 1008.44 80.334C1008.28 80.334 1008.07 80.334 1007.91 80.334ZM1003.05 71.9734C1003.15 71.9734 1003.26 72.0263 1003.36 72.0792C1003.47 72.1851 1003.58 72.3438 1003.58 72.5026C1003.58 72.5555 1003.79 76.7887 1005.85 78.5878C1006.54 79.1698 1007.33 79.4344 1008.28 79.3286C1010.72 79.064 1014 74.1958 1014.21 69.3806C1014.32 66.629 1013.42 61.8667 1006.27 60.4909C1005.9 60.438 999.977 59.8559 997.067 62.5016C996.008 63.507 995.479 64.8299 995.479 66.5232C995.532 68.6398 996.167 70.2272 997.384 71.1797C999.554 72.82 1002.83 72.0792 1002.89 72.0792C1002.99 71.9734 1002.99 71.9734 1003.05 71.9734Z" fill="#2E1E00"/>
<path d="M1097.56 255.165C1097.56 255.165 1105.02 264.107 1110.31 258.234C1115.6 252.36 1108.61 248.339 1108.61 248.339C1108.61 248.339 1113.75 242.412 1109.78 239.396C1105.81 236.38 1089.04 243.312 1097.56 255.165Z" fill="#FEFFFA"/>
<path d="M1106.18 260.774C1106.13 260.774 1106.07 260.774 1106.02 260.774C1101.52 260.668 1097.34 255.694 1097.18 255.482C1097.18 255.482 1097.18 255.482 1097.18 255.429C1092.47 248.868 1095.44 244.317 1097.66 242.148C1101.31 238.602 1107.61 236.962 1110.2 238.92C1111.21 239.661 1111.79 240.666 1111.89 241.883C1112.16 244.423 1110.31 247.122 1109.51 248.18C1110.47 248.868 1112.48 250.561 1112.85 252.995C1113.11 254.847 1112.42 256.699 1110.78 258.551C1109.46 260.033 1107.87 260.774 1106.18 260.774ZM1097.98 254.794C1098.19 255.059 1102.11 259.61 1106.02 259.662C1107.5 259.662 1108.83 259.08 1109.94 257.863C1111.37 256.276 1112 254.688 1111.74 253.207C1111.31 250.508 1108.4 248.815 1108.4 248.762C1108.24 248.656 1108.19 248.55 1108.14 248.392C1108.14 248.233 1108.14 248.074 1108.24 247.968C1108.3 247.915 1111.05 244.688 1110.78 241.989C1110.68 241.089 1110.25 240.349 1109.51 239.766C1107.56 238.285 1101.84 239.555 1098.35 242.888C1096.39 244.846 1093.74 248.921 1097.98 254.794Z" fill="#2E1E00"/>
<path d="M285.337 46.7858C285.337 46.7858 273.748 45.41 273.96 53.4002C274.119 61.3374 282.003 59.4325 282.003 59.4325C282.003 59.4325 282.374 67.3168 287.348 66.7347C292.322 66.1527 299.677 49.4845 285.337 46.7858Z" fill="#FEFFFA"/>
<path d="M286.819 67.2639C285.813 67.2639 284.861 66.9465 284.12 66.2586C282.215 64.6182 281.633 61.3375 281.527 60.0146C280.363 60.1733 277.717 60.3321 275.759 58.8505C274.277 57.6864 273.484 55.8343 273.431 53.3473C273.378 51.3366 274.013 49.6962 275.389 48.5321C278.722 45.5159 285.178 46.2038 285.443 46.2567C285.443 46.2567 285.443 46.2567 285.496 46.2567C293.433 47.7383 294.439 53.1357 294.28 56.2576C294.068 61.3904 290.629 66.9465 287.401 67.2639C287.189 67.2639 286.977 67.2639 286.819 67.2639ZM281.95 58.9034C282.056 58.9034 282.162 58.9563 282.268 59.0092C282.374 59.1151 282.48 59.2738 282.48 59.4325C282.48 59.4854 282.691 63.7716 284.755 65.5177C285.443 66.0998 286.237 66.3644 287.189 66.2586C289.623 65.994 292.904 61.0729 293.116 56.2576C293.222 53.5061 292.322 48.6908 285.178 47.3679C284.808 47.315 278.881 46.733 275.971 49.3787C274.86 50.3841 274.33 51.707 274.383 53.4002C274.436 55.5698 275.071 57.1043 276.288 58.0568C278.458 59.6971 281.739 58.9563 281.739 58.9563C281.897 58.9034 281.95 58.9034 281.95 58.9034Z" fill="#2E1E00"/>
<path d="M808.471 27.2602C808.471 27.2602 806.143 21.9158 801.433 24.5616C796.724 27.2073 801.433 31.9168 801.433 31.9168C801.433 31.9168 793.231 40.7536 799.369 44.5105C805.508 48.2675 809.371 40.7006 809.371 40.7006C809.371 40.7006 821.33 37.6845 817.202 32.1284C813.022 26.5723 808.471 27.2602 808.471 27.2602Z" fill="#FEFFFA"/>
<path d="M802.757 46.1509C801.54 46.1509 800.323 45.7805 799.105 44.9868C797.677 44.0872 796.83 42.8702 796.671 41.3885C796.195 37.6316 799.688 33.2396 800.799 31.9697C800.111 31.176 798.682 29.2181 798.947 27.2073C799.105 25.9374 799.899 24.932 801.275 24.1383C802.704 23.2916 804.133 23.08 805.455 23.5562C807.36 24.1912 808.472 25.9903 808.895 26.7311C810.165 26.6782 814.081 26.9957 817.732 31.8639C818.685 33.1338 818.949 34.4038 818.473 35.6737C817.256 39.0603 811.117 40.8594 809.847 41.2298C809.371 42.0764 807.466 45.0926 804.45 45.9392C803.762 46.045 803.233 46.1509 802.757 46.1509ZM803.974 24.3499C803.233 24.3499 802.492 24.5616 801.698 25.0378C800.64 25.6728 800.005 26.4136 799.899 27.3132C799.635 29.3769 801.804 31.5464 801.804 31.5464C802.016 31.758 802.016 32.0755 801.804 32.2872C801.751 32.3401 797.148 37.367 797.624 41.2298C797.783 42.4468 798.418 43.3464 799.582 44.0872C801.063 44.9867 802.545 45.3042 803.974 44.8809C806.99 44.0343 808.842 40.5419 808.842 40.489C808.895 40.3302 809.054 40.2773 809.16 40.2244C809.213 40.2244 816.145 38.4253 817.309 35.2504C817.626 34.3509 817.415 33.4513 816.674 32.4459C812.811 27.2073 808.63 27.7365 808.472 27.7365C808.26 27.7894 807.995 27.6307 807.89 27.419C807.89 27.419 806.831 25.0907 804.926 24.4558C804.662 24.4029 804.344 24.3499 803.974 24.3499Z" fill="#2E1E00"/>
<path opacity="0.56" d="M589.449 91.6047L319.098 471.851H429.111L589.449 91.6047Z" fill="#FEFFFA"/>
<path opacity="0.56" d="M641.785 91.6047L676.551 471.851H772.331L641.785 91.6047Z" fill="#FEFFFA"/>
<path d="M676.466 59.5283H589.529V91.6065H676.466V59.5283Z" fill="#FEFFFA"/>
<path d="M676.518 92.1351H589.528C589.211 92.1351 589 91.9237 589 91.6066V59.5285C589 59.2114 589.211 59 589.528 59H676.465C676.782 59 676.993 59.2114 676.993 59.5285V91.6066C677.046 91.9237 676.782 92.1351 676.518 92.1351ZM590.057 91.0781H675.936V60.0569H590.057V91.0781Z" fill="#2E1E00"/>
</g>
<defs>
<clipPath id="clip0_2320:34767">
<rect width="1266" height="250" rx="24" fill="white"/>
</clipPath>
</defs>
</svg>
