<svg width="469" height="745" viewBox="0 0 469 745" fill="none" xmlns="http://www.w3.org/2000/svg">
<g clip-path="url(#clip0_4062_62797)">
<rect x="0.5" width="468" height="745" rx="40" fill="#F3F8FF"/>
<path d="M668 768.882V391.791L267 218V247.871L303.179 389.326L326.326 479.956L373.233 663.245L400.232 768.882H439.939L440.011 772L473.454 768.882H668Z" fill="#FFDC38"/>
<path d="M343 -15L319.199 53.6646L273.363 185.98V186.053L267.134 204H207.866L132 -15H343Z" fill="#FDEAA7"/>
<path d="M208 203.841V218L169.349 204.713L143.04 195.637L-194 109.305V-15H131.961L208 203.841Z" fill="#ADF0E7"/>
<path d="M668 -15V109.305L267 218V203.841L273.228 185.907V185.835L319.055 53.6148L342.85 -15H668Z" fill="#ADF0E7"/>
<path d="M208 217.509L167.581 253.787L130.698 286.945L96.594 317.563L69.0944 342.232L29.3246 378.002L-12.2136 415.296L-41.0485 441.198L-53.6795 452.517L-194 502V56L145.675 185.657L169.06 197.629L208 217.509Z" fill="#FDEAA7"/>
<path d="M668 502V56L267 217.509L668 502Z" fill="#F9A058"/>
<path d="M208 247.946V218L-194 391.805V769H74.3994L92.7325 697.506L135.859 529.356L156.754 447.928L208 247.946Z" fill="#FA6456"/>
<path d="M400 769H74L92.3357 697.503L135.468 529.347L156.33 447.989L207.62 248H266.994L303.232 389.979L326.368 480.619L373.363 664.655L400 769Z" fill="#FDEAA7"/>
<path opacity="0.56" d="M208 204L102 -15H155.018L208 204Z" fill="#FEFFFA"/>
<path opacity="0.56" d="M-194 325.009V458L207 218L-194 325.009Z" fill="#FEFFFA"/>
<path opacity="0.56" d="M668 546V389.844L267 217L668 546Z" fill="#FEFFFA"/>
<path opacity="0.56" d="M374 -13L273.451 187.98V188.053H273.415L266 206L326.438 -13H374Z" fill="#FEFFFA"/>
<path opacity="0.56" d="M208 248L24 769H98.8749L208 248Z" fill="#FEFFFA"/>
<path opacity="0.56" d="M243 248L266.702 769H332L243 248Z" fill="#FEFFFA"/>
<path d="M315.211 561.679C315.211 561.679 311.68 561.191 311.067 565.34C310.454 569.489 313.806 568.073 313.806 568.073C313.806 568.073 313.446 571.539 315.464 571.929C317.446 572.32 317.878 568.757 317.878 568.757C317.878 568.757 321.446 570.709 321.806 566.804C322.167 562.9 318.887 563.583 318.887 563.583C318.887 563.583 319.103 559.239 317.41 559.288C315.752 559.337 315.211 561.679 315.211 561.679Z" fill="#FEFFFA"/>
<path d="M315.752 572.466C315.644 572.466 315.536 572.466 315.392 572.417C313.806 572.125 313.41 570.123 313.41 568.708C312.797 568.854 311.788 568.952 311.176 568.171C310.671 567.537 310.527 566.56 310.707 565.242C311.212 561.826 313.554 561.094 314.96 561.143C315.212 560.41 315.897 558.848 317.41 558.8C317.843 558.8 318.203 558.995 318.491 559.385C319.14 560.313 319.248 562.119 319.248 563.046C319.825 562.997 320.87 563.095 321.555 564.022C322.059 564.706 322.275 565.633 322.131 566.853C322.023 567.976 321.663 568.806 321.086 569.245C320.113 570.026 318.78 569.635 318.131 569.342C317.879 570.709 317.158 572.466 315.752 572.466ZM313.842 567.585C313.915 567.585 314.023 567.634 314.059 567.683C314.167 567.781 314.203 567.976 314.167 568.122C314.167 568.269 313.878 571.1 315.5 571.441C317.122 571.734 317.518 568.806 317.518 568.659C317.518 568.513 317.59 568.366 317.699 568.317C317.807 568.269 317.915 568.22 318.023 568.269C318.023 568.269 319.753 569.196 320.762 568.415C321.158 568.122 321.374 567.536 321.446 566.756C321.519 565.877 321.41 565.194 321.05 564.754C320.329 563.827 318.924 564.071 318.924 564.12C318.816 564.12 318.708 564.12 318.635 563.973C318.563 563.876 318.527 563.729 318.527 563.583C318.563 562.9 318.527 560.898 317.987 560.118C317.843 559.922 317.662 559.776 317.446 559.825C316.041 559.873 315.608 561.777 315.572 561.826C315.536 562.021 315.356 562.168 315.176 562.168C315.032 562.168 311.968 561.777 311.428 565.438C311.284 566.414 311.356 567.097 311.68 567.439C312.185 568.073 313.338 567.781 313.734 567.634C313.77 567.634 313.806 567.585 313.842 567.585Z" fill="#2E1E00"/>
<path d="M423.324 206.203C425.594 207.277 428.045 207.131 430.171 205.032C433.666 201.615 434.063 195.66 431.216 194.782C428.405 193.952 427.54 196.295 427.54 196.295C427.54 196.295 428.405 191.609 425.702 190.975C422.963 190.34 422.567 194.391 422.567 194.391C422.567 194.391 419.648 190.145 417.738 194.831C416.08 198.833 418.783 202.835 421.161 204.837C421.846 205.373 422.567 205.862 423.324 206.203Z" fill="#FEFFFA"/>
<path d="M426.019 207.326C425.118 207.326 424.145 207.082 423.172 206.642C422.416 206.301 421.659 205.813 420.902 205.178C417.947 202.738 415.713 198.491 417.334 194.538C417.947 193.074 418.704 192.244 419.605 192.097C420.722 191.902 421.731 192.781 422.271 193.415C422.452 192.683 422.776 191.707 423.461 191.024C424.073 190.438 424.83 190.194 425.695 190.438C426.488 190.633 427.101 191.121 427.461 191.951C427.893 192.83 427.965 193.952 427.965 194.831C428.578 194.245 429.623 193.757 431.209 194.245C432.29 194.587 433.047 195.612 433.263 197.125C433.696 199.809 432.434 203.226 430.272 205.325C429.047 206.691 427.605 207.326 426.019 207.326ZM423.425 205.715C425.082 206.496 427.569 206.935 429.948 204.593C432.146 202.445 432.975 199.321 432.65 197.369C432.542 196.588 432.182 195.563 431.137 195.221C428.65 194.489 427.893 196.393 427.857 196.441C427.785 196.685 427.569 196.783 427.425 196.685C427.245 196.588 427.173 196.344 427.209 196.1C427.209 196.1 427.605 193.855 426.956 192.439C426.668 191.853 426.236 191.512 425.659 191.365C425.01 191.219 424.434 191.365 424.001 191.805C423.136 192.634 422.956 194.343 422.956 194.391C422.92 194.587 422.848 194.733 422.704 194.782C422.56 194.831 422.416 194.782 422.344 194.635C422.344 194.635 421.082 192.83 419.821 193.025C419.172 193.122 418.56 193.757 418.091 194.977C416.505 198.833 419.424 202.689 421.407 204.3C422.019 204.934 422.704 205.373 423.425 205.715Z" fill="#2E1E00"/>
<path d="M97.3634 501.644C97.3634 501.644 94.156 501.205 93.6154 504.963C93.0749 508.722 96.102 507.453 96.102 507.453C96.102 507.453 95.7777 510.625 97.5796 510.967C99.3815 511.309 99.7779 508.087 99.7779 508.087C99.7779 508.087 103.021 509.844 103.346 506.33C103.67 502.816 100.679 503.401 100.679 503.401C100.679 503.401 100.859 499.448 99.3455 499.497C97.8679 499.546 97.3634 501.644 97.3634 501.644Z" fill="#FEFFFA"/>
<path d="M97.8676 511.504C97.7595 511.504 97.6514 511.504 97.5433 511.455C96.1018 511.162 95.7414 509.405 95.7054 508.087C95.1648 508.233 94.2638 508.282 93.6872 507.55C93.2187 506.964 93.0746 506.086 93.2548 504.866C93.7233 501.791 95.8495 501.058 97.1108 501.107C97.3271 500.424 97.9757 499.009 99.3452 498.96C99.7416 498.96 100.102 499.155 100.354 499.545C100.967 500.375 101.039 501.986 101.039 502.816C101.58 502.816 102.517 502.913 103.129 503.694C103.598 504.329 103.778 505.207 103.67 506.33C103.562 507.355 103.237 508.087 102.697 508.526C101.832 509.21 100.643 508.917 100.03 508.673C99.8137 509.942 99.165 511.504 97.8676 511.504ZM96.1018 507.013C96.1738 507.013 96.282 507.062 96.318 507.111C96.4261 507.208 96.4622 507.404 96.4261 507.55C96.4261 507.648 96.1738 510.235 97.6154 510.479C99.0569 510.772 99.3812 508.087 99.4173 507.989C99.4173 507.843 99.4893 507.697 99.5975 507.648C99.7056 507.599 99.8137 507.55 99.9218 507.599C99.9218 507.599 101.471 508.429 102.372 507.697C102.733 507.404 102.913 506.916 102.985 506.183C103.057 505.403 102.949 504.768 102.661 504.378C102.048 503.548 100.751 503.792 100.751 503.792C100.643 503.792 100.534 503.792 100.462 503.645C100.39 503.548 100.354 503.401 100.354 503.255C100.39 502.62 100.354 500.814 99.8497 500.131C99.7056 499.936 99.5614 499.838 99.3812 499.887C98.1559 499.936 97.7235 501.644 97.7235 501.693C97.6874 501.888 97.5073 502.035 97.3271 502.035C97.219 502.035 94.444 501.693 93.9755 504.963C93.8674 505.842 93.9034 506.427 94.1917 506.72C94.6602 507.306 95.6693 507.013 96.0297 506.867C96.0297 507.013 96.0657 507.013 96.1018 507.013Z" fill="#2E1E00"/>
<path d="M90.4439 206.301C90.4439 206.301 89.1465 202.298 86.4797 203.519C83.8129 204.739 86.0833 207.667 86.0833 207.667C86.0833 207.667 83.885 208.839 84.5697 211.133C85.2184 213.427 87.5248 212.304 87.5248 212.304C87.5248 212.304 87.9573 216.99 90.4079 215.623C92.8224 214.257 90.9845 211.084 90.9845 211.084C90.9845 211.084 93.6153 209.376 92.8585 207.619C92.0296 205.813 90.4439 206.301 90.4439 206.301Z" fill="#FEFFFA"/>
<path d="M89.5443 216.355C89.22 216.355 88.8956 216.258 88.6073 216.014C87.7424 215.33 87.346 213.769 87.2018 212.89C86.2288 213.183 84.7512 213.134 84.2107 211.279C83.6701 209.425 84.6431 208.107 85.472 207.472C85.1116 206.886 84.6431 205.861 84.8233 204.837C84.9675 204.007 85.472 203.372 86.3369 203.031C88.5352 202.054 90.0488 204.251 90.6254 205.764C91.166 205.715 92.3913 205.764 93.076 207.375C93.2922 207.814 93.3283 208.351 93.2201 208.839C92.9679 209.961 91.9949 210.84 91.4543 211.279C91.7426 211.914 92.139 213.085 91.8868 214.208C91.7066 215.038 91.2381 215.721 90.4813 216.16C90.1569 216.258 89.8326 216.355 89.5443 216.355ZM87.4901 211.816C87.5622 211.816 87.6343 211.816 87.6703 211.865C87.7784 211.963 87.8145 212.06 87.8505 212.207C87.8505 212.207 88.0667 214.452 88.9677 215.135C89.3281 215.428 89.7245 215.428 90.229 215.135C90.7696 214.842 91.13 214.403 91.202 213.866C91.4183 212.744 90.6615 211.328 90.6615 211.328C90.5894 211.23 90.5533 211.084 90.5894 210.938C90.6254 210.791 90.6975 210.694 90.7696 210.596C91.202 210.303 92.3192 209.425 92.5354 208.497C92.6075 208.253 92.5715 208.058 92.4634 207.814C91.8507 206.35 90.5533 206.691 90.4813 206.74C90.3011 206.789 90.1569 206.691 90.0849 206.447C90.0488 206.301 88.8956 202.884 86.5531 203.909C85.9405 204.202 85.5801 204.544 85.508 205.032C85.3639 205.861 86.0486 206.935 86.3009 207.277C86.373 207.375 86.445 207.57 86.409 207.716C86.373 207.863 86.3009 208.009 86.1927 208.058C86.1207 208.107 84.3548 209.083 84.8594 210.889C85.3999 212.744 87.2739 211.816 87.346 211.767C87.382 211.816 87.4181 211.816 87.4901 211.816Z" fill="#2E1E00"/>
<path d="M228.577 348.579C228.577 348.579 227.279 344.577 224.613 345.797C221.946 347.017 224.216 349.946 224.216 349.946C224.216 349.946 222.018 351.117 222.702 353.411C223.351 355.705 225.658 354.582 225.658 354.582C225.658 354.582 226.09 359.268 228.541 357.901C230.955 356.535 229.117 353.362 229.117 353.362C229.117 353.362 231.748 351.654 230.991 349.897C230.162 348.091 228.577 348.579 228.577 348.579Z" fill="#FEFFFA"/>
<path d="M227.677 358.634C227.353 358.634 227.028 358.536 226.74 358.292C225.875 357.609 225.479 356.047 225.335 355.168C224.362 355.461 222.884 355.412 222.343 353.558C221.803 351.703 222.776 350.385 223.605 349.751C223.244 349.165 222.776 348.14 222.956 347.115C223.1 346.285 223.605 345.651 224.47 345.309C226.668 344.333 228.182 346.529 228.758 348.042C229.299 347.993 230.524 348.042 231.209 349.653C231.425 350.092 231.461 350.629 231.353 351.117C231.101 352.24 230.128 353.118 229.587 353.558C229.875 354.192 230.272 355.364 230.02 356.486C229.839 357.316 229.371 357.999 228.614 358.439C228.29 358.536 227.965 358.634 227.677 358.634ZM225.623 354.095C225.695 354.095 225.767 354.095 225.803 354.143C225.911 354.241 225.947 354.339 225.983 354.485C225.983 354.485 226.2 356.73 227.1 357.414C227.461 357.706 227.857 357.706 228.362 357.414C228.902 357.121 229.263 356.681 229.335 356.145C229.551 355.022 228.794 353.606 228.794 353.606C228.722 353.509 228.686 353.362 228.722 353.216C228.758 353.07 228.83 352.972 228.902 352.874C229.335 352.581 230.452 351.703 230.668 350.776C230.74 350.531 230.704 350.336 230.596 350.092C229.984 348.628 228.686 348.97 228.614 349.018C228.434 349.067 228.29 348.97 228.218 348.726C228.182 348.579 227.028 345.162 224.686 346.187C224.073 346.48 223.713 346.822 223.641 347.31C223.497 348.14 224.181 349.214 224.434 349.555C224.506 349.653 224.578 349.848 224.542 349.995C224.506 350.141 224.434 350.287 224.326 350.336C224.253 350.385 222.488 351.361 222.992 353.167C223.533 355.022 225.407 354.095 225.479 354.046C225.515 354.095 225.587 354.095 225.623 354.095Z" fill="#2E1E00"/>
<path d="M338.382 647.29C338.382 647.29 342.202 646.9 343.644 642.8C344.473 640.457 344.112 637.626 342.743 635.82C342.455 635.43 342.13 635.137 341.77 635.039C341.77 635.039 340.833 625.229 335.86 626.937C330.093 628.938 334.058 635.625 334.058 635.625C334.058 635.625 328.111 634.307 328.652 640.115C329.193 645.924 334.634 643.874 334.634 643.874C334.634 643.874 332.868 649.633 335.247 650.365C337.625 651.195 338.382 647.29 338.382 647.29Z" fill="#FEFFFA"/>
<path d="M335.854 651C335.638 651 335.422 650.951 335.169 650.902C334.593 650.707 334.196 650.268 333.908 649.585C333.367 648.12 333.764 645.777 334.052 644.557C333.043 644.801 331.169 644.997 329.764 643.776C328.899 642.995 328.394 641.824 328.25 640.213C328.106 638.651 328.358 637.431 329.043 636.553C330.196 635.088 332.178 634.991 333.295 635.088C332.755 633.917 332.034 631.769 332.503 629.817C332.899 628.255 333.98 627.132 335.746 626.498C337.007 626.059 338.16 626.303 339.134 627.181C341.224 629.085 341.908 633.429 342.053 634.698C342.341 634.844 342.665 635.088 342.954 635.479C344.395 637.382 344.828 640.506 343.927 642.995C342.629 646.754 339.53 647.535 338.629 647.73C338.305 649.096 337.404 651 335.854 651ZM334.629 643.435C334.737 643.435 334.845 643.483 334.917 643.581C335.025 643.727 335.025 643.923 334.989 644.069C334.701 644.997 334.052 647.73 334.593 649.145C334.737 649.585 334.989 649.829 335.35 649.926C337.368 650.561 338.052 647.291 338.052 647.144C338.088 646.949 338.233 646.802 338.377 646.802C338.413 646.802 341.981 646.363 343.314 642.605C344.071 640.457 343.71 637.822 342.485 636.211C342.197 635.869 341.944 635.625 341.692 635.576C341.548 635.528 341.404 635.381 341.404 635.137C341.404 635.088 340.899 629.963 338.773 628.011C337.98 627.279 337.043 627.084 335.962 627.474C334.449 628.011 333.512 628.89 333.223 630.159C332.647 632.453 334.34 635.381 334.34 635.381C334.449 635.528 334.449 635.772 334.377 635.918C334.304 636.064 334.16 636.162 334.016 636.162C333.98 636.162 330.953 635.528 329.583 637.285C329.079 637.968 328.863 638.895 329.007 640.116C329.115 641.433 329.547 642.41 330.196 642.995C331.818 644.46 334.521 643.483 334.521 643.483C334.557 643.435 334.593 643.435 334.629 643.435Z" fill="#2E1E00"/>
<path d="M264.035 156.798C264.035 156.798 257.404 154.653 255.891 159.727C254.377 164.801 260.936 167.318 260.936 167.318C260.936 167.318 257.332 175.155 263.134 177.342C268.937 179.487 268.937 171.814 268.937 171.814C268.937 171.814 272.468 174.66 276.324 172.144C280.18 169.628 277.838 163.77 273.622 163.069C273.622 163.069 276.937 153.746 272.036 152.095C267.135 150.487 264.035 156.798 264.035 156.798Z" fill="#FEFFFA"/>
<path d="M265.045 178.126C264.432 178.126 263.748 178.002 263.027 177.713C261.441 177.136 260.36 176.063 259.855 174.578C258.918 171.938 260 168.679 260.468 167.524C259.459 167.07 256.828 165.667 255.747 163.275C255.243 162.12 255.17 160.882 255.567 159.603C256.972 154.818 262.594 155.973 263.892 156.344C264.576 155.107 267.64 150.239 272.144 151.765C273.262 152.137 274.09 152.92 274.559 154.076C275.784 156.963 274.595 161.377 274.126 162.821C276.361 163.399 278.199 165.379 278.595 167.771C278.92 169.751 278.163 171.484 276.541 172.557C273.406 174.619 270.487 173.258 269.297 172.557C269.189 173.753 268.793 176.146 267.315 177.383C266.631 177.837 265.91 178.126 265.045 178.126ZM261.009 156.757C259.171 156.757 257.008 157.334 256.252 159.851C255.927 160.923 255.999 161.955 256.396 162.904C257.549 165.544 261.045 166.905 261.081 166.905C261.189 166.946 261.261 167.029 261.297 167.153C261.333 167.276 261.333 167.4 261.297 167.483C261.297 167.524 259.531 171.402 260.54 174.248C260.973 175.485 261.91 176.393 263.279 176.888C264.793 177.466 265.982 177.342 266.883 176.641C268.613 175.238 268.613 171.814 268.613 171.773C268.613 171.608 268.685 171.484 268.793 171.402C268.901 171.319 269.045 171.36 269.153 171.443C269.297 171.567 272.577 174.124 276.145 171.773C277.514 170.906 278.127 169.463 277.838 167.854C277.514 165.997 275.964 163.894 273.55 163.481C273.442 163.481 273.334 163.399 273.298 163.275C273.262 163.151 273.225 163.027 273.262 162.904C273.298 162.862 275.172 157.417 273.874 154.364C273.478 153.415 272.829 152.797 271.892 152.508C267.315 150.982 264.36 156.922 264.324 156.963C264.252 157.128 264.072 157.211 263.928 157.169C263.928 157.169 262.594 156.757 261.009 156.757Z" fill="#2E1E00"/>
<path d="M30.5646 240.417C30.5646 240.417 22.6723 239.344 22.8164 245.573C22.9245 251.761 28.2942 250.276 28.2942 250.276C28.2942 250.276 28.5465 256.423 31.934 255.969C35.3216 255.515 40.3309 242.521 30.5646 240.417Z" fill="#FEFFFA"/>
<path d="M31.5728 256.381C30.8881 256.381 30.2394 256.134 29.7349 255.598C28.4375 254.319 28.0411 251.761 27.969 250.73C27.1762 250.854 25.3743 250.977 24.0409 249.822C23.0318 248.915 22.4912 247.471 22.4552 245.532C22.4192 243.964 22.8516 242.686 23.7886 241.778C26.059 239.427 30.4557 239.963 30.6358 240.004C30.6358 240.004 30.6358 240.004 30.6719 240.004C36.0776 241.159 36.7623 245.367 36.6542 247.801C36.51 251.802 34.1676 256.134 31.9692 256.381C31.8251 256.381 31.6809 256.381 31.5728 256.381ZM28.2573 249.864C28.3294 249.864 28.4015 249.905 28.4736 249.946C28.5456 250.029 28.6177 250.152 28.6177 250.276C28.6177 250.317 28.7619 253.659 30.1673 255.02C30.6358 255.474 31.1764 255.68 31.8251 255.598C33.4828 255.391 35.7172 251.555 35.8614 247.801C35.9334 245.656 35.3208 241.902 30.4557 240.871C30.2034 240.829 26.1671 240.375 24.185 242.438C23.4282 243.222 23.0678 244.253 23.1039 245.573C23.1399 247.265 23.5724 248.461 24.4013 249.204C25.8788 250.482 28.1132 249.905 28.1132 249.905C28.2213 249.864 28.2573 249.864 28.2573 249.864Z" fill="#2E1E00"/>
<path d="M356.837 225.194C356.837 225.194 355.251 221.028 352.044 223.091C348.837 225.153 352.044 228.825 352.044 228.825C352.044 228.825 346.458 235.714 350.638 238.643C354.819 241.572 357.45 235.673 357.45 235.673C357.45 235.673 365.594 233.321 362.783 228.99C359.936 224.658 356.837 225.194 356.837 225.194Z" fill="#FEFFFA"/>
<path d="M352.948 239.922C352.119 239.922 351.29 239.633 350.461 239.014C349.488 238.313 348.912 237.364 348.804 236.209C348.479 233.28 350.858 229.856 351.615 228.866C351.146 228.247 350.173 226.721 350.353 225.153C350.461 224.163 351.002 223.379 351.939 222.761C352.912 222.101 353.885 221.936 354.786 222.307C356.083 222.802 356.84 224.204 357.128 224.782C357.993 224.741 360.66 224.988 363.147 228.784C363.795 229.774 363.976 230.764 363.651 231.754C362.822 234.394 358.642 235.796 357.777 236.085C357.453 236.745 356.155 239.097 354.101 239.757C353.633 239.839 353.272 239.922 352.948 239.922ZM353.777 222.926C353.272 222.926 352.768 223.091 352.227 223.462C351.506 223.957 351.074 224.535 351.002 225.236C350.822 226.845 352.299 228.536 352.299 228.536C352.443 228.701 352.443 228.949 352.299 229.114C352.263 229.155 349.128 233.074 349.452 236.085C349.56 237.034 349.993 237.735 350.786 238.313C351.795 239.014 352.804 239.262 353.777 238.932C355.831 238.272 357.092 235.549 357.092 235.508C357.128 235.384 357.237 235.343 357.309 235.301C357.345 235.301 362.066 233.899 362.858 231.424C363.075 230.722 362.931 230.021 362.426 229.237C359.795 225.153 356.948 225.566 356.84 225.566C356.696 225.607 356.516 225.483 356.444 225.318C356.444 225.318 355.723 223.503 354.426 223.008C354.245 222.967 354.029 222.926 353.777 222.926Z" fill="#2E1E00"/>
<path d="M119.601 521.734C119.601 521.734 121.042 525.404 117.438 526.495C113.835 527.585 111.492 524.633 111.492 522.558C111.492 522.558 106.771 521.973 106.555 518.515C106.375 515.058 112.249 515.749 112.249 515.749C112.249 515.749 114.591 510.749 119.168 513.754C123.745 516.76 119.601 521.734 119.601 521.734Z" fill="#FEFFFA"/>
<path d="M115.923 527C115.166 527 114.446 526.84 113.797 526.495C112.139 525.67 111.238 524.048 111.166 522.771C110.085 522.558 106.409 521.627 106.229 518.515C106.193 517.558 106.553 516.787 107.382 516.255C108.824 515.297 111.238 515.377 112.067 515.43C112.392 514.818 113.581 512.957 115.635 512.558C116.86 512.318 118.158 512.637 119.455 513.515C123.816 516.388 120.572 521.016 119.996 521.734C120.212 522.399 121.077 525.644 117.617 526.707C117.04 526.92 116.464 527 115.923 527ZM111.13 515.962C110.157 515.962 108.752 516.068 107.851 516.68C107.202 517.106 106.914 517.717 106.95 518.515C107.13 521.707 111.382 522.292 111.563 522.319C111.743 522.345 111.851 522.452 111.851 522.585C111.851 523.729 112.644 525.351 114.157 526.096C115.094 526.574 116.139 526.628 117.257 526.282C120.5 525.298 119.239 521.973 119.203 521.84C119.167 521.76 119.203 521.681 119.239 521.627C119.275 521.574 123.203 516.813 118.914 513.967C117.797 513.223 116.716 512.93 115.743 513.116C113.689 513.515 112.608 515.829 112.572 515.856C112.5 515.989 112.355 516.042 112.175 516.042C112.211 516.015 111.779 515.962 111.13 515.962Z" fill="#2E1E00"/>
<path d="M266 204H208V248H266V204Z" fill="#FEFFFA"/>
<path d="M266.671 248H207.36C207.144 248 207 247.719 207 247.298V204.702C207 204.281 207.144 204 207.36 204H266.635C266.851 204 266.995 204.281 266.995 204.702V247.298C267.031 247.719 266.851 248 266.671 248ZM207.721 246.596H266.275V205.404H207.721V246.596Z" fill="#2E1E00"/>
<path d="M155.301 748.97H121.76L119.744 726.531C119.744 726.531 111.726 727.598 106.579 724.752L105.227 748.97H77.7349C78.0196 745.815 78.7312 736.612 78.6837 729.116C78.66 724.704 78.494 719.7 78.067 714.268C76.3828 692.944 70.6899 665.239 54.4177 642.16C52.2117 639.029 49.8159 635.993 47.2067 633.052C44.2179 629.707 40.9682 626.505 37.4102 623.493C37.4102 623.493 42.3914 620.694 53.4215 619.721C54.2754 619.65 55.153 619.579 56.0781 619.532L64.6649 612.961L64.3803 609.593L62.9096 592.942L62.7199 590.641L62.3166 586.063C62.3166 586.063 68.0333 586.466 76.7149 590.617C81.5539 592.942 87.318 596.405 93.5327 601.647C96.8773 604.446 100.34 607.767 103.875 611.68C105.583 613.578 107.314 615.618 109.022 617.8C114.027 624.157 119.08 631.771 123.966 640.927C127.026 646.667 130.038 653.024 132.909 660.045C139.74 676.72 145.907 697.142 150.723 722.19C152.075 729.567 154.138 740.763 155.301 748.97Z" fill="#FFDC38"/>
<path d="M155.299 749.207H121.758C121.639 749.207 121.544 749.112 121.521 748.993L119.528 726.792C118.152 726.958 111.487 727.551 106.814 725.132L105.486 748.97C105.486 749.088 105.367 749.183 105.248 749.183H77.7326C77.6615 749.183 77.614 749.16 77.5666 749.112C77.5191 749.065 77.4954 748.993 77.4954 748.922C77.5903 747.784 78.4917 737.584 78.4442 729.093C78.4205 724.183 78.207 719.178 77.8275 714.268C76.8312 701.768 74.6964 689.884 71.4704 678.926C67.3905 665.073 61.6027 652.739 54.2019 642.279C51.9485 639.1 49.529 636.041 46.9909 633.194C43.9547 629.779 40.6576 626.576 37.2181 623.659C37.1707 623.611 37.1232 623.54 37.1469 623.445C37.1707 623.35 37.1944 623.303 37.2655 623.256C37.313 623.232 42.4129 620.409 53.3717 619.46C54.2019 619.389 55.0559 619.318 55.9573 619.271L64.378 612.819L62.0297 586.039C62.0297 585.968 62.0534 585.897 62.1008 585.85C62.1483 585.802 62.2194 585.779 62.2906 585.779C62.3381 585.779 68.1496 586.229 76.7838 590.333C82.5242 593.084 88.1933 596.784 93.649 601.386C97.1834 604.375 100.67 607.743 104.015 611.443C105.794 613.412 107.526 615.476 109.186 617.587C114.523 624.37 119.576 632.15 124.154 640.737C127.308 646.667 130.321 653.119 133.12 659.879C140.473 677.787 146.451 698.708 150.934 722.072C152.144 728.334 154.35 740.17 155.583 748.875C155.583 748.946 155.583 749.017 155.536 749.065C155.441 749.183 155.37 749.207 155.299 749.207ZM121.971 748.733H155.014C153.78 740.051 151.598 728.405 150.412 722.214C145.953 698.898 139.951 678.001 132.622 660.116C129.87 653.38 126.858 646.952 123.703 641.022C119.125 632.459 114.12 624.679 108.783 617.919C107.122 615.808 105.391 613.768 103.635 611.799C100.314 608.122 96.8513 604.754 93.317 601.789C87.885 597.211 82.2395 593.511 76.5466 590.807C69.0747 587.249 63.7613 586.466 62.5041 586.324L64.8524 612.938C64.8524 613.009 64.8287 613.104 64.7575 613.151L56.1707 619.745C56.1233 619.769 56.0759 619.793 56.0284 619.793C55.127 619.84 54.2257 619.911 53.3954 619.982C44.0733 620.812 39.0446 622.971 37.7874 623.564C41.1557 626.434 44.358 629.589 47.3467 632.91C49.8848 635.756 52.328 638.839 54.5815 642.018C62.006 652.526 67.8412 664.907 71.9211 678.807C75.1471 689.789 77.2819 701.72 78.2782 714.244C78.6577 719.178 78.8712 724.183 78.8949 729.116C78.9424 737.181 78.1359 746.764 77.9698 748.733H104.987L106.339 724.752C106.339 724.681 106.387 724.586 106.458 724.562C106.529 724.515 106.624 724.515 106.695 724.562C111.7 727.337 119.623 726.317 119.694 726.317C119.765 726.317 119.813 726.317 119.884 726.365C119.931 726.412 119.955 726.46 119.979 726.531L121.971 748.733Z" fill="#2E1E00"/>
<path d="M154.375 608.786C153.355 626.552 146.594 644.603 136.822 655.989C136.466 656.392 132.789 659.902 132.86 660.045C129.99 653.024 126.978 646.667 123.918 640.927C123.562 640.262 129.682 630.703 130.322 629.209C132.196 624.94 133.596 620.457 134.402 615.855C135.991 606.675 134.971 596.618 132.552 587.629C130.726 580.868 124.155 577.097 121.641 570.859C119.055 564.407 125.033 559.924 130.536 560.612C134.07 561.063 137.462 563.008 140.048 565.403C151.291 575.935 155.324 592.254 154.375 608.786Z" fill="#FFDC38"/>
<path d="M132.861 660.282C132.766 660.282 132.671 660.234 132.647 660.14C129.872 653.379 126.86 646.951 123.705 641.022C123.468 640.595 124.298 639.029 127.832 633.052C128.923 631.202 129.872 629.612 130.109 629.091C132.054 624.655 133.406 620.172 134.189 615.808C136.063 605.11 134.213 594.602 132.363 587.7C131.39 584.094 128.994 581.295 126.67 578.568C124.677 576.243 122.614 573.848 121.451 570.954C120.384 568.297 120.669 565.712 122.258 563.648C124.084 561.3 127.429 559.995 130.607 560.398C133.928 560.825 137.344 562.533 140.238 565.261C150.58 574.939 155.68 590.404 154.636 608.81C153.616 626.529 146.88 644.674 137.036 656.155C136.917 656.297 136.372 656.819 135.707 657.483C134.806 658.384 133.288 659.855 133.122 660.116C133.098 660.187 133.051 660.234 132.98 660.282C132.908 660.282 132.885 660.282 132.861 660.282ZM124.132 640.832C127.239 646.643 130.181 652.953 132.908 659.57C133.24 659.191 133.952 658.479 135.328 657.127C135.921 656.534 136.514 655.965 136.609 655.846C146.405 644.437 153.094 626.41 154.114 608.787L154.352 608.81L154.114 608.787C155.158 590.522 150.106 575.176 139.858 565.617C137.059 563.008 133.644 561.276 130.489 560.873C127.476 560.493 124.298 561.727 122.59 563.956C121.119 565.878 120.858 568.297 121.855 570.788C122.993 573.61 125.009 575.982 126.978 578.283C129.327 581.035 131.77 583.881 132.766 587.581C134.64 594.555 136.49 605.11 134.616 615.902C133.857 620.314 132.458 624.821 130.513 629.304C130.275 629.85 129.327 631.463 128.212 633.313C126.694 635.898 124.132 640.215 124.132 640.832Z" fill="#2E1E00"/>
<path d="M78.5872 728.856C70.0953 727.337 62.481 724.966 55.8156 718.87C47.4423 711.184 44.3823 698.826 45.5921 687.441C46.3037 680.657 51.0715 667.659 59.1839 670.505C63.2875 671.952 63.4536 676.388 62.4336 680.017C60.6308 686.397 57.5946 692.375 58.8755 699.206C60.1801 706.037 65.1852 711.09 71.7083 712.987C74.7919 713.888 78.0654 714.339 78.0654 714.292C78.4212 718.798 79.4411 724.396 78.5872 728.856Z" fill="#FFDC38"/>
<path d="M78.5878 729.093C78.5641 729.093 78.5641 729.093 78.5404 729.093C70.8549 727.717 62.7663 725.558 55.6502 719.035C47.8698 711.872 44.0034 700.06 45.3555 687.417C45.8536 682.697 48.4629 674.039 53.3493 670.956C55.1995 669.77 57.192 669.556 59.2794 670.292C61.2482 670.979 62.4816 672.355 62.9798 674.395C63.4779 676.435 63.0984 678.617 62.6714 680.088C62.2444 681.558 61.77 683.029 61.2956 684.452C59.6589 689.338 58.1408 693.964 59.1133 699.182C60.3468 705.752 65.0909 710.828 71.78 712.773C74.6265 713.604 77.6627 714.054 78.0185 714.078H78.0422C78.1846 714.078 78.2794 714.173 78.3032 714.292C78.398 715.359 78.5166 716.474 78.6353 717.636C79.0385 721.313 79.4892 725.487 78.825 728.927C78.8013 728.998 78.7064 729.093 78.5878 729.093ZM56.9311 670.339C55.7688 670.339 54.6539 670.671 53.5865 671.359C50.8823 673.067 46.6838 679.186 45.8062 687.465C44.4778 699.965 48.2731 711.635 55.9585 718.703C62.9086 725.084 70.8312 727.242 78.3743 728.594C78.9673 725.274 78.5167 721.241 78.1371 717.683C78.0185 716.592 77.8999 715.525 77.8288 714.529C77.5441 714.505 76.9985 714.434 75.9548 714.244C74.8874 714.054 73.2744 713.722 71.6377 713.248C64.7825 711.255 59.9198 706.037 58.6389 699.277C57.6189 693.94 59.2557 689.054 60.8212 684.31C61.2956 682.887 61.77 681.44 62.197 679.969C62.6951 678.238 63.9049 672.426 59.1133 670.742C58.378 670.458 57.6427 670.339 56.9311 670.339Z" fill="#2E1E00"/>
<path d="M311.994 618.251C310.855 636.159 305.518 658.622 290.645 670.41C284.976 674.917 279.758 677.455 273.685 678.949C272.048 679.352 270.341 679.661 268.538 679.922C270.032 707.318 272.736 735.592 274.136 747.736H243.655L242.872 733.054C236.468 734.572 224.75 732.461 224.75 732.461L223.398 748.282L192.182 747.736C190.877 726.863 193.771 702.195 197.021 680.989C188.766 677.17 183.002 672.308 178.969 667.161C167.56 652.573 170.264 635.922 170.264 635.922C171.735 615.831 173.537 600.153 175.577 588.008C175.791 586.727 176.004 585.47 176.242 584.26C176.597 582.315 176.953 580.465 177.333 578.71C177.736 576.836 178.139 575.057 178.542 573.397C180.179 566.66 181.934 561.656 183.714 558.026C184.283 556.841 184.876 555.821 185.445 554.919C188.979 549.44 192.656 548.8 196.048 550.294C198.847 551.527 200.294 554.516 200.816 558.833C200.911 559.521 200.958 560.232 201.006 560.991C201.148 563.529 201.029 566.447 200.745 569.649C200.674 570.55 200.579 571.452 200.46 572.401C200.365 573.326 200.247 574.274 200.104 575.247C200.033 575.887 199.938 576.528 199.843 577.168C198.064 589.858 194.72 605.656 192.775 621.714C191.802 629.802 191.944 635.898 192.704 640.523C194.388 650.628 199.132 653.522 201.907 654.352C209.616 617.681 219.413 589.858 219.413 589.858L226.078 606.936C237.962 602.169 247.593 604.375 253.238 606.794C256.772 608.312 258.741 609.878 258.741 609.878L258.86 609.783L272.618 598.635C268.538 609.237 267.304 628.64 267.494 650.201C267.518 652.193 267.542 654.21 267.589 656.25C267.969 656.226 268.372 656.178 268.775 656.131C273.827 655.538 280.612 653.285 284.336 645.908C289.768 635.187 292.733 624.56 292.875 612.795C292.994 603.805 291.428 590.736 283.173 584.759C280.849 583.074 277.836 581.865 275.037 580.513C269.724 577.951 269.107 571.997 271.598 568.036C271.693 567.894 271.788 567.752 271.882 567.609C272.001 567.443 272.096 567.301 272.238 567.159C272.381 566.993 272.523 566.826 272.689 566.66C274.373 564.929 276.816 563.885 279.852 564.288C283.861 564.834 288.961 566.66 295.342 570.811C295.389 570.859 295.461 570.883 295.532 570.93C297.263 572.069 298.805 573.373 300.181 574.773C301.438 576.077 302.577 577.453 303.573 578.947C304.545 580.37 305.399 581.888 306.135 583.478C311.211 594.223 312.753 606.249 311.994 618.251Z" fill="#73B7EA"/>
<path d="M223.404 748.519L192.188 747.974C192.07 747.974 191.975 747.879 191.951 747.76C190.551 725.369 194.015 699.064 196.766 681.132C189.294 677.669 183.269 673.019 178.786 667.303C172.856 659.713 170.769 651.577 170.081 646.098C169.345 640.144 170.01 635.922 170.01 635.874C171.409 616.828 173.188 600.698 175.323 587.961C175.536 586.68 175.75 585.423 175.987 584.213C176.343 582.316 176.699 580.442 177.078 578.639C177.458 576.813 177.861 575.01 178.288 573.302C179.854 566.898 181.585 561.703 183.459 557.884C184.028 556.722 184.621 555.678 185.214 554.753C188.393 549.843 192.046 548.254 196.102 550.033C198.83 551.243 200.443 554.089 201.012 558.762C201.107 559.426 201.155 560.138 201.202 560.944C201.321 563.387 201.249 566.234 200.941 569.649C200.87 570.551 200.775 571.476 200.656 572.401C200.561 573.278 200.443 574.203 200.301 575.271C200.229 575.911 200.135 576.552 200.04 577.192C199.304 582.41 198.308 588.151 197.264 594.223C195.723 603.094 194.133 612.273 192.995 621.738C192.117 629.114 192.093 635.424 192.924 640.476C194.536 650.201 199.02 653.142 201.7 654.044C209.314 617.895 219.063 590.048 219.182 589.764C219.206 589.669 219.301 589.597 219.396 589.597C219.49 589.597 219.585 589.645 219.609 589.74L226.251 606.628C237.945 602.027 247.433 604.043 253.363 606.581C256.376 607.862 258.25 609.19 258.771 609.593L272.506 598.469C272.6 598.397 272.719 598.397 272.79 598.469C272.885 598.54 272.909 598.635 272.861 598.753C269.256 608.17 267.524 625.485 267.761 650.225C267.785 651.933 267.809 653.759 267.856 656.012C268.188 655.989 268.473 655.965 268.781 655.918C273.763 655.325 280.476 653.119 284.176 645.837C289.845 634.641 292.549 624.157 292.692 612.819C292.787 605.086 291.672 591.187 283.085 584.972C281.33 583.715 279.124 582.695 277.012 581.699C276.348 581.39 275.66 581.058 274.996 580.75C272.007 579.303 270.821 577.026 270.347 575.389C269.635 572.946 270.062 570.171 271.438 567.941C271.533 567.799 271.628 567.633 271.747 567.491C271.841 567.348 271.96 567.182 272.102 567.016C272.245 566.85 272.387 566.684 272.553 566.495C274.427 564.526 277.06 563.672 279.906 564.051C284.532 564.668 289.774 566.874 295.514 570.622C295.586 570.669 295.633 570.693 295.704 570.74C297.388 571.855 298.978 573.16 300.377 574.63C301.611 575.911 302.773 577.311 303.793 578.829C304.742 580.228 305.619 581.77 306.378 583.383C311.122 593.416 313.115 605.158 312.261 618.251L312.024 618.227L312.261 618.251C311.36 632.151 307.398 657.436 290.818 670.576C285.267 674.988 280.001 677.645 273.763 679.139C272.221 679.519 270.584 679.827 268.829 680.088C270.394 708.528 273.146 736.73 274.403 747.689C274.403 747.76 274.38 747.831 274.356 747.879C274.332 747.926 274.237 747.95 274.19 747.95H243.662C243.543 747.95 243.424 747.855 243.424 747.736L242.665 733.339C236.783 734.619 226.701 733.03 224.97 732.746L223.641 748.306C223.641 748.424 223.523 748.519 223.404 748.519ZM192.425 747.523L223.191 748.045L224.519 732.461C224.519 732.39 224.567 732.342 224.614 732.295C224.661 732.247 224.733 732.247 224.804 732.247C224.922 732.271 236.569 734.335 242.831 732.84C242.902 732.817 242.974 732.84 243.021 732.888C243.069 732.935 243.116 733.006 243.116 733.054L243.875 747.523H273.881C272.624 736.351 269.873 708.267 268.331 679.946C268.331 679.827 268.402 679.708 268.544 679.708C270.394 679.447 272.055 679.115 273.668 678.736C279.835 677.242 285.03 674.609 290.533 670.244C297.578 664.646 309.723 650.462 311.787 618.251C312.617 605.229 310.648 593.559 305.951 583.596C305.192 582.007 304.338 580.489 303.413 579.113C302.417 577.619 301.278 576.22 300.045 574.986C298.646 573.563 297.104 572.282 295.443 571.167C295.372 571.12 295.325 571.096 295.277 571.049C289.608 567.348 284.437 565.166 279.883 564.55C277.179 564.194 274.712 565 272.933 566.85C272.767 567.016 272.624 567.182 272.506 567.325C272.363 567.491 272.245 567.633 272.173 567.775C272.079 567.918 271.984 568.06 271.889 568.202C270.561 570.313 270.181 572.946 270.845 575.271C271.296 576.836 272.411 578.971 275.233 580.347C275.898 580.679 276.586 580.987 277.25 581.296C279.408 582.292 281.614 583.312 283.417 584.616C292.194 590.949 293.332 605.015 293.237 612.843C293.095 624.252 290.367 634.807 284.674 646.074C280.903 653.546 274.024 655.823 268.924 656.416C268.544 656.463 268.165 656.487 267.738 656.534C267.667 656.534 267.619 656.511 267.572 656.463C267.524 656.416 267.501 656.368 267.501 656.297C267.453 653.925 267.429 652.004 267.406 650.249C267.192 626.149 268.805 609.048 272.245 599.417L259.032 610.115C258.937 610.186 258.819 610.186 258.724 610.115C258.7 610.091 256.731 608.526 253.268 607.055C247.386 604.541 237.945 602.548 226.298 607.197C226.251 607.221 226.18 607.221 226.108 607.197C226.061 607.174 226.014 607.126 225.99 607.055L219.538 590.57C218.067 594.84 209.243 621.145 202.246 654.423C202.222 654.494 202.198 654.542 202.127 654.589C202.08 654.613 202.008 654.637 201.937 654.613C199.186 653.783 194.299 650.889 192.568 640.595C191.714 635.495 191.737 629.162 192.639 621.714C193.777 612.25 195.367 603.07 196.909 594.175C197.952 588.103 198.948 582.363 199.684 577.168C199.779 576.528 199.874 575.888 199.945 575.247C200.087 574.203 200.206 573.255 200.301 572.401C200.395 571.476 200.49 570.551 200.585 569.649C200.894 566.257 200.965 563.411 200.846 561.015C200.799 560.209 200.751 559.521 200.656 558.881C200.111 554.398 198.593 551.67 196.031 550.531C192.164 548.847 188.796 550.318 185.736 555.085C185.143 555.987 184.574 557.03 184.005 558.169C182.154 561.964 180.423 567.111 178.857 573.492C178.454 575.2 178.027 576.979 177.648 578.805C177.268 580.584 176.912 582.458 176.556 584.355C176.343 585.565 176.106 586.822 175.892 588.103C173.757 600.817 171.978 616.923 170.579 635.993C170.555 636.183 168.017 652.739 179.261 667.066C183.72 672.735 189.745 677.384 197.217 680.823C197.312 680.871 197.359 680.966 197.359 681.084C194.536 698.874 191.05 725.155 192.425 747.523Z" fill="#2E1E00"/>
<path d="M379.511 747.309L379.392 745.578L377.85 721.858C372.703 724.704 364.686 723.637 364.686 723.637L361.697 747.76H329.484C331.145 735.473 333.137 721.929 335.343 711.445C335.367 711.303 335.391 711.16 335.438 711.018C336.98 703.712 338.664 696.834 340.42 690.335C342.08 684.239 343.835 678.475 345.662 673.067C347.488 667.659 349.362 662.583 351.307 657.815C354.082 650.96 357 644.745 359.941 639.1C365.065 629.328 370.402 621.263 375.668 614.598C377.827 611.894 379.961 609.403 382.096 607.126C384.824 604.209 387.505 601.647 390.138 599.393C394.265 595.836 398.203 593.06 401.832 590.878C413.763 583.715 422.184 583.146 422.184 583.146L421.188 594.507L420.547 601.742C422.729 603.331 425.718 605.94 427.853 609.688C429.015 611.704 429.94 614.076 430.391 616.756C441.872 617.681 447.067 620.599 447.067 620.599C444.386 622.852 441.896 625.224 439.547 627.691C436.131 631.273 433.048 635.044 430.273 638.958C414.427 661.231 408.545 687.868 406.6 708.931C405.983 715.62 405.769 721.739 405.769 726.981C405.746 738.177 405.769 747.143 405.769 747.143L379.511 747.309Z" fill="#ADF0E7"/>
<path d="M361.693 747.997H329.481C329.41 747.997 329.339 747.973 329.291 747.926C329.244 747.879 329.22 747.807 329.244 747.736C330.762 736.517 332.825 722.238 335.103 711.398C335.126 711.255 335.15 711.113 335.198 710.971C336.716 703.831 338.4 696.858 340.179 690.287C341.816 684.31 343.571 678.499 345.421 672.996C347.2 667.706 349.098 662.583 351.066 657.72C353.747 651.126 356.665 644.84 359.724 638.982C364.516 629.826 369.829 621.571 375.475 614.456C377.539 611.846 379.721 609.332 381.903 606.984C384.512 604.185 387.216 601.576 389.968 599.228C393.763 595.954 397.725 593.084 401.686 590.688C411.15 584.996 419.192 583.122 422.133 582.908C422.204 582.908 422.275 582.932 422.323 582.98C422.37 583.027 422.394 583.098 422.394 583.169L420.781 601.647C422.939 603.212 425.905 605.845 428.039 609.569C429.297 611.752 430.15 614.1 430.554 616.543C441.821 617.468 447.087 620.362 447.134 620.385C447.205 620.433 447.253 620.504 447.253 620.575C447.253 620.646 447.229 620.718 447.182 620.789C444.573 622.995 442.058 625.367 439.662 627.857C436.341 631.32 433.234 635.115 430.411 639.1C423.2 649.229 417.484 661.136 413.404 674.466C410.13 685.14 407.924 696.739 406.786 708.931C406.24 714.885 405.956 720.957 405.956 726.958C405.932 738.035 405.956 747.048 405.956 747.12C405.956 747.262 405.861 747.357 405.718 747.357L379.484 747.523C379.365 747.523 379.246 747.428 379.246 747.309L379.128 745.578L377.61 722.214C372.913 724.633 366.248 724.017 364.872 723.874L361.907 747.784C361.93 747.902 361.836 747.997 361.693 747.997ZM329.766 747.523H361.48L364.445 723.59C364.445 723.519 364.492 723.471 364.54 723.424C364.587 723.376 364.658 723.376 364.706 723.376C364.777 723.376 372.7 724.42 377.705 721.621C377.776 721.574 377.871 721.574 377.942 721.621C378.013 721.668 378.06 721.74 378.06 721.811L379.721 747.048L405.481 746.882C405.481 745.388 405.457 737.015 405.481 726.934C405.481 720.909 405.766 714.813 406.311 708.86C407.426 696.62 409.656 684.974 412.929 674.3C417.033 660.922 422.773 648.968 430.008 638.792C432.855 634.783 435.986 630.988 439.307 627.501C441.607 625.082 444.051 622.781 446.589 620.623C445.308 620.006 440.089 617.753 430.317 616.97C430.198 616.97 430.127 616.875 430.103 616.78C429.7 614.337 428.87 611.989 427.612 609.783C425.478 606.059 422.489 603.45 420.378 601.932C420.306 601.884 420.283 601.813 420.283 601.718L421.896 583.383C418.788 583.691 411.032 585.612 401.947 591.068C397.986 593.44 394.072 596.286 390.276 599.56C387.549 601.908 384.868 604.493 382.259 607.269C380.077 609.617 377.918 612.107 375.854 614.716C370.209 621.809 364.943 630.039 360.151 639.171C357.091 645.006 354.198 651.292 351.517 657.863C349.548 662.701 347.651 667.825 345.872 673.114C344.022 678.617 342.266 684.405 340.629 690.382C338.827 696.953 337.166 703.902 335.648 711.042C335.648 711.042 335.648 711.042 335.648 711.066C335.624 711.208 335.577 711.35 335.553 711.493C333.324 722.214 331.284 736.351 329.766 747.523Z" fill="#2E1E00"/>
<path d="M449.072 689.481C443.26 705.61 430.57 718.372 413.847 724.467C411.19 725.44 408.486 726.27 405.734 726.958C405.734 721.716 405.948 715.596 406.565 708.907C411.712 708.243 419.231 705.753 426.276 697.854C438.563 684.097 436.357 655.23 447.032 657.27C453.816 658.574 452.772 669.865 452.321 674.727C451.871 679.851 450.756 684.808 449.072 689.481Z" fill="#ADF0E7"/>
<path d="M405.737 727.195C405.69 727.195 405.642 727.171 405.595 727.148C405.547 727.1 405.5 727.029 405.5 726.958C405.5 720.933 405.785 714.837 406.33 708.884C406.33 708.765 406.425 708.694 406.544 708.67C411.596 708.006 419.092 705.563 426.113 697.688C431.83 691.284 434.344 681.725 436.598 673.28C439.159 663.579 441.199 655.894 447.106 657.032C454.079 658.361 453.036 669.817 452.585 674.704V674.751C452.111 679.851 451.02 684.832 449.312 689.576C443.429 705.848 430.549 718.656 413.944 724.705C411.359 725.653 408.631 726.484 405.832 727.195C405.785 727.195 405.761 727.195 405.737 727.195ZM406.805 709.121C406.283 714.908 405.998 720.815 405.974 726.673C408.655 725.985 411.288 725.179 413.755 724.254C430.24 718.229 443.026 705.539 448.837 689.41L449.051 689.481L448.837 689.41C450.521 684.713 451.636 679.756 452.087 674.704V674.656C452.514 669.889 453.534 658.74 446.987 657.507C441.531 656.463 439.539 663.935 437.024 673.423C434.771 681.914 432.233 691.545 426.445 698.02C419.448 705.895 411.928 708.409 406.805 709.121Z" fill="#2E1E00"/>
<path d="M388.146 665.476C386.248 674.395 380.603 678.261 371.755 678.237C359.302 678.166 345.947 676.696 338.95 665.334C336.483 661.302 333.447 656.368 328.631 654.945C322.63 653.166 316.913 658.526 317.53 664.456C318.55 674.134 328.94 685.472 342.437 691.212C351.806 695.197 363.097 696.952 373.249 696.762C385.679 696.525 402.022 690.88 403.659 676.53" fill="#ADF0E7"/>
<path d="M371.703 697C361.361 697 350.734 694.984 342.314 691.426C328.817 685.709 318.285 674.371 317.265 664.48C316.956 661.468 318.214 658.455 320.633 656.439C322.958 654.518 325.875 653.877 328.674 654.708C333.561 656.155 336.644 661.159 339.111 665.168L339.135 665.192C345.99 676.316 358.847 677.929 371.727 677.977C371.774 677.977 371.822 677.977 371.869 677.977C380.859 677.977 386.101 673.873 387.881 665.405C387.904 665.287 388.023 665.192 388.165 665.215C388.284 665.239 388.379 665.358 388.355 665.5C386.505 674.205 381.12 678.427 371.869 678.427C371.822 678.427 371.774 678.427 371.703 678.427C358.681 678.356 345.682 676.743 338.708 665.405L338.684 665.382C336.265 661.444 333.229 656.534 328.508 655.135C325.875 654.352 323.1 654.945 320.894 656.771C318.593 658.693 317.383 661.539 317.692 664.385C318.712 674.11 329.125 685.282 342.456 690.951C351.232 694.675 362.428 696.691 373.174 696.478C380.076 696.336 387.05 694.604 392.316 691.687C398.816 688.081 402.635 682.815 403.346 676.459C403.37 676.34 403.489 676.245 403.607 676.245C403.726 676.269 403.821 676.387 403.821 676.506C403.085 683.029 399.195 688.437 392.553 692.114C387.216 695.055 380.171 696.834 373.198 696.976C372.723 697 372.201 697 371.703 697Z" fill="#2E1E00"/>
<path d="M359.954 639.077C356.989 644.722 354.095 650.936 351.32 657.791C345.959 654.115 340.456 649.252 337.277 644.864C328.263 632.411 327.599 617.515 329.781 602.691C331.252 592.705 333.007 582.007 338.439 573.302C341.191 568.866 345.461 564.834 350.679 563.624C355.162 562.581 359.384 564.834 359.313 569.863C359.218 575.508 354.735 580.418 352.672 585.47C350.608 590.546 349.422 595.954 348.9 601.41C347.856 612.155 349.161 624.015 354.878 633.384C356.182 635.495 357.843 637.606 359.954 639.077Z" fill="#ADF0E7"/>
<path d="M351.332 658.005C351.285 658.005 351.237 657.981 351.19 657.957C345.355 653.949 340.089 649.086 337.1 644.959C329.296 634.19 326.9 620.741 329.557 602.62C331.123 591.922 332.973 581.604 338.239 573.136C341.441 568.013 345.948 564.431 350.621 563.34C353.159 562.747 355.602 563.174 357.286 564.55C358.804 565.759 359.587 567.586 359.54 569.815C359.468 573.563 357.5 577.002 355.578 580.323C354.558 582.102 353.586 583.762 352.898 585.494C350.977 590.262 349.696 595.599 349.15 601.362C347.964 613.625 350.051 624.94 355.08 633.194C356.646 635.756 358.282 637.606 360.109 638.839C360.204 638.911 360.251 639.029 360.18 639.148C357.12 644.983 354.226 651.269 351.546 657.839C351.522 657.91 351.475 657.957 351.403 657.981C351.38 658.005 351.356 658.005 351.332 658.005ZM352.827 563.577C352.163 563.577 351.451 563.648 350.739 563.814C346.185 564.882 341.773 568.368 338.642 573.397C333.4 581.794 331.573 592.041 330.008 602.691C327.375 620.67 329.747 634.024 337.48 644.698C340.397 648.731 345.521 653.451 351.214 657.412C353.823 650.984 356.669 644.841 359.658 639.148C357.855 637.867 356.219 636.017 354.677 633.479C349.601 625.129 347.466 613.72 348.676 601.362C349.245 595.575 350.526 590.19 352.471 585.375C353.182 583.62 354.202 581.865 355.199 580.157C357.096 576.884 359.041 573.516 359.089 569.863C359.113 567.775 358.401 566.091 357.001 564.953C355.887 564.028 354.44 563.577 352.827 563.577Z" fill="#2E1E00"/>
<path d="M221.455 623.473C221.386 623.473 221.295 623.422 221.25 623.346C221.181 623.219 221.227 623.066 221.318 622.99C221.477 622.888 225.099 620.472 229.108 622.303C229.222 622.354 229.29 622.506 229.222 622.634C229.154 622.761 229.04 622.837 228.926 622.761C225.145 621.031 221.591 623.397 221.546 623.422C221.546 623.447 221.5 623.473 221.455 623.473Z" fill="#2E1E00"/>
<path d="M253.744 625.327C253.698 625.327 253.653 625.327 253.63 625.301C253.584 625.275 250.029 622.877 246.246 624.63C246.132 624.682 245.995 624.63 245.95 624.501C245.904 624.372 245.95 624.218 246.064 624.166C250.075 622.309 253.698 624.759 253.858 624.862C253.972 624.94 253.994 625.094 253.926 625.223C253.881 625.275 253.812 625.327 253.744 625.327Z" fill="#2E1E00"/>
<path d="M237.591 629.034C239.126 629.034 240.371 627.789 240.371 626.253C240.371 624.718 239.126 623.473 237.591 623.473C236.055 623.473 234.81 624.718 234.81 626.253C234.81 627.789 236.055 629.034 237.591 629.034Z" fill="#2E1E00"/>
<path d="M240.603 632.741C240.487 632.741 240.371 632.653 240.371 632.521C240.371 632.389 240.464 632.301 240.603 632.301C240.766 632.301 244.504 632.125 245.479 628.582C245.502 628.471 245.641 628.383 245.757 628.427C245.873 628.449 245.966 628.582 245.92 628.692C244.852 632.543 240.65 632.741 240.603 632.741Z" fill="#2E1E00"/>
<path d="M227.316 617.912C229.773 617.001 231.361 615.177 230.865 613.838C230.368 612.5 227.974 612.153 225.517 613.064C223.061 613.975 221.472 615.799 221.969 617.138C222.465 618.477 224.859 618.824 227.316 617.912Z" fill="#2E1E00"/>
<path d="M255.364 619.447C255.861 618.108 254.272 616.284 251.815 615.373C249.359 614.462 246.965 614.809 246.468 616.147C245.971 617.486 247.56 619.31 250.017 620.221C252.473 621.133 254.868 620.786 255.364 619.447Z" fill="#2E1E00"/>
<path d="M209.41 623.137L217.854 628.616L207.82 629.162L209.41 623.137Z" fill="#2E1E00"/>
<path d="M207.817 629.399C207.746 629.399 207.675 629.375 207.627 629.304C207.58 629.257 207.556 629.162 207.58 629.091L209.169 623.066C209.193 622.995 209.24 622.924 209.311 622.9C209.382 622.876 209.454 622.876 209.525 622.924L217.969 628.379C218.064 628.427 218.088 628.545 218.064 628.64C218.04 628.735 217.945 628.806 217.851 628.806L207.817 629.399ZM209.548 623.517L208.125 628.901L217.115 628.403L209.548 623.517Z" fill="#2E1E00"/>
<path d="M207.414 631.557L220.674 635.471L205.469 639.503L207.414 631.557Z" fill="#2E1E00"/>
<path d="M205.465 639.741C205.394 639.741 205.346 639.717 205.299 639.669C205.228 639.622 205.204 639.527 205.228 639.432L207.173 631.462C207.196 631.391 207.22 631.344 207.291 631.32C207.339 631.296 207.41 631.273 207.481 631.296L220.741 635.234C220.836 635.258 220.907 635.353 220.907 635.471C220.907 635.566 220.836 635.661 220.741 635.708L205.536 639.741C205.512 639.741 205.489 639.741 205.465 639.741ZM207.576 631.842L205.797 639.171L219.792 635.447L207.576 631.842Z" fill="#2E1E00"/>
<path d="M267.858 627.193L258.18 629.921L267.597 633.407L267.858 627.193Z" fill="#2E1E00"/>
<path d="M267.592 633.645C267.568 633.645 267.544 633.645 267.521 633.621L258.104 630.134C258.009 630.087 257.938 630.016 257.938 629.897C257.938 629.778 258.009 629.707 258.104 629.683L267.781 626.956C267.853 626.932 267.924 626.956 267.995 627.003C268.066 627.051 268.09 627.122 268.09 627.193L267.829 633.407C267.829 633.479 267.782 633.55 267.734 633.597C267.687 633.621 267.639 633.645 267.592 633.645ZM258.934 629.944L267.378 633.052L267.615 627.478L258.934 629.944Z" fill="#2E1E00"/>
<path d="M267.595 635.614L253.766 635.969L267.405 643.797L267.595 635.614Z" fill="#2E1E00"/>
<path d="M267.406 644.034C267.359 644.034 267.335 644.034 267.287 644.01L253.648 636.183C253.553 636.135 253.506 636.017 253.529 635.922C253.553 635.827 253.648 635.756 253.743 635.732L267.572 635.353C267.643 635.353 267.691 635.376 267.738 635.424C267.786 635.471 267.809 635.542 267.809 635.59L267.619 643.797C267.619 643.892 267.572 643.963 267.501 643.987C267.501 644.034 267.453 644.034 267.406 644.034ZM254.621 636.183L267.192 643.394L267.359 635.851L254.621 636.183Z" fill="#2E1E00"/>
<path d="M235.989 655.603C230.851 655.603 225.854 654.739 221.117 653.059C210.487 649.279 204.665 642.465 204.595 642.395C204.5 642.302 204.524 642.139 204.618 642.069C204.713 641.975 204.878 641.999 204.948 642.092C204.995 642.162 210.77 648.882 221.282 652.616C227.457 654.809 234.032 655.579 240.82 654.879C249.329 654.016 258.191 650.842 267.194 645.452C267.312 645.382 267.453 645.429 267.524 645.522C267.595 645.639 267.548 645.779 267.453 645.849C258.379 651.262 249.447 654.459 240.868 655.323C239.218 655.533 237.591 655.603 235.989 655.603Z" fill="#FEFFFA"/>
<path d="M233.432 660.546C233.147 660.546 232.957 660.42 232.957 660.295L233.242 655.235C233.242 655.085 233.479 654.985 233.717 654.985C234.002 654.985 234.192 655.11 234.192 655.235L233.907 660.295C233.907 660.445 233.669 660.546 233.432 660.546Z" fill="#FEFFFA"/>
<path d="M237.4 668.702C238.041 669.959 237.542 671.525 236.285 672.165C235.147 672.758 233.795 672.403 233.036 671.43C232.822 671.667 232.561 671.881 232.277 672.023C231.019 672.664 229.454 672.165 228.813 670.908C228.434 670.149 228.458 669.319 228.79 668.607C228.6 668.584 228.41 668.56 228.22 668.489C226.868 668.062 226.109 666.591 226.56 665.239C226.987 663.887 228.458 663.128 229.81 663.579C230.047 663.65 230.26 663.769 230.474 663.911C229.904 662.678 230.426 661.183 231.66 660.567C232.917 659.926 234.483 660.424 235.123 661.681C235.408 662.227 235.479 662.844 235.36 663.389C236.617 662.796 238.112 663.294 238.752 664.551C239.393 665.809 238.895 667.374 237.637 668.014C237.471 668.109 237.282 668.181 237.092 668.228C237.187 668.347 237.305 668.513 237.4 668.702Z" fill="#FEFFFA"/>
<path d="M235.097 672.687C234.315 672.687 233.556 672.379 233.034 671.762C232.844 671.928 232.631 672.094 232.393 672.213C231.729 672.545 230.97 672.616 230.235 672.379C229.523 672.142 228.93 671.644 228.598 670.979C228.242 670.292 228.195 669.485 228.456 668.773C228.361 668.75 228.266 668.726 228.171 668.702C226.7 668.228 225.87 666.639 226.345 665.168C226.819 663.697 228.408 662.867 229.879 663.342C229.95 663.365 229.998 663.389 230.069 663.413C229.808 662.203 230.401 660.922 231.539 660.329C232.204 659.997 232.963 659.926 233.698 660.163C234.41 660.4 235.003 660.899 235.335 661.563C235.572 662.013 235.667 662.511 235.643 663.01C236.924 662.606 238.323 663.176 238.964 664.409C239.675 665.785 239.13 667.493 237.754 668.204C237.659 668.252 237.588 668.299 237.493 668.323C237.541 668.394 237.588 668.489 237.636 668.584C238.347 669.959 237.802 671.667 236.426 672.379C235.975 672.592 235.524 672.687 235.097 672.687ZM233.034 671.169C233.105 671.169 233.176 671.217 233.224 671.264C233.911 672.189 235.145 672.474 236.165 671.952C237.303 671.359 237.778 669.959 237.185 668.797C237.114 668.631 236.995 668.489 236.9 668.37C236.853 668.299 236.829 668.228 236.853 668.133C236.876 668.038 236.948 667.991 237.019 667.967C237.185 667.92 237.351 667.872 237.517 667.777C238.656 667.184 239.13 665.785 238.537 664.623C237.944 663.484 236.592 663.033 235.453 663.579C235.382 663.626 235.263 663.603 235.216 663.555C235.145 663.508 235.121 663.413 235.121 663.318C235.24 662.796 235.169 662.251 234.908 661.752C234.623 661.207 234.125 660.78 233.532 660.59C232.939 660.4 232.298 660.448 231.753 660.732C230.638 661.302 230.164 662.63 230.685 663.769C230.733 663.863 230.709 663.982 230.614 664.053C230.543 664.124 230.425 664.124 230.33 664.077C230.14 663.958 229.95 663.863 229.737 663.792C228.503 663.389 227.175 664.077 226.795 665.31C226.392 666.544 227.08 667.872 228.313 668.252C228.479 668.299 228.645 668.347 228.812 668.347C228.883 668.347 228.954 668.394 229.001 668.465C229.049 668.536 229.049 668.607 229.001 668.679C228.669 669.343 228.693 670.102 229.025 670.766C229.31 671.311 229.784 671.738 230.401 671.928C231.018 672.118 231.634 672.07 232.18 671.786C232.441 671.644 232.678 671.478 232.868 671.24C232.891 671.217 232.963 671.169 233.034 671.169Z" fill="#2E1E00"/>
<path d="M427.955 641.391C427.884 641.391 427.79 641.344 427.767 641.273L393.645 588.007C393.575 587.889 393.598 587.747 393.716 587.676C393.834 587.605 393.975 587.628 394.046 587.747L428.167 641.013C428.238 641.131 428.214 641.273 428.096 641.344C428.049 641.391 428.002 641.391 427.955 641.391Z" fill="#2E1E00"/>
<path d="M392.386 585.423C392.386 585.423 385.27 594.816 389.397 601.505C393.524 608.17 403.463 603.047 403.463 603.047L392.386 585.423Z" fill="#2E1E00"/>
<path d="M396.008 605.134C393.469 605.134 390.86 604.327 389.176 601.623C387.445 598.824 387.421 595.1 389.105 590.878C390.362 587.7 392.165 585.304 392.165 585.28C392.212 585.209 392.283 585.186 392.355 585.186C392.426 585.186 392.497 585.233 392.544 585.304L403.646 602.928C403.669 602.975 403.693 603.046 403.669 603.118C403.646 603.189 403.598 603.236 403.551 603.26C403.527 603.284 399.85 605.134 396.008 605.134ZM392.355 585.85C391.24 587.463 385.974 595.551 389.603 601.362C393.232 607.221 401.629 603.639 403.124 602.928L392.355 585.85Z" fill="#2E1E00"/>
<path d="M416.696 624.133C416.696 624.133 405.167 626.576 400.874 619.982C396.581 613.388 405.476 606.581 405.476 606.581L416.696 624.133Z" fill="#2E1E00"/>
<path d="M411.889 624.797C411.415 624.797 410.916 624.774 410.395 624.75C405.84 624.465 402.496 622.852 400.693 620.101C396.352 613.412 405.247 606.462 405.342 606.391C405.39 606.344 405.461 606.344 405.532 606.344C405.603 606.344 405.65 606.391 405.698 606.438L416.918 623.991C416.965 624.062 416.965 624.133 416.941 624.204C416.918 624.276 416.847 624.323 416.775 624.347C416.728 624.37 414.617 624.797 411.889 624.797ZM405.437 606.936C404.156 608.004 397.348 614.076 401.096 619.84C404.82 625.58 414.403 624.276 416.325 623.943L405.437 606.936Z" fill="#2E1E00"/>
<path d="M394.222 611.733C395.587 611.733 396.694 610.765 396.694 609.571C396.694 608.376 395.587 607.408 394.222 607.408C392.858 607.408 391.751 608.376 391.751 609.571C391.751 610.765 392.858 611.733 394.222 611.733Z" fill="#2E1E00"/>
<path d="M396.446 619.148C391.495 619.148 389.363 615.82 389.314 615.797C389.241 615.681 389.29 615.542 389.412 615.473C389.535 615.404 389.682 615.45 389.755 615.565C389.878 615.773 392.966 620.511 400.686 617.946C400.808 617.9 400.955 617.969 401.004 618.085C401.053 618.2 400.98 618.339 400.857 618.385C399.166 618.917 397.72 619.148 396.446 619.148Z" fill="#2E1E00"/>
<path d="M406.135 594.301C406.921 593.22 405.867 591.114 403.78 589.596C401.692 588.078 399.363 587.723 398.577 588.804C397.791 589.884 398.846 591.991 400.933 593.509C403.02 595.027 405.349 595.381 406.135 594.301Z" fill="#2E1E00"/>
<path d="M416.999 617.436C418.315 617.203 419.016 614.954 418.565 612.413C418.115 609.872 416.683 608.001 415.367 608.234C414.051 608.468 413.35 610.717 413.801 613.258C414.251 615.799 415.683 617.669 416.999 617.436Z" fill="#2E1E00"/>
<path d="M416.821 664.253H416.798C406.287 663.032 397.138 660.286 389.59 656.061C383.546 652.682 378.506 648.363 374.636 643.246C371.196 638.669 369.309 634.304 368.33 631.417C367.279 628.295 367.04 626.277 367.04 626.206C367.016 626.089 367.111 625.971 367.255 625.948C367.398 625.924 367.494 626.018 367.518 626.159C367.518 626.23 368.497 634.351 375.042 642.988C378.888 648.058 383.857 652.329 389.852 655.662C397.329 659.84 406.43 662.563 416.869 663.783C416.989 663.807 417.084 663.924 417.084 664.042C417.06 664.182 416.941 664.253 416.821 664.253Z" fill="#FEFFFA"/>
<path d="M373.459 649.424C373.413 649.424 373.367 649.401 373.322 649.377C373.208 649.308 373.185 649.169 373.253 649.053L375.878 645.207C375.946 645.091 376.083 645.068 376.197 645.138C376.311 645.207 376.334 645.346 376.266 645.462L373.641 649.308C373.596 649.377 373.527 649.424 373.459 649.424Z" fill="#FEFFFA"/>
<path d="M372.363 658.029C372.221 659.452 370.964 660.472 369.541 660.329C368.26 660.187 367.311 659.167 367.24 657.934C366.931 658.029 366.599 658.052 366.267 658.005C364.844 657.863 363.824 656.605 363.966 655.182C364.061 654.352 364.536 653.64 365.2 653.237C365.058 653.119 364.915 653 364.797 652.834C363.895 651.719 364.061 650.106 365.176 649.205C366.291 648.304 367.904 648.47 368.805 649.584C368.971 649.774 369.09 649.988 369.185 650.225C369.398 648.873 370.632 647.924 372.008 648.066C373.431 648.209 374.451 649.466 374.308 650.889C374.237 651.506 373.976 652.051 373.573 652.455C374.949 652.644 375.945 653.878 375.803 655.277C375.661 656.7 374.38 657.72 372.98 657.578C372.79 657.554 372.601 657.507 372.411 657.459C372.387 657.625 372.387 657.815 372.363 658.029Z" fill="#FEFFFA"/>
<path d="M369.807 660.567C369.712 660.567 369.618 660.567 369.523 660.543C368.242 660.401 367.245 659.452 367.032 658.218C366.771 658.266 366.51 658.266 366.249 658.242C364.707 658.076 363.569 656.7 363.735 655.159C363.806 654.376 364.209 653.688 364.802 653.214C364.731 653.142 364.66 653.071 364.589 652.976C364.114 652.383 363.901 651.672 363.972 650.913C364.043 650.154 364.423 649.49 364.992 649.015C366.202 648.043 367.981 648.209 368.953 649.418C369.001 649.466 369.025 649.513 369.072 649.561C369.523 648.398 370.709 647.663 371.99 647.782C372.749 647.853 373.413 648.232 373.887 648.802C374.362 649.395 374.575 650.106 374.504 650.865C374.456 651.363 374.267 651.838 373.958 652.265C375.263 652.644 376.117 653.878 375.975 655.253C375.809 656.795 374.433 657.934 372.891 657.768C372.796 657.768 372.701 657.744 372.606 657.72C372.606 657.815 372.606 657.91 372.583 658.005L372.345 657.981L372.583 658.005C372.511 658.764 372.132 659.428 371.563 659.903C371.088 660.353 370.448 660.567 369.807 660.567ZM367.222 657.697C367.269 657.697 367.317 657.72 367.364 657.744C367.412 657.791 367.459 657.839 367.459 657.934C367.53 659.072 368.408 659.997 369.57 660.092C370.187 660.163 370.804 659.974 371.278 659.57C371.752 659.167 372.061 658.622 372.132 657.981C372.156 657.791 372.156 657.625 372.132 657.459C372.132 657.388 372.156 657.293 372.227 657.246C372.298 657.198 372.369 657.175 372.464 657.198C372.63 657.246 372.796 657.293 372.986 657.317C374.267 657.459 375.429 656.511 375.548 655.23C375.666 653.973 374.789 652.834 373.531 652.668C373.437 652.668 373.365 652.597 373.342 652.502C373.318 652.407 373.342 652.312 373.389 652.265C373.769 651.885 374.006 651.387 374.053 650.842C374.124 650.225 373.935 649.608 373.531 649.134C373.128 648.659 372.583 648.351 371.966 648.28C370.732 648.161 369.594 649.015 369.404 650.249C369.38 650.344 369.309 650.438 369.191 650.438C369.072 650.462 368.977 650.391 368.953 650.296C368.858 650.083 368.764 649.893 368.621 649.727C367.815 648.731 366.32 648.565 365.324 649.395C364.85 649.798 364.541 650.344 364.47 650.984C364.399 651.601 364.589 652.217 364.992 652.692C365.111 652.834 365.229 652.953 365.348 653.048C365.419 653.095 365.443 653.166 365.443 653.237C365.443 653.308 365.395 653.38 365.324 653.427C364.684 653.807 364.28 654.447 364.209 655.182C364.067 656.463 365.016 657.625 366.297 657.744C366.605 657.768 366.89 657.744 367.174 657.673C367.198 657.697 367.222 657.697 367.222 657.697Z" fill="#2E1E00"/>
<path d="M426.8 644.105L415.438 638.721L423.289 650.083L426.8 644.105Z" fill="#2E1E00"/>
<path d="M423.287 650.32C423.216 650.32 423.145 650.272 423.098 650.225L415.246 638.863C415.175 638.768 415.199 638.65 415.27 638.579C415.341 638.507 415.46 638.46 415.554 638.507L426.893 643.892C426.964 643.915 426.988 643.963 427.011 644.034C427.035 644.105 427.011 644.176 426.988 644.224L423.501 650.201C423.453 650.272 423.382 650.296 423.287 650.32C423.311 650.32 423.311 650.32 423.287 650.32ZM416.147 639.314L423.287 649.632L426.466 644.2L416.147 639.314Z" fill="#2E1E00"/>
<path d="M421.493 652.929L407.688 643.156L417.674 661.918L421.493 652.929Z" fill="#2E1E00"/>
<path d="M417.67 662.156C417.575 662.156 417.503 662.108 417.456 662.037L407.493 643.275C407.446 643.18 407.47 643.061 407.541 642.99C407.612 642.919 407.754 642.919 407.826 642.967L421.631 652.739C421.726 652.81 421.749 652.929 421.702 653.024L417.859 662.013C417.836 662.085 417.764 662.156 417.67 662.156ZM408.371 643.939L417.646 661.373L421.204 653L408.371 643.939Z" fill="#2E1E00"/>
<path d="M54.6209 642.627C54.5732 642.627 54.5254 642.604 54.5015 642.58C54.3822 642.509 54.3583 642.368 54.4299 642.25L89.1626 588.982C89.2342 588.864 89.3774 588.841 89.4968 588.911C89.6161 588.982 89.64 589.123 89.5684 589.241L54.8119 642.509C54.7641 642.58 54.6925 642.627 54.6209 642.627Z" fill="#2E1E00"/>
<path d="M91.0892 586.205C91.0892 586.205 98.2053 595.598 94.0779 602.287C89.9506 608.952 80.0117 603.829 80.0117 603.829L91.0892 586.205Z" fill="#2E1E00"/>
<path d="M87.457 605.94C83.638 605.94 79.9613 604.09 79.8901 604.043C79.8427 604.019 79.7953 603.948 79.7715 603.9C79.7478 603.829 79.7715 603.758 79.7953 603.711L90.8964 586.087C90.9439 586.016 91.015 585.968 91.0862 585.968C91.1574 585.968 91.2285 585.992 91.276 586.063C91.2997 586.087 93.0787 588.483 94.3359 591.661C96.0201 595.907 95.9963 599.607 94.2647 602.406C92.6043 605.11 89.9951 605.94 87.457 605.94ZM80.3408 603.734C81.8589 604.446 90.256 608.004 93.8615 602.169C97.467 596.334 92.2248 588.245 91.1099 586.656L80.3408 603.734Z" fill="#2E1E00"/>
<path d="M66.7754 624.916C66.7754 624.916 78.3035 627.359 82.5969 620.765C86.8666 614.171 77.9952 607.363 77.9952 607.363L66.7754 624.916Z" fill="#2E1E00"/>
<path d="M71.5895 625.58C68.8617 625.58 66.7268 625.129 66.7031 625.129C66.6319 625.106 66.5608 625.058 66.5371 624.987C66.5133 624.916 66.5133 624.845 66.5608 624.774L77.7806 607.221C77.828 607.174 77.8754 607.126 77.9466 607.126C78.0178 607.103 78.0889 607.126 78.1364 607.174C78.2312 607.245 87.1264 614.195 82.7856 620.884C80.9828 623.635 77.6382 625.248 73.0839 625.533C72.5858 625.58 72.0876 625.58 71.5895 625.58ZM67.1538 624.75C69.0752 625.082 78.6345 626.387 82.3823 620.646C86.1302 614.883 79.3224 608.787 78.0415 607.743L67.1538 624.75Z" fill="#2E1E00"/>
<path d="M91.0879 611.774C91.2401 610.605 90.4262 609.535 89.2701 609.385C88.1139 609.234 87.0533 610.06 86.9011 611.229C86.7489 612.398 87.5627 613.468 88.7189 613.618C89.875 613.769 90.9357 612.943 91.0879 611.774Z" fill="#2E1E00"/>
<path d="M86.5054 621.001C84.9674 621.001 83.1692 620.617 81.087 619.538C80.9687 619.466 80.9214 619.322 80.9923 619.226C81.0633 619.106 81.2053 619.058 81.2999 619.13C88.4693 622.849 92.1132 618.194 92.2788 618.002C92.3498 617.906 92.5154 617.882 92.6101 617.954C92.7047 618.026 92.7284 618.194 92.6574 618.29C92.6337 618.314 90.5279 621.001 86.5054 621.001Z" fill="#2E1E00"/>
<path d="M80.1161 596.223C82.4239 594.928 83.749 592.906 83.0758 591.706C82.4026 590.507 79.986 590.584 77.6782 591.879C75.3704 593.174 74.0452 595.197 74.7184 596.396C75.3916 597.596 77.8082 597.518 80.1161 596.223Z" fill="#2E1E00"/>
<path d="M69.1339 614.073C69.9258 611.521 69.5128 609.125 68.2115 608.721C66.9102 608.317 65.2134 610.059 64.4216 612.612C63.6297 615.164 64.0427 617.56 65.3439 617.964C66.6452 618.368 68.342 616.626 69.1339 614.073Z" fill="#2E1E00"/>
<path d="M57.1914 646.287L68.4349 642.35L60.2039 651.292L57.1914 646.287Z" fill="#2E1E00"/>
<path d="M60.2047 651.53H60.181C60.1099 651.53 60.0387 651.482 59.9913 651.411L56.9788 646.406C56.9313 646.335 56.9313 646.264 56.955 646.193C56.9788 646.121 57.0262 646.074 57.0974 646.05L68.3409 642.113C68.4357 642.089 68.5543 642.113 68.6255 642.208C68.6967 642.303 68.6729 642.421 68.6018 642.492L60.3708 651.458C60.3233 651.506 60.2759 651.53 60.2047 651.53ZM57.5243 646.43L60.2285 650.913L67.6055 642.896L57.5243 646.43Z" fill="#2E1E00"/>
<path d="M61.8398 654.281L75.74 648.09L66.1332 663.294L61.8398 654.281Z" fill="#2E1E00"/>
<path d="M66.1341 663.532C66.1103 663.532 66.1103 663.532 66.1341 663.532C66.0392 663.532 65.968 663.484 65.9206 663.389L61.6272 654.4C61.6034 654.352 61.6034 654.281 61.6272 654.21C61.6509 654.139 61.6983 654.091 61.7458 654.067L75.6697 647.877C75.7646 647.829 75.8832 647.853 75.9543 647.948C76.0255 648.019 76.0255 648.138 75.978 648.232L66.3713 663.437C66.2764 663.484 66.2052 663.532 66.1341 663.532ZM62.149 654.4L66.1578 662.796L75.1241 648.612L62.149 654.4Z" fill="#2E1E00"/>
<path d="M67.6091 667.96C67.4897 667.96 67.3941 667.889 67.3702 667.77C67.3464 667.652 67.418 667.509 67.5614 667.485C67.6569 667.462 78.0482 665.136 89.1084 659.036C95.6059 655.452 101.052 651.298 105.328 646.694C110.655 640.926 114.143 634.447 115.696 627.374C115.72 627.255 115.839 627.16 115.982 627.184C116.126 627.208 116.197 627.326 116.174 627.469C114.621 634.613 111.085 641.187 105.687 647.002C101.387 651.654 95.8687 655.832 89.3473 659.439C78.2154 665.563 67.7763 667.913 67.6808 667.936C67.6569 667.96 67.633 667.96 67.6091 667.96Z" fill="#FEFFFA"/>
<path d="M112.813 645.717C112.707 645.717 112.628 645.673 112.575 645.608L110.036 641.727C109.957 641.618 110.01 641.487 110.142 641.422C110.274 641.357 110.433 641.4 110.512 641.509L113.051 645.39C113.13 645.499 113.078 645.629 112.945 645.695C112.892 645.717 112.84 645.717 112.813 645.717Z" fill="#FEFFFA"/>
<path d="M120.431 650.723C121.617 651.506 121.973 653.095 121.19 654.281C120.502 655.348 119.15 655.751 118.012 655.253C117.941 655.562 117.822 655.87 117.656 656.155C116.873 657.341 115.284 657.696 114.098 656.914C113.386 656.463 112.983 655.728 112.936 654.945C112.77 655.016 112.58 655.087 112.39 655.135C110.991 655.443 109.615 654.542 109.33 653.166C109.022 651.766 109.923 650.414 111.299 650.106C111.536 650.059 111.797 650.035 112.034 650.059C110.919 649.252 110.635 647.734 111.37 646.572C112.153 645.386 113.742 645.03 114.928 645.813C115.45 646.145 115.806 646.643 115.972 647.189C116.755 646.05 118.32 645.742 119.482 646.477C120.668 647.26 121.024 648.849 120.242 650.035C120.123 650.201 120.004 650.343 119.862 650.486C120.099 650.533 120.265 650.628 120.431 650.723Z" fill="#FEFFFA"/>
<path d="M115.497 657.578C114.975 657.578 114.453 657.436 113.979 657.127C113.314 656.7 112.887 656.036 112.745 655.277C112.65 655.301 112.555 655.324 112.46 655.348C111.725 655.514 110.966 655.372 110.349 654.969C109.709 654.565 109.282 653.925 109.116 653.19C108.784 651.672 109.756 650.177 111.274 649.845C111.346 649.822 111.393 649.822 111.464 649.822C110.634 648.896 110.492 647.497 111.203 646.43C111.606 645.789 112.247 645.362 112.982 645.196C113.718 645.03 114.477 645.172 115.093 645.576C115.52 645.86 115.852 646.24 116.09 646.691C117.015 645.694 118.509 645.505 119.671 646.264C120.976 647.117 121.356 648.849 120.502 650.154C120.454 650.225 120.383 650.32 120.336 650.391C120.43 650.438 120.502 650.486 120.597 650.533C121.901 651.363 122.281 653.119 121.427 654.423C120.739 655.491 119.411 655.965 118.224 655.585C118.153 655.823 118.035 656.06 117.892 656.297C117.323 657.127 116.422 657.578 115.497 657.578ZM112.911 654.708C112.959 654.708 112.982 654.708 113.03 654.731C113.101 654.779 113.148 654.85 113.148 654.921C113.196 655.657 113.599 656.321 114.216 656.724C115.307 657.412 116.754 657.103 117.442 656.036C117.608 655.775 117.726 655.514 117.774 655.23C117.798 655.158 117.821 655.087 117.892 655.064C117.964 655.04 118.035 655.016 118.106 655.064C119.15 655.514 120.359 655.135 121 654.186C121.688 653.095 121.379 651.648 120.312 650.96C120.17 650.865 120.004 650.794 119.837 650.723C119.766 650.699 119.695 650.628 119.671 650.557C119.648 650.486 119.671 650.391 119.743 650.343C119.861 650.225 119.98 650.082 120.075 649.94C120.763 648.849 120.454 647.402 119.387 646.691C118.319 646.003 116.92 646.287 116.185 647.331C116.137 647.402 116.042 647.45 115.947 647.426C115.852 647.402 115.781 647.355 115.758 647.26C115.592 646.738 115.259 646.311 114.809 646.026C114.287 645.694 113.646 645.576 113.053 645.694C112.437 645.837 111.915 646.192 111.583 646.714C110.895 647.758 111.156 649.157 112.176 649.893C112.271 649.964 112.294 650.059 112.271 650.177C112.223 650.272 112.128 650.343 112.033 650.343C111.82 650.32 111.583 650.343 111.369 650.391C110.753 650.533 110.231 650.889 109.899 651.411C109.567 651.933 109.448 652.573 109.567 653.166C109.709 653.783 110.065 654.305 110.587 654.637C111.108 654.969 111.749 655.087 112.342 654.969C112.508 654.921 112.674 654.874 112.84 654.803C112.84 654.731 112.887 654.708 112.911 654.708Z" fill="#2E1E00"/>
<path d="M84.5882 684.049C77.8041 669.604 71.9689 654.708 64.9239 640.381C58.8989 628.118 51.5456 616.519 45.9713 604.019C41.1086 593.084 36.0087 581.746 34.372 569.791C33.7553 565.332 35.558 559.948 41.1798 561.608C46.4694 563.174 49.9089 569.104 52.6842 573.42C62.884 589.265 70.8778 606.391 78.8478 623.445C86.7942 640.428 95.5707 657.056 102.829 674.371" fill="#FFDC38"/>
<path d="M84.5886 684.286C84.4937 684.286 84.4226 684.239 84.3751 684.144C81.3626 677.716 78.4687 671.122 75.6934 664.718C72.2065 656.724 68.6247 648.446 64.7109 640.476C62.1253 635.234 59.2552 630.016 56.4799 624.963C52.7558 618.227 48.9368 611.253 45.7345 604.09L45.6159 603.829C40.7769 592.966 35.7482 581.723 34.1115 569.815C33.7794 567.372 34.1115 563.885 36.1752 562.106C37.4324 561.015 39.1877 560.754 41.2039 561.347C46.1852 562.818 49.5298 568.06 52.2102 572.258C52.4237 572.59 52.6372 572.923 52.8506 573.255C63.0504 589.123 71.1628 606.486 79.0143 623.256L79.038 623.279C81.8607 629.328 84.8495 635.448 87.7434 641.354C92.9619 652.028 98.3702 663.081 103.043 674.229C103.091 674.348 103.043 674.49 102.925 674.537C102.806 674.585 102.664 674.537 102.616 674.419C97.9432 663.294 92.5587 652.241 87.3402 641.567C84.4463 635.661 81.4575 629.541 78.6348 623.493L78.611 623.469C70.7833 606.699 62.6709 589.337 52.4948 573.516C52.2814 573.183 52.0679 572.875 51.8544 572.519C49.2214 568.368 45.9243 563.221 41.109 561.798C39.2114 561.229 37.6696 561.466 36.5073 562.462C34.918 563.814 34.1827 566.684 34.5859 569.744C36.1989 581.556 41.2039 592.8 46.0429 603.639L46.1615 603.9C49.34 611.04 53.1827 618.014 56.8831 624.75C59.6584 629.802 62.5286 635.021 65.1141 640.263C69.028 648.232 72.6335 656.511 76.1204 664.504C78.8957 670.885 81.7659 677.502 84.8021 683.907C84.8495 684.025 84.8021 684.168 84.6835 684.215C84.6598 684.286 84.6123 684.286 84.5886 684.286Z" fill="#2E1E00"/>
</g>
<defs>
<clipPath id="clip0_4062_62797">
<rect x="0.5" width="468" height="745" rx="40" fill="white"/>
</clipPath>
</defs>
</svg>
