<svg width="269" height="198" viewBox="0 0 269 198" fill="none" xmlns="http://www.w3.org/2000/svg">
<rect x="48.0254" y="84.1953" width="35.9057" height="11.3985" rx="5.69926" fill="#F3F4F6" stroke="#374151" stroke-width="1.5"/>
<rect x="47.75" y="72.75" width="24.5" height="10.5" rx="5.25" fill="#F3F4F6" stroke="#374151" stroke-width="1.5"/>
<path d="M1 178.37H268.002" stroke="#374151" stroke-width="1.5" stroke-linecap="round"/>
<path d="M87.1916 12.8701L73.0293 80.7375L111.269 94.8623L145.374 37.3283L87.1916 12.8701Z" fill="#D1D5DB" stroke="#374151" stroke-width="1.5" stroke-miterlimit="10" stroke-linecap="round" stroke-linejoin="round"/>
<path d="M115.435 62.9746L114.476 64.6355C111.08 70.5179 103.558 72.5334 97.6757 69.1372C91.7932 65.7409 89.7777 58.219 93.174 52.3366L94.1329 50.6757C97.5291 44.7932 105.051 42.7777 110.933 46.174C116.816 49.5702 118.831 57.0921 115.435 62.9746Z" fill="#F3F4F6" stroke="#374151" stroke-width="1.5"/>
<path d="M103.09 54.9993C102.673 54.1702 97.734 55.1457 98.4641 57.2408C98.9332 58.5866 101.544 60.3837 102.877 59.2265C100.289 61.4736 106.723 64.8191 106.542 60.0857C106.542 60.0857 108.644 61.9758 109.04 59.112C109.435 56.2484 107.043 56.7034 107.043 56.7034C107.043 56.7034 108.217 53.9995 105.6 53.1651C104.187 52.7154 103.03 53.449 103.09 54.9993Z" fill="#D1D5DB" stroke="#374151" stroke-width="1.5" stroke-miterlimit="10" stroke-linecap="round" stroke-linejoin="round"/>
<path d="M129.755 84.0456L161.827 177.445L218.926 166.897L218.793 71.6295L129.755 84.0456Z" fill="#D1D5DB" stroke="#374151" stroke-width="1.5" stroke-miterlimit="10" stroke-linecap="round" stroke-linejoin="round"/>
<rect x="43.0254" y="95.8037" width="90.0796" height="82.3404" fill="#D1D5DB" stroke="#374151" stroke-width="1.5"/>
<path d="M230.087 188.301H267.624" stroke="#374151" stroke-width="1.5" stroke-linecap="round"/>
<path d="M195.768 197.151H211.855" stroke="#374151" stroke-width="1.5" stroke-linecap="round"/>
<path d="M194.861 120.799L195.358 122.651C197.116 129.212 193.222 135.956 186.661 137.714C180.1 139.472 173.356 135.579 171.598 129.018L171.102 127.165C169.344 120.604 173.237 113.86 179.798 112.102C186.359 110.344 193.103 114.238 194.861 120.799Z" fill="#F3F4F6" stroke="#374151" stroke-width="1.5"/>
<path d="M180.492 123.889C179.611 123.598 176.808 127.78 178.806 128.745C180.089 129.365 183.206 128.79 183.33 127.029C183.089 130.448 190.004 128.264 186.529 125.045C186.529 125.045 189.352 124.895 187.607 122.591C185.861 120.286 184.492 122.299 184.492 122.299C184.492 122.299 183.41 119.557 180.97 120.818C179.652 121.499 179.353 122.835 180.492 123.889Z" fill="#D1D5DB" stroke="#374151" stroke-width="1.5" stroke-miterlimit="10" stroke-linecap="round" stroke-linejoin="round"/>
<path d="M72.6818 65.112C72.6818 65.112 76.4133 69.6254 74.4782 70.5417C72.5454 71.4571 69.6469 68.7863 69.6409 68.781C68.6356 67.9484 64.683 74.1514 62.4234 71.1955C60.7313 68.9824 64.5389 66.3766 66.3255 66.1085C64.7292 66.3482 64.8745 62.1858 65.1833 61.3924C65.9932 59.3062 69.9847 57.8454 70.8853 60.7529C70.8853 60.7529 73.9249 56.8088 76.4128 60.7529C78.8999 64.697 72.6818 65.112 72.6818 65.112Z" fill="#F9FAFB" stroke="#374151" stroke-width="1.5" stroke-miterlimit="10" stroke-linecap="round" stroke-linejoin="round"/>
<path d="M138.541 177.964C143.146 178.65 147.486 177.608 147.486 173.986C147.484 171.392 145.181 167.667 142.432 170.829C143.247 168.47 141.216 165.61 138.721 165.601C136.225 165.593 134.176 168.438 134.976 170.803C133.968 170.447 133.245 169.581 132.505 168.809C131.767 168.037 130.862 167.283 129.794 167.27C126.452 167.226 128.082 171.971 129.014 173.367C130.897 176.188 135.407 177.497 138.541 177.964Z" fill="#F9FAFB" stroke="#374151" stroke-width="1.5" stroke-miterlimit="10" stroke-linecap="round" stroke-linejoin="round"/>
<path d="M149.1 6.83584C143.717 6.46609 138.798 8.06835 139.131 12.2519C139.372 15.2494 142.374 19.3421 145.259 15.4362C144.535 18.2362 147.144 21.3537 150.028 21.135C152.912 20.9155 155.018 17.4401 153.877 14.7819C155.074 15.1006 155.989 16.0344 156.914 16.8588C157.838 17.6825 158.953 18.4701 160.188 18.3879C164.053 18.1315 161.734 12.7991 160.529 11.2718C158.095 8.186 152.764 7.0877 149.1 6.83584Z" fill="#F9FAFB" stroke="#374151" stroke-width="1.5" stroke-miterlimit="10" stroke-linecap="round" stroke-linejoin="round"/>
<path d="M41.1901 170.627C42.7451 170.823 44.3724 169.836 44.852 168.406C45.3315 166.977 44.6084 165.268 43.2254 164.56C41.8421 163.852 39.9555 164.227 38.9806 165.403C37.6486 163.751 35.9761 161.936 33.7971 162.002C31.9496 162.058 30.3475 163.718 30.3547 165.487C30.3619 167.256 31.9044 168.877 33.7335 169.127C33.0212 169.032 31.9597 170.917 31.6314 171.379C30.8296 172.507 29.8996 173.769 30.0088 175.204C30.2383 178.219 34.2508 178.634 36.3877 177.22C37.094 176.753 37.5045 176.263 38.4026 176.535C39.8592 176.976 41.2878 177.709 42.822 177.889C47.1326 178.393 43.6856 170.94 41.1901 170.627Z" fill="#F9FAFB" stroke="#374151" stroke-width="1.5" stroke-miterlimit="10" stroke-linecap="round" stroke-linejoin="round"/>
<path d="M144.102 61.3484C144.102 61.3484 134.409 63.3387 139.456 71.3008C144.506 79.2635 147.534 67.5191 147.534 67.5191C147.534 67.5191 150.363 73.8889 154.804 70.7037C159.248 67.5191 157.264 63.9358 157.264 63.9358C157.264 63.9358 157.228 52.8104 151.17 55.3873C145.112 57.9648 145.941 60.7513 145.941 60.7513L144.102 61.3484Z" fill="#F9FAFB" stroke="#374151" stroke-width="1.5" stroke-miterlimit="10" stroke-linecap="round" stroke-linejoin="round"/>
<path d="M180.432 40.2257C181.882 40.4123 183.399 39.471 183.846 38.108C184.294 36.7453 183.619 35.1152 182.33 34.4406C181.04 33.766 179.281 34.1234 178.372 35.2445C177.131 33.6694 175.571 31.939 173.54 32.0017C171.817 32.0549 170.324 33.6381 170.33 35.3246C170.337 37.0115 171.775 38.5567 173.481 38.7955C172.817 38.7047 171.827 40.5017 171.521 40.9424C170.774 42.0183 169.906 43.2212 170.008 44.5892C170.222 47.4643 173.963 47.8602 175.955 46.5119C176.614 46.0663 176.997 45.5993 177.834 45.8587C179.192 46.2793 180.524 46.978 181.955 47.1494C185.973 47.6298 182.759 40.525 180.432 40.2257Z" fill="#F9FAFB" stroke="#374151" stroke-width="1.5" stroke-miterlimit="10" stroke-linecap="round" stroke-linejoin="round"/>
</svg>
