<svg width="102" height="41" viewBox="0 0 102 41" fill="none" xmlns="http://www.w3.org/2000/svg">
<path d="M8.19946 31.4557C3.78118 31.4557 0.199463 27.874 0.199463 23.4557V3.74222C0.199463 2.00773 1.60555 0.601639 3.34005 0.601639C5.07454 0.601639 6.48063 2.00773 6.48063 3.74222V18.4053C6.48063 22.7182 9.97685 26.2144 14.2896 26.2144H19.478C20.9253 26.2144 22.0987 27.3877 22.0987 28.8351C22.0987 30.2824 20.9253 31.4557 19.478 31.4557H8.19946Z" fill="black"/>
<path d="M25.1756 19.8695C25.1756 17.889 25.6637 15.9721 26.6398 14.1189C27.6159 12.2657 28.9952 10.851 30.7777 9.87485C32.5744 8.89872 34.5761 8.41066 36.783 8.41066C40.1924 8.41066 42.9864 9.52118 45.165 11.7422C47.3436 13.9491 48.4329 16.7431 48.4329 20.1242C48.4329 23.5336 47.3294 26.3629 45.1225 28.6122C42.9298 30.8474 40.1641 31.965 36.8255 31.965C34.76 31.965 32.7866 31.4982 30.905 30.5645C29.0377 29.6308 27.6159 28.2657 26.6398 26.469C25.6637 24.6582 25.1756 22.4584 25.1756 19.8695ZM31.287 20.1878C31.287 22.423 31.8175 24.1348 32.8785 25.3231C33.9395 26.5115 35.2481 27.1056 36.8042 27.1056C38.3604 27.1056 39.6619 26.5115 40.7087 25.3231C41.7698 24.1348 42.3003 22.4089 42.3003 20.1454C42.3003 17.9385 41.7698 16.2409 40.7087 15.0526C39.6619 13.8642 38.3604 13.2701 36.8042 13.2701C35.2481 13.2701 33.9395 13.8642 32.8785 15.0526C31.8175 16.2409 31.287 17.9527 31.287 20.1878Z" fill="black"/>
<path d="M52.5496 33.6626C52.5496 33.2725 52.9001 32.9812 53.2874 33.0282L57.5345 33.5442C58.6248 33.6767 59.2781 34.7586 60.1676 35.4027C60.7335 35.8271 61.6248 36.0393 62.8414 36.0393C64.3975 36.0393 65.5646 35.8059 66.3427 35.339C66.8661 35.0278 67.2622 34.5256 67.531 33.8324C67.7149 33.3373 67.8069 32.4248 67.8069 31.095C67.8069 30.055 66.3425 29.5253 65.4849 30.1138C64.1812 31.0084 62.7059 31.4557 61.0589 31.4557C58.0315 31.4557 55.6336 30.1755 53.8652 27.6149C52.4789 25.5919 51.7857 23.0738 51.7857 20.0605C51.7857 16.2833 52.6911 13.3974 54.5019 11.4027C56.3268 9.408 58.5903 8.41066 61.2923 8.41066C63.3111 8.41066 65.0739 9.0528 66.5805 10.3371C67.1559 10.8275 68.1889 10.46 68.1889 9.70395C68.1889 9.27096 68.5399 8.91994 68.9729 8.91994H70.9793C72.5204 8.91994 73.7698 10.1693 73.7698 11.7104V29.1428C73.7698 31.8023 73.5505 33.79 73.1119 35.1056C72.6734 36.4213 72.058 37.454 71.2658 38.2038C70.4736 38.9535 69.4126 39.5406 68.0828 39.965C66.7671 40.3894 65.0978 40.6016 63.0748 40.6016C59.2552 40.6016 56.5461 39.9438 54.9475 38.6282C53.3489 37.3267 52.5496 35.6715 52.5496 33.6626ZM57.8971 19.721C57.8971 22.1118 58.3568 23.866 59.2764 24.9836C60.2101 26.087 61.356 26.6388 62.7141 26.6388C64.1712 26.6388 65.4019 26.0729 66.4064 24.9412C67.4108 23.7953 67.913 22.1047 67.913 19.8695C67.913 17.5353 67.432 15.8023 66.47 14.6706C65.508 13.5389 64.2914 12.973 62.8202 12.973C61.3913 12.973 60.2101 13.5318 59.2764 14.6494C58.3568 15.7528 57.8971 17.4434 57.8971 19.721Z" fill="black"/>
<path d="M78.3109 19.8695C78.3109 17.889 78.7989 15.9721 79.7751 14.1189C80.7512 12.2657 82.1305 10.851 83.913 9.87485C85.7096 8.89872 87.7114 8.41066 89.9183 8.41066C93.3277 8.41066 96.1217 9.52118 98.3003 11.7422C100.479 13.9491 101.568 16.7431 101.568 20.1242C101.568 23.5336 100.465 26.3629 98.2578 28.6122C96.0651 30.8474 93.2994 31.965 89.9607 31.965C87.8953 31.965 85.9218 31.4982 84.0403 30.5645C82.1729 29.6308 80.7512 28.2657 79.7751 26.469C78.7989 24.6582 78.3109 22.4584 78.3109 19.8695ZM84.4223 20.1878C84.4223 22.423 84.9528 24.1348 86.0138 25.3231C87.0748 26.5115 88.3834 27.1056 89.9395 27.1056C91.4957 27.1056 92.7972 26.5115 93.844 25.3231C94.905 24.1348 95.4355 22.4089 95.4355 20.1454C95.4355 17.9385 94.905 16.2409 93.844 15.0526C92.7972 13.8642 91.4957 13.2701 89.9395 13.2701C88.3834 13.2701 87.0748 13.8642 86.0138 15.0526C84.9528 16.2409 84.4223 17.9527 84.4223 20.1878Z" fill="black"/>
</svg>
