<svg width="222" height="89" viewBox="0 0 222 89" fill="none" xmlns="http://www.w3.org/2000/svg">
<path fill-rule="evenodd" clip-rule="evenodd" d="M65 33.5C65 51.1731 50.6731 65.5 33 65.5C15.3269 65.5 1 51.1731 1 33.5C1 15.8269 15.3269 1.5 33 1.5C50.6731 1.5 65 15.8269 65 33.5ZM49 48.5005V52.5005H17V48.5005H49ZM31.7867 41.822V44.7232H33.8842V41.8239C35.6264 41.7402 37.1442 41.4399 38.4374 40.9232C39.9892 40.3065 41.1786 39.419 42.0057 38.2607C42.8328 37.1024 43.2506 35.7149 43.2591 34.0982C43.2506 33.0732 43.0715 32.1482 42.7219 31.3232C42.3724 30.4982 41.8565 29.769 41.1744 29.1357C40.5008 28.5024 39.6652 27.9565 38.6676 27.4982C37.6785 27.0399 36.536 26.6732 35.2399 26.3982L33.8842 26.0971V20.7555C34.6295 20.864 35.2349 21.0991 35.7004 21.4607C36.374 21.969 36.7534 22.6815 36.8386 23.5982H42.901C42.8839 22.0065 42.4619 20.6065 41.6348 19.3982C40.8077 18.1899 39.6439 17.2524 38.1432 16.5857C36.9077 16.0268 35.488 15.6993 33.8842 15.6031V12.7232H31.7867V15.607C30.2308 15.7071 28.8196 16.0292 27.5533 16.5732C26.0015 17.2399 24.7864 18.169 23.9082 19.3607C23.03 20.5524 22.5951 21.9399 22.6036 23.5232C22.5951 25.4649 23.2431 27.0065 24.5477 28.1482C25.8522 29.2815 27.6385 30.1024 29.9066 30.6107L31.7867 31.04V36.6777C31.2524 36.6117 30.7621 36.4893 30.3159 36.3107C29.6167 36.0274 29.0667 35.6107 28.666 35.0607C28.2652 34.5107 28.0393 33.8232 27.9881 32.9982H21.9258C21.9514 34.9982 22.4161 36.6524 23.3199 37.9607C24.2237 39.269 25.4899 40.244 27.1184 40.8857C28.4783 41.4215 30.0344 41.7336 31.7867 41.822ZM33.8842 36.6618C34.2743 36.6058 34.6281 36.5179 34.9458 36.3982C35.5511 36.1732 36.0158 35.8607 36.3399 35.4607C36.6639 35.0607 36.8301 34.6024 36.8386 34.0857C36.8301 33.6024 36.6766 33.1899 36.3782 32.8482C36.0798 32.4982 35.6194 32.1982 34.9969 31.9482C34.6734 31.8121 34.3025 31.6817 33.8842 31.5571V36.6618ZM31.7867 25.594V20.7544C31.4199 20.8063 31.0917 20.8876 30.8019 20.9982C30.2562 21.2065 29.8469 21.494 29.5741 21.8607C29.3012 22.219 29.1605 22.6315 29.152 23.0982C29.1349 23.4815 29.2117 23.819 29.3822 24.1107C29.5613 24.4024 29.8171 24.6607 30.1496 24.8857C30.4907 25.1024 30.8999 25.294 31.3774 25.4607C31.5093 25.5067 31.6457 25.5512 31.7867 25.594Z" fill="#D1FAE5"/>
<path d="M49 52.5005V53.2505H49.75V52.5005H49ZM49 48.5005H49.75V47.7505H49V48.5005ZM17 52.5005H16.25V53.2505H17V52.5005ZM17 48.5005V47.7505H16.25V48.5005H17ZM31.7867 44.7232H31.0367V45.4732H31.7867V44.7232ZM31.7867 41.822H32.5367V41.1089L31.8245 41.073L31.7867 41.822ZM33.8842 44.7232V45.4732H34.6342V44.7232H33.8842ZM33.8842 41.8239L33.8482 41.0748L33.1342 41.1091V41.8239H33.8842ZM38.4374 40.9232L38.1604 40.2262L38.1591 40.2267L38.4374 40.9232ZM43.2591 34.0982L44.0092 34.1022L44.0091 34.092L43.2591 34.0982ZM42.7219 31.3232L43.4125 31.0306L42.7219 31.3232ZM41.1744 29.1357L40.6606 29.6821L40.6641 29.6853L41.1744 29.1357ZM38.6676 27.4982L38.3522 28.1787L38.3545 28.1797L38.6676 27.4982ZM35.2399 26.3982L35.0773 27.1304L35.0843 27.1319L35.2399 26.3982ZM33.8842 26.0971H33.1342V26.6987L33.7216 26.8292L33.8842 26.0971ZM33.8842 20.7555L33.9923 20.0133L33.1342 19.8884V20.7555H33.8842ZM35.7004 21.4607L35.2402 22.053L35.2486 22.0594L35.7004 21.4607ZM36.8386 23.5982L36.0919 23.6677L36.1552 24.3482H36.8386V23.5982ZM42.901 23.5982V24.3482H43.6591L43.651 23.5902L42.901 23.5982ZM41.6348 19.3982L41.0159 19.8218L41.6348 19.3982ZM38.1432 16.5857L37.8341 17.269L37.8387 17.2711L38.1432 16.5857ZM33.8842 15.6031H33.1342V16.3095L33.8393 16.3518L33.8842 15.6031ZM33.8842 12.7232H34.6342V11.9732H33.8842V12.7232ZM31.7867 12.7232V11.9732H31.0367V12.7232H31.7867ZM31.7867 15.607L31.8348 16.3555L32.5367 16.3104V15.607H31.7867ZM27.5533 16.5732L27.8493 17.2623L27.5533 16.5732ZM23.9082 19.3607L23.3044 18.9157H23.3044L23.9082 19.3607ZM22.6036 23.5232L23.3537 23.5265L23.3536 23.5192L22.6036 23.5232ZM24.5477 28.1482L24.0538 28.7126L24.0558 28.7144L24.5477 28.1482ZM29.9066 30.6107L30.0736 29.8795L30.0706 29.8789L29.9066 30.6107ZM31.7867 31.04H32.5367V30.442L31.9537 30.3088L31.7867 31.04ZM31.7867 36.6777L31.6947 37.422L32.5367 37.526V36.6777H31.7867ZM30.3159 36.3107L30.0342 37.0058L30.0371 37.007L30.3159 36.3107ZM27.9881 32.9982L28.7367 32.9518L28.6931 32.2482H27.9881V32.9982ZM21.9258 32.9982V32.2482H21.1661L21.1758 33.0078L21.9258 32.9982ZM27.1184 40.8857L27.3934 40.1879L27.1184 40.8857ZM33.8842 36.6618H33.1342V37.5272L33.9908 37.4042L33.8842 36.6618ZM34.9458 36.3982L34.6845 35.6952L34.6812 35.6964L34.9458 36.3982ZM36.3399 35.4607L36.9226 35.9328V35.9328L36.3399 35.4607ZM36.8386 34.0857L37.5885 34.0981L37.5888 34.0853L37.5885 34.0725L36.8386 34.0857ZM36.3782 32.8482L35.8075 33.3348L35.8134 33.3416L36.3782 32.8482ZM34.9969 31.9482L34.706 32.6396L34.7174 32.6442L34.9969 31.9482ZM33.8842 31.5571L34.0983 30.8383L33.1342 30.5512V31.5571H33.8842ZM31.7867 25.594L31.5686 26.3116L32.5367 26.6059V25.594H31.7867ZM31.7867 20.7544H32.5367V19.8909L31.6816 20.0118L31.7867 20.7544ZM30.8019 20.9982L30.5344 20.2975L30.5344 20.2975L30.8019 20.9982ZM29.5741 21.8607L30.1708 22.3151L30.1758 22.3084L29.5741 21.8607ZM29.152 23.0982L29.9013 23.1315L29.9017 23.1217L29.9019 23.1119L29.152 23.0982ZM29.3822 24.1107L28.7348 24.4892L28.7388 24.4962L28.7431 24.5031L29.3822 24.1107ZM30.1496 24.8857L29.7293 25.5069L29.7383 25.5129L29.7474 25.5188L30.1496 24.8857ZM31.3774 25.4607L31.1303 26.1688L31.3774 25.4607ZM33 66.25C51.0873 66.25 65.75 51.5873 65.75 33.5H64.25C64.25 50.7589 50.2589 64.75 33 64.75V66.25ZM0.25 33.5C0.25 51.5873 14.9127 66.25 33 66.25V64.75C15.7411 64.75 1.75 50.7589 1.75 33.5H0.25ZM33 0.75C14.9127 0.75 0.25 15.4127 0.25 33.5H1.75C1.75 16.2411 15.7411 2.25 33 2.25V0.75ZM65.75 33.5C65.75 15.4127 51.0873 0.75 33 0.75V2.25C50.2589 2.25 64.25 16.2411 64.25 33.5H65.75ZM49.75 52.5005V48.5005H48.25V52.5005H49.75ZM17 53.2505H49V51.7505H17V53.2505ZM16.25 48.5005V52.5005H17.75V48.5005H16.25ZM49 47.7505H17V49.2505H49V47.7505ZM32.5367 44.7232V41.822H31.0367V44.7232H32.5367ZM33.8842 43.9732H31.7867V45.4732H33.8842V43.9732ZM33.1342 41.8239V44.7232H34.6342V41.8239H33.1342ZM38.1591 40.2267C36.9599 40.7059 35.5274 40.9941 33.8482 41.0748L33.9202 42.573C35.7255 42.4863 37.3285 42.1739 38.7157 41.6197L38.1591 40.2267ZM41.3953 37.8249C40.6656 38.8468 39.6019 39.6534 38.1604 40.2262L38.7143 41.6202C40.3765 40.9597 41.6916 39.9912 42.6161 38.6965L41.3953 37.8249ZM42.5091 34.0942C42.5013 35.5779 42.1205 36.8093 41.3953 37.8249L42.6161 38.6965C43.5451 37.3954 43.9999 35.8519 44.0091 34.1022L42.5091 34.0942ZM42.0314 31.6158C42.3374 32.3381 42.5013 33.1638 42.5091 34.1044L44.0091 34.092C43.9999 32.9826 43.8056 31.9583 43.4125 31.0306L42.0314 31.6158ZM40.6641 29.6853C41.2717 30.2495 41.7247 30.892 42.0314 31.6158L43.4125 31.0306C43.02 30.1044 42.4413 29.2885 41.6847 28.5861L40.6641 29.6853ZM38.3545 28.1797C39.2918 28.6103 40.0561 29.1137 40.6606 29.6821L41.6881 28.5893C40.9455 27.8911 40.0386 27.3027 38.9807 26.8167L38.3545 28.1797ZM35.0843 27.1319C36.3366 27.3976 37.4238 27.7484 38.3523 28.1787L38.9829 26.8177C37.9333 26.3313 36.7354 25.9488 35.3956 25.6645L35.0843 27.1319ZM33.7216 26.8292L35.0773 27.1304L35.4026 25.666L34.0468 25.3649L33.7216 26.8292ZM33.1342 20.7555V26.0971H34.6342V20.7555H33.1342ZM36.1605 20.8684C35.5679 20.4081 34.831 20.1355 33.9923 20.0133L33.7761 21.4977C34.428 21.5926 34.9019 21.7901 35.2402 22.053L36.1605 20.8684ZM37.5854 23.5287C37.4826 22.4234 37.0105 21.5098 36.1521 20.862L35.2486 22.0594C35.7374 22.4283 36.0242 22.9397 36.0919 23.6677L37.5854 23.5287ZM42.901 22.8482H36.8386V24.3482H42.901V22.8482ZM41.0159 19.8218C41.7518 20.897 42.1354 22.1495 42.151 23.6062L43.651 23.5902C43.6325 21.8636 43.172 20.3161 42.2537 18.9746L41.0159 19.8218ZM37.8387 17.2711C39.2282 17.8884 40.2766 18.7417 41.0159 19.8218L42.2537 18.9746C41.3389 17.638 40.0596 16.6164 38.4477 15.9003L37.8387 17.2711ZM33.8393 16.3518C35.3683 16.4434 36.6958 16.7541 37.8341 17.269L38.4523 15.9024C37.1196 15.2995 35.6077 14.9551 33.9291 14.8545L33.8393 16.3518ZM33.1342 12.7232V15.6031H34.6342V12.7232H33.1342ZM31.7867 13.4732H33.8842V11.9732H31.7867V13.4732ZM32.5367 15.607V12.7232H31.0367V15.607H32.5367ZM27.8493 17.2623C29.0274 16.7562 30.3532 16.4508 31.8348 16.3555L31.7386 14.8586C30.1083 14.9634 28.6118 15.3022 27.2572 15.8841L27.8493 17.2623ZM24.5119 19.8057C25.3005 18.7357 26.4024 17.8839 27.8493 17.2623L27.2572 15.8841C25.6005 16.5958 24.2724 17.6024 23.3044 18.9157L24.5119 19.8057ZM23.3536 23.5192C23.3459 22.0854 23.7364 20.858 24.5119 19.8057L23.3044 18.9157C22.3235 20.2467 21.8443 21.7943 21.8537 23.5272L23.3536 23.5192ZM25.0416 27.5838C23.9214 26.6035 23.3459 25.28 23.3536 23.5265L21.8536 23.5199C21.8443 25.6498 22.5648 27.4096 24.0538 28.7126L25.0416 27.5838ZM30.0706 29.8789C27.8838 29.3887 26.2235 28.6105 25.0396 27.582L24.0558 28.7144C25.481 29.9525 27.3933 30.816 29.7426 31.3425L30.0706 29.8789ZM31.9537 30.3088L30.0736 29.8795L29.7396 31.3419L31.6197 31.7712L31.9537 30.3088ZM32.5367 36.6777V31.04H31.0367V36.6777H32.5367ZM30.0371 37.007C30.5499 37.2123 31.1039 37.349 31.6947 37.422L31.8786 35.9333C31.4008 35.8743 30.9742 35.7664 30.5946 35.6144L30.0371 37.007ZM28.0598 35.5024C28.5517 36.1775 29.2199 36.6758 30.0342 37.0058L30.5975 35.6156C30.0135 35.3789 29.5817 35.0439 29.2722 34.619L28.0598 35.5024ZM27.2396 33.0446C27.2977 33.9814 27.5584 34.8142 28.0598 35.5024L29.2722 34.619C28.9721 34.2072 28.7809 33.665 28.7367 32.9518L27.2396 33.0446ZM21.9258 33.7482H27.9881V32.2482H21.9258V33.7482ZM23.9369 37.5344C23.1373 36.3769 22.6999 34.878 22.6757 32.9886L21.1758 33.0078C21.2028 35.1184 21.6948 36.9278 22.7028 38.387L23.9369 37.5344ZM27.3934 40.1879C25.8887 39.5951 24.7477 38.708 23.9369 37.5344L22.7028 38.387C23.6997 39.83 25.091 40.893 26.8435 41.5835L27.3934 40.1879ZM31.8245 41.073C30.1377 40.9879 28.6641 40.6886 27.3934 40.1879L26.8435 41.5835C28.2926 42.1544 29.9311 42.4794 31.7489 42.571L31.8245 41.073ZM33.9908 37.4042C34.4265 37.3417 34.8343 37.2417 35.2103 37.1L34.6812 35.6964C34.422 35.7941 34.1221 35.87 33.7776 35.9195L33.9908 37.4042ZM35.2071 37.1012C35.9066 36.8412 36.4951 36.4606 36.9226 35.9328L35.7571 34.9886C35.5366 35.2608 35.1957 35.5052 34.6845 35.6952L35.2071 37.1012ZM36.9226 35.9328C37.3526 35.402 37.5773 34.7816 37.5885 34.0981L36.0888 34.0733C36.083 34.4231 35.9751 34.7194 35.7571 34.9886L36.9226 35.9328ZM37.5885 34.0725C37.5771 33.4248 37.3659 32.8389 36.9431 32.3548L35.8134 33.3416C35.9874 33.5409 36.0831 33.7799 36.0888 34.0989L37.5885 34.0725ZM36.9489 32.3616C36.544 31.8867 35.9635 31.5282 35.2765 31.2522L34.7174 32.6442C35.2752 32.8682 35.6156 33.1097 35.8075 33.3348L36.9489 32.3616ZM35.2878 31.2569C34.934 31.108 34.5367 30.9689 34.0983 30.8383L33.6701 32.2759C34.0683 32.3945 34.4127 32.5161 34.706 32.6395L35.2878 31.2569ZM33.1342 31.5571V36.6618H34.6342V31.5571H33.1342ZM32.5367 25.594V20.7544H31.0367V25.594H32.5367ZM31.6816 20.0118C31.2697 20.0701 30.8855 20.1635 30.5344 20.2975L31.0694 21.6989C31.2978 21.6117 31.5702 21.5425 31.8917 21.497L31.6816 20.0118ZM30.5344 20.2975C29.8922 20.5427 29.351 20.9041 28.9724 21.413L30.1758 22.3084C30.3428 22.084 30.6202 21.8704 31.0694 21.6989L30.5344 20.2975ZM28.9774 21.4063C28.6042 21.8964 28.4135 22.4646 28.4021 23.0845L29.9019 23.1119C29.9076 22.7985 29.9982 22.5417 30.1708 22.3151L28.9774 21.4063ZM28.4027 23.0649C28.3802 23.5723 28.4818 24.0566 28.7348 24.4892L30.0297 23.7321C29.9416 23.5814 29.8897 23.3908 29.9013 23.1315L28.4027 23.0649ZM28.7431 24.5031C28.9868 24.9001 29.3235 25.2323 29.7293 25.5069L30.5699 24.2645C30.3106 24.0891 30.1358 23.9046 30.0214 23.7183L28.7431 24.5031ZM29.7474 25.5188C30.1475 25.7729 30.6114 25.9877 31.1303 26.1688L31.6246 24.7526C31.1885 24.6004 30.8339 24.4318 30.5518 24.2526L29.7474 25.5188ZM31.1303 26.1688C31.2723 26.2184 31.4184 26.2659 31.5686 26.3116L32.0048 24.8764C31.8731 24.8364 31.7463 24.7951 31.6246 24.7526L31.1303 26.1688Z" fill="#2E1E00"/>
<path fill-rule="evenodd" clip-rule="evenodd" d="M86 87.5C103.673 87.5 118 73.1731 118 55.5C118 37.8269 103.673 23.5 86 23.5C68.3269 23.5 54 37.8269 54 55.5C54 73.1731 68.3269 87.5 86 87.5ZM94.4562 55.4706C94.4562 59.6047 91.1048 62.956 86.9707 62.956C82.8367 62.956 79.4853 59.6047 79.4853 55.4706C79.4853 51.3365 82.8367 47.9852 86.9707 47.9852C91.1048 47.9852 94.4562 51.3365 94.4562 55.4706ZM101.942 55.4706C101.942 58.263 101.177 60.8769 99.8459 63.1143L104.999 68.0655L99.813 73.4632L94.5353 68.3925C92.3155 69.6948 89.7303 70.4414 86.9707 70.4414C83.9699 70.4414 81.1753 69.5585 78.8324 68.0383L73.1861 73.4632L68 68.0655L73.7641 62.5274C72.6383 60.4249 71.9999 58.0223 71.9999 55.4706C71.9999 52.9248 72.6354 50.5274 73.7563 48.4284L68 42.8978L73.1861 37.5L78.8188 42.9118C81.1644 41.3861 83.9641 40.4998 86.9707 40.4998C89.7362 40.4998 92.3266 41.2496 94.5495 42.5571L99.813 37.5L104.999 42.8978L99.8542 47.8409C101.18 50.0752 101.942 52.684 101.942 55.4706Z" fill="#73B7EA"/>
<path d="M99.8459 63.1143L99.2013 62.7308L98.8969 63.2426L99.3263 63.6551L99.8459 63.1143ZM104.999 68.0655L105.54 68.5851L106.06 68.0442L105.519 67.5246L104.999 68.0655ZM99.813 73.4632L99.2934 74.0041L99.8342 74.5237L100.354 73.9828L99.813 73.4632ZM94.5353 68.3925L95.0549 67.8517L94.6455 67.4583L94.1558 67.7456L94.5353 68.3925ZM78.8324 68.0383L79.2407 67.4091L78.7417 67.0854L78.3128 67.4975L78.8324 68.0383ZM73.1861 73.4632L72.6453 73.9828L73.1649 74.5237L73.7057 74.0041L73.1861 73.4632ZM68 68.0655L67.4804 67.5246L66.9396 68.0442L67.4592 68.5851L68 68.0655ZM73.7641 62.5274L74.2837 63.0682L74.6936 62.6744L74.4253 62.1734L73.7641 62.5274ZM73.7563 48.4284L74.4179 48.7817L74.6853 48.2809L74.2759 47.8875L73.7563 48.4284ZM68 42.8978L67.4592 42.3782L66.9396 42.919L67.4804 43.4386L68 42.8978ZM73.1861 37.5L73.7057 36.9592L73.1649 36.4396L72.6453 36.9804L73.1861 37.5ZM78.8188 42.9118L78.2992 43.4526L78.7285 43.8652L79.2277 43.5405L78.8188 42.9118ZM94.5495 42.5571L94.1693 43.2035L94.6593 43.4917L95.0692 43.0979L94.5495 42.5571ZM99.813 37.5L100.354 36.9804L99.8342 36.4396L99.2934 36.9592L99.813 37.5ZM104.999 42.8978L105.519 43.4386L106.06 42.919L105.54 42.3782L104.999 42.8978ZM99.8542 47.8409L99.3346 47.3001L98.9057 47.7122L99.2093 48.2237L99.8542 47.8409ZM117.25 55.5C117.25 72.7589 103.259 86.75 86 86.75V88.25C104.087 88.25 118.75 73.5873 118.75 55.5H117.25ZM86 24.25C103.259 24.25 117.25 38.2411 117.25 55.5H118.75C118.75 37.4127 104.087 22.75 86 22.75V24.25ZM54.75 55.5C54.75 38.2411 68.7411 24.25 86 24.25V22.75C67.9127 22.75 53.25 37.4127 53.25 55.5H54.75ZM86 86.75C68.7411 86.75 54.75 72.7589 54.75 55.5H53.25C53.25 73.5873 67.9127 88.25 86 88.25V86.75ZM86.9707 63.706C91.519 63.706 95.2062 60.0189 95.2062 55.4706H93.7062C93.7062 59.1905 90.6906 62.206 86.9707 62.206V63.706ZM78.7353 55.4706C78.7353 60.0189 82.4225 63.706 86.9707 63.706V62.206C83.2509 62.206 80.2353 59.1905 80.2353 55.4706H78.7353ZM86.9707 47.2352C82.4225 47.2352 78.7353 50.9223 78.7353 55.4706H80.2353C80.2353 51.7507 83.2509 48.7352 86.9707 48.7352V47.2352ZM95.2062 55.4706C95.2062 50.9223 91.519 47.2352 86.9707 47.2352V48.7352C90.6906 48.7352 93.7062 51.7507 93.7062 55.4706H95.2062ZM100.49 63.4978C101.889 61.1476 102.692 58.4017 102.692 55.4706H101.192C101.192 58.1244 100.465 60.6062 99.2013 62.7308L100.49 63.4978ZM105.519 67.5246L100.366 62.5735L99.3263 63.6551L104.479 68.6063L105.519 67.5246ZM100.354 73.9828L105.54 68.5851L104.458 67.5458L99.2722 72.9436L100.354 73.9828ZM94.0157 68.9333L99.2934 74.0041L100.333 72.9224L95.0549 67.8517L94.0157 68.9333ZM86.9707 71.1914C89.8673 71.1914 92.5831 70.4074 94.9148 69.0394L94.1558 67.7456C92.048 68.9822 89.5933 69.6914 86.9707 69.6914V71.1914ZM78.4242 68.6674C80.8849 70.2642 83.8207 71.1914 86.9707 71.1914V69.6914C84.1191 69.6914 81.4656 68.8529 79.2407 67.4091L78.4242 68.6674ZM73.7057 74.0041L79.3521 68.5791L78.3128 67.4975L72.6665 72.9224L73.7057 74.0041ZM67.4592 68.5851L72.6453 73.9828L73.7269 72.9436L68.5408 67.5458L67.4592 68.5851ZM73.2445 61.9866L67.4804 67.5246L68.5196 68.6063L74.2837 63.0682L73.2445 61.9866ZM71.2499 55.4706C71.2499 58.1488 71.9203 60.6727 73.1029 62.8814L74.4253 62.1734C73.3564 60.1771 72.7499 57.8958 72.7499 55.4706H71.2499ZM73.0948 48.0751C71.9172 50.2801 71.2499 52.7985 71.2499 55.4706H72.7499C72.7499 53.051 73.3536 50.7746 74.4179 48.7817L73.0948 48.0751ZM67.4804 43.4386L73.2367 48.9692L74.2759 47.8875L68.5196 42.3569L67.4804 43.4386ZM72.6453 36.9804L67.4592 42.3782L68.5408 43.4174L73.7269 38.0196L72.6453 36.9804ZM79.3384 42.371L73.7057 36.9592L72.6665 38.0408L78.2992 43.4526L79.3384 42.371ZM86.9707 39.7498C83.8145 39.7498 80.8735 40.6807 78.4098 42.2831L79.2277 43.5405C81.4553 42.0916 84.1136 41.2498 86.9707 41.2498V39.7498ZM94.9298 41.9106C92.5947 40.5372 89.8735 39.7498 86.9707 39.7498V41.2498C89.5989 41.2498 92.0584 41.962 94.1693 43.2035L94.9298 41.9106ZM99.2934 36.9592L94.0299 42.0162L95.0692 43.0979L100.333 38.0408L99.2934 36.9592ZM105.54 42.3782L100.354 36.9804L99.2722 38.0196L104.458 43.4174L105.54 42.3782ZM100.374 48.3817L105.519 43.4386L104.479 42.3569L99.3346 47.3001L100.374 48.3817ZM102.692 55.4706C102.692 52.5456 101.892 49.8051 100.499 47.4581L99.2093 48.2237C100.468 50.3453 101.192 52.8224 101.192 55.4706H102.692Z" fill="#2E1E00"/>
<path fill-rule="evenodd" clip-rule="evenodd" d="M169 33.5C169 51.1731 154.673 65.5 137 65.5C119.327 65.5 105 51.1731 105 33.5C105 15.8269 119.327 1.5 137 1.5C154.673 1.5 169 15.8269 169 33.5ZM121.38 31.384L125.765 39.6049C126.454 40.8966 128.251 41.0349 129.13 39.8638L143.307 20.961C143.521 20.6752 143.655 20.3371 143.694 19.9819L143.995 17.2796C144.173 15.679 142.482 14.5353 141.062 15.2958L123.307 24.8076C122.83 25.0631 122.477 25.5009 122.328 26.0211L121.222 29.8934C121.08 30.392 121.136 30.9265 121.38 31.384ZM148.235 27.2L152.62 35.4209C152.864 35.8785 152.92 36.4129 152.778 36.9115L151.672 40.7838C151.523 41.304 151.17 41.7418 150.693 41.9973L132.938 51.5092C131.518 52.2697 129.827 51.126 130.005 49.5253L130.306 46.8231C130.345 46.4679 130.479 46.1298 130.693 45.8439L144.87 26.9412C145.749 25.7701 147.546 25.9084 148.235 27.2Z" fill="#F9A058"/>
<path d="M125.765 39.6049L125.103 39.9579V39.9579L125.765 39.6049ZM121.38 31.384L122.042 31.0311L121.38 31.384ZM129.13 39.8638L128.53 39.4138L129.13 39.8638ZM143.307 20.961L142.707 20.511V20.511L143.307 20.961ZM143.694 19.9819L144.44 20.0647L144.44 20.0647L143.694 19.9819ZM143.995 17.2796L143.249 17.1968L143.249 17.1968L143.995 17.2796ZM141.062 15.2958L140.708 14.6347L140.708 14.6347L141.062 15.2958ZM123.307 24.8076L123.661 25.4687L123.307 24.8076ZM122.328 26.0211L123.05 26.2272V26.2272L122.328 26.0211ZM121.222 29.8934L121.943 30.0995L121.943 30.0995L121.222 29.8934ZM152.62 35.4209L151.958 35.7739L151.958 35.7739L152.62 35.4209ZM148.235 27.2L148.897 26.8471L148.235 27.2ZM152.778 36.9115L153.499 37.1176L152.778 36.9115ZM151.672 40.7838L150.95 40.5778L150.95 40.5778L151.672 40.7838ZM150.693 41.9973L151.047 42.6584L151.047 42.6584L150.693 41.9973ZM132.938 51.5092L132.583 50.848L132.938 51.5092ZM130.005 49.5253L130.751 49.6082L130.005 49.5253ZM130.306 46.8231L129.56 46.7402L130.306 46.8231ZM130.693 45.8439L130.093 45.3939V45.3939L130.693 45.8439ZM144.87 26.9412L145.47 27.3912V27.3912L144.87 26.9412ZM137 66.25C155.087 66.25 169.75 51.5873 169.75 33.5H168.25C168.25 50.7589 154.259 64.75 137 64.75V66.25ZM104.25 33.5C104.25 51.5873 118.913 66.25 137 66.25V64.75C119.741 64.75 105.75 50.7589 105.75 33.5H104.25ZM137 0.75C118.913 0.75 104.25 15.4127 104.25 33.5H105.75C105.75 16.2411 119.741 2.25 137 2.25V0.75ZM169.75 33.5C169.75 15.4127 155.087 0.75 137 0.75V2.25C154.259 2.25 168.25 16.2411 168.25 33.5H169.75ZM126.427 39.252L122.042 31.0311L120.719 31.737L125.103 39.9579L126.427 39.252ZM128.53 39.4138C127.981 40.1457 126.857 40.0593 126.427 39.252L125.103 39.9579C126.05 41.7339 128.522 41.924 129.73 40.3138L128.53 39.4138ZM142.707 20.511L128.53 39.4138L129.73 40.3138L143.907 21.411L142.707 20.511ZM142.949 19.8991C142.924 20.1211 142.841 20.3324 142.707 20.511L143.907 21.411C144.201 21.018 144.386 20.5531 144.44 20.0647L142.949 19.8991ZM143.249 17.1968L142.949 19.8991L144.44 20.0647L144.74 17.3624L143.249 17.1968ZM141.417 15.9569C142.304 15.4816 143.36 16.1964 143.249 17.1968L144.74 17.3625C144.985 15.1615 142.66 13.589 140.708 14.6347L141.417 15.9569ZM123.661 25.4687L141.417 15.9569L140.708 14.6347L122.953 24.1465L123.661 25.4687ZM123.05 26.2272C123.142 25.9021 123.363 25.6284 123.661 25.4687L122.953 24.1465C122.297 24.4978 121.812 25.0998 121.607 25.8151L123.05 26.2272ZM121.943 30.0995L123.05 26.2272L121.607 25.8151L120.501 29.6874L121.943 30.0995ZM122.042 31.0311C121.89 30.7451 121.854 30.4111 121.943 30.0995L120.501 29.6874C120.305 30.373 120.383 31.1078 120.719 31.737L122.042 31.0311ZM153.281 35.068L148.897 26.8471L147.573 27.553L151.958 35.7739L153.281 35.068ZM153.499 37.1176C153.695 36.432 153.617 35.6971 153.281 35.068L151.958 35.7739C152.11 36.0598 152.146 36.3939 152.057 36.7055L153.499 37.1176ZM152.393 40.9898L153.499 37.1176L152.057 36.7055L150.95 40.5778L152.393 40.9898ZM151.047 42.6584C151.703 42.3071 152.188 41.7052 152.393 40.9898L150.95 40.5778C150.858 40.9029 150.637 41.1765 150.339 41.3362L151.047 42.6584ZM133.292 52.1703L151.047 42.6584L150.339 41.3362L132.583 50.848L133.292 52.1703ZM129.26 49.4425C129.015 51.6434 131.34 53.216 133.292 52.1703L132.583 50.848C131.696 51.3234 130.64 50.6086 130.751 49.6082L129.26 49.4425ZM129.56 46.7402L129.26 49.4425L130.751 49.6082L131.051 46.9059L129.56 46.7402ZM130.093 45.3939C129.799 45.787 129.614 46.2519 129.56 46.7402L131.051 46.9059C131.076 46.6839 131.159 46.4726 131.293 46.2939L130.093 45.3939ZM144.27 26.4912L130.093 45.3939L131.293 46.2939L145.47 27.3912L144.27 26.4912ZM148.897 26.8471C147.95 25.0711 145.478 24.881 144.27 26.4912L145.47 27.3912C146.019 26.6593 147.143 26.7457 147.573 27.553L148.897 26.8471Z" fill="#2E1E00"/>
<path fill-rule="evenodd" clip-rule="evenodd" d="M190.919 28.0614V23.5C207.699 24.4924 221 38.4146 221 55.4434C221 72.4723 207.699 86.3944 190.919 87.3868V82.0856L215 65.7709V44.376L190.919 28.0614ZM207.703 63.6569L188.999 79.144L170.297 63.6579V46.491L189.001 31.004L207.703 46.49V63.6569ZM187.081 23.5V28.0624L163 44.377V65.7719L187.081 82.0865V87.3868C170.301 86.3944 157 72.4723 157 55.4434C157 38.4146 170.301 24.4924 187.081 23.5ZM191.533 50.5176C191.754 50.9859 192.158 51.398 192.675 51.398H195.317C195.873 51.398 196.332 50.9413 196.244 50.3919C196.112 49.5604 195.822 48.8061 195.373 48.1292C194.75 47.1888 193.874 46.4591 192.744 45.9403C192.349 45.7556 191.928 45.6034 191.483 45.4836V42.5002C191.483 41.9479 191.036 41.5002 190.483 41.5002H188.101C187.549 41.5002 187.101 41.9479 187.101 42.5002V45.2689C186.262 45.392 185.484 45.6125 184.768 45.9306C183.599 46.4494 182.684 47.1726 182.022 48.1C181.361 49.0275 181.033 50.1074 181.04 51.3396C181.033 52.8508 181.521 54.0507 182.504 54.9392C183.487 55.8213 184.832 56.4601 186.54 56.8557L188.602 57.3422C189.321 57.5108 189.912 57.6956 190.374 57.8967C190.843 58.0913 191.19 58.3247 191.414 58.5971C191.639 58.8631 191.755 59.1841 191.761 59.5603C191.755 59.9624 191.629 60.3191 191.385 60.6304C191.141 60.9417 190.791 61.1849 190.335 61.3601C189.886 61.5352 189.34 61.6227 188.698 61.6227C187.998 61.6227 187.381 61.5125 186.848 61.292C186.322 61.0714 185.908 60.7472 185.606 60.3191C185.463 60.116 185.349 59.8888 185.265 59.6375C185.097 59.1358 184.682 58.7139 184.153 58.7139H181.542C180.985 58.7139 180.528 59.1707 180.593 59.724C180.723 60.8364 181.052 61.7871 181.579 62.5761C182.26 63.5944 183.214 64.3532 184.44 64.8526C185.238 65.1773 186.125 65.3964 187.101 65.51V68.2529C187.101 68.8052 187.549 69.2529 188.101 69.2529H190.483C191.036 69.2529 191.483 68.8052 191.483 68.2529V65.3364C192.014 65.2219 192.508 65.0704 192.965 64.8818C194.134 64.4019 195.03 63.7111 195.653 62.8096C196.276 61.9081 196.59 60.8282 196.597 59.57C196.59 58.7723 196.455 58.0523 196.192 57.4103C195.929 56.7682 195.54 56.2007 195.027 55.7078C194.519 55.2149 193.89 54.79 193.139 54.4333C192.394 54.0766 191.533 53.7912 190.557 53.5772L188.862 53.1881C188.412 53.0908 188.008 52.9773 187.648 52.8476C187.288 52.7179 186.98 52.5687 186.723 52.4001C186.473 52.2249 186.28 52.0239 186.145 51.7969C186.017 51.5699 185.959 51.3072 185.972 51.0089C185.978 50.6457 186.084 50.3246 186.29 50.0457C186.495 49.7604 186.803 49.5366 187.214 49.3745C187.625 49.2123 188.139 49.1313 188.756 49.1313C189.687 49.1313 190.403 49.3323 190.904 49.7344C191.179 49.9488 191.389 50.2099 191.533 50.5176Z" fill="#FA6456"/>
<path d="M190.919 23.5L190.963 22.7513L190.169 22.7043V23.5H190.919ZM190.919 28.0614H190.169V28.4592L190.498 28.6824L190.919 28.0614ZM190.919 87.3868H190.169V88.1825L190.963 88.1355L190.919 87.3868ZM190.919 82.0856L190.498 81.4646L190.169 81.6878V82.0856H190.919ZM215 65.7709L215.421 66.3919L215.75 66.1687V65.7709H215ZM215 44.376H215.75V43.9782L215.421 43.7551L215 44.376ZM188.999 79.144L188.521 79.7217L188.999 80.1177L189.478 79.7217L188.999 79.144ZM207.703 63.6569L208.181 64.2346L208.453 64.0097V63.6569H207.703ZM170.297 63.6579H169.547V64.0106L169.819 64.2356L170.297 63.6579ZM170.297 46.491L169.819 45.9134L169.547 46.1383V46.491H170.297ZM189.001 31.004L189.479 30.4263L189.001 30.0302L188.522 30.4263L189.001 31.004ZM207.703 46.49H208.453V46.1373L208.181 45.9124L207.703 46.49ZM187.081 28.0624L187.502 28.6833L187.831 28.4602V28.0624H187.081ZM187.081 23.5H187.831V22.7043L187.037 22.7513L187.081 23.5ZM163 44.377L162.579 43.7561L162.25 43.9792V44.377H163ZM163 65.7719H162.25V66.1697L162.579 66.3928L163 65.7719ZM187.081 82.0865H187.831V81.6887L187.502 81.4656L187.081 82.0865ZM187.081 87.3868L187.037 88.1355L187.831 88.1825V87.3868H187.081ZM191.533 50.5176L192.212 50.1983L191.533 50.5176ZM196.244 50.3919L195.504 50.5097V50.5097L196.244 50.3919ZM195.373 48.1292L195.999 47.715L195.999 47.715L195.373 48.1292ZM192.744 45.9403L192.426 46.6197L192.431 46.6219L192.744 45.9403ZM191.483 45.4836H190.733V46.0585L191.288 46.2079L191.483 45.4836ZM187.101 45.2689L187.21 46.0109L187.851 45.9169V45.2689H187.101ZM184.768 45.9306L185.072 46.616L185.072 46.616L184.768 45.9306ZM182.022 48.1L181.412 47.6645L182.022 48.1ZM181.04 51.3396L181.79 51.3428L181.79 51.3357L181.04 51.3396ZM182.504 54.9392L182.001 55.4955L182.003 55.4973L182.504 54.9392ZM186.54 56.8557L186.712 56.1258L186.709 56.1251L186.54 56.8557ZM188.602 57.3422L188.429 58.0721L188.43 58.0724L188.602 57.3422ZM190.374 57.8967L190.075 58.5846L190.086 58.5894L190.374 57.8967ZM191.414 58.5971L190.836 59.0745L190.842 59.0813L191.414 58.5971ZM191.761 59.5603L192.511 59.5723L192.511 59.5599L192.511 59.5475L191.761 59.5603ZM190.335 61.3601L190.067 60.6599L190.063 60.6612L190.335 61.3601ZM186.848 61.292L186.559 61.9838L186.562 61.985L186.848 61.292ZM185.606 60.3191L184.993 60.7513L184.993 60.7513L185.606 60.3191ZM185.265 59.6375L184.554 59.8751L185.265 59.6375ZM180.593 59.724L181.337 59.6368L180.593 59.724ZM181.579 62.5761L180.956 62.993L181.579 62.5761ZM184.44 64.8526L184.723 64.158L184.723 64.158L184.44 64.8526ZM187.101 65.51H187.851V64.8422L187.188 64.7651L187.101 65.51ZM191.483 65.3364L191.325 64.6033L190.733 64.7309V65.3364H191.483ZM192.965 64.8818L192.68 64.188L192.679 64.1886L192.965 64.8818ZM195.653 62.8096L196.27 63.236L195.653 62.8096ZM196.597 59.57L197.347 59.5738L197.347 59.564L196.597 59.57ZM196.192 57.4103L195.498 57.6948V57.6948L196.192 57.4103ZM195.027 55.7078L194.504 56.2457L194.507 56.249L195.027 55.7078ZM193.139 54.4333L192.815 55.1098L192.817 55.1108L193.139 54.4333ZM190.557 53.5772L190.389 54.3082L190.396 54.3098L190.557 53.5772ZM188.862 53.1881L189.029 52.457L189.02 52.455L188.862 53.1881ZM187.648 52.8476L187.393 53.5531H187.393L187.648 52.8476ZM186.723 52.4001L186.293 53.0147L186.302 53.021L186.312 53.027L186.723 52.4001ZM186.145 51.7969L185.492 52.1662L185.496 52.1731L185.5 52.1799L186.145 51.7969ZM185.972 51.0089L186.721 51.0411L186.722 51.0316L186.722 51.0221L185.972 51.0089ZM186.29 50.0457L186.894 50.4907L186.898 50.484L186.29 50.0457ZM187.214 49.3745L186.939 48.6768H186.939L187.214 49.3745ZM190.904 49.7344L190.434 50.3193L190.443 50.3258L190.904 49.7344ZM190.169 23.5V28.0614H191.669V23.5H190.169ZM221.75 55.4434C221.75 38.0152 208.137 23.767 190.963 22.7513L190.875 24.2487C207.26 25.2178 220.25 38.8139 220.25 55.4434H221.75ZM190.963 88.1355C208.137 87.1198 221.75 72.8716 221.75 55.4434H220.25C220.25 72.0729 207.26 85.669 190.875 86.6381L190.963 88.1355ZM190.169 82.0856V87.3868H191.669V82.0856H190.169ZM214.579 65.15L190.498 81.4646L191.34 82.7065L215.421 66.3919L214.579 65.15ZM214.25 44.376V65.7709H215.75V44.376H214.25ZM190.498 28.6824L214.579 44.997L215.421 43.7551L191.34 27.4405L190.498 28.6824ZM189.478 79.7217L208.181 64.2346L207.224 63.0793L188.521 78.5663L189.478 79.7217ZM169.819 64.2356L188.521 79.7217L189.478 78.5663L170.776 63.0803L169.819 64.2356ZM169.547 46.491V63.6579H171.047V46.491H169.547ZM188.522 30.4263L169.819 45.9134L170.776 47.0687L189.479 31.5816L188.522 30.4263ZM208.181 45.9124L189.479 30.4263L188.522 31.5816L207.224 47.0677L208.181 45.9124ZM208.453 63.6569V46.49H206.953V63.6569H208.453ZM187.831 28.0624V23.5H186.331V28.0624H187.831ZM163.421 44.9979L187.502 28.6833L186.66 27.4415L162.579 43.7561L163.421 44.9979ZM163.75 65.7719V44.377H162.25V65.7719H163.75ZM187.502 81.4656L163.421 65.151L162.579 66.3928L186.66 82.7075L187.502 81.4656ZM187.831 87.3868V82.0865H186.331V87.3868H187.831ZM156.25 55.4434C156.25 72.8716 169.863 87.1198 187.037 88.1355L187.125 86.6381C170.74 85.669 157.75 72.0729 157.75 55.4434H156.25ZM187.037 22.7513C169.863 23.767 156.25 38.0152 156.25 55.4434H157.75C157.75 38.8139 170.74 25.2178 187.125 24.2487L187.037 22.7513ZM192.675 50.648C192.627 50.648 192.562 50.6316 192.474 50.5581C192.381 50.4804 192.286 50.3555 192.212 50.1983L190.855 50.8369C191.126 51.4137 191.728 52.148 192.675 52.148V50.648ZM195.317 50.648H192.675V52.148H195.317V50.648ZM195.504 50.5097C195.507 50.5282 195.504 50.5392 195.502 50.5469C195.499 50.5561 195.492 50.5696 195.478 50.585C195.447 50.6176 195.39 50.648 195.317 50.648V52.148C196.252 52.148 197.157 51.3565 196.985 50.274L195.504 50.5097ZM194.748 48.5434C195.135 49.1276 195.388 49.7801 195.504 50.5097L196.985 50.274C196.837 49.3406 196.508 48.4847 195.999 47.715L194.748 48.5434ZM192.431 46.6219C193.447 47.0886 194.21 47.7312 194.748 48.5434L195.999 47.715C195.291 46.6464 194.3 45.8297 193.057 45.2587L192.431 46.6219ZM191.288 46.2079C191.694 46.3169 192.073 46.4545 192.426 46.6197L193.061 45.2609C192.624 45.0567 192.163 44.8898 191.678 44.7594L191.288 46.2079ZM190.733 42.5002V45.4836H192.233V42.5002H190.733ZM190.483 42.2502C190.621 42.2502 190.733 42.3621 190.733 42.5002H192.233C192.233 41.5337 191.45 40.7502 190.483 40.7502V42.2502ZM188.101 42.2502H190.483V40.7502H188.101V42.2502ZM187.851 42.5002C187.851 42.3621 187.963 42.2502 188.101 42.2502V40.7502C187.135 40.7502 186.351 41.5337 186.351 42.5002H187.851ZM187.851 45.2689V42.5002H186.351V45.2689H187.851ZM185.072 46.616C185.721 46.3279 186.433 46.125 187.21 46.0109L186.993 44.5268C186.091 44.659 185.247 44.8972 184.463 45.2451L185.072 46.616ZM182.633 48.5355C183.207 47.7302 184.01 47.0873 185.072 46.616L184.463 45.2451C183.187 45.8115 182.16 46.6149 181.412 47.6645L182.633 48.5355ZM181.79 51.3357C181.784 50.2473 182.071 49.3241 182.633 48.5355L181.412 47.6645C180.651 48.7308 180.283 49.9674 180.29 51.3435L181.79 51.3357ZM183.007 54.3829C182.206 53.6582 181.784 52.6741 181.79 51.3428L180.29 51.3365C180.283 53.0275 180.837 54.4432 182.001 55.4955L183.007 54.3829ZM186.709 56.1251C185.086 55.749 183.867 55.1553 183.005 54.3811L182.003 55.4973C183.106 56.4872 184.578 57.1712 186.371 57.5864L186.709 56.1251ZM188.774 56.6122L186.712 56.1258L186.368 57.5857L188.429 58.0721L188.774 56.6122ZM190.673 57.2089C190.155 56.9837 189.518 56.7866 188.773 56.612L188.43 58.0724C189.124 58.235 189.668 58.4075 190.075 58.5845L190.673 57.2089ZM191.993 58.1198C191.663 57.7207 191.197 57.4263 190.661 57.204L190.086 58.5894C190.488 58.7562 190.716 58.9288 190.836 59.0745L191.993 58.1198ZM192.511 59.5475C192.502 59.0134 192.333 58.5219 191.987 58.113L190.842 59.0813C190.945 59.2042 191.007 59.3548 191.011 59.5731L192.511 59.5475ZM191.976 61.0931C192.322 60.6507 192.502 60.135 192.511 59.5723L191.011 59.5483C191.007 59.7897 190.936 59.9875 190.795 60.1677L191.976 61.0931ZM190.604 62.0602C191.157 61.8478 191.63 61.5336 191.976 61.0931L190.795 60.1677C190.652 60.3498 190.425 60.5221 190.067 60.6599L190.604 62.0602ZM188.698 62.3727C189.404 62.3727 190.048 62.277 190.608 62.0589L190.063 60.6612C189.724 60.7934 189.276 60.8727 188.698 60.8727V62.3727ZM186.562 61.985C187.203 62.2502 187.92 62.3727 188.698 62.3727V60.8727C188.076 60.8727 187.56 60.7747 187.135 60.5989L186.562 61.985ZM184.993 60.7513C185.383 61.3048 185.914 61.7139 186.559 61.9838L187.138 60.6002C186.729 60.429 186.432 60.1895 186.219 59.8869L184.993 60.7513ZM184.554 59.8751C184.659 60.1912 184.805 60.4847 184.993 60.7513L186.219 59.8869C186.12 59.7474 186.039 59.5865 185.976 59.3999L184.554 59.8751ZM184.153 59.4639C184.208 59.4639 184.273 59.4831 184.349 59.5502C184.43 59.6214 184.507 59.7353 184.554 59.8751L185.976 59.3999C185.747 58.7146 185.118 57.9639 184.153 57.9639V59.4639ZM181.542 59.4639H184.153V57.9639H181.542V59.4639ZM181.337 59.6368C181.333 59.5979 181.343 59.5638 181.375 59.5304C181.411 59.4935 181.469 59.4639 181.542 59.4639V57.9639C180.593 57.9639 179.724 58.7577 179.848 59.8113L181.337 59.6368ZM182.203 62.1593C181.752 61.4852 181.456 60.6523 181.337 59.6368L179.848 59.8113C179.989 61.0204 180.351 62.0889 180.956 62.993L182.203 62.1593ZM184.723 64.158C183.623 63.7103 182.793 63.0428 182.203 62.1593L180.956 62.993C181.727 64.146 182.804 64.9962 184.157 65.5472L184.723 64.158ZM187.188 64.7651C186.269 64.6582 185.45 64.4538 184.723 64.158L184.157 65.5472C185.026 65.9008 185.98 66.1347 187.015 66.255L187.188 64.7651ZM187.851 68.2529V65.51H186.351V68.2529H187.851ZM188.101 68.5029C187.963 68.5029 187.851 68.391 187.851 68.2529H186.351C186.351 69.2194 187.135 70.0029 188.101 70.0029V68.5029ZM190.483 68.5029H188.101V70.0029H190.483V68.5029ZM190.733 68.2529C190.733 68.391 190.621 68.5029 190.483 68.5029V70.0029C191.45 70.0029 192.233 69.2194 192.233 68.2529H190.733ZM190.733 65.3364V68.2529H192.233V65.3364H190.733ZM192.679 64.1886C192.267 64.3585 191.817 64.4973 191.325 64.6033L191.641 66.0696C192.212 65.9466 192.749 65.7823 193.251 65.575L192.679 64.1886ZM195.036 62.3833C194.507 63.1479 193.736 63.7546 192.68 64.188L193.25 65.5756C194.532 65.0492 195.552 64.2743 196.27 63.236L195.036 62.3833ZM195.847 59.5662C195.841 60.6965 195.56 61.6237 195.036 62.3833L196.27 63.236C196.991 62.1925 197.34 60.96 197.347 59.5738L195.847 59.5662ZM195.498 57.6948C195.72 58.2363 195.841 58.8597 195.847 59.576L197.347 59.564C197.34 58.6848 197.191 57.8684 196.886 57.1257L195.498 57.6948ZM194.507 56.249C194.948 56.6714 195.276 57.1521 195.498 57.6948L196.886 57.1257C196.582 56.3843 196.133 55.73 195.546 55.1666L194.507 56.249ZM192.817 55.1108C193.507 55.4384 194.065 55.819 194.504 56.2457L195.549 55.1698C194.974 54.6107 194.273 54.1417 193.46 53.7558L192.817 55.1108ZM190.396 54.3098C191.327 54.514 192.131 54.7826 192.815 55.1098L193.462 53.7569C192.656 53.3707 191.739 53.0685 190.718 52.8446L190.396 54.3098ZM188.694 53.9191L190.389 54.3082L190.725 52.8462L189.029 52.4571L188.694 53.9191ZM187.393 53.5531C187.79 53.6961 188.227 53.8181 188.703 53.9211L189.02 52.455C188.597 52.3634 188.225 52.2585 187.902 52.1421L187.393 53.5531ZM186.312 53.027C186.628 53.2346 186.991 53.408 187.393 53.5531L187.902 52.1421C187.585 52.0277 187.332 51.9028 187.135 51.7731L186.312 53.027ZM185.5 52.1799C185.698 52.5119 185.969 52.7881 186.293 53.0147L187.153 51.7854C186.976 51.6618 186.863 51.5359 186.79 51.4138L185.5 52.1799ZM185.222 50.9766C185.205 51.3944 185.285 51.8001 185.492 52.1662L186.798 51.4275C186.748 51.3397 186.713 51.22 186.721 51.0411L185.222 50.9766ZM185.686 49.6008C185.383 50.0113 185.231 50.4849 185.222 50.9956L186.722 51.0221C186.725 50.8064 186.785 50.638 186.893 50.4906L185.686 49.6008ZM186.939 48.6768C186.429 48.8782 185.99 49.1789 185.681 49.6075L186.898 50.484C187.001 50.3418 187.178 50.195 187.49 50.0721L186.939 48.6768ZM188.756 48.3813C188.08 48.3813 187.465 48.4693 186.939 48.6768L187.49 50.0721C187.786 49.9553 188.199 49.8813 188.756 49.8813V48.3813ZM191.373 49.1496C190.691 48.6017 189.783 48.3813 188.756 48.3813V49.8813C189.591 49.8813 190.115 50.0629 190.434 50.3193L191.373 49.1496ZM192.212 50.1983C192.016 49.7813 191.73 49.4279 191.365 49.143L190.443 50.3258C190.627 50.4697 190.761 50.6384 190.855 50.8369L192.212 50.1983Z" fill="#2E1E00"/>
</svg>
