<svg width="21" height="21" viewBox="0 0 21 21" fill="none" xmlns="http://www.w3.org/2000/svg">
<path d="M18.2926 10.7708C18.9319 10.1737 19.4237 9.43612 19.7292 8.61639C20.0346 7.79666 20.1454 6.91715 20.0527 6.04728C19.9601 5.1774 19.6665 4.34099 19.1953 3.60399C18.724 2.867 18.0879 2.24959 17.3371 1.80053C16.5864 1.35148 15.7416 1.08304 14.8693 1.0164C13.9971 0.949765 13.1213 1.08678 12.311 1.41658C11.5008 1.74638 10.7783 2.25998 10.2005 2.91683C9.62275 3.57368 9.20556 4.35582 8.98184 5.20152C8.21469 4.8527 7.37918 4.68007 6.53661 4.69628C5.69404 4.71249 4.86579 4.91712 4.11263 5.29519C3.35946 5.67325 2.7005 6.21514 2.18409 6.8811C1.66768 7.54706 1.30692 8.32021 1.12829 9.14379C0.949651 9.96737 0.957667 10.8205 1.15176 11.6406C1.34584 12.4606 1.72109 13.2268 2.24993 13.883C2.77877 14.5391 3.44779 15.0685 4.20793 15.4324C4.96807 15.7962 5.80003 15.9852 6.64276 15.9856C7.39783 15.9876 8.14541 15.836 8.84008 15.5401C8.94675 16.4426 9.26974 17.306 9.78161 18.057C10.2935 18.8079 10.9791 19.4242 11.7802 19.8534C12.5812 20.2826 13.4741 20.5121 14.3829 20.5223C15.2916 20.5325 16.1894 20.3232 16.9999 19.912C17.8104 19.5009 18.5097 18.9002 19.0383 18.1609C19.5669 17.4217 19.9092 16.5657 20.0361 15.6658C20.163 14.7659 20.0708 13.8486 19.7672 12.992C19.4637 12.1353 18.9578 11.3647 18.2926 10.7455V10.7708Z" fill="#FEFFFA"/>
<path d="M13.9704 20.5414C12.5748 20.5413 11.2207 20.0667 10.1304 19.1954C9.0402 18.3242 8.27864 17.108 7.9708 15.7468C7.12363 16.0081 6.23002 16.0832 5.3511 15.9673C4.47218 15.8513 3.62868 15.5469 2.87828 15.0748C2.12788 14.6027 1.48827 13.9742 1.00322 13.2321C0.518166 12.49 0.19911 11.6519 0.0678528 10.7751C-0.0634044 9.89837 -0.00376183 9.0036 0.242711 8.15201C0.489183 7.30042 0.916674 6.51212 1.49593 5.84099C2.07519 5.16986 2.79256 4.63174 3.59899 4.26345C4.40541 3.89517 5.28185 3.70539 6.16839 3.7071C6.8581 3.70608 7.54295 3.8225 8.19357 4.05138C8.68717 2.69244 9.64363 1.55079 10.8951 0.826804C12.1466 0.10282 13.6131 -0.157205 15.0372 0.0923298C16.4613 0.341865 17.752 1.08501 18.6827 2.19137C19.6135 3.29772 20.1248 4.69658 20.127 6.14238C20.1328 7.66936 19.5634 9.14255 18.5321 10.2687C19.5622 11.3936 20.1315 12.8647 20.127 14.3899C20.1256 16.0219 19.4764 17.5865 18.3219 18.74C17.1675 19.8935 15.6023 20.5414 13.9704 20.5414V20.5414ZM8.36571 14.557C8.45486 14.5579 8.54219 14.5824 8.61886 14.6279C8.68626 14.667 8.74372 14.7212 8.78675 14.7862C8.82978 14.8512 8.85721 14.9252 8.86694 15.0025C8.96433 15.8239 9.25853 16.6096 9.72454 17.2929C10.1905 17.9762 10.8146 18.5369 11.5437 18.9274C12.2728 19.3179 13.0853 19.5267 13.9124 19.536C14.7394 19.5453 15.5564 19.3548 16.2941 18.9808C17.0318 18.6067 17.6683 18.0602 18.1495 17.3875C18.6308 16.7149 18.9425 15.936 19.0584 15.117C19.1742 14.2981 19.0906 13.4633 18.8148 12.6836C18.5389 11.9038 18.079 11.2022 17.474 10.6383C17.4226 10.5909 17.3816 10.5333 17.3535 10.4693C17.3254 10.4052 17.311 10.3361 17.311 10.2662C17.311 10.1962 17.3254 10.1271 17.3535 10.063C17.3816 9.99897 17.4226 9.94145 17.474 9.89404C17.9926 9.41695 18.406 8.83681 18.6876 8.1908C18.9692 7.54478 19.1128 6.84709 19.1093 6.14238C19.122 4.88314 18.6719 3.66308 17.8445 2.71379C17.017 1.7645 15.8698 1.15208 14.6206 0.992808C13.3714 0.833537 12.1072 1.13849 11.0681 1.84978C10.0289 2.56107 9.28704 3.62919 8.98339 4.85133C8.9646 4.92282 8.93039 4.98931 8.88316 5.04617C8.83593 5.10302 8.77682 5.14886 8.70999 5.18043C8.64334 5.21128 8.57079 5.22725 8.49735 5.22725C8.42391 5.22725 8.35135 5.21128 8.2847 5.18043C7.50744 4.82664 6.65426 4.6721 5.80228 4.73084C4.95031 4.78958 4.1264 5.05974 3.40505 5.51686C2.68369 5.97398 2.08763 6.60367 1.67074 7.349C1.25386 8.09433 1.0293 8.93179 1.01736 9.7857C1.00541 10.6396 1.20647 11.4831 1.60234 12.2398C1.99822 12.9965 2.57644 13.6426 3.28473 14.1197C3.99302 14.5968 4.80904 14.8899 5.65904 14.9724C6.50904 15.055 7.36621 14.9244 8.15306 14.5924C8.22092 14.5668 8.29319 14.5547 8.36571 14.557Z" fill="#2E1E00"/>
</svg>
