<svg width="88" height="88" viewBox="0 0 88 88" fill="none" xmlns="http://www.w3.org/2000/svg">
<path d="M88 1.52588e-05C82.2218 1.60165e-05 76.5002 1.13811 71.1619 3.34931C65.8236 5.56052 60.9731 8.80154 56.8873 12.8873C52.8015 16.9731 49.5605 21.8236 47.3493 27.1619C45.1381 32.5003 44 38.2218 44 44C44 49.7782 45.1381 55.4998 47.3493 60.8381C49.5605 66.1764 52.8016 71.0269 56.8873 75.1127C60.9731 79.1985 65.8236 82.4395 71.1619 84.6507C76.5003 86.8619 82.2218 88 88 88L88 44L88 1.52588e-05Z" fill="black"/>
<path d="M44 1.52588e-05C38.2218 1.55114e-05 32.5003 1.13811 27.1619 3.34931C21.8236 5.56052 16.9731 8.80154 12.8873 12.8873C8.80155 16.9731 5.56054 21.8236 3.34934 27.1619C1.13813 32.5003 3.97858e-05 38.2218 4.00384e-05 44C4.02909e-05 49.7782 1.13813 55.4998 3.34934 60.8381C5.56054 66.1764 8.80156 71.0269 12.8873 75.1127C16.9731 79.1985 21.8236 82.4395 27.1619 84.6507C32.5003 86.8619 38.2218 88 44 88L44 44L44 1.52588e-05Z" fill="black"/>
</svg>
