<svg fill="none" height="24" viewBox="0 0 448 24" width="448" xmlns="http://www.w3.org/2000/svg"><path d="m208 12.5h-208" stroke="#d1d5db"/><path d="m224.88 12.256c0-2.256-1.664-3.936-4-3.936-2.32 0-3.984 1.68-3.984 3.936s1.664 3.936 3.984 3.936c2.336 0 4-1.68 4-3.936zm-1.152 0c0 1.68-1.104 3.008-2.848 3.008-1.728 0-2.832-1.328-2.832-3.008s1.104-3.024 2.832-3.024c1.744 0 2.848 1.344 2.848 3.024zm3.493-2.096v5.84h1.088v-3.84c0-2 1.04-2.832 2.192-2.832.288 0 .64.048.768.096l.144-1.024c-.224-.064-.448-.08-.72-.08-1.056 0-1.984.608-2.4 1.472h-.032c0-.32-.032-.88-.064-1.28h-1.04c.048.512.064 1.248.064 1.648z" fill="#4b5563"/><path d="m448 12.5h-208" stroke="#d1d5db"/></svg>