<svg width="256" height="256" viewBox="0 0 256 256" fill="none" xmlns="http://www.w3.org/2000/svg">
<circle cx="128" cy="128" r="128" fill="#FFFBEB"/>
<path d="M116.992 143.871C116.992 135.93 112.118 129.181 104.883 126.056C110.994 123.089 115.156 117.081 115.156 109.448C115.156 101.624 111.535 95.8219 106.138 92.0276C100.791 88.2694 93.7469 86.5 86.7715 86.5C74.2793 86.5 62.1179 92.5858 57.5286 104.767C56.775 106.767 58.0682 108.796 59.9915 109.237L72.829 112.179C74.7615 112.622 76.4622 111.387 77.1012 109.832C78.5337 106.345 81.6795 104.192 85.5839 104.192C87.7944 104.192 89.8511 104.839 91.3211 106C92.7546 107.133 93.6932 108.796 93.6932 111.056C93.6932 112.646 93.3368 113.842 92.7773 114.759C92.2165 115.678 91.398 116.406 90.3403 116.973C88.1756 118.136 85.132 118.564 81.8049 118.564H78.5144C76.5814 118.564 75.0144 120.131 75.0144 122.064V131.255C75.0144 133.188 76.5814 134.755 78.5144 134.755H81.373C85.0459 134.755 88.655 135.309 91.2897 136.677C93.8286 137.996 95.4207 140.025 95.4207 143.228C95.4207 146.28 94.1723 148.24 92.43 149.489C90.6219 150.784 88.1757 151.379 85.7998 151.379C80.3667 151.379 76.5725 148.379 74.8822 144.668C74.1874 143.142 72.4544 141.994 70.5606 142.488L57.6088 145.869C55.729 146.36 54.5175 148.36 55.2304 150.31C60.1857 163.866 73.0216 169.5 86.6636 169.5C93.9215 169.5 101.458 167.564 107.222 163.383C113.037 159.166 116.992 152.694 116.992 143.871ZM196.993 167.462C199.813 167.462 201.475 164.298 199.875 161.976L175.169 126.127C175.052 125.958 175.051 125.734 175.166 125.564L196.482 93.9962C198.051 91.6717 196.386 88.5375 193.581 88.5375H176.996C175.762 88.5375 174.619 89.1874 173.988 90.248L162.239 109.996C162.046 110.321 161.577 110.322 161.382 109.999L149.438 90.2278C148.804 89.1787 147.668 88.5375 146.442 88.5375H129.13C126.312 88.5375 124.65 91.6977 126.246 94.02L147.942 125.588C148.058 125.757 148.06 125.979 147.946 126.149L123.998 162.019C122.446 164.345 124.113 167.462 126.909 167.462H144.063C145.292 167.462 146.432 166.817 147.064 165.763L160.888 142.726C161.08 142.406 161.543 142.402 161.741 142.719L176.158 165.816C176.798 166.84 177.92 167.462 179.127 167.462H196.993Z" fill="#FCD34D" stroke="#2E1E00" stroke-width="3"/>
</svg>
