<svg width="40" height="40" viewBox="0 0 40 40" fill="none" xmlns="http://www.w3.org/2000/svg">
<g clip-path="url(#clip0_1177_10673)">
<path d="M19.877 35.3789C28.4385 35.3789 35.379 28.4384 35.379 19.8769C35.379 11.3154 28.4385 4.37488 19.877 4.37488C11.3155 4.37488 4.375 11.3154 4.375 19.8769C4.375 28.4384 11.3155 35.3789 19.877 35.3789Z" fill="#D1D5DB"/>
<path fill-rule="evenodd" clip-rule="evenodd" d="M20 3.08189C10.6566 3.08189 3.08225 10.6562 3.08225 19.9996C3.08225 29.343 10.6566 36.9174 20 36.9174C29.3434 36.9174 36.9177 29.343 36.9177 19.9996C36.9177 10.6562 29.3434 3.08189 20 3.08189ZM0 19.9996C0 8.95393 8.9543 -0.000366211 20 -0.000366211C31.0457 -0.000366211 40 8.95393 40 19.9996C40 31.0453 31.0457 39.9996 20 39.9996C8.9543 39.9996 0 31.0453 0 19.9996Z" fill="#D1D5DB"/>
<path d="M20.2433 24.4374C20.739 24.3746 21.0998 24.2617 21.3257 24.0985C21.7211 23.8098 21.9187 23.311 21.9187 22.6019C21.9187 22.0622 21.7336 21.6355 21.3634 21.3218C21.1437 21.1398 20.7704 20.9515 20.2433 20.757V24.4374ZM19.3491 14.6011C18.8031 14.6137 18.3984 14.7612 18.1348 15.0435C17.8713 15.3196 17.7395 15.6993 17.7395 16.1825C17.7395 16.7096 17.9372 17.1269 18.3325 17.4344C18.5521 17.6038 18.891 17.7607 19.3491 17.905V14.6011ZM20.2621 28.4283H19.3491V26.5552C18.1129 26.4171 17.1904 26.1473 16.5818 25.7457C15.5087 25.0241 14.9816 23.7942 15.0004 22.056H17.5418C17.6297 22.8466 17.7521 23.3769 17.9089 23.6467C18.1537 24.0671 18.6337 24.3401 19.3491 24.4656V20.4464L18.5866 20.2205C17.3881 19.8691 16.541 19.3796 16.0452 18.7521C15.5558 18.1246 15.311 17.3685 15.311 16.4837C15.311 15.9001 15.4052 15.3698 15.5934 14.8929C15.788 14.416 16.0578 14.005 16.4029 13.6599C16.8484 13.2143 17.3442 12.9069 17.8901 12.7374C18.2227 12.6308 18.709 12.5523 19.3491 12.5021V11.2502H20.2433V12.521C21.2661 12.6025 22.0693 12.8535 22.6529 13.274C23.7134 13.9454 24.2625 15.0341 24.3001 16.5401H21.8246C21.7744 15.9817 21.6803 15.5738 21.5422 15.3165C21.3038 14.871 20.8708 14.6262 20.2433 14.5823V18.1685C21.7367 18.6831 22.7408 19.138 23.2553 19.5334C24.1025 20.1923 24.526 21.121 24.526 22.3195C24.526 23.9008 23.9456 25.0492 22.7847 25.7645C22.0756 26.2038 21.2347 26.4611 20.2621 26.5364V28.4283Z" fill="white"/>
</g>
<defs>
<clipPath id="clip0_1177_10673">
<rect y="0.000305176" width="40" height="40" rx="20" fill="white"/>
</clipPath>
</defs>
</svg>
