<svg width="206" height="206" viewBox="0 0 206 206" fill="none" xmlns="http://www.w3.org/2000/svg">
<path d="M103.135 153.964C103.135 182.183 80.2558 205.062 52.0371 205.062C23.8174 205.062 0.938232 182.183 0.938232 153.964" fill="black"/>
<path d="M52.0371 128.415C52.0371 142.525 40.5966 153.964 26.4872 153.964C12.3778 153.964 0.938232 142.524 0.938232 128.415C0.938232 114.305 12.3787 102.865 26.4872 102.865C40.5966 102.865 52.0371 114.305 52.0371 128.415Z" fill="black"/>
<path d="M103.135 128.415C103.135 142.525 91.6955 153.964 77.5852 153.964C63.4758 153.964 52.0371 142.524 52.0371 128.415C52.0371 114.305 63.4767 102.865 77.5852 102.865C91.6963 102.865 103.135 114.305 103.135 128.415Z" fill="black"/>
<path d="M103.135 51.7669C103.135 79.9865 80.2558 102.866 52.0371 102.866C23.8174 102.866 0.938232 79.9865 0.938232 51.7669" fill="black"/>
<path d="M52.0371 26.2171C52.0371 40.3265 40.5966 51.767 26.4872 51.767C12.3778 51.767 0.938232 40.3265 0.938232 26.2171C0.938232 12.1077 12.3787 0.668152 26.4872 0.668152C40.5966 0.668152 52.0371 12.1077 52.0371 26.2171Z" fill="black"/>
<path d="M103.135 26.2171C103.135 40.3265 91.6955 51.767 77.5852 51.767C63.4758 51.767 52.0371 40.3265 52.0371 26.2171C52.0371 12.1077 63.4767 0.668152 77.5852 0.668152C91.6963 0.668152 103.135 12.1077 103.135 26.2171Z" fill="black"/>
<path d="M205.332 153.964C205.332 182.183 182.453 205.062 154.234 205.062C126.015 205.062 103.136 182.183 103.136 153.964" fill="black"/>
<path d="M154.234 128.415C154.234 142.525 142.794 153.964 128.685 153.964C114.575 153.964 103.136 142.524 103.136 128.415C103.136 114.305 114.576 102.865 128.685 102.865C142.794 102.865 154.234 114.305 154.234 128.415Z" fill="black"/>
<path d="M205.332 128.415C205.332 142.525 193.892 153.964 179.783 153.964C165.673 153.964 154.234 142.524 154.234 128.415C154.234 114.305 165.674 102.865 179.783 102.865C193.892 102.865 205.332 114.305 205.332 128.415Z" fill="black"/>
<path d="M205.332 51.7669C205.332 79.9865 182.453 102.866 154.234 102.866C126.015 102.866 103.136 79.9865 103.136 51.7669" fill="black"/>
<path d="M154.234 26.2171C154.234 40.3265 142.794 51.767 128.685 51.767C114.575 51.767 103.136 40.3265 103.136 26.2171C103.136 12.1077 114.576 0.668152 128.685 0.668152C142.794 0.668152 154.234 12.1077 154.234 26.2171Z" fill="black"/>
<path d="M205.332 26.2171C205.332 40.3265 193.892 51.767 179.783 51.767C165.673 51.767 154.234 40.3265 154.234 26.2171C154.234 12.1077 165.674 0.668152 179.783 0.668152C193.892 0.668152 205.332 12.1077 205.332 26.2171Z" fill="black"/>
</svg>
