<svg width="206" height="207" viewBox="0 0 206 207" fill="none" xmlns="http://www.w3.org/2000/svg">
<path d="M102.635 52.3583C102.635 80.733 79.6858 103.735 51.3768 103.735C23.067 103.735 0.118652 80.733 0.118652 52.3583C0.118652 23.9835 23.067 0.981689 51.3768 0.981689C79.6858 0.981689 102.635 23.9835 102.635 52.3583Z" fill="black"/>
<path d="M205.152 52.3583C205.152 80.733 182.204 103.735 153.895 103.735C125.585 103.735 102.636 80.733 102.636 52.3583C102.636 23.9835 125.585 0.981689 153.895 0.981689C182.204 0.981689 205.152 23.9835 205.152 52.3583Z" fill="black"/>
<path d="M205.152 103.734C205.152 160.483 159.253 206.486 102.635 206.486C46.0159 206.486 0.116699 160.483 0.116699 103.734H205.152Z" fill="black"/>
</svg>
