<svg width="187" height="41" viewBox="0 0 187 41" fill="none" xmlns="http://www.w3.org/2000/svg">
<path fill-rule="evenodd" clip-rule="evenodd" d="M10.4146 16.8909L23.3182 30.0261L36.084 17.0312L46.5509 27.6859L34.3897 40.0654L31.2612 36.9656L40.3772 27.6859L36.084 23.3156L23.3182 36.3106L10.4146 23.1754L6.17365 27.4925L15.4283 36.9133L12.2998 40.0131L0 27.4925L10.4146 16.8909Z" fill="black"/>
<path fill-rule="evenodd" clip-rule="evenodd" d="M36.1364 23.1751L23.2328 10.04L10.4671 23.0349L0.000152588 12.3801L12.1613 0.000671387L15.2898 3.10048L6.17379 12.3801L10.4671 16.7505L23.2328 3.75548L36.1364 16.8907L40.3774 12.5735L31.1227 3.15274L34.2512 0.0529274L46.551 12.5735L36.1364 23.1751Z" fill="black"/>
<path fill-rule="evenodd" clip-rule="evenodd" d="M21.3066 39.7568V31.4811H25.5203V39.7568H21.3066Z" fill="black"/>
<path fill-rule="evenodd" clip-rule="evenodd" d="M21.3066 8.58493V0.309265H25.5203V8.58493H21.3066Z" fill="black"/>
<path d="M60.7498 9.77109H56.551V30.9117H60.7498V9.77109Z" fill="black"/>
<path d="M82.048 15.3498C80.1394 15.3498 78.319 16.172 77.4088 17.9631C76.4692 16.172 74.7075 15.3498 72.6521 15.3498C70.8023 15.3498 69.393 16.0545 68.6589 17.3171L68.2185 15.6435H64.4014V30.9117H68.5121V22.3673C68.5121 20.1065 69.6866 19.0201 71.4189 19.0201C73.0632 19.0201 74.179 20.0478 74.179 22.5435V30.9117H78.1428V22.4554C78.2015 20.0771 79.4347 19.0201 81.0496 19.0201C82.7233 19.0201 83.8097 20.0478 83.8097 22.338V30.941H87.9497V21.5159C87.9497 17.2877 85.1016 15.3498 82.048 15.3498Z" fill="black"/>
<path d="M108.858 15.3498C106.949 15.3498 105.129 16.172 104.219 17.9631C103.279 16.172 101.517 15.3498 99.4621 15.3498C97.6123 15.3498 96.2029 16.0545 95.4689 17.3171L95.0284 15.6435H91.2114V30.9117H95.3221V22.3673C95.3221 20.1065 96.4965 19.0201 98.2289 19.0201C99.8732 19.0201 100.989 20.0478 100.989 22.5435V30.9117H104.953V22.4554C105.011 20.0771 106.245 19.0201 107.86 19.0201C109.533 19.0201 110.62 20.0478 110.62 22.338V30.941H114.76V21.5159C114.76 17.2877 111.912 15.3498 108.858 15.3498Z" fill="black"/>
<path d="M128.034 15.6435V24.0116C128.034 26.2725 126.977 27.6231 124.951 27.6525C123.013 27.7112 121.78 26.5661 121.78 24.1878V15.6435H117.875V24.7163C117.875 28.6214 120.135 31.2053 124.041 31.2053C125.861 31.2053 127.182 30.3831 127.975 29.238L128.181 30.9117H131.939V15.6435H128.034Z" fill="black"/>
<path d="M144.002 15.3498C141.712 15.3498 140.185 16.2013 139.392 17.4639L139.157 15.6435H135.34V30.9117H139.451V22.8371C139.451 20.3707 140.625 18.8733 142.798 18.8733C144.795 18.8733 145.999 20.1652 145.999 22.6903V30.9117H150.139V21.8388C150.139 17.9337 147.907 15.3498 144.002 15.3498Z" fill="black"/>
<path d="M168.116 23.0427C168.116 18.3741 165.091 15.3498 160.54 15.3498C155.989 15.3498 152.936 18.5209 152.936 23.2776C152.936 28.0636 155.989 31.2346 160.57 31.2346C164.416 31.2346 167.323 29.0912 167.998 25.9201H163.858C163.389 27.2414 162.185 27.9167 160.687 27.9167C158.72 27.9167 157.134 26.6542 157.076 24.3933H168.116V23.0427ZM160.54 18.5503C162.331 18.5503 163.829 19.578 164.005 21.692H157.105C157.281 19.578 158.779 18.5503 160.54 18.5503Z" fill="black"/>
<path d="M169.721 15.6435V19.2256H172.07V30.9117H176.21V19.2256H179.704V15.6435H176.21V14.0873C176.21 13.0009 176.503 12.1788 178.177 12.1788H179.704V8.83148H177.267C173.42 8.83148 172.07 10.7107 172.07 13.6762V15.6435H169.721Z" fill="black"/>
<path d="M182.419 13.2945H186.588L186.647 8.83148H182.478L182.419 13.2945ZM182.478 30.9117H186.588V15.6435H182.478V30.9117Z" fill="black"/>
</svg>
