<svg width="116" height="66" viewBox="0 0 116 66" fill="none" xmlns="http://www.w3.org/2000/svg">
<path d="M2.33212 53.7836C-0.548821 56.3616 -0.794405 60.7869 1.78359 63.6679C4.36159 66.5488 8.78694 66.7944 11.6679 64.2164L2.33212 53.7836ZM51.625 19.0675L56.57 14.1131C53.9422 11.4903 49.7239 11.3753 46.9571 13.8511L51.625 19.0675ZM73.8276 41.2278L68.8826 46.1823C71.5907 48.8853 75.9674 48.913 78.7095 46.2445L73.8276 41.2278ZM113.882 12.0167C116.653 9.32044 116.713 4.88869 114.017 2.11807C111.32 -0.652547 106.889 -0.712865 104.118 1.98335L113.882 12.0167ZM11.6679 64.2164L56.2929 24.2839L46.9571 13.8511L2.33212 53.7836L11.6679 64.2164ZM46.68 24.022L68.8826 46.1823L78.7726 36.2734L56.57 14.1131L46.68 24.022ZM78.7095 46.2445L113.882 12.0167L104.118 1.98335L68.9457 36.2112L78.7095 46.2445Z" fill="#FEE25D"/>
</svg>
