<svg width="640" height="360" viewBox="0 0 640 360" fill="none" xmlns="http://www.w3.org/2000/svg">
<path d="M0 8C0 3.58172 3.58172 0 8 0H632C636.418 0 640 3.58172 640 8V352C640 356.418 636.418 360 632 360H7.99999C3.58171 360 0 356.418 0 352V8Z" fill="#FEE25D"/>
<path d="M52.44 78.728C61.176 78.728 67.504 73.912 69.128 64.168H63.696C62.912 69.432 59.216 74.304 52.44 74.304C44.656 74.304 39.728 67.248 39.728 57.952C39.728 48.656 44.488 41.656 52.44 41.656C58.936 41.656 62.296 46.36 63.304 51.624H68.736C67.56 43 61.736 37.232 52.44 37.232C41.8 37.232 34.352 45.52 34.352 58.008C34.352 70.496 41.632 78.728 52.44 78.728ZM87.0043 78.728C95.7403 78.728 100.892 72.232 100.892 63.608C100.892 54.984 95.7403 48.432 87.0043 48.432C78.2683 48.432 73.1163 54.984 73.1163 63.608C73.1163 72.232 78.2683 78.728 87.0043 78.728ZM78.3243 63.552C78.3243 57.896 80.6763 52.576 87.0043 52.576C93.2763 52.576 95.6843 57.896 95.6843 63.552C95.6843 69.152 93.2763 74.584 87.0043 74.584C80.6763 74.584 78.3243 69.152 78.3243 63.552ZM106.459 78H111.499V61.368C111.499 56.272 115.251 52.632 119.731 52.632C123.987 52.632 126.843 55.264 126.843 60.304V78H131.883V60.024C131.883 52.352 127.515 48.432 121.243 48.432C117.043 48.432 113.403 50.336 111.499 53.528V49.16H106.459V78ZM138.834 78H143.874V61.368C143.874 56.272 147.626 52.632 152.106 52.632C156.362 52.632 159.218 55.264 159.218 60.304V78H164.258V60.024C164.258 52.352 159.89 48.432 153.618 48.432C149.418 48.432 145.778 50.336 143.874 53.528V49.16H138.834V78ZM183.361 78.728C190.081 78.728 194.393 75.032 195.793 69.432H190.697C189.689 72.568 187.561 74.696 183.361 74.696C177.593 74.696 175.129 70.16 174.793 64.896H196.129C196.801 52.464 190.529 48.432 183.361 48.432C174.905 48.432 169.585 54.928 169.585 63.608C169.585 72.288 174.905 78.728 183.361 78.728ZM174.905 61.088C175.521 56.272 178.097 52.464 183.361 52.464C188.177 52.464 190.865 55.208 191.201 61.088H174.905ZM213.933 78.728C220.765 78.728 225.245 74.64 226.309 68.536H221.269C220.205 72.512 217.685 74.584 213.933 74.584C207.941 74.584 205.309 69.32 205.309 63.552C205.309 57.784 207.941 52.576 213.933 52.576C217.629 52.576 220.429 55.04 221.269 59.072H226.365C225.413 52.464 220.597 48.432 213.989 48.432C205.533 48.432 200.101 54.984 200.101 63.608C200.101 72.232 205.533 78.728 213.933 78.728ZM240.536 78H246.08V73.856H241.992C239.696 73.856 239.024 72.96 239.024 70.496V53.304H245.352V49.16H239.024V39.64H234.04V47.928C234.04 48.656 233.536 49.16 232.752 49.16H229.448V53.304H234.04V71.28C234.04 76.096 236.112 78 240.536 78ZM36.424 128H50.256C61.68 128 69.016 119.6 69.016 108.008C69.016 96.416 61.68 87.96 50.256 87.96H36.424V128ZM41.576 123.688V92.272H49.976C58.376 92.272 63.528 98.488 63.528 107.952C63.528 117.416 58.376 123.688 49.976 123.688H41.576ZM87.111 128.728C93.831 128.728 98.143 125.032 99.543 119.432H94.447C93.439 122.568 91.311 124.696 87.111 124.696C81.343 124.696 78.879 120.16 78.543 114.896H99.879C100.551 102.464 94.279 98.432 87.111 98.432C78.655 98.432 73.335 104.928 73.335 113.608C73.335 122.288 78.655 128.728 87.111 128.728ZM78.655 111.088C79.271 106.272 81.847 102.464 87.111 102.464C91.927 102.464 94.615 105.208 94.951 111.088H78.655ZM105.475 137.52H110.515V123.688C112.587 126.992 116.115 128.728 120.147 128.728C127.147 128.728 132.747 122.736 132.747 113.664C132.747 104.592 127.147 98.432 120.147 98.432C116.115 98.432 112.867 100.056 110.515 103.528V99.16H105.475V137.52ZM110.291 113.608C110.291 107.336 113.483 102.632 118.915 102.632C124.403 102.632 127.539 107.336 127.539 113.664C127.539 119.992 124.403 124.528 118.915 124.528C113.483 124.528 110.291 119.88 110.291 113.608ZM150.551 128.728C159.287 128.728 164.439 122.232 164.439 113.608C164.439 104.984 159.287 98.432 150.551 98.432C141.815 98.432 136.663 104.984 136.663 113.608C136.663 122.232 141.815 128.728 150.551 128.728ZM141.871 113.552C141.871 107.896 144.223 102.576 150.551 102.576C156.823 102.576 159.231 107.896 159.231 113.552C159.231 119.152 156.823 124.584 150.551 124.584C144.223 124.584 141.871 119.152 141.871 113.552ZM181.15 128.728C186.862 128.728 192.798 126.096 192.798 119.824C192.798 114.672 188.598 112.432 184.566 111.648L178.518 110.528C176.222 110.08 174.206 109.016 174.206 106.664C174.206 103.976 177.118 102.464 180.254 102.464C184.118 102.464 186.582 104.088 187.142 107.392H192.238C191.622 101.176 186.918 98.432 180.366 98.432C173.646 98.432 169.166 102.016 169.166 106.776C169.166 112.152 173.198 114.056 177.342 114.84L182.718 115.848C186.526 116.632 187.59 118.312 187.59 120.104C187.59 123.128 184.79 124.64 181.262 124.64C176.054 124.64 174.15 122.176 173.534 119.04H168.382C168.83 124.304 172.526 128.728 181.15 128.728ZM198.558 128H203.598V99.16H198.558V128ZM198.278 94.232H203.934V87.96H198.278V94.232ZM219.591 128H225.135V123.856H221.047C218.751 123.856 218.079 122.96 218.079 120.496V103.304H224.407V99.16H218.079V89.64H213.095V97.928C213.095 98.656 212.591 99.16 211.807 99.16H208.503V103.304H213.095V121.28C213.095 126.096 215.167 128 219.591 128ZM36.424 178H50.256C61.68 178 69.016 169.6 69.016 158.008C69.016 146.416 61.68 137.96 50.256 137.96H36.424V178ZM41.576 173.688V142.272H49.976C58.376 142.272 63.528 148.488 63.528 157.952C63.528 167.416 58.376 173.688 49.976 173.688H41.576ZM87.223 178.728C95.959 178.728 101.111 172.232 101.111 163.608C101.111 154.984 95.959 148.432 87.223 148.432C78.487 148.432 73.335 154.984 73.335 163.608C73.335 172.232 78.487 178.728 87.223 178.728ZM78.543 163.552C78.543 157.896 80.895 152.576 87.223 152.576C93.495 152.576 95.903 157.896 95.903 163.552C95.903 169.152 93.495 174.584 87.223 174.584C80.895 174.584 78.543 169.152 78.543 163.552ZM124.862 178H130.35L136.902 155.768L142.894 178H148.326L157.174 149.16H152.19L145.638 172.512L139.31 149.16H134.662L127.942 172.512L121.502 149.16H116.35L124.862 178ZM173.408 178.728C180.128 178.728 184.44 175.032 185.84 169.432H180.744C179.736 172.568 177.608 174.696 173.408 174.696C167.64 174.696 165.176 170.16 164.84 164.896H186.176C186.848 152.464 180.576 148.432 173.408 148.432C164.952 148.432 159.632 154.928 159.632 163.608C159.632 172.288 164.952 178.728 173.408 178.728ZM164.952 161.088C165.568 156.272 168.144 152.464 173.408 152.464C178.224 152.464 180.912 155.208 181.248 161.088H164.952ZM191.996 178H197.036V137.96H191.996V178ZM204.683 178H209.723V137.96H204.683V178ZM36.424 228H50.256C61.68 228 69.016 219.6 69.016 208.008C69.016 196.416 61.68 187.96 50.256 187.96H36.424V228ZM41.576 223.688V192.272H49.976C58.376 192.272 63.528 198.488 63.528 207.952C63.528 217.416 58.376 223.688 49.976 223.688H41.576ZM87.223 228.728C95.959 228.728 101.111 222.232 101.111 213.608C101.111 204.984 95.959 198.432 87.223 198.432C78.487 198.432 73.335 204.984 73.335 213.608C73.335 222.232 78.487 228.728 87.223 228.728ZM78.543 213.552C78.543 207.896 80.895 202.576 87.223 202.576C93.495 202.576 95.903 207.896 95.903 213.552C95.903 219.152 93.495 224.584 87.223 224.584C80.895 224.584 78.543 219.152 78.543 213.552ZM131.19 238.136C137.966 238.136 144.406 234.888 144.406 225.872V199.16H139.366V203.472C137.462 200.224 133.766 198.432 129.958 198.432C123.014 198.432 117.358 204.424 117.358 212.824C117.358 221.28 123.014 227.44 129.958 227.44C133.766 227.44 137.126 225.872 139.366 222.232V225.984C139.366 231.92 135.558 233.992 131.358 233.992C126.934 233.992 124.414 232.368 123.518 229.008H118.366C119.15 234.72 123.966 238.136 131.19 238.136ZM122.51 212.824C122.51 206.72 125.87 202.632 131.022 202.632C136.23 202.632 139.646 206.72 139.646 212.824C139.646 218.872 136.23 223.24 131.022 223.24C125.87 223.24 122.51 218.872 122.51 212.824ZM163.84 228.728C172.576 228.728 177.728 222.232 177.728 213.608C177.728 204.984 172.576 198.432 163.84 198.432C155.104 198.432 149.952 204.984 149.952 213.608C149.952 222.232 155.104 228.728 163.84 228.728ZM155.16 213.552C155.16 207.896 157.512 202.576 163.84 202.576C170.112 202.576 172.52 207.896 172.52 213.552C172.52 219.152 170.112 224.584 163.84 224.584C157.512 224.584 155.16 219.152 155.16 213.552ZM195.559 228.728C204.295 228.728 209.447 222.232 209.447 213.608C209.447 204.984 204.295 198.432 195.559 198.432C186.823 198.432 181.671 204.984 181.671 213.608C181.671 222.232 186.823 228.728 195.559 228.728ZM186.879 213.552C186.879 207.896 189.231 202.576 195.559 202.576C201.831 202.576 204.239 207.896 204.239 213.552C204.239 219.152 201.831 224.584 195.559 224.584C189.231 224.584 186.879 219.152 186.879 213.552ZM225.934 228.728C230.022 228.728 233.27 227.104 235.566 223.632V228H240.606V187.96H235.566V203.472C233.494 200.168 230.022 198.432 225.934 198.432C218.99 198.432 213.39 204.424 213.39 213.496C213.39 222.568 218.99 228.728 225.934 228.728ZM218.598 213.496C218.598 207.168 221.734 202.632 227.222 202.632C232.654 202.632 235.846 207.28 235.846 213.552C235.846 219.824 232.654 224.528 227.222 224.528C221.734 224.528 218.598 219.824 218.598 213.496Z" fill="black"/>
<path d="M578 283C578 291.285 571.284 298 563 298C554.715 298 548 291.285 548 283C548 274.716 554.715 268 563 268C571.284 268 578 274.716 578 283Z" fill="black"/>
<path d="M608 283C608 291.285 601.284 298 593 298C584.716 298 578 291.285 578 283C578 274.716 584.716 268 593 268C601.284 268 608 274.716 608 283Z" fill="black"/>
<path d="M608 298C608 314.569 594.569 328 578 328C561.432 328 548 314.569 548 298H608Z" fill="black"/>
</svg>
