<svg width="250" height="137" viewBox="0 0 250 137" fill="none" xmlns="http://www.w3.org/2000/svg">
<path d="M2.99209 120.799C-0.708835 124.117 -1.0192 129.807 2.29887 133.508C5.61695 137.209 11.307 137.519 15.0079 134.201L2.99209 120.799ZM110.5 36.5L116.864 30.136C113.484 26.756 108.051 26.6079 104.492 29.7989L110.5 36.5ZM161 87L154.636 93.364C158.119 96.8473 163.756 96.8829 167.283 93.444L161 87ZM247.283 15.444C250.842 11.9741 250.914 6.27602 247.444 2.7171C243.974 -0.841825 238.276 -0.913952 234.717 2.556L247.283 15.444ZM15.0079 134.201L116.508 43.2011L104.492 29.7989L2.99209 120.799L15.0079 134.201ZM104.136 42.864L154.636 93.364L167.364 80.636L116.864 30.136L104.136 42.864ZM167.283 93.444L247.283 15.444L234.717 2.556L154.717 80.556L167.283 93.444Z" fill="#FEE25D"/>
</svg>
