<svg width="106" height="57" viewBox="0 0 106 57" fill="none" xmlns="http://www.w3.org/2000/svg">
<path d="M51.4165 50.0646C51.6009 45.2515 56.1786 45.4097 56.363 40.5966C56.5474 35.7835 51.9375 35.6205 52.1083 30.7891C52.2926 25.976 56.8704 26.1342 57.0548 21.3211C57.2255 16.4897 52.6478 16.3314 52.8185 11.5C52.9892 6.66857 57.5991 6.83157 57.7698 2.00013" stroke="#FB7185" stroke-width="4" stroke-miterlimit="10" stroke-linecap="round"/>
<path d="M5.65511 15.1178C9.09848 18.5147 5.87832 21.7452 9.32169 25.142C12.7651 28.5389 16.0106 25.2882 19.4768 28.6875C22.9201 32.0844 19.7 35.3149 23.1434 38.7117C26.6096 42.111 29.8297 38.8805 33.296 42.2798C36.7622 45.6791 33.5167 48.9298 36.9829 52.3291" stroke="#99F6E4" stroke-width="4" stroke-miterlimit="10" stroke-linecap="round"/>
<path d="M103.999 19.9396C100.917 23.6625 97.368 20.7912 94.2862 24.514C91.2045 28.2369 94.7766 31.1312 91.6946 34.8768C88.6129 38.5996 85.0635 35.7284 81.9817 39.4512C78.8997 43.1968 82.4491 46.068 79.3671 49.8136C76.2851 53.5592 72.713 50.6649 69.631 54.4105" stroke="#93C5FD" stroke-width="4" stroke-miterlimit="10" stroke-linecap="round"/>
<path d="M2.38281 45.3062L17.5773 54.5086" stroke="#93C5FD" stroke-width="4" stroke-miterlimit="10" stroke-linecap="round"/>
<path d="M103.612 43.3374L93.6875 55.0004" stroke="#FB7185" stroke-width="4" stroke-miterlimit="10" stroke-linecap="round"/>
<path d="M24.8003 18.3142C24.3475 19.2311 24.2645 20.3145 24.667 21.3265C25.4378 23.2643 27.6836 24.2012 29.6835 23.4189C31.3688 22.7596 32.3367 21.0901 32.1396 19.4212C32.6772 19.4447 33.2292 19.3621 33.7649 19.1526C35.7644 18.3704 36.7611 16.1658 35.9904 14.228C35.2196 12.2902 32.9734 11.3534 30.9738 12.1356C30.4745 12.3309 30.0379 12.6151 29.6756 12.9615C28.7692 11.3062 26.7076 10.5535 24.8545 11.2784C22.8546 12.0607 21.8583 14.2652 22.6291 16.203C23.0314 17.2155 23.8379 17.9509 24.8003 18.3142Z" fill="#FDE68A"/>
<path d="M76.9349 15.0012C76.3248 15.5225 75.929 16.2763 75.9046 17.1269C75.8578 18.7556 77.1823 20.1145 78.8632 20.162C80.2797 20.202 81.4937 19.2967 81.8696 18.0363C82.2489 18.2172 82.6716 18.3262 83.1218 18.339C84.8024 18.3864 86.2031 17.105 86.2498 15.4763C86.2966 13.8476 84.9718 12.4887 83.2912 12.4412C82.8715 12.4293 82.4694 12.5005 82.1014 12.6391C81.963 11.1722 80.7139 10.0019 79.1563 9.95794C77.4754 9.91046 76.0751 11.1919 76.0283 12.8206C76.0036 13.6714 76.3554 14.4464 76.9349 15.0012Z" fill="#FDE68A"/>
</svg>
