<svg width="219" height="152" viewBox="0 0 219 152" fill="none" xmlns="http://www.w3.org/2000/svg">
<path d="M43 19.75C43 9.39466 51.3947 1 61.75 1H174.25C184.605 1 193 9.39466 193 19.75V132.25C193 142.605 184.605 151 174.25 151H61.75C51.3947 151 43 142.605 43 132.25V19.75Z" fill="#D1D5DB"/>
<path d="M43 113.5L85.9917 70.5083C93.3141 63.1859 105.186 63.1859 112.508 70.5082L155.5 113.5M136.75 94.75L151.617 79.8833C158.939 72.5609 170.811 72.5609 178.133 79.8832L193 94.75M136.75 38.5H136.844M61.75 151H174.25C184.605 151 193 142.605 193 132.25V19.75C193 9.39466 184.605 1 174.25 1H61.75C51.3947 1 43 9.39466 43 19.75V132.25C43 142.605 51.3947 151 61.75 151Z" stroke="#374151" stroke-width="2" stroke-linecap="round" stroke-linejoin="round"/>
<circle cx="135" cy="37" r="7" fill="#F9FAFB" stroke="#374151" stroke-width="2"/>
<path d="M29.2187 135.85L28.2598 137.51C24.9326 143.273 17.5636 145.248 11.8007 141.921C6.03779 138.593 4.06327 131.224 7.39048 125.462L8.3494 123.801C11.6766 118.038 19.0456 116.063 24.8085 119.39C30.5714 122.718 32.5459 130.087 29.2187 135.85Z" fill="#F3F4F6" stroke="#374151" stroke-width="2"/>
<path d="M68.2884 140.779C68.9304 140.182 69.4245 139.443 69.7316 138.622C70.0386 137.801 70.1501 136.919 70.0573 136.048C69.9645 135.176 69.6699 134.338 69.1968 133.599C68.7238 132.861 68.0853 132.243 67.332 131.795C66.5786 131.346 65.7312 131.079 64.8568 131.015C63.9824 130.951 63.105 131.091 62.2943 131.425C61.4836 131.759 60.7618 132.277 60.1861 132.938C59.6104 133.6 59.1967 134.386 58.9776 135.235C58.1237 134.848 57.1868 134.679 56.2514 134.744C55.316 134.81 54.4116 135.107 53.6199 135.61C52.8283 136.112 52.1742 136.804 51.7169 137.623C51.2596 138.441 51.0134 139.361 51.0005 140.298C50.9877 141.236 51.2086 142.162 51.6433 142.993C52.078 143.824 52.7128 144.533 53.4904 145.057C54.268 145.581 55.1639 145.903 56.0972 145.994C57.0305 146.085 57.9717 145.942 58.8359 145.579C58.9434 146.481 59.2671 147.344 59.7795 148.094C60.2918 148.844 60.9778 149.46 61.7789 149.888C62.58 150.317 63.4727 150.545 64.3812 150.555C65.2897 150.565 66.1871 150.355 66.9972 149.944C67.8073 149.532 68.5061 148.932 69.0344 148.192C69.5626 147.453 69.9046 146.597 70.0313 145.698C70.1581 144.798 70.0658 143.881 69.7624 143.025C69.459 142.169 68.9533 141.398 68.2884 140.779Z" fill="#F9FAFB" stroke="#374151" stroke-width="2" stroke-linejoin="round"/>
<path d="M53.7895 100.692C53.8419 101.261 54.0269 101.815 54.3297 102.309C54.6325 102.804 55.0448 103.227 55.5339 103.543C56.023 103.86 56.5755 104.062 57.1476 104.133C57.7197 104.204 58.2956 104.143 58.8298 103.954C59.364 103.765 59.8417 103.453 60.225 103.044C60.6084 102.634 60.8869 102.138 61.0384 101.595C61.19 101.052 61.2104 100.476 61.0982 99.9138C60.9859 99.3514 60.7439 98.8178 60.3915 98.3553C60.9343 98.0906 61.3969 97.6934 61.7375 97.1997C62.0781 96.7059 62.2861 96.131 62.3426 95.5271C62.3991 94.9231 62.3023 94.309 62.0611 93.7402C61.8198 93.1714 61.4417 92.6659 60.9608 92.2693C60.4799 91.8727 59.9113 91.5975 59.3066 91.4686C58.7018 91.3396 58.0799 91.361 57.4969 91.5308C56.9138 91.7006 56.3882 92.0134 55.9673 92.441C55.5464 92.8686 55.2436 93.3975 55.0862 93.98C54.5755 93.6582 53.9986 93.4605 53.4045 93.4038C52.8104 93.3472 52.2166 93.4331 51.6737 93.6544C51.1308 93.8756 50.6547 94.2257 50.2859 94.6748C49.9172 95.1239 49.6666 95.6588 49.5554 96.234C49.4443 96.8092 49.4759 97.4078 49.6476 97.9789C49.8193 98.55 50.126 99.0767 50.5416 99.5144C50.9572 99.952 51.4695 100.288 52.0349 100.493C52.6004 100.698 53.2023 100.766 53.7895 100.692Z" fill="#F9FAFB" stroke="#374151" stroke-width="2" stroke-linejoin="round"/>
<path d="M206.789 140.692C206.842 141.261 207.027 141.815 207.33 142.309C207.632 142.804 208.045 143.227 208.534 143.543C209.023 143.86 209.575 144.062 210.148 144.133C210.72 144.204 211.296 144.143 211.83 143.954C212.364 143.765 212.842 143.453 213.225 143.044C213.608 142.634 213.887 142.138 214.038 141.595C214.19 141.052 214.21 140.476 214.098 139.914C213.986 139.351 213.744 138.818 213.392 138.355C213.934 138.091 214.397 137.693 214.737 137.2C215.078 136.706 215.286 136.131 215.343 135.527C215.399 134.923 215.302 134.309 215.061 133.74C214.82 133.171 214.442 132.666 213.961 132.269C213.48 131.873 212.911 131.598 212.307 131.469C211.702 131.34 211.08 131.361 210.497 131.531C209.914 131.701 209.388 132.013 208.967 132.441C208.546 132.869 208.244 133.397 208.086 133.98C207.575 133.658 206.999 133.461 206.404 133.404C205.81 133.347 205.217 133.433 204.674 133.654C204.131 133.876 203.655 134.226 203.286 134.675C202.917 135.124 202.667 135.659 202.555 136.234C202.444 136.809 202.476 137.408 202.648 137.979C202.819 138.55 203.126 139.077 203.542 139.514C203.957 139.952 204.47 140.288 205.035 140.493C205.6 140.698 206.202 140.766 206.789 140.692Z" fill="#F9FAFB" stroke="#374151" stroke-width="2" stroke-linejoin="round"/>
<path d="M45.8772 73.4835C46.8755 71.9262 47.3114 70.0629 47.1103 68.2135C46.9091 66.364 46.0834 64.6437 44.7748 63.3476C43.4662 62.0515 41.7562 61.2605 39.9384 61.1104C38.1206 60.9602 34.8124 62.5246 34.8124 62.5246C34.8124 62.5246 33.3853 61.1555 32.5026 60.7223C31.6199 60.289 30.6595 60.0451 29.6807 60.0057C28.702 59.9663 27.7257 60.1322 26.8123 60.4931C25.8989 60.8541 25.0678 61.4024 24.3704 62.1042C23.673 62.806 23.1241 63.6463 22.7578 64.5732C22.3914 65.5001 22.2153 66.4938 22.2404 67.4929C22.2654 68.492 22.4912 69.4752 22.9035 70.3817C23.3159 71.2882 23.9062 72.0988 24.6378 72.7633C23.6315 73.4159 22.7841 74.294 22.1601 75.3308C21.5361 76.3677 21.1519 77.5359 21.0367 78.747C20.9215 79.958 21.0783 81.1799 21.4952 82.3198C21.9121 83.4597 22.5781 84.4877 23.4427 85.3256C24.3073 86.1636 25.3477 86.7895 26.4849 87.1558C27.622 87.522 28.826 87.619 30.0054 87.4394C31.1848 87.2598 32.3086 86.8083 33.2914 86.1192C34.2742 85.4301 35.0901 84.5216 35.6772 83.4625C36.0878 84.7522 36.8125 85.9145 37.7833 86.8405C38.7541 87.7665 39.9394 88.426 41.2281 88.7572C42.5168 89.0885 43.8668 89.0806 45.1518 88.7344C46.4367 88.3882 47.6145 87.7149 48.5749 86.7777C49.5353 85.8404 50.2469 84.6698 50.643 83.3755C51.0391 82.0811 51.1069 80.7053 50.8399 79.377C50.5729 78.0486 49.9798 76.8112 49.1163 75.7804C48.2528 74.7497 47.1472 73.9593 45.9027 73.4835H45.8772Z" fill="#F9FAFB" stroke="#374151" stroke-width="2" stroke-linejoin="round"/>
<path d="M176.727 101.026C176.638 99.7466 176.109 98.5298 175.231 97.5844C174.354 96.639 173.183 96.0239 171.918 95.8447C170.654 95.6655 169.375 95.9334 168.302 96.6023C167.229 97.2713 166.428 98.2996 166.036 99.5108C165.367 99.3559 164.676 99.3401 164.005 99.4645C163.335 99.5889 162.7 99.8508 162.139 100.234C161.579 100.617 161.104 101.114 160.746 101.693C160.387 102.271 160.152 102.92 160.054 103.599C159.957 104.278 159.999 104.973 160.179 105.64C160.359 106.307 160.673 106.933 161.1 107.478C161.528 108.024 162.06 108.477 162.665 108.811C163.269 109.144 163.933 109.351 164.615 109.417C164.326 110.197 164.218 111.036 164.3 111.871C164.382 112.706 164.652 113.515 165.089 114.236C165.526 114.958 166.119 115.572 166.823 116.034C167.527 116.495 168.323 116.791 169.151 116.9C169.979 117.008 170.816 116.925 171.6 116.658C172.385 116.391 173.094 115.947 173.676 115.359C174.258 114.771 174.696 114.054 174.957 113.264C175.219 112.474 175.296 111.631 175.185 110.799C175.947 111.346 176.831 111.693 177.754 111.806C178.678 111.919 179.61 111.795 180.464 111.446C181.318 111.097 182.065 110.534 182.637 109.809C183.208 109.085 183.584 108.223 183.731 107.304C183.877 106.385 183.788 105.439 183.473 104.555C183.157 103.671 182.625 102.878 181.927 102.25C181.229 101.622 180.387 101.179 179.48 100.963C178.573 100.747 177.63 100.765 176.741 101.015L176.727 101.026Z" fill="#F9FAFB" stroke="#374151" stroke-width="2" stroke-linejoin="round"/>
</svg>
