<svg width="270" height="204" viewBox="0 0 270 204" fill="none" xmlns="http://www.w3.org/2000/svg">
<rect x="48.5234" y="90.1953" width="35.9057" height="11.3985" rx="5.69926" fill="#F3F4F6" stroke="#374151" stroke-width="1.5"/>
<rect x="48.25" y="78.75" width="24.5" height="10.5" rx="5.25" fill="#F3F4F6" stroke="#374151" stroke-width="1.5"/>
<path d="M1.5 184.371H268.502" stroke="#374151" stroke-width="1.5" stroke-linecap="round"/>
<path d="M87.6935 18.8711L73.5312 86.7385L111.771 100.863L145.876 43.3293L87.6935 18.8711Z" fill="#D1D5DB" stroke="#374151" stroke-width="1.5" stroke-miterlimit="10" stroke-linecap="round" stroke-linejoin="round"/>
<path d="M115.935 68.9765L114.976 70.6374C111.58 76.5199 104.058 78.5354 98.1757 75.1391C92.2932 71.7429 90.2777 64.221 93.674 58.3385L94.6329 56.6776C98.0291 50.7951 105.551 48.7797 111.433 52.1759C117.316 55.5722 119.331 63.094 115.935 68.9765Z" fill="#F3F4F6" stroke="#374151" stroke-width="1.5"/>
<path d="M106.851 67.8838C106.606 69.2711 105.258 70.203 103.832 69.9648C102.557 69.7517 101.655 68.6736 101.655 67.4576C101.342 67.5244 101.011 67.5286 100.676 67.4743C99.2509 67.2361 98.2934 65.924 98.5382 64.5367C98.6799 63.7176 99.2123 63.0616 99.9122 62.7064C99.7705 62.5852 99.6417 62.4431 99.5257 62.2885C98.6885 61.1394 98.9675 59.5515 100.148 58.7366C101.329 57.9218 102.961 58.1976 103.794 59.3425C103.94 59.5473 104.056 59.7646 104.133 59.9902C104.433 58.6781 105.747 57.809 107.126 58.0388C108.551 58.277 109.509 59.5891 109.264 60.9764C109.161 61.5781 108.847 62.0963 108.405 62.4682C109.783 62.7398 110.702 64.031 110.462 65.3933C110.217 66.7806 108.865 67.7125 107.439 67.4743C107.242 67.4409 107.048 67.3865 106.872 67.3155C106.894 67.4952 106.885 67.6916 106.851 67.8838Z" fill="#D1D5DB" stroke="#374151" stroke-width="1.5" stroke-miterlimit="10" stroke-linecap="round" stroke-linejoin="round"/>
<path d="M130.257 90.0466L162.329 183.446L219.428 172.898L219.295 77.6305L130.257 90.0466Z" fill="#D1D5DB" stroke="#374151" stroke-width="1.5" stroke-miterlimit="10" stroke-linecap="round" stroke-linejoin="round"/>
<rect x="43.5234" y="101.805" width="90.0796" height="82.3404" fill="#D1D5DB" stroke="#374151" stroke-width="1.5"/>
<path d="M230.586 194.301H268.123" stroke="#374151" stroke-width="1.5" stroke-linecap="round"/>
<path d="M196.266 203.152H212.353" stroke="#374151" stroke-width="1.5" stroke-linecap="round"/>
<path d="M195.361 126.8L195.858 128.652C197.616 135.213 193.722 141.957 187.161 143.715C180.6 145.473 173.856 141.58 172.098 135.018L171.602 133.166C169.844 126.605 173.737 119.861 180.298 118.103C186.859 116.345 193.603 120.239 195.361 126.8Z" fill="#F3F4F6" stroke="#374151" stroke-width="1.5"/>
<path d="M185.851 134.882C185.606 136.269 184.258 137.201 182.832 136.963C181.557 136.75 180.655 135.672 180.655 134.456C180.342 134.522 180.011 134.527 179.676 134.472C178.251 134.234 177.293 132.922 177.538 131.535C177.68 130.716 178.212 130.06 178.912 129.704C178.77 129.583 178.642 129.441 178.526 129.287C177.688 128.137 177.968 126.55 179.148 125.735C180.329 124.92 181.961 125.196 182.794 126.341C182.94 126.545 183.056 126.763 183.133 126.988C183.433 125.676 184.747 124.807 186.126 125.037C187.551 125.275 188.509 126.587 188.264 127.974C188.161 128.576 187.847 129.094 187.405 129.466C188.783 129.738 189.702 131.029 189.462 132.391C189.217 133.779 187.865 134.711 186.439 134.472C186.242 134.439 186.048 134.385 185.872 134.314C185.894 134.493 185.885 134.69 185.851 134.882Z" fill="#D1D5DB" stroke="#374151" stroke-width="1.5" stroke-miterlimit="10" stroke-linecap="round" stroke-linejoin="round"/>
<path d="M179.192 50.7851C178.908 52.4396 177.344 53.5509 175.689 53.2669C174.209 53.0127 173.162 51.727 173.162 50.2768C172.799 50.3565 172.415 50.3615 172.026 50.2967C170.372 50.0126 169.26 48.4478 169.544 46.7933C169.709 45.8165 170.327 45.0341 171.139 44.6105C170.975 44.466 170.825 44.2965 170.691 44.1122C169.719 42.7417 170.043 40.848 171.413 39.8762C172.784 38.9044 174.677 39.2333 175.644 40.5988C175.814 40.843 175.948 41.1021 176.038 41.3712C176.387 39.8064 177.912 38.7698 179.511 39.0439C181.166 39.328 182.277 40.8928 181.993 42.5473C181.874 43.265 181.51 43.8829 180.996 44.3264C182.596 44.6504 183.663 46.1903 183.384 47.8149C183.099 49.4694 181.53 50.5808 179.875 50.2967C179.646 50.2568 179.422 50.1921 179.217 50.1073C179.242 50.3216 179.232 50.5559 179.192 50.7851Z" fill="#F9FAFB" stroke="#374151" stroke-width="1.5" stroke-miterlimit="10" stroke-linecap="round" stroke-linejoin="round"/>
<path d="M147.954 183.524C150.31 182.927 152.277 181.476 153.19 178.955C154.681 174.837 152.521 170.814 149.81 171.852C147.1 172.889 147.357 174.851 147.357 174.851C147.357 174.851 146.137 171.383 143.59 172.504C141.043 173.624 142.377 176.428 142.377 176.428C142.377 176.428 138.161 175.336 138.489 179.397C138.771 182.87 142.695 183.907 145.535 183.844C146.366 183.823 147.182 183.72 147.954 183.524Z" fill="#F9FAFB" stroke="#374151" stroke-width="1.5" stroke-miterlimit="10" stroke-linecap="round" stroke-linejoin="round"/>
<path d="M154.278 73.2297C154.125 73.3715 154.038 73.5704 154.038 73.7787C154.038 73.9869 154.125 74.1858 154.277 74.3278C154.854 74.8646 155.292 75.5328 155.555 76.2754C155.819 77.018 155.899 77.8131 155.789 78.5932C155.679 79.3733 155.382 80.1154 154.924 80.7564C154.466 81.3974 153.86 81.9184 153.158 82.275C152.455 82.6317 151.677 82.8136 150.889 82.8052C150.101 82.7968 149.327 82.5984 148.633 82.2268C147.938 81.8553 147.343 81.3215 146.899 80.6709C146.455 80.0203 146.174 79.2721 146.081 78.4898C146.053 78.2559 145.917 78.0487 145.713 77.9303C145.509 77.8118 145.262 77.796 145.045 77.8874C144.295 78.2029 143.479 78.3268 142.67 78.2478C141.861 78.1689 141.084 77.8896 140.41 77.4352C139.735 76.9808 139.185 76.3656 138.808 75.6452C138.431 74.9247 138.239 74.1217 138.25 73.3087C138.262 72.4957 138.475 71.6982 138.872 70.9884C139.268 70.2785 139.835 69.6786 140.522 69.2429C141.208 68.8071 141.993 68.5493 142.804 68.4925C143.615 68.4358 144.427 68.582 145.168 68.9179C145.37 69.0095 145.601 69.0071 145.801 68.9115C146.001 68.8159 146.149 68.6368 146.204 68.4223C146.394 67.6861 146.753 67.0043 147.252 66.4309C147.751 65.8575 148.377 65.4082 149.08 65.1188C149.783 64.8293 150.544 64.7075 151.302 64.7631C152.06 64.8187 152.795 65.0502 153.448 65.4391C154.101 65.8281 154.655 66.3639 155.065 67.004C155.476 67.6441 155.731 68.371 155.812 69.127C155.892 69.883 155.795 70.6473 155.529 71.3595C155.263 72.0716 154.834 72.7119 154.278 73.2297Z" fill="#F9FAFB" stroke="#374151" stroke-width="1.5" stroke-linejoin="round"/>
<path d="M138.036 30.2404C138.018 30.038 137.918 29.8519 137.759 29.7246C137.601 29.5973 137.397 29.5398 137.196 29.5652C136.728 29.624 136.246 29.5699 135.791 29.4047C135.335 29.2395 134.921 28.9686 134.585 28.6151C134.25 28.2615 134.003 27.8374 133.866 27.3802C133.728 26.9231 133.704 26.4474 133.792 25.9935C133.879 25.5397 134.077 25.1198 134.366 24.7679C134.654 24.4161 135.028 24.1407 135.457 23.9661C135.885 23.7914 136.357 23.7222 136.833 23.7676C137.309 23.8131 137.774 23.9717 138.186 24.2317C138.388 24.3586 138.637 24.3823 138.859 24.2958C139.081 24.2092 139.248 24.0225 139.31 23.7928C139.434 23.3342 139.672 22.9193 140.002 22.5843C140.332 22.2492 140.745 22.0025 141.207 21.8681L140.997 21.148L141.207 21.8681C141.668 21.7336 142.164 21.7157 142.65 21.8193C143.136 21.9229 143.595 22.1445 143.984 22.4651C144.372 22.7857 144.677 23.1935 144.871 23.6502C145.064 24.1068 145.141 24.5965 145.096 25.0744C145.051 25.5521 144.887 26.0041 144.62 26.391C144.353 26.7778 143.99 27.0899 143.563 27.2984C143.361 27.3969 143.214 27.5807 143.162 27.7993C143.11 28.0179 143.159 28.2483 143.295 28.427C143.579 28.8002 143.773 29.2289 143.863 29.6778L144.598 29.531L143.863 29.6778C143.952 30.1266 143.935 30.5828 143.816 31.0107C143.697 31.4384 143.478 31.8275 143.178 32.1484C142.877 32.4692 142.502 32.7147 142.08 32.8641C141.657 33.0136 141.199 33.0631 140.74 33.006C140.282 32.9489 139.837 32.7867 139.441 32.5309C139.046 32.2751 138.713 31.9339 138.469 31.5352C138.226 31.1366 138.078 30.693 138.036 30.2404Z" fill="#F9FAFB" stroke="#374151" stroke-width="1.5" stroke-linejoin="round"/>
<path d="M47.1649 163.574L46.9939 164.295L47.6533 164.545L47.6535 164.545L47.6952 164.561C47.7 164.548 47.7048 164.535 47.7095 164.522C49.106 165.075 50.23 166.155 50.8379 167.529C51.4517 168.918 51.4889 170.493 50.9414 171.908C50.3939 173.324 49.3064 174.464 47.9183 175.078C46.5302 175.692 44.9551 175.729 43.5395 175.181L47.1649 163.574ZM47.1649 163.574C47.217 163.075 47.1375 162.565 46.9281 162.099C46.6163 161.404 46.0417 160.862 45.3304 160.591L47.1649 163.574ZM45.0609 161.291L45.0631 161.291C45.5888 161.492 46.0134 161.893 46.2439 162.406C46.4744 162.919 46.4919 163.503 46.2925 164.029C46.2161 164.231 46.2302 164.456 46.3313 164.646C46.4325 164.837 46.6107 164.975 46.8207 165.025C47.0158 165.071 47.2075 165.131 47.3941 165.204L47.3941 165.204L47.3979 165.206C48.6279 165.682 49.6186 166.627 50.152 167.833C50.6853 169.039 50.7177 170.408 50.2419 171.638C49.7661 172.868 48.8212 173.858 47.615 174.392C46.4088 174.925 45.0401 174.957 43.81 174.482L43.8081 174.481C43.5022 174.364 43.2099 174.214 42.936 174.034C42.6078 173.819 42.1693 173.893 41.9301 174.204C41.148 175.221 39.9938 175.886 38.7215 176.052C37.4492 176.218 36.163 175.872 35.1459 175.09C34.1288 174.308 33.4641 173.154 33.2979 171.881C33.1318 170.609 33.4779 169.323 34.26 168.306C34.4319 168.082 34.4639 167.781 34.3428 167.527C33.9414 166.682 33.8027 165.737 33.9446 164.813C34.0865 163.889 34.5026 163.028 35.1389 162.343C35.7752 161.658 36.6025 161.18 37.5137 160.971C38.4249 160.761 39.3779 160.83 40.2495 161.168L40.2505 161.169C40.7439 161.36 41.2002 161.635 41.5992 161.982C41.7505 162.114 41.9481 162.179 42.148 162.164C42.3479 162.149 42.5335 162.054 42.6633 161.902C42.9502 161.564 43.3351 161.323 43.7647 161.214C44.1943 161.104 44.6472 161.131 45.0609 161.291Z" fill="#F9FAFB" stroke="#374151" stroke-width="1.5" stroke-linejoin="round"/>
<path d="M124.799 7.49267C124.648 7.7231 124.635 8.0179 124.766 8.26042C124.868 8.44826 125.043 8.58129 125.244 8.63173C125.846 8.86858 126.38 9.24861 126.8 9.73879C127.236 10.2466 127.535 10.8561 127.669 11.5101C127.804 12.164 127.77 12.8414 127.57 13.4787C127.37 14.116 127.012 14.6926 126.527 15.1545C126.043 15.6163 125.449 15.9483 124.8 16.119C124.152 16.2898 123.47 16.2936 122.82 16.1303C122.169 15.9669 121.571 15.6417 121.081 15.1854C120.592 14.7291 120.226 14.1565 120.019 13.5215C119.927 13.239 119.677 13.0375 119.382 13.0077C119.086 12.9779 118.801 13.1254 118.654 13.3838C118.358 13.9053 117.947 14.3529 117.451 14.6925C116.955 15.0322 116.388 15.2548 115.793 15.3433L115.903 16.0852L115.793 15.3433C115.198 15.4319 114.59 15.3841 114.016 15.2035C113.442 15.0229 112.917 14.7143 112.481 14.3015C112.045 13.8886 111.71 13.3823 111.5 12.8211C111.289 12.2599 111.21 11.6584 111.268 11.0623C111.327 10.4662 111.52 9.891 111.835 9.38039C112.149 8.86977 112.576 8.43712 113.084 8.11545C113.283 7.98935 113.411 7.77706 113.43 7.54221C113.449 7.30736 113.357 7.07727 113.18 6.9209C112.818 6.59947 112.526 6.20747 112.322 5.76925C112.118 5.33104 112.006 4.85588 111.994 4.37311C111.982 3.89033 112.069 3.4101 112.25 2.96212C112.431 2.51413 112.703 2.1078 113.048 1.76832C113.393 1.42885 113.805 1.16347 114.258 0.988743C114.71 0.814011 115.194 0.73367 115.679 0.752751C116.164 0.771832 116.64 0.889936 117.077 1.09966C117.515 1.30937 117.904 1.60619 118.221 1.97166C118.472 2.26092 118.901 2.31442 119.216 2.09577C119.97 1.57108 120.885 1.32441 121.803 1.39848C122.72 1.47254 123.583 1.86267 124.243 2.50136C124.903 3.13999 125.319 3.98732 125.421 4.89779C125.522 5.80824 125.303 6.72564 124.799 7.49267Z" fill="#F9FAFB" stroke="#374151" stroke-width="1.5" stroke-linejoin="round"/>
</svg>
