<svg width="281" height="196" viewBox="0 0 281 196" fill="none" xmlns="http://www.w3.org/2000/svg">
<path d="M268.855 93.8496L267.896 95.5105C264.569 101.273 257.2 103.248 251.437 99.9206C245.675 96.5934 243.7 89.2245 247.027 83.4616L247.986 81.8007C251.313 76.0378 258.682 74.0633 264.445 77.3905C270.208 80.7177 272.183 88.0867 268.855 93.8496Z" fill="#F3F4F6" stroke="#374151" stroke-width="2"/>
<path d="M129.925 176.779C130.567 176.182 131.061 175.443 131.368 174.622C131.675 173.801 131.787 172.919 131.694 172.048C131.601 171.176 131.307 170.338 130.834 169.599C130.361 168.861 129.722 168.243 128.969 167.795C128.215 167.346 127.368 167.079 126.493 167.015C125.619 166.951 124.742 167.091 123.931 167.425C123.12 167.759 122.399 168.277 121.823 168.938C121.247 169.6 120.833 170.386 120.614 171.235C119.76 170.848 118.823 170.679 117.888 170.744C116.953 170.81 116.048 171.107 115.257 171.61C114.465 172.112 113.811 172.804 113.354 173.623C112.896 174.441 112.65 175.361 112.637 176.298C112.624 177.236 112.845 178.162 113.28 178.993C113.715 179.824 114.35 180.533 115.127 181.057C115.905 181.581 116.801 181.903 117.734 181.994C118.667 182.085 119.608 181.942 120.473 181.579C120.58 182.481 120.904 183.344 121.416 184.094C121.929 184.844 122.614 185.46 123.416 185.888C124.217 186.317 125.109 186.545 126.018 186.555C126.926 186.565 127.824 186.355 128.634 185.944C129.444 185.532 130.143 184.932 130.671 184.192C131.199 183.453 131.541 182.597 131.668 181.698C131.795 180.798 131.703 179.881 131.399 179.025C131.096 178.169 130.59 177.398 129.925 176.779Z" fill="#F9FAFB" stroke="#374151" stroke-width="2" stroke-linejoin="round"/>
<path d="M152.208 194.143H240.065C249.77 194.143 257.637 186.276 257.637 176.571V92.3534C257.637 90.0233 256.711 87.7887 255.063 86.141L207.496 38.5733C205.848 36.9256 203.613 36 201.283 36H152.208C142.504 36 134.637 43.867 134.637 53.5714V176.571C134.637 186.276 142.504 194.143 152.208 194.143Z" fill="#D1D5DB" stroke="#374151" stroke-width="2.5" stroke-linecap="round" stroke-linejoin="round"/>
<path d="M169.781 159V141.429M196.138 159V123.858M222.496 159V106.286" stroke="#374151" stroke-width="8" stroke-linecap="round" stroke-linejoin="round"/>
<path d="M31.6992 132.411C28.9033 127.568 30.5625 121.376 35.4052 118.58L88.0163 88.2051C92.859 85.4091 99.0513 87.0684 101.847 91.9111L132.222 144.522C135.018 149.365 133.359 155.557 128.516 158.353L75.9052 188.728C71.0625 191.524 64.8702 189.865 62.0742 185.022L31.6992 132.411Z" fill="#D1D5DB" stroke="#374151" stroke-width="2.5" stroke-linecap="round" stroke-linejoin="round"/>
<path d="M89.3709 110.805L109.621 145.879M79.4276 134.082L92.0839 156.004M69.4844 157.36L74.5469 166.129" stroke="#374151" stroke-width="8" stroke-linecap="round" stroke-linejoin="round"/>
<path d="M89.4262 54.6921C89.4787 55.2608 89.6636 55.8146 89.9664 56.3095C90.2692 56.8044 90.6815 57.2269 91.1706 57.5434C91.6597 57.8599 92.2122 58.0618 92.7843 58.133C93.3564 58.2043 93.9324 58.143 94.4665 57.9539C95.0007 57.7649 95.4784 57.4532 95.8618 57.0438C96.2451 56.6343 96.5236 56.1383 96.6752 55.595C96.8267 55.0517 96.8472 54.4761 96.7349 53.9138C96.6226 53.3514 96.3807 52.8178 96.0283 52.3553C96.571 52.0906 97.0336 51.6934 97.3742 51.1997C97.7148 50.7059 97.9228 50.131 97.9793 49.5271C98.0358 48.9231 97.939 48.309 97.6978 47.7402C97.4565 47.1714 97.0784 46.6659 96.5975 46.2693C96.1166 45.8727 95.5481 45.5975 94.9433 45.4686C94.3385 45.3396 93.7166 45.361 93.1336 45.5308C92.5506 45.7006 92.0249 46.0134 91.604 46.441C91.1831 46.8686 90.8803 47.3975 90.7229 47.98C90.2122 47.6582 89.6353 47.4605 89.0412 47.4038C88.4471 47.3472 87.8533 47.4331 87.3104 47.6544C86.7675 47.8756 86.2914 48.2257 85.9227 48.6748C85.5539 49.1239 85.3033 49.6588 85.1921 50.234C85.081 50.8092 85.1126 51.4078 85.2843 51.9789C85.456 52.55 85.7627 53.0767 86.1783 53.5144C86.594 53.952 87.1062 54.2876 87.6717 54.4926C88.2371 54.6976 88.839 54.7661 89.4262 54.6921Z" fill="#F9FAFB" stroke="#374151" stroke-width="2" stroke-linejoin="round"/>
<path d="M268.426 176.692C268.479 177.261 268.664 177.815 268.966 178.309C269.269 178.804 269.681 179.227 270.171 179.543C270.66 179.86 271.212 180.062 271.784 180.133C272.356 180.204 272.932 180.143 273.467 179.954C274.001 179.765 274.478 179.453 274.862 179.044C275.245 178.634 275.524 178.138 275.675 177.595C275.827 177.052 275.847 176.476 275.735 175.914C275.623 175.351 275.381 174.818 275.028 174.355C275.571 174.091 276.034 173.693 276.374 173.2C276.715 172.706 276.923 172.131 276.979 171.527C277.036 170.923 276.939 170.309 276.698 169.74C276.457 169.171 276.078 168.666 275.597 168.269C275.117 167.873 274.548 167.598 273.943 167.469C273.339 167.34 272.717 167.361 272.134 167.531C271.551 167.701 271.025 168.013 270.604 168.441C270.183 168.869 269.88 169.397 269.723 169.98C269.212 169.658 268.635 169.461 268.041 169.404C267.447 169.347 266.853 169.433 266.31 169.654C265.768 169.876 265.291 170.226 264.923 170.675C264.554 171.124 264.303 171.659 264.192 172.234C264.081 172.809 264.113 173.408 264.284 173.979C264.456 174.55 264.763 175.077 265.178 175.514C265.594 175.952 266.106 176.288 266.672 176.493C267.237 176.698 267.839 176.766 268.426 176.692Z" fill="#F9FAFB" stroke="#374151" stroke-width="2" stroke-linejoin="round"/>
<path d="M4.99269 148.919C4.46767 149.794 4.14933 150.787 4.06288 151.82C3.97643 152.853 4.12425 153.897 4.49464 154.869C4.86503 155.842 5.4478 156.716 6.19676 157.423C6.94571 158.13 7.84026 158.65 8.80951 158.941C9.77877 159.233 10.7961 159.289 11.7808 159.104C12.7655 158.919 13.6906 158.498 14.4827 157.876C15.2748 157.253 15.9122 156.445 16.3443 155.516C16.7764 154.588 16.9914 153.563 16.9722 152.525C18.0337 152.717 19.1195 152.633 20.1318 152.281C21.144 151.93 22.0507 151.321 22.7699 150.511C23.4892 149.7 23.9984 148.713 24.2515 147.639C24.5046 146.565 24.4937 145.437 24.2197 144.358C23.9457 143.279 23.4173 142.282 22.6821 141.457C21.947 140.633 21.0284 140.007 20.0092 139.636C18.9899 139.265 17.9022 139.16 16.8443 139.332C15.7863 139.503 14.7915 139.945 13.9496 140.618C13.5536 139.615 12.9312 138.721 12.1351 138.012C11.339 137.303 10.3929 136.8 9.37702 136.545C8.36117 136.291 7.30563 136.292 6.30003 136.55C5.29443 136.807 4.36848 137.313 3.60087 138.025C2.83326 138.736 2.24667 139.632 1.89089 140.636C1.53512 141.64 1.4207 142.723 1.55732 143.792C1.69395 144.862 2.07757 145.886 2.67566 146.779C3.27374 147.671 4.06859 148.406 4.99269 148.919Z" fill="#F9FAFB" stroke="#374151" stroke-width="2" stroke-linejoin="round"/>
<path d="M32.4262 174.692C32.4787 175.261 32.6636 175.815 32.9664 176.309C33.2692 176.804 33.6815 177.227 34.1706 177.543C34.6597 177.86 35.2122 178.062 35.7843 178.133C36.3564 178.204 36.9324 178.143 37.4665 177.954C38.0007 177.765 38.4784 177.453 38.8618 177.044C39.2451 176.634 39.5236 176.138 39.6752 175.595C39.8267 175.052 39.8472 174.476 39.7349 173.914C39.6226 173.351 39.3807 172.818 39.0283 172.355C39.571 172.091 40.0336 171.693 40.3742 171.2C40.7148 170.706 40.9228 170.131 40.9793 169.527C41.0358 168.923 40.939 168.309 40.6978 167.74C40.4565 167.171 40.0784 166.666 39.5975 166.269C39.1166 165.873 38.5481 165.598 37.9433 165.469C37.3385 165.34 36.7166 165.361 36.1336 165.531C35.5506 165.701 35.0249 166.013 34.604 166.441C34.1831 166.869 33.8803 167.397 33.7229 167.98C33.2122 167.658 32.6353 167.461 32.0412 167.404C31.4471 167.347 30.8533 167.433 30.3104 167.654C29.7675 167.876 29.2914 168.226 28.9227 168.675C28.5539 169.124 28.3033 169.659 28.1921 170.234C28.081 170.809 28.1126 171.408 28.2843 171.979C28.456 172.55 28.7627 173.077 29.1783 173.514C29.594 173.952 30.1062 174.288 30.6717 174.493C31.2371 174.698 31.839 174.766 32.4262 174.692Z" fill="#F9FAFB" stroke="#374151" stroke-width="2" stroke-linejoin="round"/>
<path d="M126.514 14.4835C127.512 12.9262 127.948 11.0629 127.747 9.2135C127.546 7.36404 126.72 5.64367 125.412 4.34759C124.103 3.05151 122.393 2.26053 120.575 2.11037C118.757 1.96021 115.449 3.52463 115.449 3.52463C115.449 3.52463 114.022 2.15554 113.139 1.72227C112.257 1.28901 111.296 1.04509 110.317 1.00568C109.339 0.966275 108.362 1.13218 107.449 1.49314C106.536 1.85409 105.705 2.40243 105.007 3.10422C104.31 3.806 103.761 4.64631 103.394 5.57319C103.028 6.50006 102.852 7.49377 102.877 8.49286C102.902 9.49195 103.128 10.4752 103.54 11.3817C103.953 12.2882 104.543 13.0988 105.275 13.7633C104.268 14.4159 103.421 15.294 102.797 16.3308C102.173 17.3677 101.789 18.5359 101.673 19.747C101.558 20.958 101.715 22.1799 102.132 23.3198C102.549 24.4597 103.215 25.4877 104.079 26.3256C104.944 27.1636 105.984 27.7895 107.122 28.1558C108.259 28.522 109.463 28.619 110.642 28.4394C111.822 28.2598 112.945 27.8083 113.928 27.1192C114.911 26.4301 115.727 25.5216 116.314 24.4625C116.725 25.7522 117.449 26.9145 118.42 27.8405C119.391 28.7665 120.576 29.426 121.865 29.7572C123.154 30.0885 124.504 30.0806 125.788 29.7344C127.073 29.3882 128.251 28.7149 129.212 27.7777C130.172 26.8404 130.884 25.6698 131.28 24.3755C131.676 23.0811 131.744 21.7053 131.477 20.377C131.21 19.0486 130.617 17.8112 129.753 16.7804C128.89 15.7497 127.784 14.9593 126.539 14.4835H126.514Z" fill="#F9FAFB" stroke="#374151" stroke-width="2" stroke-linejoin="round"/>
<path d="M134.055 57.6198C133.966 56.3404 133.437 55.1236 132.56 54.1782C131.682 53.2327 130.511 52.6176 129.246 52.4384C127.982 52.2592 126.703 52.5271 125.63 53.1961C124.557 53.865 123.756 54.8933 123.364 56.1046C122.695 55.9496 122.004 55.9339 121.334 56.0582C120.663 56.1826 120.028 56.4445 119.467 56.8278C118.907 57.211 118.432 57.7074 118.074 58.2863C117.715 58.8651 117.48 59.5142 117.382 60.1932C117.285 60.8722 117.328 61.5668 117.507 62.234C117.687 62.9012 118.001 63.5268 118.428 64.0722C118.856 64.6175 119.388 65.0709 119.993 65.4044C120.598 65.738 121.261 65.9445 121.943 66.0112C121.654 66.7908 121.546 67.63 121.628 68.465C121.71 69.3 121.98 70.1088 122.417 70.8301C122.855 71.5514 123.448 72.1661 124.151 72.6276C124.855 73.089 125.651 73.3851 126.479 73.4933C127.307 73.6015 128.144 73.5189 128.929 73.2519C129.713 72.9849 130.422 72.5405 131.004 71.9524C131.586 71.3643 132.024 70.648 132.285 69.8579C132.547 69.0678 132.624 68.2246 132.513 67.3926C133.275 67.9399 134.159 68.2864 135.082 68.3996C136.006 68.5128 136.938 68.389 137.792 68.0398C138.646 67.6906 139.393 67.1274 139.965 66.4029C140.536 65.6784 140.913 64.8164 141.059 63.8975C141.205 62.9787 141.116 62.033 140.801 61.1491C140.485 60.2652 139.954 59.4719 139.255 58.8436C138.557 58.2153 137.715 57.7725 136.808 57.5566C135.901 57.3407 134.959 57.3588 134.069 57.6092L134.055 57.6198Z" fill="#F9FAFB" stroke="#374151" stroke-width="2" stroke-linejoin="round"/>
</svg>
