<svg width="1439" height="644" viewBox="0 0 1439 644" fill="none" xmlns="http://www.w3.org/2000/svg">
<path d="M1067 -5.04382L244.993 1.51819C220.501 1.71371 196.655 9.39935 176.658 23.5429L21.2067 133.491C-9.19194 154.991 -27.8882 189.384 -29.4008 226.587L-40.6478 503.211C-43.5649 574.958 16.758 633.188 88.3564 627.741L815.788 572.397C849.647 569.821 880.829 553.02 901.604 526.16L1162.87 188.37C1224.15 109.149 1167.14 -5.8433 1067 -5.04382Z" fill="#EFF6FF"/>
<path d="M21.6572 201.314C37.3329 158.509 75.9088 128.282 121.221 123.299L1227.46 1.63817C1278.71 -3.9986 1327.84 23.7376 1349.49 70.5356L1483.61 360.453C1488.48 370.981 1491 382.442 1491 394.042V562.433C1491 606.975 1454.62 642.939 1410.08 642.428L38.5125 626.684C-8.94725 626.139 -45.4991 584.632 -40.0379 537.484L-12.7169 301.613C-11.9928 295.362 -10.5336 289.217 -8.36947 283.308L21.6572 201.314Z" fill="#DBEAFE"/>
</svg>
