<svg width="214" height="257" viewBox="0 0 214 257" fill="none" xmlns="http://www.w3.org/2000/svg">
<path d="M142.668 185.457C142.668 224.969 110.73 257 71.333 257C31.9371 257 0 224.969 0 185.457H142.668Z" fill="black"/>
<path d="M142.667 60.258V167.572C142.667 177.449 134.684 185.455 124.836 185.455C114.983 185.455 107.001 177.449 107.001 167.572C107.001 177.449 99.0182 185.455 89.1663 185.455C79.3181 185.455 71.3359 177.449 71.3359 167.572C71.3359 177.449 63.3495 185.455 53.5012 185.455C43.653 185.455 35.6658 177.448 35.6658 167.572C35.6658 177.449 27.683 185.455 17.8347 185.455C7.98283 185.455 0 177.449 0 167.572V131.798C0 121.921 7.98283 113.915 17.8347 113.915C27.683 113.915 35.6658 121.921 35.6658 131.798C35.6658 121.921 43.6522 113.915 53.5005 113.915C63.3488 113.915 71.3352 121.921 71.3352 131.798C71.3352 121.921 79.3181 113.915 89.1656 113.915C99.0182 113.915 107 121.921 107 131.798V60.258C107 50.3766 114.983 42.3711 124.835 42.3711C134.684 42.3711 142.667 50.3766 142.667 60.258Z" fill="black"/>
<path d="M160.5 221.226C155.936 221.226 151.371 219.48 147.89 215.987C140.926 209.003 140.926 197.678 147.89 190.694L183.556 154.923C190.52 147.937 201.813 147.937 208.777 154.923C215.741 161.907 215.741 173.232 208.777 180.217L173.111 215.987C169.628 219.48 165.065 221.226 160.5 221.226Z" fill="black"/>
<ellipse cx="123.759" cy="19.0991" rx="18.0483" ry="18.1011" fill="black"/>
</svg>
