<svg width="25" height="26" viewBox="0 0 25 26" fill="none" xmlns="http://www.w3.org/2000/svg">
<path d="M23 24.9082C23.5523 24.9082 24 24.4605 24 23.9082V16.9082C24 15.0517 23.2625 13.2712 21.9497 11.9585C20.637 10.6457 18.8565 9.9082 17 9.9082C15.1435 9.9082 13.363 10.6457 12.0503 11.9585C10.7375 13.2712 10 15.0517 10 16.9082V23.9082C10 24.4605 10.4477 24.9082 11 24.9082H15C15.5523 24.9082 16 24.4605 16 23.9082V16.9082C16 16.643 16.1054 16.3886 16.2929 16.2011C16.4804 16.0136 16.7348 15.9082 17 15.9082C17.2652 15.9082 17.5196 16.0136 17.7071 16.2011C17.8946 16.3886 18 16.643 18 16.9082V23.9082C18 24.4605 18.4477 24.9082 19 24.9082H23Z" stroke="white" stroke-width="2" stroke-linecap="round" stroke-linejoin="round"/>
<path d="M7 11.9082C7 11.3559 6.55228 10.9082 6 10.9082H2C1.44772 10.9082 1 11.3559 1 11.9082V23.9082C1 24.4605 1.44772 24.9082 2 24.9082H6C6.55228 24.9082 7 24.4605 7 23.9082V11.9082Z" stroke="white" stroke-width="2" stroke-linecap="round" stroke-linejoin="round"/>
<path d="M4 7.9082C5.65685 7.9082 7 6.56506 7 4.9082C7 3.25135 5.65685 1.9082 4 1.9082C2.34315 1.9082 1 3.25135 1 4.9082C1 6.56506 2.34315 7.9082 4 7.9082Z" stroke="white" stroke-width="2" stroke-linecap="round" stroke-linejoin="round"/>
</svg>
