<svg width="128" height="128" viewBox="0 0 128 128" fill="none" xmlns="http://www.w3.org/2000/svg">
<path d="M63.9991 95.9997C63.9991 78.3263 49.6724 63.9995 31.9996 63.9995C14.3262 63.9995 0 78.3263 0 95.9997C0 113.673 14.3262 128 31.9996 128C49.6724 128 63.9991 113.673 63.9991 95.9997Z" fill="black"/>
<path d="M127.999 95.9997C127.999 78.3263 113.673 63.9995 96.0001 63.9995C78.3268 63.9995 64 78.3263 64 95.9997C64 113.673 78.3268 128 96.0001 128C113.673 128 127.999 113.673 127.999 95.9997Z" fill="black"/>
<path d="M128 64C128 28.6537 99.3464 1.14441e-05 64.0002 1.14441e-05C28.6541 1.14441e-05 0 28.6532 0 64H128Z" fill="black"/>
</svg>
