<svg width="200" height="200" viewBox="0 0 200 200" fill="none" xmlns="http://www.w3.org/2000/svg">
<circle cx="100" cy="100" r="100" fill="white"/>
<mask id="mask0_6411_10508" style="mask-type:alpha" maskUnits="userSpaceOnUse" x="0" y="0" width="200" height="200">
<circle cx="100" cy="100" r="100" fill="white"/>
</mask>
<g mask="url(#mask0_6411_10508)">
<path d="M92.0008 57.6868C90.6357 57.3612 89.5464 56.7363 88.733 55.8121C87.9264 54.8837 87.4168 53.702 87.2042 52.2669C86.9984 50.8276 87.1164 49.1822 87.558 47.3308C88.0051 45.4806 88.6434 43.9681 89.4727 42.7932C90.3089 41.6142 91.295 40.798 92.4312 40.3447C93.5729 39.8927 94.8236 39.8289 96.1831 40.1532C97.5427 40.4775 98.6299 41.0989 99.4447 42.0176C100.259 42.9363 100.771 44.1097 100.979 45.5379C101.193 46.9675 101.08 48.6052 100.64 50.4512C100.197 52.3082 99.556 53.8317 98.7172 55.0219C97.8853 56.2078 96.8978 57.0295 95.7548 57.487C94.6173 57.9458 93.3659 58.0124 92.0008 57.6868ZM92.6198 55.092C93.6809 55.3451 94.6428 55.0226 95.5054 54.1243C96.3749 53.2219 97.0529 51.751 97.5393 49.7116C97.861 48.3631 97.9903 47.1965 97.9273 46.2118C97.8643 45.2271 97.6311 44.4414 97.2279 43.8545C96.8259 43.2621 96.274 42.8822 95.5721 42.7148C94.5165 42.463 93.5567 42.789 92.6928 43.6928C91.8301 44.591 91.1548 46.0508 90.6668 48.0723C90.3383 49.4251 90.2021 50.5959 90.2583 51.5847C90.32 52.575 90.5518 53.3662 90.9538 53.9586C91.357 54.5455 91.9124 54.9233 92.6198 55.092ZM112.329 44.2497L108.279 61.2279L105.203 60.4943L108.539 46.5088L108.44 46.4851L103.864 48.0747L104.536 45.256L109.402 43.5517L112.329 44.2497Z" fill="#2E1E00"/>
<rect x="78.3348" y="14.7619" width="58.5" height="58.5" rx="29.25" transform="rotate(13.4161 78.3348 14.7619)" stroke="#2E1E00" stroke-width="1.5"/>
<path d="M149.623 243.5H122.303L120.664 225.224C120.664 225.224 114.131 226.101 109.947 223.779L108.84 243.5H86.4399C86.6718 240.924 87.2496 233.433 87.2167 227.321C87.1993 223.724 87.0583 219.645 86.7085 215.226C85.3307 197.864 80.7066 175.286 67.435 156.48C65.636 153.933 63.6804 151.456 61.5529 149.069C59.122 146.345 56.4669 143.738 53.5664 141.284C53.5664 141.284 57.6282 139.002 66.6022 138.211C67.294 138.149 68.0128 138.097 68.7626 138.055L75.752 132.696L75.5104 129.945L74.3181 116.373L74.1558 114.509C74.1558 114.507 74.1558 114.507 74.1558 114.507L73.8273 110.775C73.8273 110.775 78.4863 111.098 85.5607 114.476C89.5066 116.36 94.2061 119.195 99.267 123.456C101.988 125.744 104.815 128.447 107.684 131.633C109.076 133.179 110.481 134.841 111.883 136.625C115.968 141.802 120.081 148.014 124.054 155.465C126.55 160.151 128.993 165.328 131.34 171.048C136.913 184.634 141.936 201.278 145.845 221.668C147 227.686 148.678 236.812 149.623 243.5Z" fill="#FFDC38" stroke="#2E1E00" stroke-miterlimit="10" stroke-linecap="round" stroke-linejoin="round"/>
<path d="M69.9375 160.068L79.1027 156.86L72.3935 164.151L69.9375 160.068Z" fill="#2E1E00" stroke="#2E1E00" stroke-miterlimit="10" stroke-linecap="round" stroke-linejoin="round"/>
<path d="M73.7266 166.58L85.0599 161.526L77.2242 173.911L73.7266 166.58Z" fill="#2E1E00" stroke="#2E1E00" stroke-miterlimit="10" stroke-linecap="round" stroke-linejoin="round"/>
<path d="M148.871 129.293C148.044 143.774 142.529 158.47 134.571 167.743C134.287 168.076 131.292 170.924 131.342 171.048C128.994 165.328 126.552 160.151 124.055 155.465C123.771 154.934 128.747 147.131 129.278 145.911C130.797 142.429 131.955 138.787 132.606 135.042C133.91 127.554 133.079 119.37 131.106 112.056C129.624 106.553 124.256 103.482 122.218 98.3964C120.109 93.1423 124.981 89.4901 129.458 90.0582C132.339 90.4234 135.105 92.006 137.201 93.9674C146.353 102.53 149.64 115.819 148.871 129.293Z" fill="#FFDC38" stroke="#2E1E00" stroke-miterlimit="10" stroke-linecap="round" stroke-linejoin="round"/>
<path d="M87.1331 227.097C80.221 225.868 74.0084 223.929 68.5919 218.952C61.7745 212.689 59.2799 202.625 60.2596 193.348C60.8431 187.823 64.7253 177.234 71.334 179.556C74.6809 180.733 74.8142 184.347 73.9755 187.309C72.505 192.511 70.0258 197.375 71.0808 202.94C72.1359 208.505 76.2132 212.615 81.5408 214.165C84.0587 214.898 86.7137 215.267 86.7099 215.224C87.0036 218.905 87.8287 223.473 87.1331 227.097Z" fill="#FFDC38" stroke="#2E1E00" stroke-miterlimit="10" stroke-linecap="round" stroke-linejoin="round"/>
<path d="M95.9519 113.115L67.8281 156.825" stroke="#2E1E00" stroke-miterlimit="10" stroke-linecap="round" stroke-linejoin="round"/>
<path d="M97.3228 110.9C97.3228 110.9 103.118 118.558 99.7479 123.996C96.3779 129.432 88.2812 125.256 88.2812 125.256L97.3228 110.9Z" fill="#2E1E00" stroke="#2E1E00" stroke-miterlimit="10" stroke-linecap="round" stroke-linejoin="round"/>
<path d="M77.5078 142.428C77.5078 142.428 86.9049 144.412 90.389 139.05C93.875 133.687 86.6499 128.138 86.6499 128.138L77.5078 142.428Z" fill="#2E1E00" stroke="#2E1E00" stroke-miterlimit="10" stroke-linecap="round" stroke-linejoin="round"/>
<path d="M97.3152 131.717C97.4392 130.765 96.7787 129.893 95.8401 129.771C94.9014 129.649 94.0399 130.322 93.9159 131.274C93.7919 132.227 94.4524 133.098 95.391 133.22C96.3297 133.343 97.1912 132.669 97.3152 131.717Z" fill="#2E1E00"/>
<path d="M98.5379 136.807C98.5379 136.807 95.4055 140.882 89.3359 137.775" stroke="#2E1E00" stroke-miterlimit="10" stroke-linecap="round" stroke-linejoin="round"/>
<path d="M88.3745 119.063C90.2546 118.008 91.3341 116.361 90.7857 115.383C90.2372 114.406 88.2686 114.469 86.3885 115.524C84.5085 116.579 83.429 118.227 83.9774 119.204C84.5258 120.181 86.4944 120.118 88.3745 119.063Z" fill="#2E1E00"/>
<path d="M79.4276 133.596C80.0721 131.518 79.7351 129.568 78.6751 129.239C77.615 128.91 76.2332 130.327 75.5888 132.405C74.9443 134.482 75.2812 136.433 76.3413 136.761C77.4014 137.09 78.7832 135.673 79.4276 133.596Z" fill="#2E1E00"/>
<path d="M78.4297 177.235C78.4297 177.235 112.003 169.773 117.51 144.424" stroke="#FEFFFA" stroke-miterlimit="10" stroke-linecap="round" stroke-linejoin="round"/>
<path d="M114.968 159.341L113.113 155.909" stroke="#FEFFFA" stroke-miterlimit="10" stroke-linecap="round" stroke-linejoin="round"/>
<path d="M121.221 163.457C122.195 164.085 122.476 165.385 121.848 166.361C121.283 167.235 120.182 167.55 119.256 167.156C119.208 167.407 119.107 167.656 118.961 167.884C118.333 168.858 117.032 169.138 116.056 168.51C115.48 168.139 115.148 167.534 115.102 166.9C114.964 166.966 114.818 167.014 114.661 167.049C113.527 167.293 112.408 166.572 112.164 165.438C111.921 164.303 112.642 163.186 113.776 162.943C113.977 162.9 114.178 162.887 114.373 162.902C113.473 162.253 113.229 161.003 113.838 160.06C114.466 159.086 115.766 158.806 116.742 159.434C117.165 159.706 117.459 160.104 117.602 160.551C118.244 159.621 119.513 159.362 120.47 159.981C121.444 160.611 121.726 161.911 121.096 162.887C121.009 163.022 120.907 163.146 120.794 163.254C120.943 163.3 121.086 163.37 121.221 163.457Z" fill="#FEFFFA" stroke="#2E1E00" stroke-miterlimit="10" stroke-linecap="round" stroke-linejoin="round"/>
<path d="M92.0154 190.606C86.4811 178.839 81.7255 166.71 75.996 155.036C71.0878 145.038 65.0897 135.589 60.5506 125.409C56.5776 116.503 52.4308 107.261 51.0936 97.5214C50.5931 93.8789 52.052 89.4924 56.6414 90.8489C60.9583 92.1243 63.7467 96.9475 66.0115 100.468C74.3187 113.384 80.8308 127.328 87.3178 141.212C93.7855 155.058 100.947 168.602 106.86 182.7" fill="#FFDC38"/>
<path d="M92.0154 190.606C86.4811 178.839 81.7255 166.71 75.996 155.037C71.0878 145.038 65.0897 135.589 60.5506 125.409C56.5776 116.503 52.4308 107.261 51.0936 97.5214C50.5931 93.8789 52.052 89.4924 56.6414 90.8489C60.9583 92.1243 63.7467 96.9475 66.0115 100.468C74.3187 113.384 80.8308 127.328 87.3178 141.212C93.7855 155.058 100.947 168.602 106.86 182.7" stroke="#2E1E00" stroke-miterlimit="10" stroke-linecap="round" stroke-linejoin="round"/>
</g>
</svg>
