<svg width="200" height="200" viewBox="0 0 200 200" fill="none" xmlns="http://www.w3.org/2000/svg">
<circle cx="100" cy="100" r="100" fill="white"/>
<mask id="mask0_6411_10560" style="mask-type:alpha" maskUnits="userSpaceOnUse" x="0" y="0" width="200" height="200">
<circle cx="100" cy="100" r="100" fill="white"/>
</mask>
<g mask="url(#mask0_6411_10560)">
<path d="M51.0004 243.5H78.3203L79.9589 225.224C79.9589 225.224 86.4923 226.101 90.6758 223.779L91.7831 243.5H114.183C113.951 240.924 113.373 233.433 113.406 227.321C113.424 223.724 113.565 219.645 113.915 215.226C115.292 197.864 119.916 175.286 133.188 156.48C134.987 153.933 136.943 151.456 139.07 149.069C141.501 146.345 144.156 143.738 147.057 141.284C147.057 141.284 142.995 139.002 134.021 138.211C133.329 138.149 132.61 138.097 131.86 138.055L124.871 132.696L125.113 129.945L126.305 116.373L126.467 114.509C126.467 114.507 126.467 114.507 126.467 114.507L126.796 110.775C126.796 110.775 122.137 111.098 115.062 114.476C111.116 116.36 106.417 119.195 101.356 123.456C98.6353 125.744 95.8082 128.447 92.9386 131.633C91.5473 133.179 90.1425 134.841 88.7396 136.625C84.6546 141.802 80.5425 148.014 76.5695 155.465C74.0729 160.151 71.6304 165.328 69.2826 171.048C63.7096 184.634 58.6874 201.278 54.7782 221.668C53.6226 227.686 51.9453 236.812 51.0004 243.5Z" fill="#FA6456" stroke="#2E1E00" stroke-miterlimit="10" stroke-linecap="round" stroke-linejoin="round"/>
<path d="M130.686 160.068L121.52 156.86L128.23 164.151L130.686 160.068Z" fill="#2E1E00" stroke="#2E1E00" stroke-miterlimit="10" stroke-linecap="round" stroke-linejoin="round"/>
<path d="M126.896 166.58L115.563 161.526L123.399 173.911L126.896 166.58Z" fill="#2E1E00" stroke="#2E1E00" stroke-miterlimit="10" stroke-linecap="round" stroke-linejoin="round"/>
<path d="M51.7523 129.293C52.5793 143.774 58.0943 158.47 66.0518 167.743C66.3359 168.076 69.3311 170.924 69.2808 171.048C71.6287 165.328 74.0712 160.151 76.5678 155.465C76.8519 154.934 71.876 147.131 71.3446 145.911C69.8258 142.429 68.6683 138.787 68.0171 135.042C66.7127 127.554 67.5436 119.37 69.5166 112.056C70.9987 106.553 76.3668 103.482 78.4055 98.3964C80.5137 93.1423 75.6422 89.4901 71.1649 90.0582C68.2837 90.4234 65.5185 92.006 63.4219 93.9674C54.2702 102.53 50.9832 115.819 51.7523 129.293Z" fill="#FA6456" stroke="#2E1E00" stroke-miterlimit="10" stroke-linecap="round" stroke-linejoin="round"/>
<path d="M113.49 227.097C120.402 225.868 126.615 223.929 132.031 218.952C138.849 212.689 141.343 202.625 140.363 193.348C139.78 187.823 135.898 177.234 129.289 179.556C125.942 180.733 125.809 184.347 126.648 187.309C128.118 192.511 130.597 197.375 129.542 202.94C128.487 208.505 124.41 212.615 119.082 214.165C116.564 214.898 113.909 215.267 113.913 215.224C113.619 218.905 112.794 223.473 113.49 227.097Z" fill="#FFDC38" stroke="#2E1E00" stroke-miterlimit="10" stroke-linecap="round" stroke-linejoin="round"/>
<path d="M104.671 113.115L132.795 156.825" stroke="#2E1E00" stroke-miterlimit="10" stroke-linecap="round" stroke-linejoin="round"/>
<path d="M103.3 110.9C103.3 110.9 97.505 118.558 100.875 123.996C104.245 129.432 112.342 125.256 112.342 125.256L103.3 110.9Z" fill="#2E1E00" stroke="#2E1E00" stroke-miterlimit="10" stroke-linecap="round" stroke-linejoin="round"/>
<path d="M123.115 142.428C123.115 142.428 113.718 144.412 110.234 139.05C106.748 133.687 113.973 128.138 113.973 128.138L123.115 142.428Z" fill="#2E1E00" stroke="#2E1E00" stroke-miterlimit="10" stroke-linecap="round" stroke-linejoin="round"/>
<path d="M103.308 131.717C103.184 130.765 103.844 129.893 104.783 129.771C105.722 129.649 106.583 130.322 106.707 131.274C106.831 132.227 106.171 133.098 105.232 133.22C104.293 133.343 103.432 132.669 103.308 131.717Z" fill="#2E1E00"/>
<path d="M102.085 136.807C102.085 136.807 105.218 140.882 111.287 137.775" stroke="#2E1E00" stroke-miterlimit="10" stroke-linecap="round" stroke-linejoin="round"/>
<path d="M112.249 119.063C110.368 118.008 109.289 116.361 109.837 115.383C110.386 114.406 112.354 114.469 114.235 115.524C116.115 116.579 117.194 118.227 116.646 119.204C116.097 120.181 114.129 120.118 112.249 119.063Z" fill="#2E1E00"/>
<path d="M121.195 133.596C120.551 131.518 120.888 129.568 121.948 129.239C123.008 128.91 124.39 130.327 125.034 132.405C125.679 134.482 125.342 136.433 124.282 136.761C123.222 137.09 121.84 135.673 121.195 133.596Z" fill="#2E1E00"/>
<path d="M122.193 177.235C122.193 177.235 88.6203 169.773 83.1131 144.424" stroke="#FEFFFA" stroke-miterlimit="10" stroke-linecap="round" stroke-linejoin="round"/>
<path d="M85.6547 159.341L87.5098 155.909" stroke="#FEFFFA" stroke-miterlimit="10" stroke-linecap="round" stroke-linejoin="round"/>
<path d="M79.4016 163.457C78.4276 164.085 78.1474 165.385 78.7755 166.361C79.3397 167.235 80.4412 167.55 81.3668 167.156C81.4151 167.407 81.5156 167.656 81.6624 167.884C82.2905 168.858 83.5909 169.138 84.5668 168.51C85.1426 168.139 85.475 167.534 85.5214 166.9C85.6586 166.966 85.8054 167.014 85.962 167.049C87.0963 167.293 88.2151 166.572 88.4586 165.438C88.7021 164.303 87.9813 163.186 86.847 162.943C86.646 162.9 86.445 162.887 86.2499 162.902C87.1504 162.253 87.3938 161.003 86.7851 160.06C86.1571 159.086 84.8566 158.806 83.8808 159.434C83.4576 159.706 83.1639 160.104 83.0209 160.551C82.3793 159.621 81.1098 159.362 80.1532 159.981C79.1793 160.611 78.8972 161.911 79.5272 162.887C79.6141 163.022 79.7165 163.146 79.8286 163.254C79.6798 163.3 79.5368 163.37 79.4016 163.457Z" fill="#FEFFFA" stroke="#2E1E00" stroke-miterlimit="10" stroke-linecap="round" stroke-linejoin="round"/>
<path d="M108.608 190.606C114.142 178.839 118.898 166.71 124.627 155.036C129.535 145.038 135.533 135.589 140.072 125.409C144.045 116.503 148.192 107.261 149.529 97.5214C150.03 93.8789 148.571 89.4924 143.982 90.8489C139.665 92.1243 136.876 96.9475 134.612 100.468C126.304 113.384 119.792 127.328 113.305 141.212C106.838 155.058 99.6762 168.602 93.7632 182.7" fill="#FA6456"/>
<path d="M108.608 190.606C114.142 178.839 118.898 166.71 124.627 155.037C129.535 145.038 135.533 135.589 140.072 125.409C144.045 116.503 148.192 107.261 149.529 97.5214C150.03 93.8789 148.571 89.4924 143.982 90.8489C139.665 92.1243 136.876 96.9475 134.612 100.468C126.304 113.384 119.792 127.328 113.305 141.212C106.838 155.058 99.6762 168.602 93.7632 182.7" stroke="#2E1E00" stroke-miterlimit="10" stroke-linecap="round" stroke-linejoin="round"/>
<path d="M93.2866 60.2955C91.8951 60.4784 90.6546 60.2832 89.5649 59.7101C88.4802 59.1306 87.5825 58.2084 86.8718 56.9437C86.1661 55.6725 85.6892 54.0933 85.4412 52.2062C85.1988 50.3182 85.2554 48.6776 85.611 47.2841C85.9714 45.8843 86.6015 44.77 87.5012 43.9412C88.4065 43.1116 89.552 42.6057 90.9379 42.4236C92.3237 42.2415 93.561 42.4342 94.6499 43.0017C95.7388 43.5692 96.6354 44.4829 97.3397 45.7428C98.0496 47.0019 98.5282 48.5722 98.7754 50.4538C99.0242 52.3466 98.9691 53.9986 98.6101 55.4096C98.256 56.8143 97.6267 57.9343 96.7221 58.7695C95.8232 59.604 94.678 60.1126 93.2866 60.2955ZM92.939 57.6506C94.0206 57.5085 94.8041 56.864 95.2895 55.7171C95.7797 54.5638 95.8883 52.9478 95.6151 50.8691C95.4345 49.4946 95.139 48.3586 94.7288 47.4612C94.3186 46.5638 93.8205 45.913 93.2344 45.5086C92.6476 45.0986 91.9964 44.9407 91.281 45.0347C90.205 45.1761 89.4247 45.823 88.9401 46.9756C88.4547 48.1224 88.3447 49.7272 88.61 51.7897C88.7857 53.1706 89.0763 54.313 89.4816 55.2167C89.8925 56.1198 90.3914 56.7763 90.9782 57.1862C91.5643 57.5906 92.2179 57.7454 92.939 57.6506ZM108.96 58.1412C107.743 58.3011 106.634 58.2348 105.633 57.9423C104.637 57.6491 103.817 57.1666 103.173 56.4948C102.529 55.823 102.126 55.002 101.964 54.0319L105.141 53.6143C105.231 54.0782 105.44 54.4663 105.767 54.7785C106.094 55.0851 106.504 55.3035 106.996 55.4336C107.489 55.5637 108.026 55.5906 108.606 55.5143C109.226 55.4329 109.761 55.2537 110.212 54.9767C110.661 54.6941 110.996 54.3406 111.215 53.9164C111.435 53.4921 111.508 53.0269 111.436 52.5206C111.373 51.996 111.177 51.5518 110.848 51.1881C110.52 50.8244 110.079 50.5643 109.525 50.4079C108.977 50.2506 108.337 50.2201 107.605 50.3164L106.075 50.5174L105.758 48.1007L107.287 47.8997C107.89 47.8204 108.403 47.647 108.826 47.3793C109.255 47.1109 109.574 46.771 109.784 46.3595C109.993 45.9424 110.061 45.4835 109.99 44.9829C109.931 44.492 109.765 44.0811 109.493 43.7502C109.225 43.4129 108.875 43.1695 108.442 43.02C108.016 42.8698 107.532 42.8302 106.991 42.9013C106.462 42.9709 105.984 43.131 105.559 43.3818C105.133 43.6326 104.806 43.9535 104.576 44.3447C104.346 44.7303 104.255 45.1664 104.301 45.6531L101.285 46.0495C101.18 45.0776 101.347 44.1903 101.786 43.3877C102.23 42.5786 102.875 41.9092 103.723 41.3796C104.569 40.8442 105.553 40.5029 106.674 40.3556C107.829 40.2038 108.86 40.2889 109.768 40.6109C110.68 40.9265 111.418 41.4169 111.981 42.0822C112.544 42.7475 112.884 43.5195 112.999 44.3983C113.133 45.3721 112.953 46.2267 112.459 46.9621C111.971 47.6967 111.273 48.2269 110.364 48.5526L110.382 48.6878C111.621 48.6969 112.613 49.025 113.357 49.6722C114.106 50.313 114.549 51.1746 114.685 52.257C114.812 53.2259 114.65 54.1297 114.199 54.9684C113.753 55.8007 113.076 56.4971 112.17 57.0574C111.269 57.6171 110.199 57.9783 108.96 58.1412Z" fill="#2E1E00"/>
<rect x="67.188" y="24.8109" width="58.5" height="58.5" rx="29.25" transform="rotate(-7.48683 67.188 24.8109)" stroke="#2E1E00" stroke-width="1.5"/>
</g>
</svg>
