<svg width="88" height="88" viewBox="0 0 88 88" fill="none" xmlns="http://www.w3.org/2000/svg">
<path fill-rule="evenodd" clip-rule="evenodd" d="M88 44C88 55.6695 83.3643 66.8611 75.1127 75.1127C66.8611 83.3643 55.6695 88 44 88C32.3305 88 21.1389 83.3643 12.8873 75.1127C4.6357 66.8611 0 55.6695 0 44V0H87.8523V44H88ZM66 44C66 49.8348 63.6821 55.4305 59.5564 59.5563C55.4305 63.6821 49.8348 66 44 66C38.1652 66 32.5695 63.6822 28.4437 59.5564C24.3179 55.4306 22 49.8348 22 44C22 38.1652 24.3179 32.5694 28.4437 28.4436C32.5695 24.3178 38.1652 22 44 22C49.8348 22 55.4305 24.3179 59.5564 28.4436C63.6821 32.5695 66 38.1652 66 44Z" fill="black"/>
</svg>
