<svg width="25" height="25" viewBox="0 0 25 25" fill="none" xmlns="http://www.w3.org/2000/svg">
<path d="M5.47131 24.9082C5.29364 24.9082 5.11624 24.8615 4.95792 24.7686C4.66232 24.5954 4.47225 24.2846 4.45134 23.9404L4.24287 20.5082C1.85842 18.3672 0.5 15.3882 0.5 12.2661C0.5 6.00325 5.88319 0.908203 12.5 0.908203C19.1168 0.908203 24.5 6.00332 24.5 12.2661C24.5 18.5288 19.1168 23.624 12.5 23.624C11.372 23.624 10.259 23.4764 9.18509 23.1848L5.92203 24.8025C5.77971 24.8732 5.62534 24.9082 5.47131 24.9082ZM12.5001 2.96971C7.01012 2.96971 2.54383 7.14001 2.54383 12.266C2.54383 14.9169 3.76204 17.4493 5.88612 19.2138C6.10501 19.3956 6.23922 19.661 6.25652 19.9465L6.39761 22.2697L8.63723 21.1594C8.87001 21.0438 9.13768 21.0221 9.38579 21.0984C10.3874 21.4062 11.4352 21.5623 12.5001 21.5623C17.9901 21.5623 22.4564 17.392 22.4564 12.266C22.4564 7.14001 17.99 2.96971 12.5001 2.96971Z" fill="white"/>
</svg>
