<svg width="33" height="32" viewBox="0 0 33 32" fill="none" xmlns="http://www.w3.org/2000/svg">
<path fill-rule="evenodd" clip-rule="evenodd" d="M7.28484 14.32C7.58404 15.1466 8.16398 15.9386 8.60946 16.6843C11.957 22.2857 18.9276 25.2583 25.456 20.4262C36.0095 12.6176 34.3771 4.87721 21.333 3.39115C8.28896 1.90557 3.01603 6.89066 7.28484 14.32Z" fill="#5CC2EF"/>
<path fill-rule="evenodd" clip-rule="evenodd" d="M3.49189 21.0182C4.97842 34.0622 12.5252 35.5497 20.5269 25.1412C26.5961 17.2464 24.8222 4.64831 12.1247 7.54562C7.01223 8.7126 2.55784 12.8228 3.49189 21.0182Z" fill="#FCB125"/>
<path fill-rule="evenodd" clip-rule="evenodd" d="M22.3615 22.1468C23.2786 20.2196 23.796 18.181 23.8793 16.248C22.6953 17.5817 21.739 18.3879 19.9509 19.7092C18.1628 21.0296 17.1426 21.7525 15.9297 22.4905C17.946 23.0416 20.1422 22.9933 22.3615 22.1468Z" fill="#518A3F"/>
<path fill-rule="evenodd" clip-rule="evenodd" d="M1.88481 14.7973C7.11986 26.8373 9.17403 27.5961 19.9481 19.709C30.7221 11.8214 26.1622 6.82682 14.7973 1.88481C2.75732 -3.35025 -3.35025 2.75732 1.88481 14.7973Z" fill="#D34E9C"/>
<path fill-rule="evenodd" clip-rule="evenodd" d="M23.8783 16.2485C28.629 10.8724 25.2498 6.91841 17.5122 3.13296C9.04656 2.99898 4.96569 6.20023 5.99112 11.0878V11.0883L6.00485 11.1517L6.00011 11.1285C6.98009 15.7032 11.3033 21.2331 15.9258 22.4901C16.5029 22.6345 23.1516 17.5779 23.8783 16.2485Z" fill="#53479D"/>
<path fill-rule="evenodd" clip-rule="evenodd" d="M5.9891 11.0879C4.51677 12.795 3.53395 15.1058 3.38672 18.1035C6.96813 25.539 9.40812 26.6155 15.9261 22.4902L15.9233 22.4892C11.2876 21.229 6.95203 15.6701 5.9891 11.0879Z" fill="#EE2A26"/>
<path fill-rule="evenodd" clip-rule="evenodd" d="M15.9263 22.4904C15.9769 22.5027 16.073 22.4757 16.2075 22.4156C17.6168 21.7812 23.2131 17.4608 23.8759 16.2479C24.3702 8.47671 18.4193 5.69349 11.9065 7.44608C9.59762 8.06768 7.59743 9.22234 5.98828 11.0876C6.95169 15.6703 11.2906 21.2301 15.9263 22.4904Z" fill="#1D174A"/>
<path fill-rule="evenodd" clip-rule="evenodd" d="M18.4112 18.391C18.4301 18.472 18.4368 18.5572 18.4453 18.6391C18.5793 19.9448 18.8624 21.4323 16.8267 22.3488C15.9499 22.7436 14.7399 22.4032 13.4223 21.5989C11.4472 20.3926 9.28702 18.1572 7.96287 16.0277C3.26231 8.46818 14.2352 4.91896 18.1021 9.00267C19.6932 10.6828 19.964 13.5276 18.3894 15.5515C17.7607 16.3596 18.1565 17.3078 18.4112 18.391Z" fill="white"/>
</svg>
