<svg width="72" height="72" viewBox="0 0 72 72" fill="none" xmlns="http://www.w3.org/2000/svg">
<rect width="72" height="72" rx="36" fill="#FDEAA7"/>
<path fill-rule="evenodd" clip-rule="evenodd" d="M26.8671 26.869C27.4919 26.2442 28.505 26.2442 29.1298 26.869L35.9984 33.7376L42.8671 26.869C43.4919 26.2442 44.505 26.2442 45.1298 26.869C45.7546 27.4939 45.7546 28.5069 45.1298 29.1318L38.2612 36.0004L45.1298 42.869C45.7546 43.4939 45.7546 44.5069 45.1298 45.1318C44.505 45.7566 43.4919 45.7566 42.8671 45.1318L35.9984 38.2631L29.1298 45.1318C28.505 45.7566 27.4919 45.7566 26.8671 45.1318C26.2422 44.5069 26.2422 43.4939 26.8671 42.869L33.7357 36.0004L26.8671 29.1318C26.2422 28.5069 26.2422 27.4939 26.8671 26.869Z" fill="#F97316"/>
</svg>
