<svg width="148" height="142" viewBox="0 0 148 142" fill="none" xmlns="http://www.w3.org/2000/svg">
<path d="M116.997 60.8888C116.953 60.8941 116.921 60.8485 116.941 60.809C120.509 53.5833 121.459 45.3412 119.627 37.4904C117.787 29.6062 113.257 22.6103 106.817 17.7076C100.377 12.8048 92.4297 10.302 84.3442 10.6305C80.6267 10.7815 76.9869 11.5267 73.5541 12.8134C66.6506 15.4011 58.3957 15.3367 51.4167 12.9602C47.3069 11.5607 42.9539 11.0197 38.6269 11.3705C34.3 11.7214 30.0912 12.9567 26.2607 15.0001C22.4302 17.0434 19.0596 19.8514 16.3573 23.2503C13.6551 26.6491 11.6787 30.5666 10.5503 34.7603C9.42196 38.9541 9.16567 43.335 9.79733 47.632C10.429 51.929 11.9352 56.0507 14.2226 59.7423C17.6514 65.2756 17.9895 73.3085 14.807 78.987C14.3501 79.8022 13.9254 80.6371 13.5342 81.4897C11.3298 86.295 10.249 91.5399 10.374 96.8259C10.4991 102.112 11.8267 107.3 14.2559 111.996C16.6851 116.692 20.1521 120.773 24.3935 123.928C28.6348 127.083 33.539 129.229 38.7335 130.204C43.928 131.179 49.2762 130.957 54.3718 129.554C59.4673 128.152 64.1762 125.606 68.1408 122.11C72.6715 118.115 82.1746 117.926 86.8587 121.74C87.3225 122.118 87.7966 122.484 88.2807 122.838C93.0363 126.319 98.5972 128.535 104.442 129.279C110.287 130.022 116.225 129.269 121.7 127.09C127.174 124.911 132.006 121.377 135.742 116.82C139.479 112.263 141.997 106.831 143.062 101.033C144.128 95.2358 143.704 89.2624 141.832 83.673C139.96 78.0836 136.7 73.0611 132.358 69.0759C128.019 65.0929 122.74 62.2764 117.017 60.8899C117.01 60.8884 117.004 60.888 116.997 60.8888Z" fill="#FDEAA7"/>
<path d="M54.6667 98.3333H94.6667C98.3486 98.3333 101.333 95.3486 101.333 91.6667V75H92.714C91.83 75 90.9821 75.3512 90.357 75.9763L82.3096 84.0237C81.6845 84.6488 80.8367 85 79.9526 85H69.3807C68.4967 85 67.6488 84.6488 67.0237 84.0237L58.9763 75.9763C58.3512 75.3512 57.5033 75 56.6193 75H48V91.6667C48 95.3486 50.9848 98.3333 54.6667 98.3333Z" fill="#93C5FD"/>
<path d="M61.099 44.2992H54.4323C50.7504 44.2992 47.7656 47.2839 47.7656 50.9658V90.9658C47.7656 94.6477 50.7504 97.6325 54.4323 97.6325H94.4323C98.1142 97.6325 101.099 94.6477 101.099 90.9658V50.9658C101.099 47.2839 98.1142 44.2992 94.4323 44.2992H87.7656M74.4323 40.9658V67.6325M74.4323 67.6325L84.4323 57.6325M74.4323 67.6325L64.4323 57.6325M47.7656 74.2992H56.3849C57.269 74.2992 58.1168 74.6503 58.7419 75.2755L66.7893 83.3228C67.4144 83.948 68.2623 84.2992 69.1463 84.2992H79.7182C80.6023 84.2992 81.4501 83.948 82.0753 83.3228L90.1226 75.2755C90.7478 74.6503 91.5956 74.2992 92.4797 74.2992H101.099" stroke="#111827" stroke-width="3" stroke-linecap="round" stroke-linejoin="round"/>
</svg>
