<svg width="30" height="25" viewBox="0 0 30 25" fill="none" xmlns="http://www.w3.org/2000/svg">
<path d="M28.9216 0.715685C28.5693 0.283168 28.0406 0.0449219 27.4326 0.0449219C27.1046 0.0449219 26.7571 0.113588 26.3998 0.248947L1.96329 9.5076C0.663989 9.99999 0.48911 10.7412 0.500498 11.1391C0.51183 11.5351 0.726679 12.2598 2.03449 12.6781L7.21687 14.5772L9.94812 20.8292C10.2227 21.6939 10.7964 22.3005 11.5286 22.4972C11.6974 22.5426 11.8697 22.5649 12.0433 22.5649C12.6379 22.5649 13.2468 22.3031 13.7726 21.8092L16.0355 19.6833L21.5567 23.4835C22.0539 23.8509 22.5949 24.045 23.1225 24.0449C24.1933 24.0449 25.0473 23.261 25.2983 22.0479L29.2948 2.71862C29.4591 1.92422 29.3265 1.21292 28.9216 0.715685ZM8.93437 14.2838L15.9865 10.502L11.0716 15.0104C10.8967 15.1709 10.7992 15.397 10.7989 15.6326C10.7986 15.6413 10.7975 15.6498 10.7974 15.6585L10.7805 18.5095L8.93437 14.2838ZM12.6147 20.5765C12.5625 20.6255 12.5103 20.6686 12.4586 20.706L12.4793 17.2355L14.6098 18.7019L12.6147 20.5765ZM27.6386 2.37613L23.6421 21.7054C23.6018 21.9003 23.4704 22.3536 23.1224 22.3536C22.9599 22.3536 22.7583 22.27 22.5547 22.118C22.546 22.1114 22.5371 22.1051 22.5282 22.099L16.4413 17.9094C16.4405 17.9088 16.4396 17.9083 16.4388 17.9077L12.9974 15.5389L22.0883 7.20001C22.4025 6.91187 22.453 6.43499 22.2063 6.08737C21.9596 5.73976 21.4927 5.63016 21.117 5.8316L7.78159 12.9829L2.5991 11.0838C2.59532 11.0824 2.59155 11.081 2.58771 11.0797L26.9991 1.83052C27.2048 1.75256 27.3484 1.73621 27.4326 1.73621C27.4744 1.73621 27.5753 1.74083 27.6102 1.78367C27.6549 1.83853 27.7111 2.02508 27.6386 2.37613Z" fill="white"/>
</svg>
