<svg width="148" height="142" viewBox="0 0 148 142" fill="none" xmlns="http://www.w3.org/2000/svg">
<path d="M116.997 60.8897C116.953 60.895 116.921 60.8495 116.941 60.81C120.509 53.5843 121.459 45.3421 119.627 37.4913C117.787 29.6072 113.257 22.6113 106.817 17.7085C100.377 12.8058 92.4297 10.303 84.3442 10.6315C80.6267 10.7825 76.9869 11.5276 73.5541 12.8144C66.6506 15.402 58.3957 15.3377 51.4167 12.9611C47.3069 11.5617 42.9539 11.0206 38.6269 11.3715C34.3 11.7224 30.0912 12.9577 26.2607 15.0011C22.4302 17.0444 19.0596 19.8524 16.3573 23.2513C13.6551 26.6501 11.6787 30.5675 10.5503 34.7613C9.42196 38.9551 9.16567 43.336 9.79733 47.633C10.429 51.93 11.9352 56.0517 14.2226 59.7432C17.6514 65.2766 17.9895 73.3095 14.807 78.988C14.3501 79.8032 13.9254 80.6381 13.5342 81.4907C11.3298 86.296 10.249 91.5409 10.374 96.8269C10.4991 102.113 11.8267 107.301 14.2559 111.997C16.6851 116.693 20.1521 120.774 24.3935 123.929C28.6348 127.084 33.539 129.23 38.7335 130.205C43.928 131.18 49.2762 130.958 54.3718 129.555C59.4673 128.153 64.1762 125.607 68.1408 122.111C72.6715 118.116 82.1746 117.927 86.8587 121.741C87.3225 122.119 87.7966 122.485 88.2807 122.839C93.0363 126.32 98.5972 128.536 104.442 129.28C110.287 130.023 116.225 129.27 121.7 127.091C127.174 124.912 132.006 121.378 135.742 116.821C139.479 112.264 141.997 106.832 143.062 101.034C144.128 95.2368 143.704 89.2634 141.832 83.6739C139.96 78.0845 136.7 73.0621 132.358 69.0769C128.019 65.0939 122.74 62.2774 117.017 60.8909C117.01 60.8893 117.004 60.889 116.997 60.8897Z" fill="#FDEAA7"/>
<path d="M113 90V74H35V90C35 93.3137 37.6863 96 41 96H107C110.314 96 113 93.3137 113 90Z" fill="#93C5FD" stroke="#111827" stroke-linecap="round" stroke-linejoin="round"/>
<path d="M43.1205 57.1266C44.1202 55.0493 46.2217 53.7285 48.527 53.7285H99.0653C101.329 53.7285 103.4 55.0022 104.42 57.0224L113 74H35L43.1205 57.1266Z" fill="#60A5FA" stroke="#111827" stroke-linejoin="round"/>
<rect x="54" y="35" width="40" height="30" fill="white" stroke="#111827" stroke-linejoin="round"/>
<path d="M48 65H100" stroke="black" stroke-linecap="round" stroke-linejoin="round"/>
<path d="M67 52L70.8095 56L80.3333 46" stroke="#10B981" stroke-width="3" stroke-linecap="round" stroke-linejoin="round"/>
</svg>
