<svg width="200" height="200" viewBox="0 0 200 200" fill="none" xmlns="http://www.w3.org/2000/svg">
<circle cx="100" cy="100" r="100" fill="white"/>
<mask id="mask0_6411_10535" style="mask-type:alpha" maskUnits="userSpaceOnUse" x="0" y="0" width="200" height="200">
<circle cx="100" cy="100" r="100" fill="white"/>
</mask>
<g mask="url(#mask0_6411_10535)">
<path d="M93.7827 60.2301C92.3912 60.4129 91.1507 60.2178 90.061 59.6447C88.9763 59.0652 88.0786 58.143 87.3679 56.8782C86.6622 55.6071 86.1853 54.0279 85.9373 52.1407C85.6949 50.2528 85.7515 48.6121 86.1071 47.2187C86.4675 45.8189 87.0976 44.7046 87.9973 43.8757C88.9026 43.0461 90.0481 42.5403 91.4339 42.3582C92.8198 42.1761 94.0571 42.3687 95.146 42.9362C96.2349 43.5037 97.1315 44.4174 97.8358 45.6773C98.5457 46.9365 99.0242 48.5068 99.2715 50.3884C99.5203 52.2812 99.4652 53.9331 99.1062 55.3442C98.7521 56.7489 98.1228 57.8689 97.2182 58.7041C96.3193 59.5385 95.1741 60.0472 93.7827 60.2301ZM93.4351 57.5852C94.5167 57.4431 95.3002 56.7985 95.7856 55.6517C96.2758 54.4984 96.3844 52.8824 96.1112 50.8037C95.9306 49.4291 95.6351 48.2932 95.2249 47.3958C94.8147 46.4984 94.3166 45.8475 93.7305 45.4432C93.1437 45.0332 92.4925 44.8752 91.7771 44.9692C90.7011 45.1107 89.9208 45.7576 89.4362 46.9101C88.9508 48.057 88.8408 49.6617 89.1061 51.7243C89.2818 53.1052 89.5724 54.2476 89.9777 55.1513C90.3886 56.0543 90.8875 56.7108 91.4743 57.1208C92.0604 57.5252 92.714 57.68 93.4351 57.5852ZM103.214 58.6554L102.916 56.3908L108.15 49.7115C108.649 49.0557 109.06 48.4774 109.384 47.9764C109.707 47.4753 109.937 47.001 110.073 46.5533C110.209 46.1056 110.246 45.6424 110.183 45.1636C110.111 44.6171 109.926 44.1658 109.627 43.8097C109.327 43.4479 108.946 43.1885 108.485 43.0315C108.023 42.8744 107.516 42.8321 106.964 42.9047C106.395 42.9795 105.912 43.1633 105.515 43.4562C105.117 43.7434 104.828 44.1166 104.647 44.5759C104.473 45.0343 104.424 45.5593 104.502 46.1508L101.519 46.5429C101.375 45.4443 101.5 44.4565 101.895 43.5794C102.289 42.7023 102.897 41.9835 103.717 41.423C104.543 40.8617 105.528 40.506 106.672 40.3557C107.832 40.2032 108.88 40.2861 109.816 40.6043C110.752 40.9226 111.512 41.4274 112.095 42.1186C112.685 42.809 113.043 43.6387 113.17 44.6077C113.255 45.2555 113.215 45.9084 113.049 46.5662C112.884 47.2241 112.538 47.9744 112.013 48.8171C111.493 49.659 110.744 50.6945 109.765 51.9234L107.181 55.349L107.196 55.4673L114.734 54.4767L115.078 57.0962L103.214 58.6554Z" fill="#2E1E00"/>
<rect x="67.188" y="24.8109" width="58.5" height="58.5" rx="29.25" transform="rotate(-7.48683 67.188 24.8109)" stroke="#2E1E00" stroke-width="1.5"/>
<path d="M154.863 125.373C154.013 138.598 150.089 155.18 139.099 163.892C134.911 167.217 131.057 169.1 126.571 170.191C125.359 170.488 124.102 170.724 122.777 170.915C123.883 191.141 125.881 212.023 126.904 221.002H104.392L103.817 210.156C99.0966 211.28 90.4346 209.721 90.4346 209.721L89.4449 221.398L66.4 221.002C65.4313 205.596 67.5649 187.377 69.9734 171.708C63.8794 168.893 59.6176 165.29 56.6467 161.498C48.2037 150.718 50.2076 138.423 50.2076 138.423C51.2937 123.592 52.6319 112.015 54.1366 103.048C54.296 102.099 54.4572 101.178 54.6201 100.286C54.8828 98.8444 55.1508 97.4764 55.4223 96.1802C55.7149 94.7893 56.0126 93.4809 56.3139 92.2494C57.5278 87.2817 58.8118 83.5857 60.1256 80.9022C60.5512 80.0351 60.9804 79.2731 61.4113 78.6075C64.03 74.5594 66.7293 74.0829 69.236 75.1847C71.3029 76.0921 72.3714 78.2974 72.7603 81.4872C72.8251 81.9934 72.8689 82.5259 72.8987 83.0812C72.9968 84.9608 72.9144 87.1118 72.7025 89.4836C72.6447 90.1439 72.5764 90.8218 72.4976 91.5172C72.4205 92.2039 72.3329 92.9081 72.2383 93.6262C72.1787 94.0939 72.1139 94.5686 72.0456 95.0486C70.7249 104.425 68.2585 116.091 66.8327 127.941C66.1145 133.916 66.2143 138.425 66.7819 141.829C68.0256 149.289 71.5219 151.429 73.5713 152.037C79.2677 124.958 86.5074 104.408 86.5074 104.408L91.4365 117.02C100.219 113.501 107.321 115.131 111.49 116.909C114.101 118.022 115.562 119.194 115.562 119.194L115.648 119.123L125.809 110.898C122.805 118.724 121.886 133.054 122.033 148.97C122.045 150.445 122.07 151.934 122.099 153.433C122.38 153.412 122.67 153.386 122.97 153.351C126.694 152.917 131.713 151.254 134.466 145.81C138.474 137.887 140.658 130.047 140.774 121.353C140.862 114.713 139.709 105.065 133.603 100.65C131.884 99.4085 129.653 98.5169 127.587 97.5184C123.664 95.6214 123.201 91.237 125.04 88.3134C125.111 88.2031 125.184 88.0945 125.259 87.9894C125.342 87.8755 125.426 87.7634 125.517 87.6548C125.62 87.527 125.731 87.4043 125.846 87.2852C127.085 85.9995 128.899 85.2358 131.127 85.5353C134.088 85.9329 137.861 87.28 142.575 90.3559C142.618 90.3839 142.66 90.4119 142.706 90.4435C143.983 91.2895 145.123 92.2424 146.139 93.2864C147.073 94.2411 147.903 95.2711 148.639 96.3641C149.355 97.4221 149.984 98.5397 150.534 99.7028C154.279 107.62 155.432 116.51 154.863 125.373Z" fill="#73B7EA" stroke="#2E1E00" stroke-miterlimit="10" stroke-linecap="round" stroke-linejoin="round"/>
<path d="M88.0234 128.798C88.0234 128.798 90.8208 127.089 93.8495 128.332" stroke="#2E1E00" stroke-miterlimit="10" stroke-linecap="round" stroke-linejoin="round"/>
<path d="M111.908 130.273C111.908 130.273 109.111 128.563 106.082 129.807" stroke="#2E1E00" stroke-miterlimit="10" stroke-linecap="round" stroke-linejoin="round"/>
<path d="M99.9895 133.43C101.062 133.43 101.932 132.56 101.932 131.488C101.932 130.415 101.062 129.545 99.9895 129.545C98.9166 129.545 98.0469 130.415 98.0469 131.488C98.0469 132.56 98.9166 133.43 99.9895 133.43Z" fill="#2E1E00"/>
<path d="M102.102 136.101C102.102 136.101 105.16 135.995 105.936 133.018" stroke="#2E1E00" stroke-miterlimit="10" stroke-linecap="round" stroke-linejoin="round"/>
<path d="M92.3365 125.118C94.1497 124.445 95.3226 123.099 94.9562 122.112C94.5898 121.124 92.8228 120.868 91.0096 121.541C89.1964 122.214 88.0236 123.56 88.39 124.547C88.7564 125.535 90.5233 125.791 92.3365 125.118Z" fill="#2E1E00"/>
<path d="M113.034 126.257C113.401 125.269 112.228 123.923 110.415 123.25C108.601 122.578 106.835 122.833 106.468 123.821C106.102 124.809 107.275 126.155 109.088 126.827C110.901 127.5 112.668 127.244 113.034 126.257Z" fill="#2E1E00"/>
<path d="M79.0981 128.985L85.3392 133.018L77.9297 133.429L79.0981 128.985Z" fill="#2E1E00" stroke="#2E1E00" stroke-miterlimit="10" stroke-linecap="round" stroke-linejoin="round"/>
<path d="M77.636 135.188L87.4295 138.091L76.2031 141.072L77.636 135.188Z" fill="#2E1E00" stroke="#2E1E00" stroke-miterlimit="10" stroke-linecap="round" stroke-linejoin="round"/>
<path d="M122.261 131.969L115.109 133.987L122.07 136.56L122.261 131.969Z" fill="#2E1E00" stroke="#2E1E00" stroke-miterlimit="10" stroke-linecap="round" stroke-linejoin="round"/>
<path d="M122.07 138.186L111.859 138.459L121.935 144.238L122.07 138.186Z" fill="#2E1E00" stroke="#2E1E00" stroke-miterlimit="10" stroke-linecap="round" stroke-linejoin="round"/>
<path d="M75.5391 143.168C75.5391 143.168 92.588 163.503 122.018 145.734" stroke="#FEFFFA" stroke-miterlimit="10" stroke-linecap="round" stroke-linejoin="round"/>
<path d="M96.7266 156.552L96.8247 153.018" stroke="#FEFFFA" stroke-miterlimit="10" stroke-linecap="round" stroke-linejoin="round"/>
<path d="M99.767 162.619C100.247 163.554 99.8773 164.702 98.9419 165.182C98.1029 165.611 97.0957 165.36 96.5492 164.632C96.3968 164.807 96.2059 164.958 95.9869 165.07C95.0515 165.55 93.9042 165.18 93.4242 164.245C93.1404 163.693 93.1527 163.067 93.4032 162.549C93.2666 162.538 93.1282 162.51 92.9898 162.467C91.9878 162.144 91.4378 161.071 91.7601 160.07C92.0824 159.068 93.1545 158.52 94.1564 158.841C94.3333 158.898 94.498 158.979 94.6434 159.079C94.23 158.161 94.6066 157.07 95.5122 156.604C96.4476 156.124 97.5949 156.493 98.0749 157.429C98.2851 157.833 98.3324 158.28 98.2448 158.695C99.1679 158.256 100.284 158.629 100.755 159.547C101.235 160.484 100.865 161.631 99.9299 162.111C99.8003 162.178 99.6636 162.228 99.527 162.263C99.6198 162.369 99.7004 162.489 99.767 162.619Z" fill="#FEFFFA" stroke="#2E1E00" stroke-miterlimit="10" stroke-linecap="round" stroke-linejoin="round"/>
</g>
</svg>
