<svg width="88" height="88" viewBox="0 0 88 88" fill="none" xmlns="http://www.w3.org/2000/svg">
<path d="M8.35258e-06 88C5.77816 88 11.4997 86.8619 16.8381 84.6507C22.1764 82.4395 27.0269 79.1985 31.1127 75.1127C35.1984 71.0269 38.4395 66.1764 40.6507 60.8381C42.8619 55.4997 44 49.7782 44 44C44 38.2218 42.8619 32.5002 40.6507 27.1619C38.4395 21.8236 35.1984 16.9731 31.1127 12.8873C27.0269 8.80152 22.1764 5.5605 16.8381 3.3493C11.4997 1.13809 5.77816 -7.57712e-07 0 0L6.42926e-06 44L8.35258e-06 88Z" fill="black"/>
<path d="M88 88C82.2218 88 76.5002 86.8619 71.1619 84.6507C65.8236 82.4395 60.9731 79.1985 56.8873 75.1127C52.8015 71.0269 49.5605 66.1764 47.3493 60.8381C45.1381 55.4997 44 49.7782 44 44C44 38.2218 45.1381 32.5002 47.3493 27.1619C49.5605 21.8236 52.8016 16.9731 56.8873 12.8873C60.9731 8.80152 65.8236 5.5605 71.1619 3.3493C76.5003 1.13809 82.2218 -1.26285e-06 88 0L88 44L88 88Z" fill="black"/>
</svg>
