<svg width="32" height="32" viewBox="0 0 32 32" fill="none" xmlns="http://www.w3.org/2000/svg">
<path fill-rule="evenodd" clip-rule="evenodd" d="M16 32C24.8366 32 32 24.8366 32 16C32 7.16344 24.8366 0 16 0C7.16344 0 0 7.16344 0 16C0 24.8366 7.16344 32 16 32ZM13.4142 10.5858C12.6332 9.80474 11.3668 9.80474 10.5858 10.5858C9.80474 11.3668 9.80474 12.6332 10.5858 13.4142L13.1716 16L10.5858 18.5858C9.80474 19.3668 9.80474 20.6332 10.5858 21.4142C11.3668 22.1953 12.6332 22.1953 13.4142 21.4142L16 18.8284L18.5858 21.4142C19.3668 22.1953 20.6332 22.1953 21.4142 21.4142C22.1953 20.6332 22.1953 19.3668 21.4142 18.5858L18.8284 16L21.4142 13.4142C22.1953 12.6332 22.1953 11.3668 21.4142 10.5858C20.6332 9.80474 19.3668 9.80474 18.5858 10.5858L16 13.1716L13.4142 10.5858Z" fill="#FA6456"/>
</svg>
